<svg xmlns="http://www.w3.org/2000/svg" width="2438.133" height="2132.544" viewBox="0 0 25397.152 22213.943" id="svg2" clip-rule="evenodd" fill-rule="evenodd" image-rendering="optimizeQuality" shape-rendering="geometricPrecision" text-rendering="geometricPrecision"><defs id="defs4"><style id="style6"><![CDATA[
    .fil0 {fill:#35878E}
    .fil1 {fill:#35878E;fill-rule:nonzero}
   ]]></style></defs><g id="__x0023_Layer_x0020_1"><g id="_241367472" fill="#35878e"><path class="fil0" d="M5352.397 15029.943c-732 23-1445-73-2140-314-1893-658-3056-2161-3199-4155-181-2531 1489-4679 3984-5115 216-38 436-57 654-84 304 10 609 7 911 35 294 28 585 87 864 131 525-2759 1956-4727 4790-5403 2223-530 5194 689 6260 2469 347-52 690-124 1036-151 1776-140 3009 671 3388 2469 45 215 76 433 114 654 300 154 605 296 897 461 1200 680 2054 1641 2347 3018 320 1501 111 2915-884 4127-1012 1231-2334 1854-3941 1853-4943-2-9886 0-14829 0-84 0-168 4-253 6zm6595-9899v6248c468-468 901-903 1350-1352 367 805 732 1603 1101 2410 412-176 802-343 1208-516-396-800-784-1584-1186-2394h1923c-1468-1468-2933-2933-4395-4396z" id="path11"/><g id="g13" fill-rule="nonzero"><path class="fil1" d="M1042.397 17587.943c87-147 171-295 250-442s152-296 219-445h537c-119 233-241 459-368 677s-261 438-403 659v827h-487v-821c-142-221-276-441-404-662s-251-447-370-680h565c66 149 138 298 215 445s159 295 246 442z" id="path15"/><path class="fil1" d="M2643.397 17178.943c137 0 252 16 343 47 92 31 165 76 220 134s94 129 117 212 34 176 34 278v968c-67 15-159 32-278 52s-262 30-431 30c-106 0-202-9-289-28-86-19-161-49-223-92s-110-98-144-167c-33-69-50-153-50-253 0-96 19-177 58-243 38-67 90-120 155-159 64-40 138-68 222-86 83-18 170-27 259-27 60 0 114 3 161 8s85 12 114 20v-44c0-79-24-143-72-190-48-48-131-72-250-72-79 0-157 6-234 17s-144 28-200 48l-59-375c27-8 61-17 101-27 41-9 85-18 133-25s98-14 151-19 107-8 161-8zm37 1361c46 0 89-1 131-3s75-5 100-9v-353c-19-4-47-8-84-12s-72-6-103-6c-44 0-85 3-123 8-39 5-72 15-101 30s-52 34-69 59-25 56-25 94c0 73 24 123 73 151s116 42 201 42z" id="path17"/><path class="fil1" d="M5012.397 17534.943c-38 42-88 98-152 169s-132 149-205 234-147 175-221 268c-74 94-141 184-202 272h794v387h-1358v-275c44-75 96-156 158-242 61-86 126-173 194-261 68-87 135-172 201-254 67-82 128-157 184-223h-699v-387h1305v312z" id="path19"/><path class="fil1" id="polygon21" d="M5805.397 17222.943v1641h-465v-1641z"/><path class="fil1" d="M6898.397 18894.943c-135-2-245-17-329-44s-151-65-200-114-82-108-100-178-27-148-27-236v-1807l465-75v1788c0 42 3 79 9 112s18 61 36 84 43 42 76 56c33 15 78 24 134 28l-66 384z" id="path23"/><path class="fil1" id="polygon25" d="M7694.397 17222.943v1641h-466v-1641z"/><path class="fil1" d="M9032.397 17992.943c0-150-19-256-58-318s-105-94-198-94c-29 0-59 2-91 5-31 3-61 7-91 11v1267h-465v-1586c40-10 86-21 139-33 53-11 109-22 169-31 59-9 120-17 183-22 62-5 124-8 184-8 119 0 215 15 289 45s135 66 183 108c67-48 143-85 229-112s166-41 239-41c131 0 239 18 323 55 84 36 151 88 201 155s84 146 103 237c19 92 28 194 28 306v927h-465v-871c0-150-19-256-58-318s-105-94-198-94c-25 0-60 6-105 19-45 12-82 28-111 47 15 48 24 98 28 151s6 110 6 170v896h-465v-871z" id="path27"/><path class="fil1" d="M12019.397 18863.943c-107-208-215-452-324-730-110-279-214-583-312-911h493c21 81 45 169 74 264 28 95 57 190 88 287 30 97 61 191 91 282 30 92 60 175 89 250 27-75 56-158 88-250 31-92 62-186 92-282 30-97 60-192 88-287s53-183 74-264h481c-98 329-202 633-311 911-110 279-218 522-324 730h-386z" id="path29"/><path class="fil1" d="M13165.397 18055.943c0-146 22-273 67-382s103-200 176-273 157-128 251-165c95-37 192-56 292-56 233 0 417 71 552 214s203 352 203 629c0 27-1 57-3 89s-4 61-6 86h-1055c10 96 55 172 134 228s185 84 318 84c85 0 169-8 251-23 82-16 149-35 201-58l62 378c-25 12-58 25-100 37s-88 23-139 33c-51 9-106 17-164 23s-117 9-175 9c-148 0-276-22-385-66s-200-103-272-179-125-166-159-270-52-216-52-337zm1092-178c-2-40-9-78-20-115s-29-71-53-100-54-53-91-72c-36-19-82-28-136-28-52 0-97 9-134 27s-69 41-94 70-44 63-58 101c-14 39-23 78-30 117h615z" id="path31"/><path class="fil1" d="M16567.397 18891.943c-119 0-237-4-354-11-118-7-240-24-367-52v-2097c100-19 209-33 328-42s229-14 331-14c137 0 264 10 379 30s215 54 298 101c83 48 148 111 195 189s70 174 70 289c0 173-83 309-250 409 137 52 231 123 281 212s75 190 75 303c0 227-83 397-248 512-165 114-412 172-738 172zm-247-1342h237c150 0 257-19 321-58 64-38 97-100 97-186 0-87-33-149-100-184s-164-53-293-53c-42 0-86 1-134 2s-91 4-128 8v471zm0 371v559c35 4 74 7 115 9 42 2 87 3 137 3 146 0 263-21 353-62 89-42 134-119 134-231 0-100-37-171-112-214s-182-64-321-64h-306z" id="path33"/><path class="fil1" d="M18421.397 16747.943c0 85-28 152-83 201s-120 73-195 73-140-24-195-73-83-116-83-201 28-152 83-201 120-73 195-73 140 24 195 73 83 116 83 201zm-44 2116h-465v-1642h465v1642z" id="path35"/><path class="fil1" d="M19470.397 18894.943c-135-2-245-17-329-44s-151-65-200-114-82-108-100-178-27-148-27-236v-1807l465-75v1788c0 42 3 79 9 112s18 61 36 84 43 42 76 56c33 15 78 24 134 28l-66 384z" id="path37"/><path class="fil1" d="M20309.397 16747.943c0 85-28 152-83 201s-120 73-195 73-140-24-195-73-83-116-83-201 28-152 83-201 120-73 195-73 140 24 195 73 83 116 83 201zm-44 2116h-465v-1642h465v1642z" id="path39"/><path class="fil1" d="M21174.397 18529.943c85 0 146-8 181-25s53-49 53-97c0-37-23-70-69-98s-115-60-209-95c-73-27-139-55-198-84s-110-64-151-105c-42-41-74-89-97-145s-34-124-34-203c0-154 57-276 172-365 114-89 272-134 471-134 100 0 196 9 287 27 92 18 164 37 218 58l-81 362c-54-19-113-35-176-50s-135-22-214-22c-146 0-218 41-218 122 0 19 3 35 9 50s19 29 37 42c19 14 44 28 76 44s73 33 123 52c102 38 186 75 253 112s119 76 158 119c38 43 66 90 81 142 16 52 23 112 23 181 0 135-43 242-128 322s-207 131-365 154c-10 17-19 34-27 52-7 18-13 33-17 45 67 33 112 73 137 119s37 93 37 140c0 100-40 176-119 228s-183 78-312 78c-46 0-92-4-137-11-46-7-92-17-137-30l56-272c15 4 41 11 80 20 38 9 76 14 114 14 29 0 55-6 76-17 22-11 34-32 36-61 2-25-8-48-30-69s-57-36-105-47l-37-9c8-23 19-49 31-80 12-30 25-60 37-89-117-8-213-23-290-44s-132-38-165-53l78-378c79 31 160 56 243 73 83 18 165 27 247 27z" id="path41"/><path class="fil1" d="M22725.397 16747.943c0 85-28 152-83 201s-120 73-195 73-140-24-195-73-83-116-83-201 28-152 83-201 120-73 195-73 140 24 195 73 83 116 83 201zm-44 2116h-465v-1642h465v1642z" id="path43"/><path class="fil1" d="M24020.397 17992.943c0-150-19-256-58-318s-105-94-198-94c-29 0-59 2-91 5-31 3-61 7-91 11v1267h-465v-1586c40-10 86-21 139-33 53-11 109-22 169-31 59-9 120-17 183-22 62-5 124-8 184-8 119 0 215 15 289 45s135 66 183 108c67-48 143-85 229-112s166-41 239-41c131 0 239 18 323 55 84 36 151 88 201 155s84 146 103 237c19 92 28 194 28 306v927h-465v-871c0-150-19-256-58-318s-105-94-198-94c-25 0-60 6-105 19-45 12-82 28-111 47 15 48 24 98 28 151s6 110 6 170v896h-465v-871z" id="path45"/><path class="fil1" d="M9112.397 22172.943c-44-70-95-146-155-228s-124-164-192-247c-69-83-141-163-216-239s-150-143-225-202v916h-487v-2163h487v813c125-131 252-269 382-413 129-144 248-277 358-400h578c-147 175-295 344-444 506s-306 325-470 488c173 144 340 316 501 514s315 417 464 655h-579z" id="path47"/><path class="fil1" d="M11236.397 22116.943c-79 23-181 44-306 64s-256 30-393 30c-139 0-255-19-348-56s-166-90-220-158-93-148-115-242c-23-94-34-197-34-309v-915h465v858c0 150 20 258 59 325 40 67 113 100 222 100 33 0 69-2 106-5s71-7 100-11v-1267h465v1586z" id="path49"/><path class="fil1" d="M12328.397 22203.943c-135-2-245-17-329-44s-151-65-200-114-82-108-100-178-27-148-27-236v-1807l465-75v1788c0 42 3 79 9 112s18 61 36 84 43 42 76 56c33 15 78 24 134 28l-66 384z" id="path51"/><path class="fil1" d="M14061.397 22116.943c-79 23-181 44-306 64s-256 30-393 30c-139 0-255-19-348-56s-166-90-220-158-93-148-115-242c-23-94-34-197-34-309v-915h465v858c0 150 20 258 59 325 40 67 113 100 222 100 33 0 69-2 106-5s71-7 100-11v-1267h465v1586zm-1058-1823c-65 0-121-21-169-64s-72-100-72-173 24-131 72-173c48-43 104-64 169-64 64 0 121 21 169 64s72 100 72 173-24 131-72 173c-48 43-104 64-169 64zm696 0c-65 0-121-21-169-64s-72-100-72-173 24-131 72-173c48-43 104-64 169-64 64 0 121 21 169 64s72 100 72 173-24 131-72 173c-48 43-104 64-169 64z" id="path53"/><path class="fil1" d="M16024.397 21351.943c0 131-19 250-58 356s-94 197-167 272-162 133-268 173c-106 41-227 61-362 61-56 0-115-3-176-8s-122-12-181-20-116-18-170-30c-54-11-102-23-144-36v-2294l465-75v818c52-23 106-41 162-53s117-19 181-19c117 0 220 20 309 61s164 98 225 173c60 75 106 165 137 270s47 222 47 351zm-474-12c0-300-110-449-331-449-48 0-95 6-142 19-47 12-85 28-114 47v846c23 4 52 8 87 11s74 5 115 5c127 0 223-44 287-131s97-203 97-346z" id="path55"/><path class="fil1" d="M17784.397 22116.943c-79 23-181 44-306 64s-256 30-393 30c-139 0-255-19-348-56s-166-90-220-158-93-148-115-242c-23-94-34-197-34-309v-915h465v858c0 150 20 258 59 325 40 67 113 100 222 100 33 0 69-2 106-5s71-7 100-11v-1267h465v1586zm-1058-1823c-65 0-121-21-169-64s-72-100-72-173 24-131 72-173c48-43 104-64 169-64 64 0 121 21 169 64s72 100 72 173-24 131-72 173c-48 43-104 64-169 64zm696 0c-65 0-121-21-169-64s-72-100-72-173 24-131 72-173c48-43 104-64 169-64 64 0 121 21 169 64s72 100 72 173-24 131-72 173c-48 43-104 64-169 64z" id="path57"/></g></g></g></svg>