<svg xmlns="http://www.w3.org/2000/svg" viewBox="0 0 336.74677 105.89375" height="105.894" width="336.747"><defs><clipPath id="a"><path d="M188.827 665.61c-2.788-1.73-4.115-5.513-4.522-6.913 9.204-5.69 15.013-13.2 18.274-18.51 2.156-3.514 3.5-6.536 4.237-8.38.626 2.733.55 5.16.55 5.19-.29 16.126-5.558 27.342-13.748 29.294a7.2 7.2 0 0 1-1.678.208 5.797 5.797 0 0 1-3.115-.888m27.456-7.945c-4.546-4-5.138-15.602-5.364-19.972l-.043-.8c-.155-2.665.074-5.888.226-7.56 10.085 8.283 13.514 20.478 13.928 22.076-.58 6.912-4.793 7.538-4.96 7.56-.137.01-.27.013-.404.013-1.268 0-2.38-.43-3.383-1.318m-42.918-12.226c-.04-2.87 1.04-5.81 3.123-8.51 2.18-2.828 5.302-5.16 9.03-6.75 11.653-4.952 18.23-1.903 19.845-.95-7.265 17.8-21.192 25.932-23.274 27.072-5.556-2.274-8.65-6.123-8.725-10.863m50.498-3.108c-1.958-4.03-5.52-9.798-11.384-14.686 2.775-.55 8.677-.514 13.89 7.476 2.434 3.733 3.338 7.124 2.687 10.08-.455 2.082-1.61 3.494-2.43 4.278-.408-1.464-1.24-4.028-2.764-7.148m-10.167-18.684c2.973-2.63 9.09-9.325 12.562-22.18.832 1.084 2.035 2.92 2.664 5.175 1.145 4.12-.023 7.96-3.473 11.427-4.658 4.684-8.888 5.582-11.45 5.582-.104 0-.205 0-.304-.004m-30.643-6.82c-6.208-4.037-9.335-8.605-9.048-13.215.264-4.156 3.447-8.16 8.53-10.734 1.998 1.26 14.775 9.91 23.165 29.65-.76.23-2.297.586-4.52.586-4.004 0-10.226-1.156-18.127-6.288m28.4-.36l-.002-1.145c-.02-4.318-.08-15.8 4.105-19.958 1.034-1.03 2.24-1.527 3.68-1.515.04 0 .057 0 .08-.008h.036c.167-.027 4.08-.532 5.097 5.458-.506 1.946-4.55 16.617-12.58 23.06a36.65 36.65 0 0 1-.415-5.89m-18.17-18.542c-3.96-4.322-7.243-6.835-8.365-7.65.54-1.79 2.908-8.495 8.203-8.495 6.203 0 9.987 8.597 10.025 8.68 0 0 .01.028.016.035l.003.003c-.006-.01-.01-.016-.01-.02l.02.04-.01-.02c.3.655 7.32 16.122 4.023 29.602a73.532 73.532 0 0 0-13.904-22.174"/></clipPath><radialGradient id="b" spreadMethod="pad" gradientTransform="matrix(35.57373 0 0 -36.04538 201.356 624.14)" gradientUnits="userSpaceOnUse" r="1" cy="0" cx="0" fy="0" fx="0"><stop offset="0" stop-color="#74bb42"/><stop offset="1" stop-color="#007843"/></radialGradient></defs><g clip-path="url(#a)" transform="matrix(1.25 0 0 -1.25 -216.705 833.122)"><path d="M188.827 665.61c-2.788-1.73-4.115-5.513-4.522-6.913 9.204-5.69 15.013-13.2 18.274-18.51 2.156-3.514 3.5-6.536 4.237-8.38.626 2.733.55 5.16.55 5.19-.29 16.126-5.558 27.342-13.748 29.294a7.2 7.2 0 0 1-1.678.208 5.797 5.797 0 0 1-3.115-.888m27.456-7.945c-4.546-4-5.138-15.602-5.364-19.972l-.043-.8c-.155-2.665.074-5.888.226-7.56 10.085 8.283 13.514 20.478 13.928 22.076-.58 6.912-4.793 7.538-4.96 7.56-.137.01-.27.013-.404.013-1.268 0-2.38-.43-3.383-1.318m-42.918-12.226c-.04-2.87 1.04-5.81 3.123-8.51 2.18-2.828 5.302-5.16 9.03-6.75 11.653-4.952 18.23-1.903 19.845-.95-7.265 17.8-21.192 25.932-23.274 27.072-5.556-2.274-8.65-6.123-8.725-10.863m50.498-3.108c-1.958-4.03-5.52-9.798-11.384-14.686 2.775-.55 8.677-.514 13.89 7.476 2.434 3.733 3.338 7.124 2.687 10.08-.455 2.082-1.61 3.494-2.43 4.278-.408-1.464-1.24-4.028-2.764-7.148m-10.167-18.684c2.973-2.63 9.09-9.325 12.562-22.18.832 1.084 2.035 2.92 2.664 5.175 1.145 4.12-.023 7.96-3.473 11.427-4.658 4.684-8.888 5.582-11.45 5.582-.104 0-.205 0-.304-.004m-30.643-6.82c-6.208-4.037-9.335-8.605-9.048-13.215.264-4.156 3.447-8.16 8.53-10.734 1.998 1.26 14.775 9.91 23.165 29.65-.76.23-2.297.586-4.52.586-4.004 0-10.226-1.156-18.127-6.288m28.4-.36l-.002-1.145c-.02-4.318-.08-15.8 4.105-19.958 1.034-1.03 2.24-1.527 3.68-1.515.04 0 .057 0 .08-.008h.036c.167-.027 4.08-.532 5.097 5.458-.506 1.946-4.55 16.617-12.58 23.06a36.65 36.65 0 0 1-.415-5.89m-18.17-18.542c-3.96-4.322-7.243-6.835-8.365-7.65.54-1.79 2.908-8.495 8.203-8.495 6.203 0 9.987 8.597 10.025 8.68 0 0 .01.028.016.035l.003.003c-.006-.01-.01-.016-.01-.02l.02.04-.01-.02c.3.655 7.32 16.122 4.023 29.602a73.532 73.532 0 0 0-13.904-22.174" fill="url(#b)"/></g><path d="M232.076 73.403c-2.414 1.934-5.32 3.22-8.464 3.22-4.358 0-7.095-1.85-7.095-6.442 0-6.778 6.37-11.287 15.56-8.868v12.09zm9.677-19.35c0-12.015-5.356-15.886-16.966-15.886-4.595 0-8.355.92-12.545 2.776l-1.13 6.094a24.197 24.197 0 0 1 4.72-1.87c2.732-.77 5.61-1.113 8.425-1.113 8.22 0 7.82 6.452 7.82 12.662-11.293-3.47-25.644.885-25.315 14.675.16 7.818 5.885 11.93 13.062 12.09 4.915.082 9.077-1.857 12.464-5.323 0 0 .213 2.737.673 4.28h9.594c-.71-1.584-.8-6.536-.8-9.925V54.054zm-75.797 19.35c-2.417 1.934-5.318 3.22-8.468 3.22-4.354 0-7.097-1.85-7.097-6.442 0-6.778 6.373-11.287 15.566-8.868v12.09zm9.675-19.35c0-12.015-5.4-15.886-17.01-15.886-4.598 0-8.313.967-12.497 2.825l-1.13 6.045c3.948-2.09 8.62-2.983 13.143-2.983 8.22 0 7.82 6.452 7.82 12.662-11.29-3.47-25.65.885-25.322 14.675.165 7.818 5.89 11.93 13.065 12.09 4.92.082 9.03-1.857 12.42-5.323l.722 4.28h9.594c-.645-2.418-.805-6.536-.805-9.925V54.054zm-41.043-3.515l-19.804-.68c.424 1.646.774 4.48.893 7.178h8.138c.03.89.048 1.86.048 2.903v15.237c-2.498.965-5.475 1.446-9.105 1.446-6.935 0-12.035-2.33-15.904-6.85-3.954-4.515-5.886-10.717-5.886-18.46 0-7.1 2.18-12.984 6.53-17.58 4.354-4.515 9.53-6.85 16.14-6.85 5.16 0 10.246.966 15.08 2.904l1.542-7.748c-4.687-1.616-7.846-2.737-16.622-2.737-10.24 0-18.466 3.063-24.667 9.193C84.683 34.7 81.16 42.703 81.16 52.46c0 9.677 3.278 17.232 8.923 22.877 5.724 5.645 13.628 8.47 23.867 8.47 6.935 0 13.785-1.456 20.64-4.28-.483-1.848-.81-5.56-.81-11.04v-7.823c0-4.916.08-7.785.81-10.126m70.267-12.452c-4.28 0-7.987 2.26-10.97 6.775 0-3.303-.63-6.286-3.853-6.286-1.862 0-4.747 1.233-7.767 2.818 1.708.992 2.513 3.707 2.513 8.626v22.416c0 2.867 0 5.507-.155 7.56-.073.952-.176 1.778-.33 2.443h10.566c-.32-.738-.567-3.71-.567-10.08v-21.69c2.983-3.388 6.044-5 9.11-5 .968 0 1.693 0 2.414.084l1.377-7.42a10.918 10.918 0 0 0-2.336-.244m81.3 15.483c0-2.942-.202-5.338-.618-7.222-.284-1.26-.674-2.29-1.154-3.1-2.176-3.467-5.724-5.162-10.565-5.162-4.92 0-10.155 2.906-13.863 6.696-.083-3.46-.795-6.208-3.916-6.208-1.712 0-4.022.934-7.772 2.818 1.627 1.047 2.495 3.225 2.495 8.626v22.016c0 5.08-.083 8.623-.482 10.403h10.558c-.2-.89-.337-2.343-.434-4.173a150.365 150.365 0 0 1-.128-6.555V50.425c3.064-2.743 6.933-5.083 10.234-5.083 4.28 0 6.05 2.663 6.05 8.47v16.93c0 2.524 0 4.67-.03 6.46-.032 2.316-.042 4.36-.39 5.234h10.654c-.33-.793-.638-3.77-.638-10.89V53.57zm27.1 22.816c-3.705 0-5.646-2.255-5.646-6.855V45.26h10.97v-5.966h-10.97V28.17l-8.867.647-.724 10.4-6.688.804v5.24h6.688V69.21c0 4.84.725 8.222 2.096 10.074 2.01 2.66 5.16 4.033 9.594 4.033 3.633 0 7.507-1.047 11.536-3.146l-.81-5.643c-2.498 1.293-4.83 1.856-7.178 1.856m12.28 6.05h11.213c-.703-1.353-.81-5.645-.81-11.045V47.847c0-4.92.48-9.358-4.194-9.358-1.51 0-4.44 1.083-7.896 2.904 1.802 1.205 2.497 3.602 2.497 8.785v21.29c0 6.14-.033 9.534-.81 10.97m5.08-47.93c1.568 0 2.917-.473 4.028-1.664 1.102-1.1 1.654-2.447 1.654-4.026 0-1.66-.552-3.005-1.654-4.03-1.11-1.185-2.46-1.66-4.03-1.66-1.66 0-3.01.556-4.033 1.66a5.08 5.08 0 0 0-1.48 2.47 6.36 6.36 0 0 0-.187 1.56c0 1.58.56 2.925 1.666 4.026 1.022 1.11 2.373 1.663 4.033 1.663" fill="#231f20"/></svg>