<svg xmlns="http://www.w3.org/2000/svg" width="865346.759" height="223370.071" viewBox="0 0 22895.633 5909.9998" id="svg2" clip-rule="evenodd" fill-rule="evenodd" image-rendering="optimizeQuality" shape-rendering="geometricPrecision" text-rendering="geometricPrecision"><defs id="defs4"><style id="style6"><![CDATA[
    .fil0 {fill:#230F61}
    .fil1 {fill:#FF4400}
    .fil2 {fill:#FEFEFE;fill-rule:nonzero}
    .fil3 {fill:#FF4400;fill-rule:nonzero}
   ]]></style></defs><g id="Layer_x0020_1"><g id="_770549584"><path class="fil0" d="M423 0h19464c233 0 423 190 423 423v3808c0 233-190 423-423 423H423c-233 0-423-190-423-423V423C0 190 190 0 423 0z" id="path11" fill="#230f61"/><path class="fil1" d="M20773 1491c-130-35-233-120-294-230v553l1673 448c192 51 390-63 442-255l219-819c51-192-63-390-255-442l-1853-497c-78-21-157-14-226 14v533c104-187 325-287 541-230 255 68 406 330 338 585s-330 406-585 338zm-294 2239h139c67 0 122 55 122 122v442c0 67-55 122-122 122h-139v-104h75c41 0 41-62 0-62h-75v-76h75c41 0 41-62 0-62h-75v-76h75c41 0 41-62 0-62h-75v-76h75c41 0 41-62 0-62h-75v-104zm487 0h183l-670-180V1914l276 74c8 2 17 4 25 6l841 225c9 2 17 5 25 7l1110 297c98 19 155 150 136 217-18 67-28 64-53 86 26 20 38 54 30 87l-79 294c-7 25-24 44-45 54 13 37 12 88 4 117-8 30-13 37-23 53l28 8c28 8 45 37 38 65l-85 319c-8 28-37 45-65 38l-80-21c0 4 1 8 1 12v442c0 67-55 122-122 122h-1475c-67 0-122-55-122-122v-442c0-67 55-122 122-122zm1132 0h88c-11-13-16-31-12-49l85-319c8-28 37-45 65-38l28 7c0-19-1-27 7-57s33-74 62-100c-14-19-19-45-13-69l79-294c9-33 37-56 69-61l-643-172 194 992c12 61 7 113-10 158zm327 0h16c9 0 18 1 26 3l55-207c-7-1-13-3-20-4-7-2-13-4-20-6l-58 215zm-1396 104h509l231 62h-740c-41 0-41-62 0-62zm995 0h352c41 0 41 62 0 62h-470c42-11 83-32 117-62zm-995 138h1347c41 0 41 62 0 62h-1347c-41 0-41-62 0-62zm0 138h1347c41 0 41 62 0 62h-1347c-41 0-41-62 0-62zm0 138h1347c41 0 41 62 0 62h-1347c-41 0-41-62 0-62zm-311-2874c-38-10-73-28-102-50 1-1 2-1 3-2 53-31 71-99 41-152-31-53-99-71-152-41-2 1-4 3-7 4-7-40-5-82 6-124 42-159 206-253 364-210 159 43 253 206 210 364-42 159-206 253-364 210zm1107 297c-38-10-73-28-102-50 1-1 2-1 3-2 53-31 71-99 41-152-31-53-99-71-152-41-2 1-4 3-7 4-6-40-5-82 6-124 43-159 206-253 364-210 159 43 253 206 210 364-43 159-206 253-364 210zm925 922c57 15 91 74 75 130-15 57-74 91-130 75-57-15-91-74-75-130 15-57 74-91 130-75zm-624-1729c-255-68-517 83-585 338s83 517 338 585 517-83 585-338-83-517-338-585z" id="path13" fill="#f40"/><path class="fil2" d="M1269 3223h379v-494c0-319 155-472 407-472h20v-397c-225-10-349 110-427 294v-269h-379v1337zm1580 30c417 0 726-312 726-696v-5c0-384-307-691-721-691-417 0-726 312-726 696v5c0 384 307 691 721 691zm5-327c-210 0-352-172-352-369v-5c0-197 130-364 347-364 210 0 352 172 352 369v5c0 197-130 364-347 364zm1710 322c317 0 609-245 609-691v-5c0-447-297-691-609-691-197 0-324 92-417 217v-676h-379v1822h379v-175c90 107 215 200 417 200zm-97-322c-177 0-324-147-324-369v-5c0-222 147-369 324-369s327 147 327 369v5c0 225-150 369-327 369zm1560 327c417 0 726-312 726-696v-5c0-384-307-691-721-691-417 0-726 312-726 696v5c0 384 307 691 721 691zm5-327c-210 0-352-172-352-369v-5c0-197 130-364 347-364 210 0 352 172 352 369v5c0 197-130 364-347 364zm1365 319c127 0 220-30 299-77v-304c-55 30-117 47-187 47-85 0-122-42-122-130v-571h314v-324h-314v-342h-379v342h-160v324h160v634c0 309 157 402 389 402zm509-1507h399v-337h-399v337zm10 1485h379V1886h-379v1337zm1123 25c289 0 512-135 512-432v-5c0-245-217-334-404-397-145-50-272-85-272-160v-5c0-52 47-92 140-92 97 0 230 47 362 125l145-262c-145-97-329-155-499-155-269 0-489 152-489 424v5c0 260 212 347 399 402 147 45 277 72 277 155v5c0 60-50 100-160 100-125 0-277-55-422-160l-162 250c177 140 387 202 574 202zm1128-3c127 0 220-30 299-77v-304c-55 30-117 47-187 47-85 0-122-42-122-130v-571h314v-324h-314v-342h-379v342h-160v324h160v634c0 309 157 402 389 402zm881 3c185 0 312-67 404-170v145h367v-776c0-180-45-327-145-427-95-95-245-150-452-150-227 0-372 42-519 107l95 289c122-45 225-72 369-72 190 0 287 87 287 245v22c-95-32-192-55-327-55-317 0-539 135-539 427v5c0 264 207 409 459 409zm115-262c-122 0-207-60-207-162v-5c0-120 100-185 262-185 92 0 177 20 242 50v67c0 137-120 235-297 235zm901 237h379v-746c0-180 92-272 237-272s230 92 230 272v746h379v-866c0-307-167-497-454-497-192 0-304 102-392 215v-190h-379v1337zm1458 0h404v-399h-404v399zm1228 30c267 0 417-102 546-245l-222-225c-92 87-180 142-307 142-207 0-339-165-339-369v-5c0-197 135-364 324-364 135 0 220 57 304 147l232-250c-125-140-282-225-534-225-409 0-701 314-701 696v5c0 382 294 691 696 691zm1330 0c417 0 726-312 726-696v-5c0-384-307-691-721-691-417 0-726 312-726 696v5c0 384 307 691 721 691zm5-327c-210 0-352-172-352-369v-5c0-197 130-364 347-364 210 0 352 172 352 369v5c0 197-130 364-347 364zm914 297h379v-746c0-180 87-272 230-272 142 0 222 92 222 272v746h379v-746c0-180 87-272 230-272 142 0 222 92 222 272v746h379v-871c0-322-170-492-452-492-182 0-322 75-439 212-70-135-202-212-377-212-192 0-307 102-394 215v-190h-379v1337z" id="path15" fill="#fefefe" fill-rule="nonzero"/><path class="fil3" d="M2083 5029c0-6-2-9-8-9h-94c-9 0-14 6-17 17l-68 201c-1 3-2 6-2 7 0 6 5 10 11 10h109c9 0 16-5 18-17l50-201c1-3 1-6 1-8zm-202 0c0-6-2-9-8-9h-93c-9 0-13 6-17 17l-69 201c-1 3-2 6-2 7 0 6 5 10 11 10h109c9 0 16-5 18-17l50-201c1-3 1-6 1-8zm893 125v-95c0-10-9-17-19-17h-456c-10 0-18 7-18 17v95c0 10 8 17 18 17h150v535c0 10 8 18 18 18h120c10 0 18-8 18-18v-535h149c10 0 19-7 19-17zm664 552v-489c0-10-9-19-19-19h-111c-10 0-18 9-18 19v362c-31 17-60 29-86 29-56 0-68-21-68-85v-306c0-10-8-19-18-19h-111c-10 0-19 9-19 19v306c0 116 29 209 163 209 59 0 99-12 150-48v22c0 10 8 18 18 18h103c10 0 18-8 18-18zm-63-586v-85c0-10-10-18-20-18h-86c-10 0-19 8-19 18v85c0 10 9 18 19 18h86c10 0 20-8 20-18zm-199 0v-85c0-10-9-18-19-18h-86c-10 0-20 8-20 18v85c0 10 10 18 20 18h86c10 0 19-8 19-18zm814 176v-87c0-10-8-18-18-18-44 0-90 16-124 44v-18c0-10-8-18-18-18h-109c-10 0-18 8-18 18v489c0 10 9 19 19 19h111c10 0 18-9 18-19v-359c34-18 73-32 118-32h7c8 0 14-9 14-17zm685-88c0-6-6-10-14-10h-131c-7 0-17 3-24 14l-140 210v-384c0-10-8-18-18-18h-111c-10 0-19 8-19 18v667c0 10 9 19 19 19h111c10 0 18-9 18-19v-209l132 216c7 11 13 13 23 13h139c7 0 12-6 12-12 0-3 0-6-2-7l-170-255 171-232c3-4 4-6 4-9zm391-88v-85c0-10-8-18-18-18h-119c-10 0-18 8-18 18v85c0 10 8 18 18 18h119c10 0 18-8 18-18zm-4 586v-490c0-10-8-18-18-18h-112c-10 0-18 8-18 18v490c0 10 8 18 18 18h112c10 0 18-8 18-18zm735-491c0-9-8-17-17-17h-122c-10 0-17 8-19 17l-85 363h-9c-6 0-8-5-11-17l-83-345c-2-9-8-17-17-17h-122c-13 0-18 6-18 15 0 2 0 4 1 6l121 413c23 80 51 85 85 85h14l-8 28c-11 37-28 48-61 48-30 0-85-6-115-7h-2c-10 0-18 7-18 17v74c0 10 9 13 19 17 23 7 77 15 111 15 135 0 173-51 201-150l154-541c0-2 1-3 1-5zm655 271v-53c0-139-76-242-227-242-146 0-232 94-232 242v64c0 177 119 236 231 236 80 0 130-7 188-22 16-4 19-10 19-25v-70c0-10-7-15-17-15h-3c-37 4-118 8-176 8-73 0-95-48-95-100v-2h293c12 0 19-8 19-22zm-145-70h-167v-4c0-67 34-102 85-102s83 34 83 102v4zm550-386c0-6-5-10-11-10h-109c-9 0-16 5-18 17l-50 201c-1 3-1 6-1 8 0 6 2 9 8 9h93c9 0 13-6 17-17l69-201c1-3 2-6 2-7zm681 675v-306c0-116-29-209-163-209-59 0-99 12-150 48v-22c0-10-8-18-18-18h-103c-10 0-18 8-18 18v489c0 10 9 19 19 19h111c10 0 18-9 18-19v-362c31-17 60-29 86-29 56 0 68 21 68 85v306c0 10 8 19 18 19h111c10 0 19-9 19-19zm419-585v-85c0-10-8-18-18-18h-119c-10 0-18 8-18 18v85c0 10 8 18 18 18h119c10 0 18-8 18-18zm-4 586v-490c0-10-8-18-18-18h-112c-10 0-18 8-18 18v490c0 10 8 18 18 18h112c10 0 18-8 18-18zm718-1v-306c0-116-29-209-163-209-59 0-99 12-150 48v-22c0-10-8-18-18-18h-103c-10 0-18 8-18 18v489c0 10 9 19 19 19h111c10 0 18-9 18-19v-362c31-17 60-29 86-29 56 0 68 21 68 85v306c0 10 8 19 18 19h111c10 0 19-9 19-19zm1672 6v-637c0-19-14-32-33-32h-86c-19 0-32 9-40 25l-141 262c-4 7-6 12-10 12s-6-5-10-12l-141-262c-8-16-21-25-40-25h-86c-19 0-33 12-33 31v638c0 10 8 13 16 13h121c8 0 15-8 15-18v-383c0-6 3-7 5-7 3 0 5 2 7 6l83 152c6 11 16 16 28 16h73c12 0 21-5 28-16l83-152c3-5 5-6 7-6s5 1 5 7v383c0 10 6 18 15 18h121c7 0 16-3 16-13zm678-6v-328c0-134-83-187-215-187-61 0-125 11-159 19-11 3-17 10-17 20v74c0 12 7 17 17 17h5c28-3 94-6 152-6 43 0 69 11 69 63v33h-50c-157 0-226 48-226 155v8c0 119 77 158 157 158 55 0 92-16 128-41v15c0 10 8 18 18 18h103c10 0 18-8 18-18zm-146-106c-22 11-48 20-75 20-39 0-58-7-58-46v-8c0-45 17-67 81-67h52v101zm866-392c0-6-6-10-14-10h-131c-7 0-17 3-24 14l-140 210v-384c0-10-8-18-18-18h-111c-10 0-19 8-19 18v667c0 10 9 19 19 19h111c10 0 18-9 18-19v-209l132 216c7 11 13 13 23 13h139c7 0 12-6 12-12 0-3 0-6-2-7l-170-255 171-232c3-4 4-6 4-9zm644 277v-53c0-139-76-242-227-242-146 0-232 94-232 242v64c0 177 119 236 231 236 80 0 130-7 188-22 16-4 19-10 19-25v-70c0-10-7-15-17-15h-3c-37 4-118 8-176 8-73 0-95-48-95-100v-2h293c12 0 19-8 19-22zm-145-70h-167v-4c0-67 34-102 85-102s83 34 83 102v4zm683-119v-87c0-10-8-18-18-18-44 0-90 16-124 44v-18c0-10-8-18-18-18h-109c-10 0-18 8-18 18v489c0 10 9 19 19 19h111c10 0 18-9 18-19v-359c34-18 73-32 118-32h7c8 0 14-9 14-17zm1637 415v-637c0-19-14-32-33-32h-86c-19 0-32 9-40 25l-141 262c-4 7-6 12-10 12s-6-5-10-12l-141-262c-8-16-21-25-40-25h-86c-19 0-33 12-33 31v638c0 10 8 13 16 13h121c8 0 15-8 15-18v-383c0-6 3-7 5-7 3 0 5 2 7 6l83 152c6 11 16 16 28 16h73c12 0 21-5 28-16l83-152c3-5 5-6 7-6s5 1 5 7v383c0 10 6 18 15 18h121c7 0 16-3 16-13zm678-6v-328c0-134-83-187-215-187-61 0-125 11-159 19-11 3-17 10-17 20v74c0 12 7 17 17 17h5c28-3 94-6 152-6 43 0 69 11 69 63v33h-50c-157 0-226 48-226 155v8c0 119 77 158 157 158 55 0 92-16 128-41v15c0 10 8 18 18 18h103c10 0 18-8 18-18zm-146-106c-22 11-48 20-75 20-39 0-58-7-58-46v-8c0-45 17-67 81-67h52v101zm697-304v-87c0-10-8-18-18-18-44 0-90 16-124 44v-18c0-10-8-18-18-18h-109c-10 0-18 8-18 18v489c0 10 9 19 19 19h111c10 0 18-9 18-19v-359c34-18 73-32 118-32h7c8 0 14-9 14-17zm685-88c0-6-6-10-14-10h-131c-7 0-17 3-24 14l-140 210v-384c0-10-8-18-18-18h-111c-10 0-19 8-19 18v667c0 10 9 19 19 19h111c10 0 18-9 18-19v-209l132 216c7 11 13 13 23 13h139c7 0 12-6 12-12 0-3 0-6-2-7l-170-255 171-232c3-4 4-6 4-9zm644 277v-53c0-139-76-242-227-242-146 0-232 94-232 242v64c0 177 119 236 231 236 80 0 130-7 188-22 16-4 19-10 19-25v-70c0-10-7-15-17-15h-3c-37 4-118 8-176 8-73 0-95-48-95-100v-2h293c12 0 19-8 19-22zm-145-70h-167v-4c0-67 34-102 84-102 51 0 83 34 83 102v4zm685 291v-72c0-10-7-16-19-16h-45c-28 0-30-6-30-43v-267h75c10 0 18-8 18-18v-74c0-10-8-18-18-18h-75v-97c0-9-7-16-17-16h-3l-112 19c-10 2-18 8-18 18v75h-73c-10 0-19 9-19 19v61c0 10 9 17 19 19l73 12v266c0 130 53 157 154 157 27 0 45-3 73-7 11-2 17-9 17-18zm392-587v-85c0-10-8-18-18-18h-119c-10 0-18 8-18 18v85c0 10 8 18 18 18h119c10 0 18-8 18-18zm-4 586v-490c0-10-8-18-18-18h-112c-10 0-18 8-18 18v490c0 10 8 18 18 18h112c10 0 18-8 18-18zm625-676c0-6-5-10-11-10h-109c-9 0-16 5-18 17l-50 201c-1 3-1 6-1 8 0 6 2 9 8 9h93c9 0 13-6 17-17l69-201c1-3 2-6 2-7zm-202 0c0-6-5-10-11-10h-108c-9 0-16 5-18 17l-51 201c-1 3-1 6-1 8 0 6 2 9 8 9h94c9 0 14-6 17-17l68-201c1-3 2-6 2-7z" id="path17" fill="#f40" fill-rule="nonzero"/></g></g></svg>