<svg xmlns="http://www.w3.org/2000/svg" width="1900" height="500.2" viewBox="40.3 -0.1 1416.2 500.2"><path d="M106.77 316.1L-90.73 0h-54.5c-10.9 0-15.1 7.6-9.4 16.8l132.6 216.4.7 1.1 89.8 143.8 38.3-62zm30.5-49.3c5.7-9.2 5.7-24.3 0-33.6L3.27 16.7C-2.43 7.5-16.03-.1-26.83-.1h-55l193 308.9 26.1-42zM25.07 323l-110.6 177h58.8c10.8 0 24.4-7.5 30.1-16.8l53.5-86.5c.2-.3.6-1 1.5-2.4l5.6-9.1-38.9-62.2zm-47.1-56.2l-132.6 216.5c-5.7 9.3-1.4 16.8 9.4 16.8h50.7l115.1-184.2-38.6-61.9c-.5 4.8-1.8 9.3-4 12.8zM311.57 246.853h77.1v96.3c-20.9 7.2-44 10.8-69.1 10.8-27.5 0-48.8-8-63.9-24-15-16-22.6-38.7-22.6-68.3 0-28.8 8.2-51.3 24.7-67.4 16.5-16.1 39.5-24.1 69.2-24.1 11.2 0 21.9 1.1 31.8 3.2 10 2.1 18.7 4.8 26.1 8.1l-15.3 37.9c-12.9-6.4-27-9.5-42.4-9.5-14.1 0-25 4.6-32.7 13.8-7.7 9.2-11.6 22.3-11.6 39.3 0 16.7 3.5 29.4 10.5 38.2 7 8.8 17 13.1 30.1 13.1 7.2 0 13.8-.7 19.8-2.1v-28h-31.7v-37.3zm250.4 11.5c0 29.8-8.2 52.8-24.6 68.9-16.4 16.1-39.5 24.2-69.2 24.2h-57.8v-178.7h61.8c28.7 0 50.8 7.3 66.4 22 15.6 14.7 23.4 35.9 23.4 63.6zm-50.1 1.7c0-16.4-3.2-28.5-9.7-36.4-6.5-7.9-16.3-11.9-29.5-11.9h-14.1v100.1h10.8c14.7 0 25.4-4.3 32.3-12.8 6.8-8.5 10.2-21.5 10.2-39zm139.2-13.2h77.1v96.3c-20.9 7.2-44 10.8-69.1 10.8-27.5 0-48.8-8-63.9-24-15-16-22.6-38.7-22.6-68.3 0-28.8 8.2-51.3 24.7-67.4 16.5-16.1 39.5-24.1 69.2-24.1 11.2 0 21.9 1.1 31.8 3.2 10 2.1 18.7 4.8 26.1 8.1l-15.3 37.9c-12.9-6.4-27-9.5-42.4-9.5-14.1 0-25 4.6-32.7 13.8-7.7 9.2-11.6 22.3-11.6 39.3 0 16.7 3.5 29.4 10.5 38.2 7 8.8 17 13.1 30.1 13.1 7.2 0 13.8-.7 19.8-2.1v-28h-31.9v-37.3h.2z" fill="#757575"/><g style="line-height:125%;-inkscape-font-specification:'Open Sans, Normal';text-align:start" font-weight="400" font-size="245" font-family="Open Sans" letter-spacing="0" word-spacing="0" fill="#757575"><path d="M854.04 351.413v-196.02h18.145v196.02H854.04zM987.89 311.324q0 20.514-12.17 31.642-12.167 11.128-34.155 11.128-23.27 0-36.29-9.25v-20.65q8.43 5.364 18.038 8.448 9.713 3.084 18.68 3.084 13.875 0 21.347-5.497 7.472-5.632 7.472-17.03 0-8.58-5.978-14.613-5.87-6.168-23.055-14.48-16.332-7.643-23.27-13.274-6.832-5.765-10.247-13.005-3.31-7.24-3.31-17.296 0-17.966 11.635-28.29 11.635-10.458 31.915-10.458 18.893 0 36.932 9.654l-6.298 18.1q-17.612-9.117-31.915-9.117-12.595 0-19 4.96-6.404 4.962-6.404 13.677 0 5.9 2.35 10.056 2.454 4.156 7.79 7.91 5.338 3.754 20.494 10.86 20.815 9.52 28.073 19.173 7.365 9.654 7.365 24.268zM1054.388 335.726q4.696 0 9.073-.805 4.377-.937 6.94-1.876v17.028q-2.883 1.743-8.54 2.816-5.55 1.206-10.034 1.206-33.943 0-33.943-44.915v-87.42h-16.758v-10.725l16.758-9.25 7.472-31.375h10.247v34.056h33.943v17.295h-33.943v86.48q0 13.274 5.017 20.38 5.015 7.106 13.768 7.106zM1165.823 351.413l-3.522-20.916h-.853q-8.753 13.81-17.505 18.77-8.646 4.827-21.668 4.827-17.4 0-27.325-11.262-9.82-11.263-9.82-32.044 0-44.513 56.677-46.66l19.853-.803v-9.117q0-17.296-5.977-25.475-5.87-8.312-18.893-8.312-14.623 0-33.09 11.263l-5.443-17.028q8.646-5.9 18.893-9.25 10.354-3.353 20.708-3.353 20.92 0 30.954 11.665 10.14 11.664 10.14 37.407v100.29h-13.13zm-40.027-15.687q16.545 0 25.938-11.397 9.5-11.397 9.5-31.91v-13.274l-17.72.938q-21.134.94-30.527 8.313-9.286 7.24-9.286 22.66 0 12.066 5.765 18.367 5.87 6.302 16.33 6.302zM1295.617 351.413v-95.06q0-17.966-6.51-26.815-6.512-8.85-20.388-8.85-18.36 0-26.9 12.47-8.538 12.47-8.538 41.16v77.095h-17.72V204.466h14.41l2.883 20.11h.854q5.443-10.86 15.262-16.76 9.82-6.032 21.882-6.032 21.134 0 31.808 12.87 10.674 12.74 10.674 40.894v95.865h-17.72zM1404.064 202.052q23.055 0 35.757 19.843 12.81 19.71 12.81 55.91 0 36.2-12.916 56.312-12.808 19.977-35.65 19.977-11.42 0-20.92-5.23-9.394-5.362-15.798-16.356h-1.28l-3.737 18.905h-12.703V142.79h17.72v50.68q0 17.03-.855 30.57h.854q12.38-21.988 36.718-21.988zm-2.562 18.637q-18.146 0-26.15 13.138-8.006 13.006-8.006 43.977 0 30.972 8.22 44.38 8.217 13.273 26.363 13.273 16.33 0 24.335-14.883 8.006-15.016 8.006-43.038 0-28.692-8.005-42.77-8.005-14.078-24.763-14.078zM1500.342 204.466v95.327q0 17.967 6.51 26.816 6.512 8.848 20.388 8.848 18.36 0 26.792-12.603 8.54-12.604 8.54-41.162v-77.227h17.717v146.947h-14.624l-2.562-19.71h-.96q-5.444 10.86-15.157 16.626-9.607 5.764-21.988 5.764-21.35 0-32.023-12.737-10.567-12.737-10.567-40.76v-96.13h17.932zM1635.473 351.413h-17.718V142.79h17.718v208.623z" style="line-height:125%;-inkscape-font-specification:'Open Sans';text-align:start"/></g></svg>