<svg xmlns="http://www.w3.org/2000/svg" viewBox="0 0 1019.4547 247.06363" height="247.064" width="1019.455"><defs><clipPath id="a"><path d="M0 0h841.89v595.276H0V0z"/></clipPath><clipPath id="b"><path d="M0 0h841.89v595.276H0V0z"/></clipPath><clipPath id="c"><path d="M0 0h841.89v595.276H0V0z"/></clipPath><clipPath id="d"><path d="M0 0h841.89v595.276H0V0z"/></clipPath><clipPath id="e"><path d="M0 0h841.89v595.276H0V0z"/></clipPath><clipPath id="f"><path d="M0 0h841.89v595.276H0V0z"/></clipPath><clipPath id="g"><path d="M0 0h841.89v595.276H0V0z"/></clipPath><clipPath id="h"><path d="M634.84 277.27h6.368v4.2h-6.368v-4.2z"/></clipPath><clipPath id="i"><path d="M634.84 269.29h6.368v4.2h-6.368v-4.2z"/></clipPath><clipPath id="j"><path d="M615.12 278.375h5.845v3.883h-5.845v-3.883z"/></clipPath><clipPath id="k"><path d="M615.12 270.995h5.845v3.884h-5.845v-3.885z"/></clipPath><clipPath id="l"><path d="M595.257 299.417h6.2v3.884h-6.2v-3.883z"/></clipPath><clipPath id="m"><path d="M595.257 292.037h6.2v3.884h-6.2v-3.883z"/></clipPath><clipPath id="n"><path d="M0 0h841.89v595.276H0V0z"/></clipPath><clipPath id="o"><path d="M0 0h841.89v595.276H0V0z"/></clipPath><clipPath id="p"><path d="M0 0h841.89v595.276H0V0z"/></clipPath><clipPath id="q"><path d="M367.978 330.095h8.586c-.44 1.958-2.193 3.422-4.293 3.422-2.098 0-3.852-1.464-4.292-3.422"/></clipPath><clipPath id="r"><path d="M351.007 346.378h42.708V328.54h-42.708v17.838z"/></clipPath><clipPath id="s"><path d="M0 0h841.89v595.276H0V0z"/></clipPath><clipPath id="t"><path d="M382.75 330.095h8.585c-.44 1.958-2.193 3.422-4.293 3.422s-3.853-1.464-4.293-3.422"/></clipPath><clipPath id="u"><path d="M365.778 346.378h42.707V328.54h-42.707v17.838z"/></clipPath><clipPath id="v"><path d="M0 0h841.89v595.276H0V0z"/></clipPath><clipPath id="w"><path d="M479.164 319.895h8.586c-.44 1.958-2.194 3.423-4.293 3.423-2.1 0-3.854-1.465-4.293-3.423"/></clipPath><clipPath id="x"><path d="M462.192 336.13H504.9v-17.837h-42.708v17.838z"/></clipPath><clipPath id="y"><path d="M0 0h841.89v595.276H0V0z"/></clipPath><clipPath id="z"><path d="M462.368 336.65h8.586c-.44 1.96-2.194 3.424-4.293 3.424-2.1 0-3.852-1.465-4.292-3.424"/></clipPath><clipPath id="A"><path d="M445.397 352.965h42.707v-17.838h-42.707v17.838z"/></clipPath><clipPath id="B"><path d="M0 0h841.89v595.276H0V0z"/></clipPath><clipPath id="C"><path d="M372.27 317.895h16.816c-.86 4.828-4.295 8.44-8.407 8.44-4.114 0-7.547-3.612-8.41-8.44"/></clipPath><clipPath id="D"><path d="M0 0h841.89v595.276H0V0z"/></clipPath><clipPath id="E"><path d="M452.878 317.895h16.815c-.86 4.828-4.295 8.44-8.408 8.44-4.112 0-7.546-3.612-8.407-8.44"/></clipPath><clipPath id="F"><path d="M0 0h841.89v595.276H0V0z"/></clipPath><clipPath id="G"><path d="M0 0h841.89v595.276H0V0z"/></clipPath><clipPath id="H"><path d="M0 0h841.89v595.276H0V0z"/></clipPath><clipPath id="I"><path d="M0 0h841.89v595.276H0V0z"/></clipPath><clipPath id="J"><path d="M0 0h841.89v595.276H0V0z"/></clipPath><clipPath id="K"><path d="M0 0h841.89v595.276H0V0z"/></clipPath><clipPath id="L"><path d="M0 0h841.89v595.276H0V0z"/></clipPath><clipPath id="M"><path d="M391.693 282.456s-1.58 0-1.58-1.223v-4.543H394.648v4.542s0 1.223-1.58 1.223h-1.374z"/></clipPath><clipPath id="N"><path d="M0 0h841.89v595.276H0V0z"/></clipPath><clipPath id="O"><path d="M411.14 280.755s-1.58 0-1.58-1.223v-4.543h4.532V279.53s0 1.223-1.58 1.223h-1.373z"/></clipPath><clipPath id="P"><path d="M0 0h841.89v595.276H0V0z"/></clipPath><clipPath id="Q"><path d="M394.52 301.243s-1.63 0-1.63-1.67v-6.203h4.675v6.204s0 1.67-1.63 1.67h-1.416z"/></clipPath><clipPath id="R"><path d="M0 0h841.89v595.276H0V0z"/></clipPath><clipPath id="S"><path d="M403.043 301.243s-1.63 0-1.63-1.67v-6.203h4.677v6.204s0 1.67-1.63 1.67h-1.417z"/></clipPath><clipPath id="T"><path d="M0 0h841.89v595.276H0V0z"/></clipPath><clipPath id="U"><path d="M413.08 301.243s-1.63 0-1.63-1.67v-6.203h4.676v6.204s0 1.67-1.63 1.67h-1.417z"/></clipPath><clipPath id="V"><path d="M0 0h841.89v595.276H0V0z"/></clipPath><clipPath id="W"><path d="M438.517 301.243s-1.628 0-1.628-1.67v-6.203h4.672v6.204s0 1.67-1.628 1.67h-1.417z"/></clipPath><clipPath id="X"><path d="M0 0h841.89v595.276H0V0z"/></clipPath><clipPath id="Y"><path d="M447.2 301.243s-1.628 0-1.628-1.67v-6.203h4.676v6.204s0 1.67-1.63 1.67H447.2z"/></clipPath><clipPath id="Z"><path d="M0 0h841.89v595.276H0V0z"/></clipPath><clipPath id="aa"><path d="M420.38 280.755s-1.58 0-1.58-1.223v-4.543h4.535V279.53s0 1.223-1.58 1.223h-1.374z"/></clipPath><clipPath id="ab"><path d="M0 0h841.89v595.276H0V0z"/></clipPath><clipPath id="ac"><path d="M427.91 280.755s-1.578 0-1.578-1.223v-4.543h4.533V279.53s0 1.223-1.58 1.223h-1.375z"/></clipPath><clipPath id="ad"><path d="M0 0h841.89v595.276H0V0z"/></clipPath><clipPath id="ae"><path d="M436.297 280.755s-1.58 0-1.58-1.223v-4.543H439.25V279.53s0 1.223-1.58 1.223h-1.373z"/></clipPath><clipPath id="af"><path d="M0 0h841.89v595.276H0V0z"/></clipPath><clipPath id="ag"><path d="M460.598 282.715s-1.58 0-1.58-1.223v-4.542H463.553v4.542s0 1.223-1.58 1.223h-1.374z"/></clipPath><clipPath id="ah"><path d="M0 0h841.89v595.276H0V0z"/></clipPath><clipPath id="ai"><path d="M492.43 282.715s-1.58 0-1.58-1.223v-4.542H495.384v4.542s0 1.223-1.58 1.223h-1.374z"/></clipPath><clipPath id="aj"><path d="M0 0h841.89v595.276H0V0z"/></clipPath><clipPath id="ak"><path d="M522.548 282.715s-1.58 0-1.58-1.223v-4.542H525.503v4.542s0 1.223-1.58 1.223h-1.374z"/></clipPath><clipPath id="al"><path d="M0 0h841.89v595.276H0V0z"/></clipPath><clipPath id="am"><path d="M347.89 286.55h26.725c-1.368 6.097-6.826 10.656-13.362 10.656-6.537 0-11.995-4.56-13.363-10.655"/></clipPath><clipPath id="an"><path d="M330.98 310.45h61.103v-25.945H330.98v25.946z"/></clipPath><clipPath id="ao"><path d="M0 0h841.89v595.276H0V0z"/></clipPath><clipPath id="ap"><path d="M330.823 282.456s-1.432 0-1.432-1.223v-4.543H333.5v4.542s0 1.223-1.432 1.223h-1.245z"/></clipPath><clipPath id="aq"><path d="M0 0h841.89v595.276H0V0z"/></clipPath><clipPath id="ar"><path d="M361.05 282.456s-1.433 0-1.433-1.223v-4.543h4.109v4.542s0 1.223-1.432 1.223h-1.246z"/></clipPath><clipPath id="as"><path d="M0 0h841.89v595.276H0V0z"/></clipPath><clipPath id="at"><path d="M391.794 282.456s-1.68 0-1.68-1.223v-4.543h4.822v4.542s0 1.223-1.68 1.223h-1.462z"/></clipPath><clipPath id="au"><path d="M0 0h841.89v595.276H0V0z"/></clipPath><clipPath id="av"><path d="M317.663 286.55h26.725c-1.368 6.097-6.826 10.656-13.363 10.656-6.536 0-11.994-4.56-13.362-10.655"/></clipPath><clipPath id="aw"><path d="M300.752 310.45h61.104v-25.945h-61.104v25.946z"/></clipPath><clipPath id="ax"><path d="M0 0h841.89v595.276H0V0z"/></clipPath><clipPath id="ay"><path d="M379.1 286.55h26.724c-1.368 6.097-6.826 10.656-13.362 10.656-6.537 0-11.994-4.56-13.363-10.655"/></clipPath><clipPath id="az"><path d="M362.188 310.45h61.104v-25.945h-61.104v25.946z"/></clipPath><clipPath id="aA"><path d="M0 0h841.89v595.276H0V0z"/></clipPath><clipPath id="aB"><path d="M346.523 286.55h26.726c-1.37 6.097-6.828 10.656-13.364 10.656-6.536 0-11.995-4.56-13.363-10.655"/></clipPath><clipPath id="aC"><path d="M329.613 310.45h61.103v-25.945h-61.103v25.946z"/></clipPath><clipPath id="aD"><path d="M0 0h841.89v595.276H0V0z"/></clipPath><clipPath id="aE"><path d="M461.61 282.456s-1.432 0-1.432-1.223v-4.543H464.288v4.542s0 1.223-1.432 1.223h-1.246z"/></clipPath><clipPath id="aF"><path d="M0 0h841.89v595.276H0V0z"/></clipPath><clipPath id="aG"><path d="M491.836 282.456s-1.43 0-1.43-1.223v-4.543H494.513v4.542s0 1.223-1.432 1.223h-1.246z"/></clipPath><clipPath id="aH"><path d="M0 0h841.89v595.276H0V0z"/></clipPath><clipPath id="aI"><path d="M523.046 282.456s-1.432 0-1.432-1.223v-4.543h4.108v4.542s0 1.223-1.43 1.223h-1.246z"/></clipPath><clipPath id="aJ"><path d="M0 0h841.89v595.276H0V0z"/></clipPath><clipPath id="aK"><path d="M448.45 286.55h26.725c-1.368 6.097-6.826 10.656-13.363 10.656-6.536 0-11.994-4.56-13.362-10.655"/></clipPath><clipPath id="aL"><path d="M431.54 310.45h61.103v-25.945H431.54v25.946z"/></clipPath><clipPath id="aM"><path d="M0 0h841.89v595.276H0V0z"/></clipPath><clipPath id="aN"><path d="M509.886 286.55h26.726c-1.37 6.097-6.827 10.656-13.363 10.656-6.538 0-11.995-4.56-13.364-10.655"/></clipPath><clipPath id="aO"><path d="M492.975 310.45h61.104v-25.945h-61.105v25.946z"/></clipPath><clipPath id="aP"><path d="M0 0h841.89v595.276H0V0z"/></clipPath><clipPath id="aQ"><path d="M477.31 286.55h26.726c-1.37 6.097-6.826 10.656-13.363 10.656-6.536 0-11.995-4.56-13.363-10.655"/></clipPath><clipPath id="aR"><path d="M460.4 310.45h61.103v-25.945H460.4v25.946z"/></clipPath><clipPath id="aS"><path d="M0 0h841.89v595.276H0V0z"/></clipPath><clipPath id="aT"><path d="M406.09 286.552h36.85c-1.886 8.405-9.412 14.69-18.425 14.69-9.014 0-16.54-6.285-18.426-14.69"/></clipPath><clipPath id="aU"><path d="M389.212 314.815h71.373v-30.473h-71.373v30.473z"/></clipPath><clipPath id="aV"><path d="M0 0h841.89v595.276H0V0z"/></clipPath><clipPath id="aW"><path d="M400.836 325.048h42.2c-2.16 9.625-10.78 16.824-21.1 16.824-10.32 0-18.94-7.2-21.1-16.824"/></clipPath><clipPath id="aX"><path d="M383.976 355.795h76.8v-32.862h-76.8v32.862z"/></clipPath><clipPath id="aY"><path d="M0 0h841.89v595.276H0V0z"/></clipPath><clipPath id="aZ"><path d="M0 0h841.89v595.276H0V0z"/></clipPath><clipPath id="ba"><path d="M404.09 359.688h36.996c-1.895 7.51-9.45 13.126-18.498 13.126-9.048 0-16.603-5.617-18.497-13.126"/></clipPath><clipPath id="bb"><path d="M387.214 386.598h71.518V357.88h-71.518V386.6z"/></clipPath><clipPath id="bc"><path d="M0 0h841.89v595.276H0V0z"/></clipPath><clipPath id="bd"><path d="M0 0h841.89v595.276H0V0z"/></clipPath><clipPath id="be"><path d="M353.804 316.977h10.49c-.537 2.393-2.68 4.182-5.245 4.182-2.566 0-4.708-1.79-5.246-4.183"/></clipPath><clipPath id="bf"><path d="M336.84 334.02h44.637v-18.688H336.84v18.688z"/></clipPath><clipPath id="bg"><path d="M0 0h841.89v595.276H0V0z"/></clipPath><clipPath id="bh"><path d="M0 0h841.89v595.276H0V0z"/></clipPath><clipPath id="bi"><path d="M438.91 348.817h16.816c-.86 4.827-4.295 8.44-8.408 8.44-4.112 0-7.547-3.613-8.407-8.44"/></clipPath><clipPath id="bj"><path d="M0 0h841.89v595.276H0V0z"/></clipPath><clipPath id="bk"><path d="M0 0h841.89v595.276H0V0z"/></clipPath><clipPath id="bl"><path d="M379.416 349.023h10.698c-.548 3.07-2.732 5.368-5.35 5.368-2.615 0-4.8-2.296-5.348-5.367"/></clipPath><clipPath id="bm"><path d="M0 0h841.89v595.276H0V0z"/></clipPath><clipPath id="bn"><path d="M0 0h841.89v595.276H0V0z"/></clipPath><clipPath id="bo"><path d="M389.01 348.817h16.814c-.86 4.827-4.294 8.44-8.407 8.44-4.112 0-7.546-3.613-8.407-8.44"/></clipPath><clipPath id="bp"><path d="M0 0h841.89v595.276H0V0z"/></clipPath><clipPath id="bq"><path d="M0 0h841.89v595.276H0V0z"/></clipPath><clipPath id="br"><path d="M0 0h841.89v595.276H0V0z"/></clipPath><clipPath id="bs"><path d="M0 0h841.89v595.276H0V0z"/></clipPath><clipPath id="bt"><path d="M0 0h841.89v595.276H0V0z"/></clipPath><clipPath id="bu"><path d="M0 0h841.89v595.276H0V0z"/></clipPath><clipPath id="bv"><path d="M0 0h841.89v595.276H0V0z"/></clipPath><clipPath id="bw"><path d="M0 0h841.89v595.276H0V0z"/></clipPath><clipPath id="bx"><path d="M0 0h841.89v595.276H0V0z"/></clipPath><clipPath id="by"><path d="M0 0h841.89v595.276H0V0z"/></clipPath><clipPath id="bz"><path d="M0 0h841.89v595.276H0V0z"/></clipPath><clipPath id="bA"><path d="M0 0h841.89v595.276H0V0z"/></clipPath></defs><g clip-path="url(#a)" transform="matrix(1.25 0 0 -1.25 -20.37 536.81)"><path d="M75.876 322.864s-.006.542-.2 1.226h.2v6.13H71.18v-3.27h-5.287v3.27h-4.696v-3.27h-6.815v3.27h-4.696v-3.27H42.15v3.067h-4.697v-6.13h.133c-.066-.318-.133-.636-.133-1.023v-47.21s0-4.088 4.088-4.088H71.79s4.088 0 4.088 4.087v47.21z" fill="#dfd4cf"/></g><path d="M32.58 144.66h35.765v-3.068H32.58v3.067zM45.862 153.067h24.142V150H45.862v3.067zM40.978 168.14h27.366v-3.066H40.978v3.066zM32.578 171.482h33.21v-3.066H32.58v3.066z" fill="#a1948b"/><g clip-path="url(#b)" transform="matrix(1.25 0 0 -1.25 -20.37 536.81)"><path d="M137.53 322.864s-.006.542-.2 1.226h.2v6.13h-4.696v-3.27h-5.287v3.27h-4.696v-3.27h-6.814v3.27h-4.696v-3.27h-7.537v3.067h-4.696v-6.13h.133c-.066-.318-.133-.636-.133-1.023v-47.21s0-4.088 4.088-4.088h30.247s4.088 0 4.088 4.087v47.21z" fill="#dfd4cf"/></g><path d="M109.645 144.66h35.766v-3.068h-35.765v3.067zM122.93 153.067h24.14V150h-24.14v3.067zM118.045 168.14h27.366v-3.066h-27.365v3.066zM109.645 171.482h33.21v-3.066h-33.21v3.066z" fill="#a1948b"/><g clip-path="url(#c)" transform="matrix(1.25 0 0 -1.25 -20.37 536.81)"><path d="M118.318 306.13s-.006.365-.2.826h.2v4.13h-4.696v-2.202h-5.287v2.203h-4.696v-2.203h-6.816v2.203h-4.696v-2.203H84.59v2.066h-4.695v-4.132h.133c-.066-.213-.133-.427-.133-.688v-31.81s0-2.754 4.088-2.754h30.247s4.088 0 4.088 2.754v31.81z" fill="#dfd4cf"/></g><path d="M85.63 168.576h35.767v-3.066H85.63v3.066zM98.915 176.985h24.14v-3.066h-24.14v3.065zM94.03 192.057h27.367v-3.066H94.032v3.067zM85.63 195.4h33.212v-3.066h-33.21v3.066z" fill="#a1948b"/><path d="M698.416 111.384h1.553v-41.81h-1.554v41.81z" fill="#525574"/><g clip-path="url(#d)" transform="matrix(1.25 0 0 -1.25 -20.37 536.81)"><path d="M528.74 429.45s-1 0-1-1v-3.05s0-1 1-1h50.422s1 0 1 1v3.05s0 1-1 1h-50.42z" fill="#283583"/><path d="M511.892 425.842s-1 0-1-1v-3.05s0-1 1-1h76.632s1 0 1 1v3.05s0 1-1 1h-76.632zM506.275 418.267s-1 0-1-1v-3.05s0-1 1-1h76.632s1 0 1 1v3.05s0 1-1 1h-76.632zM534.732 410.034s-1 0-1-1v-3.05s0-1 1-1h76.632s1 0 1 1v3.05s0 1-1 1h-76.632z" fill="#283583"/><path d="M519.474 421.964s-1 0-1-1v-3.05s0-1 1-1h50.42s1 0 1 1v3.05s0 1-1 1h-50.42zM549.803 413.758s-1 0-1-1v-2.328s0-1 1-1h50.047s1 0 1 1v2.328s0 1-1 1h-50.047z" fill="#283583"/></g><path d="M722.984 15.29L687.88 92.323l1.41.644 35.106-77.03-1.412-.645z" fill="#525574"/><path d="M710.746 111.384h1.553V42.302h-1.554v69.082z" fill="#525574"/><g clip-path="url(#e)" transform="matrix(1.25 0 0 -1.25 -20.37 536.81)"><path d="M593.274 310.91s-6 0-6-6v-21.74s0-6 6-6h2.745s6 0 6 6v21.74s0 6-6 6h-2.746z" fill="#4b6a3d"/></g><path d="M720.53 185.534h1.164V171.75h-1.164v13.784zM725.014 168.097h1.163V150.33h-1.163v17.767z" fill="#b8bc76"/><path d="M726.176 163.034h1.163v-8.552h-1.164v8.552zM727.34 163.034h1.16v-8.552h-1.16v8.552z" fill="#b8bc76"/><path d="M727.92 166.77h1.162v-16.44h-1.163v16.44z" fill="#b8bc76"/><path d="M723.85 173.826h1.164V149.5h-1.163v24.326zM722.69 173.41h1.16v-19.343h-1.16v19.344z" fill="#9ca756"/><path d="M721.528 169.675h1.162V150.33h-1.163v19.345z" fill="#4b6a3d"/><path d="M721.528 171.004h1.162V151.66h-1.163v19.344z" fill="#4e5c3b"/><path d="M720.53 173.33h1.164v-21.09h-1.164v21.09zM719.367 184.205h1.163v-34.288h-1.163v34.288z" fill="#4e5c3b"/><path d="M722.69 199.48h1.16v-24.574h-1.16v24.575z" fill="#3b2b20"/><g clip-path="url(#f)" transform="matrix(1.25 0 0 -1.25 -20.37 536.81)"><path d="M746.965 310.91s-6 0-6-6v-21.74s0-6 6-6h2.745s6 0 6 6v21.74s0 6-6 6h-2.745z" fill="#4b6a3d"/></g><path d="M912.644 185.534h1.162V171.75h-1.162v13.784zM917.128 168.097h1.162V150.33h-1.162v17.767z" fill="#b8bc76"/><path d="M918.29 163.034h1.163v-8.552h-1.163v8.552z" fill="#b8bc76"/><path d="M919.45 163.034h1.165v-8.552h-1.164v8.552z" fill="#b8bc76"/><path d="M920.034 166.77h1.162v-16.44h-1.162v16.44z" fill="#b8bc76"/><path d="M915.965 173.826h1.163V149.5h-1.163v24.326zM914.803 173.41h1.162v-19.343h-1.163v19.344z" fill="#9ca756"/><path d="M913.64 169.675h1.164V150.33h-1.163v19.345z" fill="#4b6a3d"/><path d="M913.64 171.004h1.164V151.66h-1.163v19.344z" fill="#4e5c3b"/><path d="M912.644 173.33h1.162v-21.09h-1.162v21.09z" fill="#4e5c3b"/><path d="M911.482 184.205h1.163v-34.288h-1.163v34.288z" fill="#4e5c3b"/><path d="M914.803 199.48h1.162v-24.574h-1.163v24.575z" fill="#3b2b20"/><g clip-path="url(#g)" transform="matrix(1.25 0 0 -1.25 -20.37 536.81)"><path d="M789.154 312.493s-6 0-6-6v-21.74s0-6 6-6h2.745s6 0 6 6v21.74s0 6-6 6h-2.746z" fill="#4b6a3d"/></g><path d="M965.38 183.555h1.163v-13.783h-1.163v13.783zM969.863 166.12h1.163V148.35h-1.163v17.767z" fill="#b8bc76"/><path d="M971.026 161.055h1.163v-8.55h-1.164v8.55zM972.19 161.055h1.16v-8.55h-1.16v8.55z" fill="#b8bc76"/><path d="M972.77 164.79h1.16v-16.438h-1.16v16.44z" fill="#b8bc76"/><path d="M968.7 171.847h1.164v-24.325H968.7v24.325zM967.54 171.432h1.16V152.09h-1.16v19.342z" fill="#9ca756"/><path d="M966.376 167.696h1.163v-19.344h-1.164v19.344z" fill="#4b6a3d"/><path d="M966.376 169.025h1.163V149.68h-1.164v19.345z" fill="#4e5c3b"/><path d="M965.38 171.35h1.163v-21.088h-1.163v21.088zM964.217 182.226h1.163V147.94h-1.163v34.286z" fill="#4e5c3b"/><path d="M967.54 197.502h1.16v-24.575h-1.16v24.575z" fill="#3b2b20"/><path d="M761.424 177.575h21.928V157.63h-21.928v19.945z" fill="#d8d4b4"/><path d="M761.423 167.06h21.93v-2.673h-21.93v2.672z" fill="#aaa79b"/><path d="M760.29 157.63h24.196v-2.08H760.29v2.08z" fill="#ae1613"/><path d="M767.048 168.785h7.75v-3.78h-7.75v3.78z" fill="#aaa79b"/><path d="M767.048 168.785h2.346v-.634h-2.346v.635z" fill="#3b2b20"/><path d="M767.048 175.97h7.75v-3.783h-7.75v3.782z" fill="#aaa79b"/><path d="M767.048 175.97h2.346v-3.783h-2.346v3.782z" fill="#3b2b20"/><path d="M767.404 202.43h22.524v-27.695h-22.524v27.694z" fill="#b6d7c5"/><path d="M767.404 183.115h18.516v-2.776h-18.516v2.775z" fill="#c5e5eb"/><path d="M766.24 174.735h24.853v-2.888H766.24v2.888z" fill="#ae1613"/><path d="M773.18 190.222h7.96v-5.25h-7.96v5.25z" fill="#aaa79b"/><g clip-path="url(#h)" transform="matrix(1.25 0 0 -1.25 -20.37 536.81)"><path d="M630.428 268.21h3.436v13.836h-3.436V268.21z" fill="#3b2b20"/></g><path d="M773.18 200.197h7.96v-5.25h-7.96v5.25z" fill="#aaa79b"/><g clip-path="url(#i)" transform="matrix(1.25 0 0 -1.25 -20.37 536.81)"><path d="M630.428 268.21h3.436v13.836h-3.436V268.21z" fill="#3b2b20"/></g><path d="M743.23 200.13h20.67v-25.61h-20.67v25.61z" fill="#d7dcef"/><path d="M743.23 182.356h17.52v-2.567h-17.52v2.566z" fill="#cbd3df"/><path d="M742.16 174.52h22.81v-2.67h-22.81v2.67z" fill="#ae1613"/><path d="M748.53 188.84h7.308v-4.854h-7.307v4.855z" fill="#819085"/><g clip-path="url(#j)" transform="matrix(1.25 0 0 -1.25 -20.37 536.81)"><path d="M611.494 269.928h3.153v12.794h-3.153v-12.794z" fill="#3b2b20"/></g><path d="M748.53 198.066h7.308v-4.855h-7.307v4.856z" fill="#819085"/><g clip-path="url(#k)" transform="matrix(1.25 0 0 -1.25 -20.37 536.81)"><path d="M611.494 269.928h3.153v12.794h-3.153v-12.794z" fill="#3b2b20"/></g><path d="M718.077 173.826h21.93v-25.61h-21.93v25.61z" fill="#d7dcef"/><path d="M718.077 157.06h18.42v-2.57h-18.42v2.57z" fill="#cbd3df"/><path d="M716.944 148.215h24.197v-2.67h-24.196v2.67z" fill="#ae1613"/><path d="M723.702 162.54h7.752v-4.856h-7.75v4.855z" fill="#819085"/><g clip-path="url(#l)" transform="matrix(1.25 0 0 -1.25 -20.37 536.81)"><path d="M592.092 290.165h3.153v12.794h-3.153v-12.795z" fill="#3b2b20"/></g><path d="M723.702 171.764h7.752v-4.855h-7.75v4.854z" fill="#819085"/><g clip-path="url(#m)" transform="matrix(1.25 0 0 -1.25 -20.37 536.81)"><path d="M592.092 290.165h3.153v12.794h-3.153v-12.795z" fill="#3b2b20"/></g><path d="M919.875 181.582h12.332v-15.28h-12.332v15.28z" fill="#d7dcef"/><path d="M919.875 171.722h2.123v-1.532h-2.123v1.532z" fill="#cbd3df"/><path d="M919.236 166.3h13.61v-1.593h-13.61v1.594z" fill="#ae1613"/><path d="M923.038 174.846h4.358v-2.896h-4.358v2.896zM923.038 180.35h4.358v-2.895h-4.358v2.896z" fill="#819085"/><path d="M903.27 196.99h16.04v-19.873h-16.04v19.873z" fill="#d7dcef"/><path d="M903.27 183.34h6.6v-1.993h-6.6v1.993z" fill="#cbd3df"/><path d="M902.44 177.117h17.7v-2.072h-17.7v2.072z" fill="#ae1613"/><path d="M907.384 188.23h5.668v-3.766h-5.668v3.767zM907.384 195.39h5.668v-3.77h-5.668v3.77z" fill="#819085"/><path d="M718.46 195.98h29.29v-26.64h-29.29v26.64z" fill="#d8d4b4"/><path d="M718.46 177.65h27.397v-2.673H718.46v2.672z" fill="#aaa79b"/><path d="M716.944 169.34h32.32v-2.776h-32.32v2.777z" fill="#ae1613"/><path d="M725.97 184.24h10.352v-5.05H725.97v5.05z" fill="#aaa79b"/><path d="M725.97 184.24h1.737v-5.05h-1.736v5.05z" fill="#3b2b20"/><path d="M725.97 193.834h10.352v-5.05H725.97v5.05z" fill="#aaa79b"/><path d="M725.97 193.834h1.737v-5.05h-1.736v5.05z" fill="#3b2b20"/><g clip-path="url(#n)" transform="matrix(1.25 0 0 -1.25 -20.37 536.81)"><path d="M785.563 308.37s-.004.365-.135.826h.135v4.13H782.4v-2.203h-3.56v2.202h-3.163v-2.202h-4.59v2.202h-3.163v-2.202h-5.076v2.065h-3.163v-4.13h.09c-.045-.214-.09-.427-.09-.688v-31.796s0-2.753 2.753-2.753h20.372s2.753 0 2.753 2.754v31.796z" fill="#dfd4cf"/></g><path d="M933.366 159.045h24.09v-2.065h-24.09v2.065zM942.312 164.707h16.26v-2.065h-16.26v2.065zM939.023 174.86h18.43v-2.066h-18.43v2.065zM933.366 177.11h22.368v-2.065h-22.368v2.065z" fill="#a1948b"/><path d="M722.94 148.172h2.924V15.29h-2.925V148.17zM877.275 194.316h2.925V15.29h-2.925v179.026zM897.082 194.316h2.925V15.29h-2.925v179.026zM742.16 167.867h2.925V15.29h-2.925v152.577z" fill="#525574"/><path d="M699.023 115.17h251.42v-3.785h-251.42v3.785z" fill="#525574"/><path d="M685.038 194.316h47.02v-46.442h-47.02v46.442z" fill="#d2cdae"/><path d="M685.038 194.316h3.895v-46.442h-3.895v46.442zM723.886 194.316h7.318v-46.442h-7.318v46.442z" fill="#c3bda3"/><path d="M708.543 141.42l-23.51 6.455h47.02l-23.51-6.456z" fill="#cd1719"/><path d="M685.034 147.875h20.933v-5.75l-20.933 5.75z" fill="#ae1613"/><path d="M695.145 163.494h10.904V153.6h-10.905v9.894z" fill="#abd3cb"/><path d="M695.142 155.024v1.86l7.516 6.61h3.335l-1.336-8.68-9.515.21z" fill="#a5c3bb"/><path d="M695.146 163.494h10.172v-.314h-10.172v.314z" fill="#959e8d"/><path d="M695.145 175.365h10.904v-9.893h-10.905v9.893z" fill="#abd3cb"/><path d="M695.142 166.44v1.86l8.03 7.066h2.872v-.118l-1.387-9.016-9.515.21z" fill="#a5c3bb"/><path d="M695.146 175.365h10.172v-.768h-10.172v.768z" fill="#959e8d"/><path d="M695.145 187.235h10.904v-9.893h-10.905v9.893z" fill="#abd3cb"/><path d="M695.142 177.858v1.86l8.548 7.52h2.354v-.574l-1.387-9.016-9.515.21z" fill="#a5c3bb"/><path d="M695.146 187.235h10.172v-1.22h-10.172v1.22z" fill="#959e8d"/><path d="M711.16 163.494h10.904V153.6H711.16v9.894z" fill="#abd3cb"/><path d="M711.155 155.01v2.413l6.904 6.07h3.334l-1.335-8.68-8.905.197z" fill="#a5c3bb"/><path d="M711.16 163.494h9.557v-.314h-9.558v.314z" fill="#959e8d"/><path d="M711.16 175.365h10.904v-9.893H711.16v9.893z" fill="#abd3cb"/><path d="M711.155 166.427v2.413l7.42 6.526h2.89l-1.406-9.134-8.905.195z" fill="#a5c3bb"/><path d="M711.16 175.365h9.557v-.768h-9.558v.768z" fill="#959e8d"/><path d="M711.16 187.235h10.904v-9.893H711.16v9.893z" fill="#abd3cb"/><path d="M711.155 177.844v2.413l7.936 6.98h2.444l-1.475-9.59-8.905.197z" fill="#a5c3bb"/><path d="M711.16 187.235h9.557v-1.22h-9.558v1.22z" fill="#959e8d"/><path d="M725.864 27.764h17.758V25.7h-17.758v2.064zM880.2 27.764h17.76V25.7H880.2v2.064zM725.864 66.49h17.758v-2.064h-17.758v2.065zM880.2 66.49h17.76v-2.064H880.2v2.065zM932.59 111.384h1.55V88.81h-1.55v22.574zM922.715 111.384h1.552V67.336h-1.552v44.048zM916.383 111.384h1.552V54.01h-1.552v57.374zM910.05 111.384h1.553V40.496h-1.553v70.888zM904.252 111.384h1.553V28.04h-1.552v83.344z" fill="#525574"/><path d="M891.285 111.384h1.552V26.73h-1.552v84.654zM884.105 111.384h1.552V26.73h-1.552v84.654zM866.556 111.384h1.553V55.98h-1.554v55.404zM860.224 111.384h1.552V62.14h-1.552v49.244zM754.533 111.384h1.552V57.7h-1.552v53.684zM715.98 111.384h1.554V30.516h-1.553v80.868zM731.28 111.384h1.554V26.73h-1.553v84.654zM898.54 15.947l44.938 96.37 1.408-.658-44.938-96.37-1.407.657zM739.59 111.384h1.55V26.73h-1.55v84.654zM851.67 111.384h1.552V67.336h-1.552v44.048zM762.556 111.384h1.553V63.8h-1.554v47.584zM704.812 111.384h1.553V55.292h-1.553v56.092zM843.172 111.384h1.553V71.466h-1.553v39.918zM771.61 111.384h1.554V68.782h-1.553v42.602zM835.536 111.384h1.553V74.116h-1.554v37.268zM778.665 111.384h1.552V71.466h-1.552v39.918zM827.9 111.384h1.552V76.87H827.9v34.514zM786.967 111.384h1.553V74.116h-1.552v37.268zM795.635 111.384h1.552V76.87h-1.552v34.514zM818.544 111.384h1.552V77.866h-1.552v33.518zM803.27 111.384h1.554V77.866h-1.553v33.518zM811.768 111.384h1.552V78.796h-1.552v32.588z" fill="#525574"/><g clip-path="url(#o)" transform="matrix(1.25 0 0 -1.25 -20.37 536.81)"><path d="M596.567 400.495c-.023-.48-.055-.958-.055-1.442 0-25.227 31.03-45.678 69.31-45.678 38.278 0 69.31 20.45 69.31 45.678 0 .484-.033.962-.056 1.442-1.158-24.558-31.71-44.236-69.255-44.236-37.544 0-68.095 19.678-69.253 44.236" fill="#525574"/><path d="M610.246 406.067c-.018-.404-.044-.806-.044-1.213 0-21.232 24.42-38.443 54.542-38.443s54.542 17.212 54.542 38.444c0 .407-.026.81-.044 1.213-.91-20.668-24.953-37.23-54.498-37.23-29.545 0-53.587 16.562-54.498 37.23" fill="#525574"/><path d="M766.86 342.35s-1 0-1-1v-2.088s0-1 1-1h38.887s1 0 1 1v2.09s0 1-1 1H766.86z" fill="#283583"/><path d="M753.718 339.43s-1 0-1-1v-2.09s0-1 1-1h59.33s1 0 1 1v2.09s0 1-1 1h-59.33zM749.337 333.297s-1 0-1-1v-2.09s0-1 1-1h59.33s1 0 1 1v2.09s0 1-1 1h-59.33zM771.533 326.63s-1 0-1-1v-2.088s0-1 1-1h59.33s1 0 1 1v2.09s0 1-1 1h-59.33z" fill="#283583"/><path d="M759.632 336.29s-1 0-1-1v-2.088s0-1 1-1h38.887s1 0 1 1v2.09s0 1-1 1H759.63z" fill="#283583"/></g><path d="M957.486 124.753v4.38h50.742v-4.38h-50.742z" fill="#283583"/><path d="M451.216 125.704h105.02v-21.03h-105.02v21.03z" fill="#d3d0c4"/><path d="M435.8 153.1h140.336v-27.59H435.8v27.59z" fill="#d7dcef"/><path d="M562.9 160.256v4.872h43.938v-4.872h-43.94zM563.18 149.937v4.87h43.94v-4.87h-43.94zM546.947 136.305v4.87h43.94v-4.87h-43.94zM411.536 135.362v4.87h43.94v-4.87h-43.94z" fill="#b6b29d"/><path d="M563.18 155.18v4.872h55.663v-4.87H563.18zM537.168 130.228v4.87h55.663v-4.87H537.17zM422.5 129.672v4.87h55.663v-4.87H422.5zM565.357 143.46v4.87h55.663v-4.87h-55.663z" fill="#dad7c0"/><path d="M463.26 174.586h89.62v-16.39h-89.62v16.39z" fill="#aba4a3"/><path d="M463.26 157.82h89.62v-2.25h-89.62v2.25z" fill="#dad7c0"/><path d="M463.26 156.14h89.62v-2.665h-89.62v2.664z" fill="#525574"/><path d="M474.85 153.475h62.323v-2.664H474.85v2.665z" fill="#8d7d73"/><path d="M474.85 134.355h62.323v-2.25H474.85v2.25z" fill="#7d9ca2"/><path d="M474.85 150.81h62.323v-16.574H474.85v16.575z" fill="#d8d9d6"/><path d="M474.85 132.747h62.323V130.5H474.85v2.247z" fill="#82c0bf"/><path d="M480.408 88.054h54.913V87.2h-54.913v.854z" fill="#dad7c0"/><path d="M479.475 89.757h56.78v-1.705h-56.78v1.705z" fill="#9fa18d"/><path d="M479.475 104.675h56.78V91.527h-56.78v13.148z" fill="#d7d6ce"/><path d="M479.475 104.995h56.78v-1.705h-56.78v1.705z" fill="#9fa18d"/><path d="M479.475 91.462h56.78v-1.705h-56.78v1.705z" fill="#8d7d73"/><g clip-path="url(#p)" transform="matrix(1.25 0 0 -1.25 -20.37 536.81)"><path d="M376.565 330.094c-.44 1.958-2.193 3.423-4.293 3.423s-3.853-1.465-4.293-3.423h8.584z" fill="#525574"/></g><g clip-path="url(#q)" transform="matrix(1.25 0 0 -1.25 -20.37 536.81)"><path d="M372.41 326.982h4.154v6.603h-4.155v-6.603z" fill="#7878a0"/><g clip-path="url(#r)" opacity=".1" fill="#e0e0ea"><path d="M368.35 329.54h.11v2.89h-.11v-2.89zM368.804 329.54h.11v2.89h-.11v-2.89zM369.258 329.54h.11v2.89h-.11v-2.89zM369.712 329.54h.11v3.838h-.11v-3.838z"/><path d="M376.715 330.432h-8.707v-.11h8.707v.11zM376.715 331.04h-8.707v-.11h8.707v.11zM376.715 331.65h-8.707v-.112h8.707v.11zM376.715 332.258h-8.707v-.11h8.707v.11zM376.715 332.866h-8.707v-.11h8.707v.11z"/><path d="M370.166 329.54h.11v3.838h-.11v-3.838zM370.62 329.54h.11v3.838h-.11v-3.838zM371.074 329.54h.11v3.838h-.11v-3.838zM371.528 329.54h.11v3.838h-.11v-3.838zM372.093 329.54h.11v3.838h-.11v-3.838zM372.658 329.54h.11v3.838h-.11v-3.838zM373.223 329.54h.11v3.838h-.11v-3.838zM373.788 329.54h.11v3.838h-.11v-3.838zM374.43 329.54h.112v3.838h-.11v-3.838zM375.074 329.54h.11v3.838h-.11v-3.838zM375.717 329.54h.11v3.838h-.11v-3.838zM376.36 329.54h.112v3.838h-.11v-3.838z"/></g></g><path d="M439.913 136.304h10.113v-12.112h-10.114v12.112z" fill="#a39e8b"/><path d="M444.892 136.304h5.134v-12.112h-5.134v12.112z" fill="#aca796"/><path d="M445.826 129.16h2.014v-3.054h-2.014v3.053z" fill="#3b2b20"/><g clip-path="url(#s)" transform="matrix(1.25 0 0 -1.25 -20.37 536.81)"><path d="M391.335 330.094c-.44 1.958-2.193 3.423-4.293 3.423s-3.853-1.465-4.293-3.423h8.585z" fill="#525574"/></g><g clip-path="url(#t)" transform="matrix(1.25 0 0 -1.25 -20.37 536.81)"><path d="M387.18 326.982h4.155v6.603h-4.155v-6.603z" fill="#7878a0"/><g clip-path="url(#u)" opacity=".1" fill="#e0e0ea"><path d="M383.12 329.54h.112v2.89h-.11v-2.89zM383.575 329.54h.11v2.89h-.11v-2.89zM384.03 329.54h.11v2.89h-.11v-2.89zM384.482 329.54h.11v3.838h-.11v-3.838z"/><path d="M391.485 330.432h-8.707v-.11h8.707v.11zM391.485 331.04h-8.707v-.11h8.707v.11zM391.485 331.65h-8.707v-.112h8.707v.11zM391.485 332.258h-8.707v-.11h8.707v.11zM391.485 332.866h-8.707v-.11h8.707v.11z"/><path d="M384.936 329.54h.11v3.838h-.11v-3.838zM385.39 329.54h.11v3.838h-.11v-3.838zM385.844 329.54h.11v3.838h-.11v-3.838zM386.298 329.54h.11v3.838h-.11v-3.838zM386.863 329.54h.11v3.838h-.11v-3.838zM387.428 329.54h.11v3.838h-.11v-3.838zM387.994 329.54h.11v3.838h-.11v-3.838zM388.56 329.54h.11v3.838h-.11v-3.838zM389.202 329.54h.11v3.838h-.11v-3.838zM389.845 329.54h.11v3.838h-.11v-3.838zM390.488 329.54h.11v3.838h-.11v-3.838zM391.13 329.54h.112v3.838h-.11v-3.838z"/></g></g><path d="M458.376 136.304h10.114v-12.112h-10.114v12.112z" fill="#a39e8b"/><path d="M463.356 136.304h5.134v-12.112h-5.134v12.112z" fill="#aca796"/><path d="M464.29 129.16h2.014v-3.054h-2.014v3.053z" fill="#3b2b20"/><g clip-path="url(#v)" transform="matrix(1.25 0 0 -1.25 -20.37 536.81)"><path d="M487.75 319.895c-.44 1.958-2.193 3.423-4.293 3.423s-3.853-1.465-4.293-3.423h8.586z" fill="#525574"/></g><g clip-path="url(#w)" transform="matrix(1.25 0 0 -1.25 -20.37 536.81)"><path d="M483.594 316.735h4.155v6.603h-4.156v-6.603z" fill="#7878a0"/><g clip-path="url(#x)" opacity=".1" fill="#e0e0ea"><path d="M479.535 319.293h.11v2.89h-.11v-2.89zM479.99 319.293h.11v2.89h-.11v-2.89zM480.443 319.293h.11v2.89h-.11v-2.89zM480.897 319.293h.11v3.838h-.11v-3.837z"/><path d="M487.9 320.185h-8.707v-.11h8.707v.11zM487.9 320.793h-8.707v-.11h8.707v.11zM487.9 321.402h-8.707v-.11h8.707v.11zM487.9 322.01h-8.707v-.11h8.707v.11zM487.9 322.62h-8.707v-.112h8.707v.11z"/><path d="M481.35 319.293h.112v3.838h-.11v-3.837zM481.805 319.293h.11v3.838h-.11v-3.837zM482.26 319.293h.11v3.838h-.11v-3.837zM482.713 319.293h.11v3.838h-.11v-3.837zM483.278 319.293h.11v3.838h-.11v-3.837zM483.843 319.293h.11v3.838h-.11v-3.837zM484.408 319.293h.11v3.838h-.11v-3.837zM484.973 319.293h.11v3.838h-.11v-3.837zM485.616 319.293h.11v3.838h-.11v-3.837zM486.26 319.293h.11v3.838h-.11v-3.837zM486.903 319.293h.11v3.838h-.11v-3.837zM487.546 319.293h.11v3.838h-.11v-3.837z"/></g></g><path d="M578.894 149.052h10.113v-12.11h-10.113v12.11z" fill="#a39e8b"/><path d="M583.874 149.052h5.133v-12.11h-5.133v12.11z" fill="#aca796"/><path d="M584.808 141.907h2.013v-3.052h-2.013v3.052z" fill="#3b2b20"/><g clip-path="url(#y)" transform="matrix(1.25 0 0 -1.25 -20.37 536.81)"><path d="M470.954 336.65c-.44 1.96-2.193 3.424-4.293 3.424s-3.852-1.465-4.292-3.423h8.586z" fill="#525574"/></g><g clip-path="url(#z)" transform="matrix(1.25 0 0 -1.25 -20.37 536.81)"><path d="M466.798 333.568h4.155v6.603h-4.155v-6.602z" fill="#7878a0"/><g clip-path="url(#A)" opacity=".1" fill="#e0e0ea"><path d="M462.74 336.127h.11v2.89h-.11v-2.89zM463.193 336.127h.11v2.89h-.11v-2.89zM463.647 336.127h.11v2.89h-.11v-2.89zM464.1 336.127h.112v3.838h-.11v-3.838z"/><path d="M471.104 337.018h-8.707v-.11h8.707v.11zM471.104 337.627h-8.707v-.11h8.707v.11zM471.104 338.236h-8.707v-.11h8.707v.11zM471.104 338.844h-8.707v-.11h8.707v.11zM471.104 339.453h-8.707v-.11h8.707v.11z"/><path d="M464.555 336.127h.11v3.838h-.11v-3.838zM465.01 336.127h.11v3.838h-.11v-3.838zM465.463 336.127h.11v3.838h-.11v-3.838zM465.917 336.127h.11v3.838h-.11v-3.838zM466.482 336.127h.11v3.838h-.11v-3.838zM467.047 336.127h.11v3.838h-.11v-3.838zM467.612 336.127h.11v3.838h-.11v-3.838zM468.177 336.127h.11v3.838h-.11v-3.838zM468.82 336.127h.112v3.838h-.11v-3.838zM469.464 336.127h.11v3.838h-.11v-3.838zM470.107 336.127h.11v3.838h-.11v-3.838zM470.75 336.127h.11v3.838h-.11v-3.838z"/></g></g><path d="M557.9 128.11h10.112v-12.113H557.9v12.112z" fill="#a39e8b"/><path d="M562.88 128.107h5.134v-12.11h-5.134v12.11z" fill="#aca796"/><path d="M563.813 120.964h2.013v-3.053h-2.014v3.054z" fill="#3b2b20"/><g clip-path="url(#B)" transform="matrix(1.25 0 0 -1.25 -20.37 536.81)"><path d="M389.086 317.895c-.86 4.828-4.295 8.44-8.407 8.44-4.114 0-7.548-3.612-8.41-8.44h16.816z" fill="#886fae"/></g><g clip-path="url(#C)" transform="matrix(1.25 0 0 -1.25 -20.37 536.81)"><path d="M370.246 312.37h10.49v17.182h-10.49V312.37z" fill="#5f6f99"/></g><path d="M446.276 173.75h18.405v-34.31h-18.404v34.31z" fill="#aca796"/><path d="M446.275 173.75h9.204v-34.31h-9.205v34.31z" fill="#a39e8b"/><path d="M457.64 154.847h3.424v-7.207h-3.425v7.207z" fill="#3b2b20"/><path d="M446.19 143.22h18.406v-1.49H446.19v1.49z" fill="#626170"/><g clip-path="url(#D)" transform="matrix(1.25 0 0 -1.25 -20.37 536.81)"><path d="M469.693 317.895c-.86 4.828-4.295 8.44-8.407 8.44-4.113 0-7.547-3.612-8.408-8.44h16.815z" fill="#886fae"/></g><g clip-path="url(#E)" transform="matrix(1.25 0 0 -1.25 -20.37 536.81)"><path d="M450.853 312.37h10.49v17.182h-10.49V312.37z" fill="#5f6f99"/></g><path d="M547.034 173.75h18.405v-34.31h-18.406v34.31z" fill="#aca796"/><path d="M547.034 173.75h9.202v-34.31h-9.202v34.31z" fill="#a39e8b"/><path d="M558.396 154.847h3.425v-7.207h-3.424v7.207z" fill="#3b2b20"/><path d="M546.95 143.22h18.404v-1.49H546.95v1.49z" fill="#626170"/><path d="M388.005 160.256v4.872h43.94v-4.872h-43.94z" fill="#b6b29d"/><path d="M392.52 155.385v4.872h43.938v-4.872h-43.94z" fill="#dad7c0"/><path d="M399.916 178.62H657.41v-4.87H399.915v4.87z" fill="#f1ede4"/><g clip-path="url(#F)" transform="matrix(1.25 0 0 -1.25 -20.37 536.81)"><path d="M555.223 355.49s-13 0-13-13V301.4s0-13 13-13h3.456s13 0 13 13v41.09s0 13-13 13h-3.457z" fill="#4b6a3d"/></g><path d="M671.005 139.333v27.405h2.322v-27.405h-2.323zM679.96 96.74v35.33h2.323V96.74h-2.322zM682.283 104.994v17.004h2.322v-17.004h-2.322zM684.605 104.994v17.004h2.322v-17.004h-2.322z" fill="#b8bc76"/><path d="M685.766 96.74v32.687h2.322V96.74h-2.322z" fill="#b8bc76"/><path d="M677.64 95.09v48.37h2.32V95.09h-2.32zM675.317 104.17v38.465h2.322V104.17h-2.323z" fill="#9ca756"/><path d="M672.995 96.74v38.466h2.322V96.74h-2.322z" fill="#4b6a3d"/><path d="M672.995 99.38v38.468h2.322V99.38h-2.322z" fill="#4e5c3b"/><path d="M671.005 100.537v41.932h2.322v-41.933h-2.323z" fill="#4e5c3b"/><path d="M668.682 95.915v68.182h2.323V95.915h-2.323z" fill="#4e5c3b"/><path d="M675.317 145.606v48.867h2.322v-48.867h-2.323z" fill="#3b2b20"/><g clip-path="url(#G)" transform="matrix(1.25 0 0 -1.25 -20.37 536.81)"><path d="M529.283 352.67s-12 0-12-12v-38.456s0-12 12-12h3.42s12 0 12 12v38.457s0 12-12 12h-3.42z" fill="#4b6a3d"/></g><path d="M638.89 139.618v25.51h2.16v-25.51h-2.16zM647.227 99.968v32.888h2.16V99.968h-2.16zM649.39 107.652v15.83h2.16v-15.83h-2.16zM651.55 107.652v15.83h2.162v-15.83h-2.162z" fill="#b8bc76"/><path d="M652.63 99.968v30.43h2.162v-30.43h-2.16z" fill="#b8bc76"/><path d="M645.066 98.43v45.03h2.16V98.43h-2.16zM642.904 106.884v35.807h2.16v-35.806h-2.16z" fill="#9ca756"/><path d="M640.742 99.968v35.808h2.162V99.968h-2.162z" fill="#4b6a3d"/><path d="M640.742 102.427v35.807h2.162v-35.807h-2.162z" fill="#4e5c3b"/><path d="M638.89 103.503v39.035h2.16v-39.035h-2.16zM636.728 99.2v63.47h2.16V99.2h-2.16z" fill="#4e5c3b"/><path d="M642.904 145.458v45.49h2.16v-45.49h-2.16z" fill="#3b2b20"/><path d="M372.003 197.266H653.53V180.11H372.002v17.156z" fill="#c3cac3"/><path d="M434.045 149.05h8.665V39.63h-8.665v109.42z" fill="#dad7c0"/><path d="M441.297 92.956l4.89-5.068H430.56l4.89 5.068h5.847zM441.297 74.714l4.89-5.067H430.56l4.89 5.067h5.847zM441.297 59.136l4.89-5.067H430.56l4.89 5.066h5.847zM432.275 150.49h12.203v-1.44h-12.203v1.44z" fill="#b6b29d"/><path d="M432.275 169.594h12.203V150.49h-12.203v19.104z" fill="#dad7c0"/><path d="M438.373 12.404l-5.62 27.226h11.24l-5.62-27.226z" fill="#626170"/><g clip-path="url(#H)" transform="matrix(1.25 0 0 -1.25 -20.37 536.81)"><path d="M366.997 417.392c.686 0 1.243.554 1.243 1.237 0 .682-.557 1.236-1.243 1.236s-1.243-.554-1.243-1.237c0-.684.557-1.238 1.243-1.238" fill="#626170"/></g><path d="M399.654 164.595h8.075V62.625h-8.076v101.97z" fill="#dad7c0"/><path d="M406.412 112.32l4.557-4.723h-14.565l4.558 4.723h5.45zM406.412 95.32l4.557-4.723h-14.565l4.558 4.723h5.45zM406.412 80.803l4.557-4.723h-14.565l4.558 4.723h5.45zM398.005 165.938h11.373v-1.344h-11.373v1.344z" fill="#b6b29d"/><path d="M398.005 183.74h11.373v-17.803h-11.373v17.803z" fill="#dad7c0"/><path d="M403.687 37.252l-5.237 25.373h10.475l-5.238-25.373z" fill="#4c729f"/><g clip-path="url(#I)" transform="matrix(1.25 0 0 -1.25 -20.37 536.81)"><path d="M339.25 397.66c.64 0 1.157.515 1.157 1.152 0 .637-.518 1.153-1.158 1.153-.64 0-1.16-.516-1.16-1.153s.52-1.153 1.16-1.153" fill="#4c729f"/></g><path d="M571.804 149.05h8.665V39.63h-8.666v109.42z" fill="#dad7c0"/><path d="M579.056 92.956l4.89-5.068H568.32l4.89 5.068h5.846zM579.056 74.714l4.89-5.067H568.32l4.89 5.067h5.846zM579.056 59.136l4.89-5.067H568.32l4.89 5.066h5.846zM570.035 150.49h12.203v-1.44h-12.203v1.44z" fill="#b6b29d"/><path d="M570.035 169.594h12.203V150.49h-12.203v19.104z" fill="#dad7c0"/><path d="M576.132 12.404l-5.62 27.226h11.24l-5.62-27.226z" fill="#626170"/><g clip-path="url(#J)" transform="matrix(1.25 0 0 -1.25 -20.37 536.81)"><path d="M477.205 417.392c.686 0 1.243.554 1.243 1.237 0 .682-.557 1.236-1.243 1.236s-1.243-.554-1.243-1.237c0-.684.557-1.238 1.243-1.238" fill="#626170"/></g><path d="M620.11 164.595h8.076V62.625h-8.075v101.97z" fill="#dad7c0"/><path d="M626.87 112.32l4.557-4.723h-14.564l4.558 4.723h5.45zM626.87 95.32l4.557-4.723h-14.564l4.558 4.723h5.45zM626.87 80.803l4.557-4.723h-14.564l4.558 4.723h5.45zM618.462 165.938h11.373v-1.344h-11.373v1.344z" fill="#b6b29d"/><path d="M618.462 183.74h11.373v-17.803h-11.373v17.803z" fill="#dad7c0"/><path d="M624.145 37.252l-5.237 25.373h10.475l-5.238-25.373z" fill="#4c729f"/><g clip-path="url(#K)" transform="matrix(1.25 0 0 -1.25 -20.37 536.81)"><path d="M515.615 397.66c.64 0 1.158.515 1.158 1.152 0 .637-.518 1.153-1.158 1.153-.64 0-1.158-.516-1.158-1.153s.518-1.153 1.158-1.153" fill="#4c729f"/></g><path d="M345.34 192.397v4.87h31.364v-4.87H345.34zM651.25 192.397v4.87h31.362v-4.87H651.25z" fill="#b6b29d"/><g clip-path="url(#L)" transform="matrix(1.25 0 0 -1.25 -20.37 536.81)"><path d="M394.646 276.69v4.542s0 1.224-1.58 1.224h-1.373s-1.58 0-1.58-1.224v-4.542H394.648z" fill="#aaa79b"/></g><g clip-path="url(#M)" transform="matrix(1.25 0 0 -1.25 -20.37 536.81)"><path d="M389.38 281.818l6.68-6.018.685 6.242-7.365-.224z" fill="#504e4d"/></g><g clip-path="url(#N)" transform="matrix(1.25 0 0 -1.25 -20.37 536.81)"><path d="M414.092 274.99v4.539s0 1.225-1.58 1.225h-1.373s-1.58 0-1.58-1.224v-4.541h4.533z" fill="#aaa79b"/></g><g clip-path="url(#O)" transform="matrix(1.25 0 0 -1.25 -20.37 536.81)"><path d="M408.826 280.11l6.68-6.018.685 6.242-7.364-.224z" fill="#504e4d"/></g><g clip-path="url(#P)" transform="matrix(1.25 0 0 -1.25 -20.37 536.81)"><path d="M397.564 293.37v6.204s0 1.67-1.63 1.67h-1.416s-1.628 0-1.628-1.67v-6.202h4.675z" fill="#958f66"/></g><g clip-path="url(#Q)" transform="matrix(1.25 0 0 -1.25 -20.37 536.81)"><path d="M392.134 300.693l6.888-8.218.707 8.525-7.597-.307z" fill="#4d493b"/></g><g clip-path="url(#R)" transform="matrix(1.25 0 0 -1.25 -20.37 536.81)"><path d="M406.09 293.37v6.204s0 1.67-1.63 1.67h-1.417s-1.628 0-1.628-1.67v-6.202h4.675z" fill="#958f66"/></g><g clip-path="url(#S)" transform="matrix(1.25 0 0 -1.25 -20.37 536.81)"><path d="M400.658 300.693l6.888-8.218.707 8.525-7.595-.307z" fill="#4d493b"/></g><g clip-path="url(#T)" transform="matrix(1.25 0 0 -1.25 -20.37 536.81)"><path d="M416.125 293.37v6.204s0 1.67-1.63 1.67h-1.416s-1.63 0-1.63-1.67v-6.202h4.676z" fill="#958f66"/></g><g clip-path="url(#U)" transform="matrix(1.25 0 0 -1.25 -20.37 536.81)"><path d="M410.694 300.693l6.888-8.218.707 8.525-7.596-.307z" fill="#4d493b"/></g><g clip-path="url(#V)" transform="matrix(1.25 0 0 -1.25 -20.37 536.81)"><path d="M441.563 293.37v6.204s0 1.67-1.63 1.67h-1.416s-1.628 0-1.628-1.67v-6.202H441.563z" fill="#958f66"/></g><g clip-path="url(#W)" transform="matrix(1.25 0 0 -1.25 -20.37 536.81)"><path d="M436.132 300.693l6.888-8.218.707 8.525-7.595-.307z" fill="#4d493b"/></g><g clip-path="url(#X)" transform="matrix(1.25 0 0 -1.25 -20.37 536.81)"><path d="M450.247 293.37v6.204s0 1.67-1.63 1.67H447.2s-1.627 0-1.627-1.67v-6.202h4.676z" fill="#958f66"/></g><g clip-path="url(#Y)" transform="matrix(1.25 0 0 -1.25 -20.37 536.81)"><path d="M444.816 300.693l6.888-8.218.707 8.525-7.594-.307z" fill="#4d493b"/></g><g clip-path="url(#Z)" transform="matrix(1.25 0 0 -1.25 -20.37 536.81)"><path d="M423.334 274.99v4.539s0 1.225-1.58 1.225h-1.373s-1.578 0-1.578-1.224v-4.541h4.533z" fill="#aaa79b"/></g><g clip-path="url(#aa)" transform="matrix(1.25 0 0 -1.25 -20.37 536.81)"><path d="M418.068 280.11l6.68-6.018.685 6.242-7.365-.224z" fill="#504e4d"/></g><g clip-path="url(#ab)" transform="matrix(1.25 0 0 -1.25 -20.37 536.81)"><path d="M430.864 274.99v4.539s0 1.225-1.58 1.225h-1.373s-1.578 0-1.578-1.224v-4.541h4.533z" fill="#aaa79b"/></g><g clip-path="url(#ac)" transform="matrix(1.25 0 0 -1.25 -20.37 536.81)"><path d="M425.598 280.11l6.68-6.018.685 6.242-7.365-.224z" fill="#504e4d"/></g><g clip-path="url(#ad)" transform="matrix(1.25 0 0 -1.25 -20.37 536.81)"><path d="M439.25 274.99v4.539s0 1.225-1.58 1.225h-1.373s-1.58 0-1.58-1.224v-4.541H439.252z" fill="#aaa79b"/></g><g clip-path="url(#ae)" transform="matrix(1.25 0 0 -1.25 -20.37 536.81)"><path d="M433.984 280.11l6.68-6.018.685 6.242-7.366-.224z" fill="#504e4d"/></g><g clip-path="url(#af)" transform="matrix(1.25 0 0 -1.25 -20.37 536.81)"><path d="M463.55 276.95v4.542s0 1.224-1.578 1.224h-1.374s-1.58 0-1.58-1.224v-4.542H463.553z" fill="#aaa79b"/></g><g clip-path="url(#ag)" transform="matrix(1.25 0 0 -1.25 -20.37 536.81)"><path d="M458.286 282.08l6.68-6.02.685 6.243-7.364-.224z" fill="#504e4d"/></g><g clip-path="url(#ah)" transform="matrix(1.25 0 0 -1.25 -20.37 536.81)"><path d="M495.383 276.95v4.542s0 1.224-1.58 1.224h-1.373s-1.58 0-1.58-1.224v-4.542H495.385z" fill="#aaa79b"/></g><g clip-path="url(#ai)" transform="matrix(1.25 0 0 -1.25 -20.37 536.81)"><path d="M490.117 282.08l6.68-6.02.685 6.243-7.365-.224z" fill="#504e4d"/></g><g clip-path="url(#aj)" transform="matrix(1.25 0 0 -1.25 -20.37 536.81)"><path d="M525.5 276.95v4.542s0 1.224-1.578 1.224h-1.374s-1.58 0-1.58-1.224v-4.542H525.503z" fill="#aaa79b"/></g><g clip-path="url(#ak)" transform="matrix(1.25 0 0 -1.25 -20.37 536.81)"><path d="M520.235 282.08l6.68-6.02.685 6.243-7.365-.224z" fill="#504e4d"/></g><g clip-path="url(#al)" transform="matrix(1.25 0 0 -1.25 -20.37 536.81)"><path d="M374.615 286.55c-1.368 6.097-6.826 10.656-13.363 10.656-6.536 0-11.994-4.56-13.362-10.655h26.725z" fill="#886fae"/></g><g clip-path="url(#am)" transform="matrix(1.25 0 0 -1.25 -20.37 536.81)"><path d="M361.68 277.54h12.936v20.553H361.68V277.54z" fill="#8195a8"/><g clip-path="url(#an)" opacity=".1" fill="#e0e0ea"><path d="M349.046 285.505h.346v8.992h-.346v-8.992zM350.46 285.505h.345v8.992h-.346v-8.992zM351.872 285.505h.346v8.992h-.346v-8.992zM353.285 285.505h.346v11.946h-.345v-11.945z"/><path d="M375.082 288.28h-27.104v-.347h27.104v.346zM375.082 290.174h-27.104v-.346h27.104v.346zM375.082 292.068h-27.104v-.346h27.104v.346zM375.082 293.962h-27.104v-.346h27.104v.346zM375.082 295.857h-27.104v-.346h27.104v.347z"/><path d="M354.698 285.505h.346v11.946h-.346v-11.945zM356.11 285.505h.347v11.946h-.346v-11.945zM357.524 285.505h.346v11.946h-.346v-11.945zM358.937 285.505h.346v11.946h-.346v-11.945zM360.696 285.505h.346v11.946h-.346v-11.945zM362.455 285.505h.346v11.946h-.345v-11.945zM364.214 285.505h.346v11.946h-.346v-11.945zM365.973 285.505h.346v11.946h-.347v-11.945zM367.975 285.505h.346v11.946h-.345v-11.945zM369.977 285.505h.346v11.946h-.346v-11.945zM371.98 285.505h.345v11.946h-.346v-11.945zM373.98 285.505h.347v11.946h-.346v-11.945z"/></g></g><path d="M380.106 180.327h30.864v12.747l-30.573-12.535" fill="#afb5ad"/><g clip-path="url(#ao)" transform="matrix(1.25 0 0 -1.25 -20.37 536.81)"><path d="M333.5 276.69v4.542s0 1.224-1.432 1.224h-1.246s-1.43 0-1.43-1.224v-4.542H333.5z" fill="#aaa79b"/></g><g clip-path="url(#ap)" transform="matrix(1.25 0 0 -1.25 -20.37 536.81)"><path d="M327.808 281.818l6.68-6.018.685 6.242-7.365-.224z" fill="#504e4d"/></g><path d="M372.003 183.74h38.97v-3.415h-38.97v3.415z" fill="#a1c6ce"/><path d="M377.886 181.107l.32.215 6.48 2.42h26.283v-2.635h-33.084z" fill="#7d9ca2"/><path d="M417.89 180.327h30.864v12.747L418.18 180.54" fill="#afb5ad"/><g clip-path="url(#aq)" transform="matrix(1.25 0 0 -1.25 -20.37 536.81)"><path d="M363.727 276.69v4.542s0 1.224-1.432 1.224h-1.246s-1.432 0-1.432-1.224v-4.542h4.109z" fill="#aaa79b"/></g><g clip-path="url(#ar)" transform="matrix(1.25 0 0 -1.25 -20.37 536.81)"><path d="M358.035 281.818l6.68-6.018.685 6.242-7.365-.224z" fill="#504e4d"/></g><path d="M410.974 183.74h37.784v-3.415h-37.784v3.415z" fill="#a1c6ce"/><path d="M418.242 181.107l.298.215 5.987 2.42h24.226v-2.635h-30.51z" fill="#7d9ca2"/><path d="M456.902 180.327h30.864v12.747l-30.573-12.535" fill="#afb5ad"/><g clip-path="url(#as)" transform="matrix(1.25 0 0 -1.25 -20.37 536.81)"><path d="M394.937 276.69v4.542s0 1.224-1.68 1.224h-1.462s-1.68 0-1.68-1.224v-4.542h4.822z" fill="#aaa79b"/></g><g clip-path="url(#at)" transform="matrix(1.25 0 0 -1.25 -20.37 536.81)"><path d="M389.245 281.818l6.68-6.018.685 6.242-7.365-.224z" fill="#504e4d"/></g><path d="M448.758 183.74h90.372v-3.415h-90.372v3.415z" fill="#a1c6ce"/><path d="M457.1 181.107l.283.215 5.734 2.42h24.12v-2.635H457.1z" fill="#7d9ca2"/><g clip-path="url(#au)" transform="matrix(1.25 0 0 -1.25 -20.37 536.81)"><path d="M344.388 286.55c-1.368 6.097-6.826 10.656-13.363 10.656-6.536 0-11.994-4.56-13.362-10.655h26.725z" fill="#886fae"/></g><g clip-path="url(#av)" transform="matrix(1.25 0 0 -1.25 -20.37 536.81)"><path d="M331.454 277.54h12.935v20.553h-12.936V277.54z" fill="#8195a8"/><g clip-path="url(#aw)" opacity=".1" fill="#e0e0ea"><path d="M318.82 285.505h.345v8.992h-.346v-8.992zM320.232 285.505h.346v8.992h-.346v-8.992zM321.645 285.505h.346v8.992h-.345v-8.992zM323.058 285.505h.346v11.946h-.346v-11.945z"/><path d="M344.856 288.28h-27.104v-.347h27.104v.346zM344.856 290.174h-27.104v-.346h27.104v.346zM344.856 292.068h-27.104v-.346h27.104v.346zM344.856 293.962h-27.104v-.346h27.104v.346zM344.856 295.857h-27.104v-.346h27.104v.347z"/><path d="M324.47 285.505h.347v11.946h-.346v-11.945zM325.884 285.505h.346v11.946h-.346v-11.945zM327.297 285.505h.346v11.946h-.346v-11.945zM328.71 285.505h.346v11.946h-.346v-11.945zM330.47 285.505h.345v11.946h-.346v-11.945zM332.228 285.505h.346v11.946h-.346v-11.945zM333.987 285.505h.346v11.946h-.346v-11.945zM335.746 285.505h.346v11.946h-.346v-11.945zM337.748 285.505h.346v11.946h-.346v-11.945zM339.75 285.505h.346v11.946h-.346v-11.945zM341.752 285.505h.346v11.946h-.346v-11.945zM343.754 285.505h.346v11.946h-.346v-11.945z"/></g></g><g clip-path="url(#ax)" transform="matrix(1.25 0 0 -1.25 -20.37 536.81)"><path d="M405.825 286.55c-1.368 6.097-6.826 10.656-13.363 10.656-6.536 0-11.994-4.56-13.362-10.655h26.725z" fill="#886fae"/></g><g clip-path="url(#ay)" transform="matrix(1.25 0 0 -1.25 -20.37 536.81)"><path d="M392.89 277.54h12.935v20.553H392.89V277.54z" fill="#8195a8"/><g clip-path="url(#az)" opacity=".1" fill="#e0e0ea"><path d="M380.255 285.505h.346v8.992h-.345v-8.992zM381.668 285.505h.346v8.992h-.346v-8.992zM383.08 285.505h.347v8.992h-.346v-8.992zM384.494 285.505h.346v11.946h-.346v-11.945z"/><path d="M406.292 288.28h-27.104v-.347h27.104v.346zM406.292 290.174h-27.104v-.346h27.104v.346zM406.292 292.068h-27.104v-.346h27.104v.346zM406.292 293.962h-27.104v-.346h27.104v.346zM406.292 295.857h-27.104v-.346h27.104v.347z"/><path d="M385.907 285.505h.346v11.946h-.346v-11.945zM387.32 285.505h.346v11.946h-.346v-11.945zM388.733 285.505h.346v11.946h-.347v-11.945zM390.146 285.505h.346v11.946h-.346v-11.945zM391.905 285.505h.346v11.946h-.345v-11.945zM393.664 285.505h.346v11.946h-.346v-11.945zM395.423 285.505h.346v11.946h-.347v-11.945zM397.182 285.505h.346v11.946h-.346v-11.945zM399.184 285.505h.346v11.946h-.346v-11.945zM401.186 285.505h.346v11.946h-.346v-11.945zM403.188 285.505h.346v11.946h-.346v-11.945zM405.19 285.505h.346v11.946h-.346v-11.945z"/></g></g><g clip-path="url(#aA)" transform="matrix(1.25 0 0 -1.25 -20.37 536.81)"><path d="M373.25 286.55c-1.37 6.097-6.827 10.656-13.364 10.656-6.536 0-11.994-4.56-13.362-10.655h26.725z" fill="#886fae"/></g><g clip-path="url(#aB)" transform="matrix(1.25 0 0 -1.25 -20.37 536.81)"><path d="M360.314 277.54h12.935v20.553h-12.936V277.54z" fill="#8195a8"/><g clip-path="url(#aC)" opacity=".1" fill="#e0e0ea"><path d="M347.68 285.505h.346v8.992h-.346v-8.992zM349.093 285.505h.346v8.992h-.347v-8.992zM350.505 285.505h.346v8.992h-.345v-8.992zM351.918 285.505h.346v11.946h-.346v-11.945z"/><path d="M373.716 288.28h-27.104v-.347h27.104v.346zM373.716 290.174h-27.104v-.346h27.104v.346zM373.716 292.068h-27.104v-.346h27.104v.346zM373.716 293.962h-27.104v-.346h27.104v.346zM373.716 295.857h-27.104v-.346h27.104v.347z"/><path d="M353.33 285.505h.347v11.946h-.346v-11.945zM354.744 285.505h.346v11.946h-.346v-11.945zM356.157 285.505h.346v11.946h-.346v-11.945zM357.57 285.505h.346v11.946h-.346v-11.945zM359.33 285.505h.345v11.946h-.346v-11.945zM361.09 285.505h.345v11.946h-.346v-11.945zM362.848 285.505h.346v11.946h-.346v-11.945zM364.607 285.505h.346v11.946h-.346v-11.945zM366.61 285.505h.345v11.946h-.346v-11.945zM368.61 285.505h.346v11.946h-.346v-11.945zM370.612 285.505h.346v11.946h-.346v-11.945zM372.614 285.505h.346v11.946h-.346v-11.945z"/></g></g><path d="M543.59 180.327h30.864v12.747L543.88 180.54" fill="#afb5ad"/><g clip-path="url(#aD)" transform="matrix(1.25 0 0 -1.25 -20.37 536.81)"><path d="M464.287 276.69v4.542s0 1.224-1.432 1.224h-1.246s-1.432 0-1.432-1.224v-4.542h4.109z" fill="#aaa79b"/></g><g clip-path="url(#aE)" transform="matrix(1.25 0 0 -1.25 -20.37 536.81)"><path d="M458.595 281.818l6.68-6.018.685 6.242-7.365-.224z" fill="#504e4d"/></g><path d="M539.13 183.74h35.328v-3.415H539.13v3.415z" fill="#a1c6ce"/><path d="M541.37 181.107l.32.215 6.48 2.42h26.282v-2.635H541.37z" fill="#7d9ca2"/><path d="M581.374 180.327h30.863v12.747l-30.572-12.535" fill="#afb5ad"/><g clip-path="url(#aF)" transform="matrix(1.25 0 0 -1.25 -20.37 536.81)"><path d="M494.514 276.69v4.542s0 1.224-1.432 1.224h-1.246s-1.43 0-1.43-1.224v-4.542H494.513z" fill="#aaa79b"/></g><g clip-path="url(#aG)" transform="matrix(1.25 0 0 -1.25 -20.37 536.81)"><path d="M488.822 281.818l6.68-6.018.685 6.242-7.365-.224z" fill="#504e4d"/></g><path d="M574.457 183.74h37.784v-3.415H574.46v3.415z" fill="#a1c6ce"/><path d="M579.154 181.107l.32.215 6.478 2.42h26.285v-2.635h-33.083z" fill="#7d9ca2"/><path d="M620.386 180.327h30.863v12.747l-30.573-12.535" fill="#afb5ad"/><g clip-path="url(#aH)" transform="matrix(1.25 0 0 -1.25 -20.37 536.81)"><path d="M525.724 276.69v4.542s0 1.224-1.432 1.224h-1.246s-1.43 0-1.43-1.224v-4.542H525.723z" fill="#aaa79b"/></g><g clip-path="url(#aI)" transform="matrix(1.25 0 0 -1.25 -20.37 536.81)"><path d="M520.032 281.818l6.68-6.018.685 6.242-7.365-.224z" fill="#504e4d"/></g><path d="M612.21 183.74h39.043v-3.415H612.21v3.415z" fill="#a1c6ce"/><path d="M618.166 181.107l.32.215 6.477 2.42h26.285v-2.635h-33.082z" fill="#7d9ca2"/><g clip-path="url(#aJ)" transform="matrix(1.25 0 0 -1.25 -20.37 536.81)"><path d="M475.175 286.55c-1.368 6.097-6.826 10.656-13.363 10.656-6.536 0-11.994-4.56-13.362-10.655h26.725z" fill="#886fae"/></g><g clip-path="url(#aK)" transform="matrix(1.25 0 0 -1.25 -20.37 536.81)"><path d="M462.24 277.54h12.936v20.553H462.24V277.54z" fill="#8195a8"/><g clip-path="url(#aL)" opacity=".1" fill="#e0e0ea"><path d="M449.606 285.505h.346v8.992h-.346v-8.992zM451.02 285.505h.345v8.992h-.346v-8.992zM452.432 285.505h.346v8.992h-.346v-8.992zM453.845 285.505h.346v11.946h-.345v-11.945z"/><path d="M475.643 288.28H448.54v-.347h27.103v.346zM475.643 290.174H448.54v-.346h27.103v.346zM475.643 292.068H448.54v-.346h27.103v.346zM475.643 293.962H448.54v-.346h27.103v.346zM475.643 295.857H448.54v-.346h27.103v.347z"/><path d="M455.258 285.505h.346v11.946h-.346v-11.945zM456.67 285.505h.347v11.946h-.346v-11.945zM458.084 285.505h.346v11.946h-.346v-11.945zM459.497 285.505h.346v11.946h-.346v-11.945zM461.256 285.505h.346v11.946h-.346v-11.945zM463.015 285.505h.346v11.946h-.345v-11.945zM464.774 285.505h.346v11.946h-.346v-11.945zM466.533 285.505h.346v11.946h-.347v-11.945zM468.535 285.505h.346v11.946h-.345v-11.945zM470.537 285.505h.346v11.946h-.346v-11.945zM472.54 285.505h.345v11.946h-.346v-11.945zM474.54 285.505h.347v11.946h-.346v-11.945z"/></g></g><g clip-path="url(#aM)" transform="matrix(1.25 0 0 -1.25 -20.37 536.81)"><path d="M536.612 286.55c-1.368 6.097-6.826 10.656-13.363 10.656s-11.995-4.56-13.363-10.655h26.725z" fill="#886fae"/></g><g clip-path="url(#aN)" transform="matrix(1.25 0 0 -1.25 -20.37 536.81)"><path d="M523.677 277.54h12.935v20.553h-12.935V277.54z" fill="#8195a8"/><g clip-path="url(#aO)" opacity=".1" fill="#e0e0ea"><path d="M511.042 285.505h.346v8.992h-.346v-8.992zM512.455 285.505h.346v8.992h-.345v-8.992zM513.868 285.505h.346v8.992h-.346v-8.992zM515.28 285.505h.347v11.946h-.346v-11.945z"/><path d="M537.08 288.28h-27.105v-.347h27.104v.346zM537.08 290.174h-27.105v-.346h27.104v.346zM537.08 292.068h-27.105v-.346h27.104v.346zM537.08 293.962h-27.105v-.346h27.104v.346zM537.08 295.857h-27.105v-.346h27.104v.347z"/><path d="M516.694 285.505h.346v11.946h-.346v-11.945zM518.107 285.505h.346v11.946h-.346v-11.945zM519.52 285.505h.346v11.946h-.346v-11.945zM520.933 285.505h.346v11.946h-.347v-11.945zM522.692 285.505h.346v11.946h-.346v-11.945zM524.45 285.505h.347v11.946h-.346v-11.945zM526.21 285.505h.346v11.946h-.346v-11.945zM527.97 285.505h.345v11.946h-.346v-11.945zM529.97 285.505h.347v11.946h-.346v-11.945zM531.973 285.505h.346v11.946h-.347v-11.945zM533.975 285.505h.346v11.946h-.345v-11.945zM535.977 285.505h.346v11.946h-.346v-11.945z"/></g></g><g clip-path="url(#aP)" transform="matrix(1.25 0 0 -1.25 -20.37 536.81)"><path d="M504.036 286.55c-1.368 6.097-6.826 10.656-13.363 10.656-6.536 0-11.994-4.56-13.362-10.655h26.726z" fill="#886fae"/></g><g clip-path="url(#aQ)" transform="matrix(1.25 0 0 -1.25 -20.37 536.81)"><path d="M491.1 277.54h12.936v20.553H491.1V277.54z" fill="#8195a8"/><g clip-path="url(#aR)" opacity=".1" fill="#e0e0ea"><path d="M478.467 285.505h.346v8.992h-.346v-8.992zM479.88 285.505h.346v8.992h-.346v-8.992zM481.293 285.505h.346v8.992h-.347v-8.992zM482.706 285.505h.346v11.946h-.346v-11.945z"/><path d="M504.503 288.28H477.4v-.347h27.103v.346zM504.503 290.174H477.4v-.346h27.103v.346zM504.503 292.068H477.4v-.346h27.103v.346zM504.503 293.962H477.4v-.346h27.103v.346zM504.503 295.857H477.4v-.346h27.103v.347z"/><path d="M484.12 285.505h.345v11.946h-.346v-11.945zM485.53 285.505h.347v11.946h-.346v-11.945zM486.944 285.505h.346v11.946h-.346v-11.945zM488.357 285.505h.346v11.946h-.346v-11.945zM490.117 285.505h.346v11.946h-.346v-11.945zM491.876 285.505h.346v11.946h-.346v-11.945zM493.635 285.505h.346v11.946h-.345v-11.945zM495.394 285.505h.346v11.946h-.346v-11.945zM497.396 285.505h.346v11.946h-.346v-11.945zM499.397 285.505h.346v11.946h-.346v-11.945zM501.4 285.505h.345v11.946h-.346v-11.945zM503.4 285.505h.347v11.946h-.346v-11.945z"/></g></g><g clip-path="url(#aS)" transform="matrix(1.25 0 0 -1.25 -20.37 536.81)"><path d="M442.94 286.55c-1.886 8.406-9.412 14.693-18.425 14.693s-16.54-6.287-18.426-14.692h36.85z" fill="#886fae"/></g><g clip-path="url(#aT)" transform="matrix(1.25 0 0 -1.25 -20.37 536.81)"><path d="M425.105 274.36h17.836v28.34h-17.835v-28.34z" fill="#8195a8"/><g clip-path="url(#aU)" opacity=".1" fill="#e0e0ea"><path d="M407.683 285.342h.477v12.4h-.477v-12.4zM409.63 285.342h.478v12.4h-.477v-12.4zM411.58 285.342h.477v12.4h-.477v-12.4zM413.528 285.342h.477v16.473h-.477v-16.473z"/><path d="M443.585 289.168H406.21v-.477h37.375v.478zM443.585 291.78H406.21v-.477h37.375v.477zM443.585 294.393H406.21v-.477h37.375v.477zM443.585 297.005H406.21v-.477h37.375v.477zM443.585 299.617H406.21v-.477h37.375v.477z"/><path d="M415.476 285.342h.477v16.473h-.477v-16.473zM417.425 285.342h.477v16.473h-.477v-16.473zM419.373 285.342h.477v16.473h-.477v-16.473zM421.322 285.342h.477v16.473h-.478v-16.473zM423.747 285.342h.477v16.473h-.477v-16.473zM426.173 285.342h.477v16.473h-.477v-16.473zM428.598 285.342h.477v16.473h-.477v-16.473zM431.024 285.342h.477v16.473h-.476v-16.473zM433.784 285.342h.477v16.473h-.476v-16.473zM436.545 285.342h.477v16.473h-.477v-16.473zM439.305 285.342h.477v16.473h-.477v-16.473zM442.066 285.342h.477v16.473h-.477v-16.473z"/></g></g><g clip-path="url(#aV)" transform="matrix(1.25 0 0 -1.25 -20.37 536.81)"><path d="M443.037 325.05c-2.16 9.623-10.78 16.822-21.1 16.822-10.322 0-18.94-7.2-21.1-16.823h42.2z" fill="#886fae"/></g><g clip-path="url(#aW)" transform="matrix(1.25 0 0 -1.25 -20.37 536.81)"><path d="M422.612 311.358h20.424v32.45h-20.424v-32.45z" fill="#8195a8"/><g clip-path="url(#aX)" opacity=".1" fill="#e0e0ea"><path d="M402.66 323.933h.547v14.197h-.546v-14.197zM404.892 323.933h.546v14.197h-.546v-14.197zM407.124 323.933h.546v14.197h-.546v-14.197zM409.355 323.933h.546v18.862h-.545v-18.862z"/><path d="M443.775 328.313h-42.798v-.546h42.798v.546zM443.775 331.305h-42.798v-.546h42.798v.545zM443.775 334.296h-42.798v-.546h42.798v.546zM443.775 337.287h-42.798v-.546h42.798v.547zM443.775 340.278h-42.798v-.546h42.798v.546z"/><path d="M411.586 323.933h.546v18.862h-.546v-18.862zM413.817 323.933h.546v18.862h-.546v-18.862zM416.048 323.933h.546v18.862h-.546v-18.862zM418.28 323.933h.546v18.862h-.546v-18.862zM421.057 323.933h.546v18.862h-.546v-18.862zM423.835 323.933h.546v18.862h-.545v-18.862zM426.612 323.933h.546v18.862h-.546v-18.862zM429.39 323.933h.546v18.862h-.546v-18.862zM432.55 323.933h.547v18.862h-.546v-18.862zM435.712 323.933h.546v18.862h-.546v-18.862zM438.874 323.933h.546v18.862h-.546v-18.862zM442.035 323.933h.546v18.862h-.545v-18.862z"/></g></g><g clip-path="url(#aY)" transform="matrix(1.25 0 0 -1.25 -20.37 536.81)"><path d="M422.588 370.257c1.43 0 2.588 1.26 2.588 2.813 0 1.553-1.16 2.813-2.588 2.813-1.43 0-2.588-1.26-2.588-2.813 0-1.554 1.16-2.813 2.588-2.813" fill="#dad7c0"/></g><path d="M506.987 63.44v7.034h1.748V63.44h-1.748z" fill="#dad7c0"/><g clip-path="url(#aZ)" transform="matrix(1.25 0 0 -1.25 -20.37 536.81)"><path d="M441.085 359.687c-1.894 7.51-9.45 13.127-18.497 13.127-9.048 0-16.604-5.617-18.498-13.127h36.995z" fill="#886fae"/></g><g clip-path="url(#ba)" transform="matrix(1.25 0 0 -1.25 -20.37 536.81)"><path d="M423.18 349.07h17.906v25.32H423.18v-25.32z" fill="#8195a8"/><g clip-path="url(#bb)" opacity=".1" fill="#e0e0ea"><path d="M405.69 358.88h.48v11.08h-.48v-11.08zM407.647 358.88h.48v11.08h-.48v-11.08zM409.603 358.88h.48v11.08h-.48v-11.08zM411.56 358.88h.478v14.72h-.48v-14.72z"/><path d="M441.732 362.3h-37.518v-.427h37.518v.426zM441.732 364.633h-37.518v-.426h37.518v.426zM441.732 366.967h-37.518v-.426h37.518v.427zM441.732 369.3h-37.518v-.426h37.518v.426zM441.732 371.634h-37.518v-.426h37.518v.426z"/><path d="M413.515 358.88h.48v14.72h-.48v-14.72zM415.47 358.88h.48v14.72h-.48v-14.72zM417.427 358.88h.48v14.72h-.48v-14.72zM419.383 358.88h.48v14.72h-.48v-14.72zM421.817 358.88h.48v14.72h-.48v-14.72zM424.252 358.88h.48v14.72h-.48v-14.72zM426.687 358.88h.48v14.72h-.48v-14.72zM429.122 358.88h.48v14.72h-.48v-14.72zM431.893 358.88h.48v14.72h-.48v-14.72zM434.665 358.88h.48v14.72h-.48v-14.72zM437.436 358.88h.48v14.72h-.48v-14.72zM440.207 358.88h.48v14.72h-.48v-14.72z"/></g></g><path d="M372.003 180.112H653.53v-1.49H372.002v1.49z" fill="#cdbfad"/><path d="M364.674 171.85h8.665V62.43h-8.666v109.42z" fill="#dad7c0"/><path d="M371.925 115.757l4.89-5.067h-15.627l4.89 5.067h5.847zM371.925 97.516l4.89-5.068h-15.627l4.89 5.068h5.847zM371.925 81.938l4.89-5.068h-15.627l4.89 5.068h5.847zM362.904 173.294h12.202v-1.442h-12.202v1.442z" fill="#b6b29d"/><path d="M362.904 192.396h12.202v-19.102h-12.202v19.102z" fill="#dad7c0"/><path d="M369.002 35.206l-5.62 27.226h11.24l-5.62-27.226z" fill="#4c729f"/><g clip-path="url(#bc)" transform="matrix(1.25 0 0 -1.25 -20.37 536.81)"><path d="M311.5 399.15c.686 0 1.243.555 1.243 1.238 0 .683-.557 1.237-1.243 1.237s-1.243-.554-1.243-1.237.557-1.237 1.243-1.237" fill="#4c729f"/></g><path d="M653.076 171.85h8.665V62.43h-8.664v109.42z" fill="#dad7c0"/><path d="M660.328 115.757l4.89-5.067H649.59l4.89 5.067h5.848zM660.328 97.516l4.89-5.068H649.59l4.89 5.068h5.848zM660.328 81.938l4.89-5.068H649.59l4.89 5.068h5.848zM651.306 173.294h12.203v-1.442h-12.204v1.442z" fill="#b6b29d"/><path d="M651.306 192.396h12.203v-19.102h-12.204v19.102z" fill="#dad7c0"/><path d="M657.404 35.206l-5.62 27.226h11.24l-5.62-27.226z" fill="#4c729f"/><g clip-path="url(#bd)" transform="matrix(1.25 0 0 -1.25 -20.37 536.81)"><path d="M542.223 399.15c.686 0 1.243.555 1.243 1.238 0 .683-.557 1.237-1.243 1.237s-1.243-.554-1.243-1.237.557-1.237 1.243-1.237" fill="#4c729f"/><path d="M364.293 316.977c-.537 2.392-2.68 4.182-5.244 4.182-2.567 0-4.71-1.79-5.246-4.183h10.49z" fill="#525574"/></g><g clip-path="url(#be)" transform="matrix(1.25 0 0 -1.25 -20.37 536.81)"><path d="M359.217 313.206h5.076v8.066h-5.076v-8.066z" fill="#7878a0"/><g clip-path="url(#bf)" opacity=".1" fill="#e0e0ea"><path d="M354.258 316.332h.136v3.53h-.136v-3.53zM354.813 316.332h.136v3.53h-.137v-3.53zM355.367 316.332h.136v3.53h-.136v-3.53zM355.922 316.332h.136v4.69h-.136v-4.69z"/><path d="M364.477 317.42H353.84v-.135h10.637v.136zM364.477 318.164H353.84v-.136h10.637v.136zM364.477 318.908H353.84v-.136h10.637v.136zM364.477 319.65H353.84v-.135h10.637v.136zM364.477 320.395H353.84v-.136h10.637v.135z"/><path d="M356.476 316.332h.136v4.69h-.136v-4.69zM357.03 316.332h.137v4.69h-.136v-4.69zM357.586 316.332h.136v4.69h-.136v-4.69zM358.14 316.332h.136v4.69h-.136v-4.69zM358.83 316.332h.136v4.69h-.136v-4.69zM359.52 316.332h.137v4.69h-.136v-4.69zM360.21 316.332h.137v4.69h-.136v-4.69zM360.902 316.332h.136v4.69h-.136v-4.69zM361.687 316.332h.136v4.69h-.136v-4.69zM362.473 316.332h.136v4.69h-.137v-4.69zM363.26 316.332h.135v4.69h-.136v-4.69zM364.044 316.332h.136v4.69h-.136v-4.69z"/></g></g><path d="M422.264 155.384h12.356v-14.797h-12.356v14.797z" fill="#a39e8b"/><path d="M428.35 155.384h6.27v-14.797h-6.27v14.797z" fill="#aca796"/><path d="M429.488 146.656h2.46v-3.73h-2.46v3.73z" fill="#3b2b20"/><path d="M498.046 149.054v-7.88l-4.685-4.87-4.683 4.87v7.88h9.37z" fill="#aaa79b"/><path d="M489.392 140.432l8.654 6.977v-6.234l-4.684-4.87-3.97 4.126z" fill="#3b2b20"/><path d="M521.98 149.054v-7.88l-4.684-4.87-4.684 4.87v7.88h9.37z" fill="#aaa79b"/><path d="M513.327 140.433l8.654 6.976v-6.235l-4.684-4.87-3.97 4.128z" fill="#3b2b20"/><path d="M533.837 149.054v-7.88l-4.685-4.87-4.683 4.87v7.88h9.367z" fill="#aaa79b"/><path d="M525.183 140.432l8.653 6.977v-6.234l-4.683-4.87-3.97 4.126z" fill="#3b2b20"/><path d="M486.08 149.054v-7.88l-4.686-4.87-4.684 4.87v7.88h9.37z" fill="#aaa79b"/><path d="M477.424 140.432l8.654 6.977v-6.234l-4.684-4.87-3.97 4.126z" fill="#3b2b20"/><path d="M510.014 149.054v-7.88l-4.685-4.87-4.685 4.87v7.88h9.37z" fill="#aaa79b"/><path d="M501.36 140.432l8.653 6.978v-6.234l-4.683-4.87-3.97 4.126z" fill="#3b2b20"/><path d="M497 103.143v-6.52l-3.64-4.03-3.638 4.03v6.52h7.28z" fill="#315376"/><path d="M490.708 95.533l6.294 5.823v-4.73l-3.64-4.03-2.654 2.937z" fill="#151540"/><path d="M487.844 103.143v-6.52l-3.64-4.03-3.64 4.03v6.52h7.28z" fill="#315376"/><path d="M481.55 95.533l6.294 5.823v-4.73l-3.64-4.03-2.654 2.937z" fill="#151540"/><path d="M506.56 103.143v-6.52l-3.64-4.03-3.638 4.03v6.52h7.278z" fill="#315376"/><path d="M500.267 95.533l6.294 5.823v-4.73l-3.64-4.03-2.653 2.937z" fill="#151540"/><path d="M515.05 103.143v-6.52l-3.64-4.03-3.64 4.03v6.52h7.28z" fill="#315376"/><path d="M508.756 95.533l6.294 5.823v-4.73l-3.64-4.03-2.654 2.937z" fill="#151540"/><path d="M524.073 103.143v-6.52l-3.64-4.03-3.638 4.03v6.52h7.278z" fill="#315376"/><path d="M517.78 95.533l6.294 5.823v-4.73l-3.64-4.03-2.654 2.937z" fill="#151540"/><path d="M533.328 103.143v-6.52l-3.64-4.03-3.64 4.03v6.52h7.28z" fill="#315376"/><path d="M527.034 95.533l6.294 5.823v-4.73l-3.64-4.03-2.654 2.937z" fill="#151540"/><g clip-path="url(#bg)" transform="matrix(1.25 0 0 -1.25 -20.37 536.81)"><path d="M447.318 354.373c.97 0 1.76.86 1.76 1.922 0 1.06-.788 1.922-1.76 1.922-.97 0-1.76-.86-1.76-1.922 0-1.062.79-1.922 1.76-1.922" fill="#dad7c0"/></g><path d="M538.185 91.44h1.186v-4.804h-1.185v4.805z" fill="#dad7c0"/><g clip-path="url(#bh)" transform="matrix(1.25 0 0 -1.25 -20.37 536.81)"><path d="M455.726 348.817c-.86 4.828-4.295 8.44-8.407 8.44-4.114 0-7.548-3.612-8.41-8.44h16.816z" fill="#b0b3cb"/></g><g clip-path="url(#bi)" transform="matrix(1.25 0 0 -1.25 -20.37 536.81)"><path d="M436.886 343.435h10.49v17.182h-10.49v-17.182z" fill="#5f6f99"/></g><path d="M529.575 125.51h18.405v-24.72h-18.405v24.72z" fill="#aca796"/><path d="M529.575 125.51h9.204v-24.72h-9.205v24.72z" fill="#a39e8b"/><path d="M537.55 107.87h3.426v-3.36h-3.425v3.36zM551.166 115.19h3.425v-7.4h-3.424v7.4zM451.79 113.587h3.426v-5.797h-3.425v5.797z" fill="#3b2b20"/><g clip-path="url(#bj)" transform="matrix(1.25 0 0 -1.25 -20.37 536.81)"><path d="M384.765 352.557c.618 0 1.12.547 1.12 1.223 0 .675-.502 1.222-1.12 1.222-.618 0-1.12-.547-1.12-1.222 0-.676.502-1.223 1.12-1.223" fill="#dad7c0"/></g><path d="M460.21 94.585h.755V91.53h-.756v3.055z" fill="#dad7c0"/><g clip-path="url(#bk)" transform="matrix(1.25 0 0 -1.25 -20.37 536.81)"><path d="M390.114 349.023c-.548 3.07-2.732 5.37-5.35 5.37-2.615 0-4.8-2.3-5.348-5.37h10.698z" fill="#b0b3cb"/></g><g clip-path="url(#bl)" transform="matrix(1.25 0 0 -1.25 -20.37 536.81)"><path d="M378.128 345.48h6.673v10.93h-6.672v-10.93z" fill="#5f6f99"/></g><path d="M454.73 116.26h11.71v-15.73h-11.71v15.73z" fill="#aca796"/><path d="M454.73 116.26h5.858v-15.73h-5.857v15.73z" fill="#a39e8b"/><path d="M459.805 105.037h2.18V102.9h-2.18v2.137z" fill="#3b2b20"/><g clip-path="url(#bm)" transform="matrix(1.25 0 0 -1.25 -20.37 536.81)"><path d="M397.417 354.373c.97 0 1.76.86 1.76 1.922 0 1.06-.79 1.922-1.76 1.922s-1.76-.86-1.76-1.922c0-1.062.79-1.922 1.76-1.922" fill="#dad7c0"/></g><path d="M475.808 91.44h1.187v-4.804h-1.188v4.805z" fill="#dad7c0"/><g clip-path="url(#bn)" transform="matrix(1.25 0 0 -1.25 -20.37 536.81)"><path d="M405.825 348.817c-.86 4.828-4.295 8.44-8.407 8.44-4.113 0-7.547-3.612-8.408-8.44h16.815z" fill="#b0b3cb"/></g><g clip-path="url(#bo)" transform="matrix(1.25 0 0 -1.25 -20.37 536.81)"><path d="M386.985 343.435h10.49v17.182h-10.49v-17.182z" fill="#5f6f99"/></g><path d="M467.2 125.51h18.404v-24.72H467.2v24.72z" fill="#aca796"/><path d="M467.2 125.51h9.2v-24.72h-9.2v24.72z" fill="#a39e8b"/><path d="M475.175 107.87h3.425v-3.36h-3.425v3.36z" fill="#3b2b20"/><path d="M192.1 11.525l-22.078 52.618h44.155L192.1 11.525z" fill="#909fb7"/><path d="M170.023 64.143h22.912v-50.63l-.834-1.988-22.077 52.618z" fill="#7878a0"/><path d="M172.39 58.502l-.49 1.167h40.4l-.49-1.168h-39.42zM176.59 48.495l-.49 1.167H208.1l-.49-1.167H176.59zM181.307 37.25l-.49 1.168h22.567l-.49-1.168h-21.587zM184.986 28.482l-.49 1.166h15.208l-.49-1.166h-14.228z"/><path d="M192.06 11.624v52.52h1.165V14.206l-1.125-2.682-.04.1zM198.827 64.143H200l-3.737-42.697-1.48-3.53 4.044 46.227zM208.8 64.143h1.2l-5.584-23.263-2.806-6.69 7.19 29.953zM180.952 38.096l-6.254 26.048h1.2l7.86-32.737-2.806 6.69zM189.987 16.56l-4.162 47.583h1.17l4.474-51.113-1.483 3.53z"/><path d="M167.36 193.34h48.364v-87.976H167.36v87.975z" fill="#e1885e"/><path d="M183.536 108.075h32.188v-2.71h-32.188v2.71z" fill="#d27f58"/><path d="M167.36 193.34h23.847v-87.975H167.36v87.975z" fill="#be8263"/><path d="M167.36 108.075h23.847v-2.71H167.36v2.71z" fill="#b0785c"/><path d="M170.028 75.482h42.445V65.84h-42.445v9.642z" fill="#e5d6c3"/><path d="M164.356 90.3h54.37v-2.53h-54.37v2.53zM164.356 78.014h54.37v-2.53h-54.37v2.53z" fill="#cdbfad"/><path d="M79.713 193.34v3.544h229.11v-3.544H79.712z" fill="#38505e"/><path d="M165.357 189.795H345.31v-3.544H165.357v3.545z" fill="#f1ede4"/><path d="M171.194 193.34h179.95v-3.545h-179.95v3.544z" fill="#e6e3e0"/><g clip-path="url(#bp)" transform="matrix(1.25 0 0 -1.25 -20.37 536.81)"><path d="M142.04 321.407s-6 0-6-6v-21.89s0-6 6-6h2.81s6 0 6 6v21.89s0 6-6 6h-2.81z" fill="#4b6a3d"/></g><path d="M156.52 172.575h1.165v-13.842h-1.166v13.842zM161.02 155.064h1.167V137.22h-1.167v17.844zM162.19 149.977h1.166v-8.59h-1.167v8.59zM163.356 149.977h1.168v-8.59h-1.168v8.59z" fill="#b8bc76"/><path d="M163.94 153.73h1.166v-16.51h-1.166v16.51z" fill="#b8bc76"/><path d="M159.854 160.82h1.166v-24.434h-1.166v24.433zM158.686 160.4h1.168v-19.428h-1.168v19.43z" fill="#9ca756"/><path d="M157.52 156.65h1.166v-19.43h-1.167v19.43z" fill="#4b6a3d"/><path d="M157.52 157.984h1.166v-19.43h-1.167v19.43z" fill="#4e5c3b"/><path d="M156.52 160.317h1.165v-21.18h-1.166v21.18zM155.35 171.24h1.167V136.8h-1.167v34.44z" fill="#4e5c3b"/><path d="M158.686 186.585h1.168V161.9h-1.168v24.685z" fill="#3b2b20"/><g clip-path="url(#bq)" transform="matrix(1.25 0 0 -1.25 -20.37 536.81)"><path d="M201.08 318.405s-6 0-6-6v-21.89s0-6 6-6h2.81s6 0 6 6v21.89s0 6-6 6h-2.81z" fill="#4b6a3d"/></g><path d="M230.317 176.33h1.167v-13.844h-1.167v13.843zM234.82 158.816h1.167V140.97h-1.167v17.846zM235.988 153.73h1.167v-8.59h-1.167v8.59zM237.155 153.73h1.166v-8.59h-1.165v8.59z" fill="#b8bc76"/><path d="M237.737 157.482h1.168v-16.51h-1.168v16.51z" fill="#b8bc76"/><path d="M233.65 164.57h1.17v-24.432h-1.17v24.432z" fill="#9ca756"/><path d="M232.485 164.154h1.166v-19.43h-1.165v19.43z" fill="#9ca756"/><path d="M231.317 160.4h1.168v-19.428h-1.168v19.43z" fill="#4b6a3d"/><path d="M231.317 161.735h1.168v-19.43h-1.168v19.43z" fill="#4e5c3b"/><path d="M230.317 164.07h1.167v-21.18h-1.167v21.18zM229.15 174.994h1.166v-34.44h-1.167v34.44z" fill="#4e5c3b"/><path d="M232.485 190.337h1.166v-24.682h-1.165v24.682z" fill="#3b2b20"/><g clip-path="url(#br)" transform="matrix(1.25 0 0 -1.25 -20.37 536.81)"><path d="M267.356 312.135s-6 0-6-6v-21.89s0-6 6-6h2.81s6 0 6 6v21.89s0 6-6 6h-2.81z" fill="#4b6a3d"/></g><path d="M313.164 184.166h1.166v-13.842h-1.166v13.842zM317.665 166.655h1.167V148.81h-1.167v17.845zM318.834 161.57H320v-8.59h-1.166v8.59zM320 161.57h1.168v-8.59H320v8.59z" fill="#b8bc76"/><path d="M320.585 165.32h1.166v-16.51h-1.165v16.51z" fill="#b8bc76"/><path d="M316.5 172.41h1.165v-24.434H316.5v24.433zM315.33 171.99h1.17v-19.428h-1.17v19.43z" fill="#9ca756"/><path d="M314.164 168.24h1.167v-19.43h-1.166v19.43z" fill="#4b6a3d"/><path d="M314.164 169.574h1.167v-19.43h-1.166v19.43z" fill="#4e5c3b"/><path d="M313.164 171.91h1.166v-21.18h-1.166v21.18zM311.995 182.832h1.167v-34.438h-1.167v34.438z" fill="#4e5c3b"/><path d="M315.33 198.176h1.17v-24.682h-1.17v24.682z" fill="#3b2b20"/><path d="M273.26 178.246h34.524v-37.19H273.26v37.19z" fill="#aecea4"/><path d="M273.26 178.246h4.254v-37.19h-4.253v37.19zM304.197 178.246h3.587v-37.19h-3.586v37.19z" fill="#d0e2ae"/><path d="M290.52 135.886l-17.262 5.17h34.522l-17.26-5.17z" fill="#cd1719"/><path d="M273.258 141.056h17.26v-5.17l-17.26 5.17z" fill="#ae1613"/><path d="M280.683 153.564h8.005v-7.922h-8.005v7.922z" fill="#abd3cb"/><path d="M281.026 145.642l7.66 7.346v-7.346h-7.66z" fill="#a5c3bb"/><path d="M280.684 153.562h8.005v-1.5h-8.006v1.5z" fill="#959e8d"/><path d="M280.683 163.07h8.005v-7.92h-8.005v7.92z" fill="#abd3cb"/><path d="M281.028 155.15l7.657 7.344v-7.345h-7.657z" fill="#a5c3bb"/><path d="M280.684 163.07h8.005v-1.503h-8.006v1.502z" fill="#959e8d"/><path d="M280.683 172.576h8.005v-7.92h-8.005v7.92z" fill="#abd3cb"/><path d="M281.028 164.655l7.657 7.345v-7.345h-7.657z" fill="#a5c3bb"/><path d="M280.684 172.575h8.005v-1.5h-8.006v1.5z" fill="#959e8d"/><path d="M292.44 153.564h8.006v-7.922h-8.005v7.922z" fill="#abd3cb"/><path d="M292.784 145.642l7.66 7.346v-7.346h-7.66z" fill="#a5c3bb"/><path d="M292.44 153.562h8.006v-1.5h-8.005v1.5z" fill="#959e8d"/><path d="M292.44 163.07h8.006v-7.92h-8.005v7.92z" fill="#abd3cb"/><path d="M292.785 155.15l7.657 7.344v-7.345h-7.657z" fill="#a5c3bb"/><path d="M292.44 163.07h8.006v-1.503h-8.005v1.502z" fill="#959e8d"/><path d="M292.44 172.576h8.006v-7.92h-8.005v7.92z" fill="#abd3cb"/><path d="M292.785 164.655l7.657 7.345v-7.345h-7.657z" fill="#a5c3bb"/><path d="M292.44 172.575h8.006v-1.5h-8.005v1.5z" fill="#959e8d"/><g clip-path="url(#bs)" transform="matrix(1.25 0 0 -1.25 -20.37 536.81)"><path d="M40.907 311.534s-6 0-6-6v-21.89s0-6 6-6h2.81s6 0 6 6v21.89s0 6-6 6h-2.81z" fill="#4b6a3d"/></g><path d="M30.102 184.916h1.167v-13.842H30.1v13.842zM34.604 167.406h1.167V149.56h-1.166v17.846zM35.772 162.32h1.168v-8.59h-1.168v8.59zM36.94 162.32h1.166v-8.59H36.94v8.59z" fill="#b8bc76"/><path d="M37.522 166.072h1.168v-16.51h-1.168v16.51z" fill="#b8bc76"/><path d="M33.436 173.16h1.168v-24.434h-1.168v24.433zM32.27 172.742h1.166v-19.428H32.27v19.428z" fill="#9ca756"/><path d="M31.102 168.99h1.168v-19.43h-1.168v19.43z" fill="#4b6a3d"/><path d="M31.102 170.324h1.168v-19.43h-1.168v19.43z" fill="#4e5c3b"/><path d="M30.102 172.66h1.167v-21.18H30.1v21.18zM28.934 183.582H30.1v-34.438h-1.166v34.438z" fill="#4e5c3b"/><path d="M32.27 198.926h1.166v-24.682H32.27v24.682z" fill="#3b2b20"/><path d="M96.61 187.294h17.08V169.7H96.61v17.594z" fill="#d7dcef"/><path d="M96.61 174.535h17.08V172.7H96.61v1.835z" fill="#cbd3df"/><path d="M95.727 169.7h18.847v-1.836H95.727v1.835z" fill="#ae1613"/><path d="M100.99 179.54h6.037v-3.336h-6.036v3.335z" fill="#819085"/><path d="M100.99 179.537h3.02v-3.335h-3.02v3.335z" fill="#3b2b20"/><path d="M100.99 185.876h6.037v-3.335h-6.036v3.336z" fill="#819085"/><path d="M100.99 185.876h3.02v-3.336h-3.02v3.336z" fill="#3b2b20"/><path d="M84.106 189.086h18.742v-23.22H84.105v23.22z" fill="#d7dcef"/><path d="M84.105 172.25h18.74v-2.424h-18.74v2.423z" fill="#cbd3df"/><path d="M83.136 165.866h20.68v-2.42h-20.68v2.42z" fill="#ae1613"/><path d="M88.912 178.85h6.624v-4.4h-6.624v4.4z" fill="#819085"/><path d="M88.912 178.852h3.313v-4.402h-3.313v4.402z" fill="#3b2b20"/><path d="M88.912 187.216h6.624v-4.402h-6.624v4.402z" fill="#819085"/><path d="M88.912 187.216h3.313v-4.402h-3.313v4.402z" fill="#3b2b20"/><path d="M291.493 188.21h18.74v-23.22h-18.74v23.22z" fill="#d7dcef"/><path d="M291.493 171.372h18.74v-2.42h-18.74v2.42z" fill="#cbd3df"/><path d="M290.522 164.99h20.68v-2.42h-20.68v2.42z" fill="#ae1613"/><path d="M296.3 177.976h6.622v-4.402H296.3v4.402z" fill="#819085"/><path d="M296.3 177.976h3.31v-4.402h-3.31v4.402z" fill="#3b2b20"/><path d="M296.3 186.34h6.622v-4.403H296.3v4.403z" fill="#819085"/><path d="M296.3 186.34h3.31v-4.403h-3.31v4.403z" fill="#3b2b20"/><path d="M273.146 203.16h18.74v-23.223h-18.74v23.222z" fill="#d7dcef"/><path d="M273.147 186.32h18.742v-2.42h-18.743v2.42z" fill="#cbd3df"/><path d="M272.178 179.937h20.68v-2.42h-20.68v2.42z" fill="#ae1613"/><path d="M277.954 192.924h6.624v-4.403h-6.624v4.404z" fill="#819085"/><path d="M277.952 192.924h3.313v-4.403h-3.313v4.404z" fill="#3b2b20"/><path d="M277.954 201.287h6.624v-4.402h-6.624v4.402z" fill="#819085"/><path d="M277.952 201.287h3.313v-4.402h-3.313v4.402z" fill="#3b2b20"/><path d="M340.416 199.76h18.25v-26.276h-18.25v26.276z" fill="#d7dcef"/><path d="M340.415 180.706h18.25v-2.74h-18.25v2.74z" fill="#cbd3df"/><path d="M339.47 173.484h20.14v-2.74h-20.14v2.74z" fill="#ae1613"/><path d="M345.096 188.18h6.45v-4.983h-6.45v4.982z" fill="#819085"/><path d="M345.096 188.18h3.225v-4.983h-3.224v4.982z" fill="#3b2b20"/><path d="M345.096 197.644h6.45v-4.982h-6.45v4.982z" fill="#819085"/><path d="M345.096 197.642h3.225v-4.98h-3.224v4.98z" fill="#3b2b20"/><path d="M348.692 177.746H371.8v-22.88H348.69v22.88z" fill="#d7dcef"/><path d="M348.692 161.155h23.105v-2.386h-23.105v2.385z" fill="#cbd3df"/><path d="M347.497 154.865h25.497v-2.386h-25.497v2.385z" fill="#ae1613"/><path d="M354.62 167.66h8.165v-4.336h-8.166v4.337z" fill="#819085"/><path d="M354.62 167.66h4.082v-4.336h-4.083v4.336z" fill="#3b2b20"/><path d="M354.62 175.902h8.165v-4.337h-8.166v4.337z" fill="#819085"/><path d="M354.62 175.902h4.082v-4.337h-4.083v4.337z" fill="#3b2b20"/><path d="M253.26 156.824H272v-23.222h-18.74v23.222z" fill="#d7dcef"/><path d="M253.26 139.985H272v-2.42h-18.74v2.42z" fill="#cbd3df"/><path d="M252.29 133.602h20.68v-2.42h-20.68v2.42z" fill="#ae1613"/><path d="M258.065 146.59h6.624v-4.404h-6.625v4.403z" fill="#819085"/><path d="M258.065 146.59h3.313v-4.404h-3.313v4.403z" fill="#3b2b20"/><path d="M258.065 154.952h6.624v-4.402h-6.625v4.402z" fill="#819085"/><path d="M258.065 154.952h3.313v-4.402h-3.313v4.402z" fill="#3b2b20"/><path d="M202.13 175.39h19.348v-23.788H202.13v23.788z" fill="#b6d7c5"/><path d="M202.13 158.14h19.346v-2.48H202.13v2.48z" fill="#c5e5eb"/><path d="M201.13 151.602h21.35v-2.48h-21.35v2.48z" fill="#ae1613"/><path d="M207.093 164.906h6.837v-4.51h-6.837v4.51z" fill="#aaa79b"/><path d="M207.093 164.905h3.418v-4.51h-3.418v4.51z" fill="#3b2b20"/><path d="M207.093 173.474h6.837v-4.51h-6.837v4.51z" fill="#aaa79b"/><path d="M207.093 173.474h3.418v-4.51h-3.418v4.51z" fill="#3b2b20"/><path d="M239.656 168.865h19.346v-23.788h-19.346v23.788z" fill="#b6d7c5"/><path d="M239.656 151.616h19.346v-2.48h-19.346v2.48z" fill="#c5e5eb"/><path d="M238.655 145.077h21.347v-2.48h-21.347v2.48z" fill="#ae1613"/><path d="M244.618 158.38h6.837v-4.51h-6.837v4.51z" fill="#aaa79b"/><path d="M244.618 158.38h3.418v-4.51h-3.42v4.51z" fill="#3b2b20"/><path d="M244.618 166.95h6.837v-4.51h-6.837v4.51z" fill="#aaa79b"/><path d="M244.618 166.95h3.418v-4.51h-3.42v4.51z" fill="#3b2b20"/><path d="M112.74 184h19.345v-23.788H112.74V184z" fill="#b6d7c5"/><path d="M112.74 166.75h19.345v-2.48H112.74v2.48z" fill="#c5e5eb"/><path d="M111.74 160.212h21.346v-2.48H111.74v2.48z" fill="#ae1613"/><path d="M117.7 173.515h6.84v-4.51h-6.84v4.51z" fill="#aaa79b"/><path d="M117.7 173.516h3.42v-4.51h-3.42v4.51z" fill="#3b2b20"/><path d="M117.7 182.084h6.84v-4.51h-6.84v4.51z" fill="#aaa79b"/><path d="M117.7 182.082h3.42v-4.508h-3.42v4.508z" fill="#3b2b20"/><path d="M293.86 201.804h19.345v-20.2H293.86v20.2z" fill="#b6d7c5"/><path d="M293.86 187.155h19.345v-2.106H293.86v2.105z" fill="#c5e5eb"/><path d="M292.857 181.602h21.348v-2.106h-21.348v2.106z" fill="#ae1613"/><path d="M298.82 192.9h6.837v-3.83h-6.837v3.83z" fill="#aaa79b"/><path d="M298.82 192.9h3.42v-3.83h-3.42v3.83z" fill="#3b2b20"/><path d="M298.82 200.176h6.837v-3.83h-6.837v3.83z" fill="#aaa79b"/><path d="M298.82 200.176h3.42v-3.83h-3.42v3.83z" fill="#3b2b20"/><path d="M151.724 173.16h27.435v-28.766h-27.436v28.766z" fill="#d8d4b4"/><path d="M151.724 152.3h27.434v-2.998h-27.434v3zM158.76 160.48h9.695v-5.454h-9.696v5.454z" fill="#aaa79b"/><path d="M158.76 160.48h4.848v-5.454h-4.85v5.454z" fill="#3b2b20"/><path d="M158.76 170.84h9.695v-5.453h-9.696v5.454z" fill="#aaa79b"/><path d="M158.76 170.84h4.848v-5.453h-4.85v5.454z" fill="#3b2b20"/><path d="M203.382 199.51h27.435v-26.768h-27.435v26.768z" fill="#d8d4b4"/><path d="M203.382 180.65h27.434v-3h-27.434v3zM210.42 187.712h9.695v-5.075h-9.696v5.075z" fill="#aaa79b"/><path d="M210.417 187.712h4.85v-5.075h-4.85v5.075z" fill="#3b2b20"/><path d="M210.42 197.354h9.695v-5.075h-9.696v5.074z" fill="#aaa79b"/><path d="M210.417 197.354h4.85v-5.075h-4.85v5.074z" fill="#3b2b20"/><path d="M349.54 198.678h27.436V171.91H349.54v26.768z" fill="#d8d4b4"/><path d="M349.54 179.817h27.435v-2.998H349.54v2.997zM356.577 186.88h9.697v-5.075h-9.696v5.075z" fill="#aaa79b"/><path d="M356.577 186.88h4.85v-5.075h-4.85v5.075z" fill="#3b2b20"/><path d="M356.577 196.52h9.697v-5.074h-9.696v5.075z" fill="#aaa79b"/><path d="M356.577 196.52h4.85v-5.074h-4.85v5.075z" fill="#3b2b20"/><path d="M90.182 199.51h19.347v-17.595H90.18v17.595z" fill="#d8d4b4"/><path d="M90.182 186.75h19.347v-1.834H90.18v1.835z" fill="#aaa79b"/><path d="M89.182 181.915h21.348v-1.835H89.182v1.835z" fill="#ae1613"/><path d="M95.144 191.755h6.837v-3.335h-6.836v3.335z" fill="#aaa79b"/><path d="M95.144 191.755h3.418v-3.335h-3.418v3.335z" fill="#3b2b20"/><path d="M95.144 198.092h6.837v-3.335h-6.836v3.335z" fill="#aaa79b"/><path d="M95.144 198.092h3.418v-3.336h-3.418v3.336z" fill="#3b2b20"/><path d="M69.844 198.926h17.08l-.002-17.595H69.844v17.596z" fill="#d7dcef"/><path d="M69.844 186.167h17.08l-.002-1.835H69.844v1.835z" fill="#cbd3df"/><path d="M68.96 181.33h18.846v-1.834H68.96v1.835z" fill="#ae1613"/><path d="M74.224 191.17h6.036v-3.334h-6.036v3.335z" fill="#819085"/><path d="M74.224 191.17h3.018v-3.334h-3.018v3.335z" fill="#3b2b20"/><path d="M74.224 197.51h6.036v-3.336h-6.036v3.335z" fill="#819085"/><path d="M74.224 197.51h3.018v-3.338h-3.018v3.337z" fill="#3b2b20"/><g clip-path="url(#bt)" transform="matrix(1.25 0 0 -1.25 -20.37 536.81)"><path d="M70.06 311.534s-6 0-6-6v-21.89s0-6 6-6h2.81s6 0 6 6v21.89s0 6-6 6h-2.81z" fill="#4b6a3d"/></g><path d="M66.54 184.916h1.17v-13.842h-1.17v13.842zM71.045 167.406h1.167V149.56h-1.167v17.846z" fill="#b8bc76"/><path d="M72.213 162.32h1.166v-8.59h-1.167v8.59zM73.38 162.32h1.167v-8.59H73.38v8.59z" fill="#b8bc76"/><path d="M73.964 166.072h1.167v-16.51h-1.166v16.51z" fill="#b8bc76"/><path d="M69.877 173.16h1.168v-24.434h-1.168v24.433zM68.71 172.742h1.167v-19.428H68.71v19.428z" fill="#9ca756"/><path d="M67.544 168.99h1.166v-19.43h-1.166v19.43z" fill="#4b6a3d"/><path d="M67.544 170.324h1.166v-19.43h-1.166v19.43z" fill="#4e5c3b"/><path d="M66.54 172.66h1.17v-21.18h-1.17v21.18z" fill="#4e5c3b"/><path d="M65.374 183.582h1.167v-34.438h-1.166v34.438z" fill="#4e5c3b"/><path d="M68.71 198.926h1.167v-24.682H68.71v24.682z" fill="#3b2b20"/><path d="M118.16 193.59h34.523V156.4H118.16v37.19z" fill="#d9b5d7"/><path d="M118.16 193.59h4.253V156.4h-4.254v37.19zM149.096 193.59h3.585V156.4h-3.584v37.19z" fill="#c1add1"/><path d="M135.417 151.23l-17.26 5.17h34.52l-17.26-5.17z" fill="#cd1719"/><path d="M118.155 156.4h17.263v-5.17l-17.263 5.17z" fill="#ae1613"/><path d="M125.58 168.906h8.006v-7.92h-8.005v7.92z" fill="#abd3cb"/><path d="M125.924 160.986l7.66 7.346v-7.346h-7.66z" fill="#a5c3bb"/><path d="M125.58 168.907h8.006v-1.5h-8.005v1.5z" fill="#959e8d"/><path d="M125.58 178.412h8.006v-7.92h-8.005v7.92z" fill="#abd3cb"/><path d="M125.924 170.492l7.66 7.346v-7.346h-7.66z" fill="#a5c3bb"/><path d="M125.58 178.414h8.006v-1.502h-8.005v1.502z" fill="#959e8d"/><path d="M125.58 187.92h8.006v-7.923h-8.005v7.922z" fill="#abd3cb"/><path d="M125.924 179.998l7.66 7.346v-7.346h-7.66z" fill="#a5c3bb"/><path d="M125.58 187.92h8.006v-1.5h-8.005v1.5z" fill="#959e8d"/><path d="M137.34 168.906h8.004v-7.92h-8.005v7.92z" fill="#abd3cb"/><path d="M137.682 160.986l7.658 7.345v-7.344h-7.658z" fill="#a5c3bb"/><path d="M137.34 168.907h8.004v-1.5h-8.005v1.5z" fill="#959e8d"/><path d="M137.34 178.412h8.004v-7.92h-8.005v7.92z" fill="#abd3cb"/><path d="M137.682 170.492l7.658 7.346v-7.346h-7.658z" fill="#a5c3bb"/><path d="M137.34 178.414h8.004v-1.502h-8.005v1.502z" fill="#959e8d"/><path d="M137.34 187.92h8.004v-7.923h-8.005v7.922z" fill="#abd3cb"/><path d="M137.682 179.998l7.658 7.346v-7.346h-7.658z" fill="#a5c3bb"/><path d="M137.34 187.92h8.004v-1.5h-8.005v1.5z" fill="#959e8d"/><g clip-path="url(#bu)" transform="matrix(1.25 0 0 -1.25 -20.37 536.81)"><path d="M125.763 315.803s-6 0-6-6v-21.89s0-6 6-6h2.81s6 0 6 6v21.89s0 6-6 6h-2.81z" fill="#4b6a3d"/></g><path d="M136.17 179.58h1.17v-13.84h-1.17v13.84zM140.674 162.07h1.167V144.22h-1.166v17.847z" fill="#b8bc76"/><path d="M141.84 156.982h1.17v-8.588h-1.17v8.588z" fill="#b8bc76"/><path d="M143.01 156.982h1.166v-8.588h-1.167v8.588z" fill="#b8bc76"/><path d="M143.594 160.735h1.166v-16.51h-1.166v16.51z" fill="#b8bc76"/><path d="M139.507 167.822h1.167V143.39h-1.167v24.432zM138.34 167.406h1.166v-19.43h-1.167v19.43z" fill="#9ca756"/><path d="M137.17 163.654h1.17v-19.43h-1.17v19.43z" fill="#4b6a3d"/><path d="M137.17 164.987h1.17v-19.43h-1.17v19.43z" fill="#4e5c3b"/><path d="M136.17 167.32h1.17v-21.18h-1.17v21.18z" fill="#4e5c3b"/><path d="M135.004 178.246h1.167v-34.44h-1.166v34.44z" fill="#4e5c3b"/><path d="M138.34 193.59h1.166v-24.683h-1.167v24.683z" fill="#3b2b20"/><path d="M145.26 199.51h27.435v-28.766H145.26v28.766z" fill="#d8d4b4"/><path d="M145.26 178.65h27.435v-3H145.26v3zM152.296 186.83h9.697v-5.453h-9.697v5.454z" fill="#aaa79b"/><path d="M152.296 186.83h4.85v-5.453h-4.85v5.454z" fill="#3b2b20"/><path d="M152.296 197.192h9.697v-5.453h-9.697v5.452z" fill="#aaa79b"/><path d="M152.296 197.192h4.85v-5.453h-4.85v5.452z" fill="#3b2b20"/><path d="M248.255 181.374h18.74v-23.222h-18.74v23.222z" fill="#d7dcef"/><path d="M248.255 164.535h18.74v-2.42h-18.74v2.42z" fill="#cbd3df"/><path d="M247.286 158.152h20.68v-2.42h-20.68v2.42z" fill="#ae1613"/><path d="M253.063 171.14h6.623v-4.404h-6.624v4.403z" fill="#819085"/><path d="M253.063 171.14h3.312v-4.404h-3.313v4.403z" fill="#3b2b20"/><path d="M253.063 179.502h6.623V175.1h-6.624v4.402z" fill="#819085"/><path d="M253.063 179.502h3.312V175.1h-3.313v4.402z" fill="#3b2b20"/><path d="M231.786 198.176h18.74v-23.22h-18.74v23.22z" fill="#d7dcef"/><path d="M231.786 181.337h18.74v-2.42h-18.74v2.42z" fill="#cbd3df"/><path d="M230.817 174.955h20.68v-2.42h-20.68v2.42z" fill="#ae1613"/><path d="M236.592 187.94h6.624v-4.4h-6.624v4.4z" fill="#819085"/><path d="M236.592 187.94h3.313v-4.4h-3.313v4.4z" fill="#3b2b20"/><path d="M236.592 196.305h6.624v-4.403h-6.624v4.403z" fill="#819085"/><path d="M236.592 196.305h3.313v-4.403h-3.313v4.403z" fill="#3b2b20"/><g clip-path="url(#bv)" transform="matrix(1.25 0 0 -1.25 -20.37 536.81)"><path d="M236.002 307.465s-6 0-6-6v-21.89s0-6 6-6h2.81s6 0 6 6v21.89s0 6-6 6h-2.81z" fill="#4b6a3d"/></g><path d="M273.97 190.004h1.167V176.16h-1.167v13.844zM278.473 172.492h1.167v-17.845h-1.167v17.845zM279.64 167.406h1.167v-8.59h-1.167v8.59zM280.81 167.406h1.166v-8.59h-1.167v8.59z" fill="#b8bc76"/><path d="M281.392 171.157h1.167v-16.51h-1.168v16.51z" fill="#b8bc76"/><path d="M277.306 178.246h1.166v-24.432h-1.166v24.432zM276.14 177.83h1.166V158.4h-1.167v19.43z" fill="#9ca756"/><path d="M274.97 174.076h1.167v-19.43h-1.167v19.43z" fill="#4b6a3d"/><path d="M274.97 175.41h1.167v-19.43h-1.167v19.43z" fill="#4e5c3b"/><path d="M273.97 177.746h1.167v-21.18h-1.167v21.18zM272.803 188.67h1.167v-34.44h-1.167v34.44z" fill="#4e5c3b"/><path d="M276.14 204.012h1.166V179.33h-1.167v24.682z" fill="#3b2b20"/><path d="M256.04 199.72h19.347v-23.79H256.04v23.79z" fill="#d8d4b4"/><path d="M256.04 182.47h19.347v-2.48H256.04v2.48z" fill="#aaa79b"/><path d="M255.04 175.93h21.35v-2.48h-21.35v2.48z" fill="#ae1613"/><path d="M261.004 189.234h6.837v-4.51h-6.836v4.51z" fill="#aaa79b"/><path d="M261.004 189.235h3.418v-4.51h-3.418v4.51z" fill="#3b2b20"/><path d="M261.004 197.802h6.837v-4.51h-6.836v4.51z" fill="#aaa79b"/><path d="M261.004 197.802h3.418v-4.51h-3.418v4.51z" fill="#3b2b20"/><path d="M310.786 200.094h34.523v-37.192h-34.524v37.192z" fill="#d2cdae"/><path d="M310.786 200.094h4.253v-37.192h-4.254v37.192zM341.724 200.094h3.585v-37.192h-3.586v37.192z" fill="#c3bda3"/><path d="M328.044 157.734l-17.262 5.17h34.523l-17.26-5.17z" fill="#cd1719"/><path d="M310.782 162.904h17.263v-5.17l-17.263 5.17z" fill="#ae1613"/><path d="M318.208 175.41h8.005v-7.92h-8.005v7.92z" fill="#abd3cb"/><path d="M318.552 167.49l7.658 7.347v-7.347h-7.658z" fill="#a5c3bb"/><path d="M318.208 175.41h8.005v-1.5h-8.005v1.5z" fill="#959e8d"/><path d="M318.208 184.917h8.005v-7.92h-8.005v7.92z" fill="#abd3cb"/><path d="M318.552 176.997l7.658 7.346v-7.346h-7.658z" fill="#a5c3bb"/><path d="M318.208 184.916h8.005v-1.5h-8.005v1.5z" fill="#959e8d"/><path d="M318.208 194.424h8.005v-7.922h-8.005v7.922z" fill="#abd3cb"/><path d="M318.552 186.503l7.658 7.346v-7.347h-7.658z" fill="#a5c3bb"/><path d="M318.208 194.422h8.005v-1.5h-8.005v1.5z" fill="#959e8d"/><path d="M329.965 175.41h8.005v-7.92h-8.005v7.92z" fill="#abd3cb"/><path d="M330.31 167.49l7.657 7.347v-7.347h-7.658z" fill="#a5c3bb"/><path d="M329.965 175.41h8.005v-1.5h-8.005v1.5z" fill="#959e8d"/><path d="M329.965 184.917h8.005v-7.92h-8.005v7.92z" fill="#abd3cb"/><path d="M330.31 176.997l7.657 7.346v-7.346h-7.658z" fill="#a5c3bb"/><path d="M329.965 184.916h8.005v-1.5h-8.005v1.5z" fill="#959e8d"/><path d="M329.965 194.424h8.005v-7.922h-8.005v7.922z" fill="#abd3cb"/><path d="M330.31 186.503l7.657 7.346v-7.347h-7.658z" fill="#a5c3bb"/><path d="M329.965 194.422h8.005v-1.5h-8.005v1.5z" fill="#959e8d"/><g clip-path="url(#bw)" transform="matrix(1.25 0 0 -1.25 -20.37 536.81)"><path d="M300.945 305.897s-6 0-6-6v-21.89s0-6 6-6h2.81s6 0 6 6v21.89s0 6-6 6h-2.81z" fill="#4b6a3d"/></g><path d="M355.15 191.964h1.166V178.12h-1.167v13.844zM359.65 174.452h1.17v-17.845h-1.17v17.845z" fill="#b8bc76"/><path d="M360.82 169.365h1.165v-8.59h-1.166v8.59zM361.986 169.365h1.168v-8.59h-1.168v8.59z" fill="#b8bc76"/><path d="M362.57 173.117h1.167v-16.51h-1.167v16.51z" fill="#b8bc76"/><path d="M358.484 180.205h1.167v-24.433h-1.166v24.433zM357.317 179.79h1.167v-19.43h-1.166v19.43z" fill="#9ca756"/><path d="M356.15 176.036h1.167v-19.43h-1.167v19.43z" fill="#4b6a3d"/><path d="M356.15 177.37h1.167v-19.43h-1.167v19.43z" fill="#4e5c3b"/><path d="M355.15 179.706h1.166v-21.18h-1.167v21.18zM353.98 190.63h1.167v-34.44h-1.166v34.44z" fill="#4e5c3b"/><path d="M357.317 205.972h1.167V181.29h-1.166v24.682z" fill="#3b2b20"/><path d="M74.293 89.69v4.67h46.698v-4.67H74.294z" fill="#283583"/><path d="M59.283 93.024v4.67h70.047v-4.67H59.283zM54.28 100.03v4.67h70.046v-4.67H54.28zM79.63 107.643v4.67h70.046v-4.67H79.63z" fill="#283583"/><path d="M66.038 96.61v4.67h46.697v-4.67H66.038zM93.056 104.198v4.003h46.363V104.2H93.055z" fill="#283583"/><g clip-path="url(#bx)" transform="matrix(1.25 0 0 -1.25 -20.37 536.81)"><path d="M216.753 413.705s-1 0-1-1v-3.242s0-1 1-1h50.42s1 0 1 1v3.242s0 1-1 1h-50.42z" fill="#283583"/><path d="M199.903 409.96s-1 0-1-1v-3.24s0-1 1-1h76.632s1 0 1 1v3.24s0 1-1 1h-76.632zM194.287 402.098s-1 0-1-1v-3.242s0-1 1-1h76.632s1 0 1 1v3.242s0 1-1 1h-76.633zM222.744 393.552s-1 0-1-1v-3.242s0-1 1-1h76.632s1 0 1 1v3.242s0 1-1 1h-76.632z" fill="#283583"/><path d="M207.486 405.936s-1 0-1-1v-3.242s0-1 1-1h50.42s1 0 1 1v3.242s0 1-1 1h-50.42zM237.815 397.418s-1 0-1-1v-2.493s0-1 1-1h50.047s1 0 1 1v2.493s0 1-1 1h-50.047z" fill="#283583"/></g><path d="M164.356 105.365h54.37v-1.835h-54.37v1.835z" fill="#b36c1f"/><path d="M167.36 103.53h48.364V101H167.36v2.53z" fill="#cdbfad"/><path d="M167.36 101h48.364V78.014H167.36V101z" fill="#e5d6c3"/><g clip-path="url(#by)" transform="matrix(1.25 0 0 -1.25 -20.37 536.81)"><path d="M156.654 353.695v6.99s0 1.882-1.883 1.882h-1.637s-1.883 0-1.883-1.882v-6.99H156.655zM158.522 369.64v3.94s0 1.062-1.278 1.062h-1.113s-1.277 0-1.277-1.06V369.64H158.523zM163.925 369.64v3.94s0 1.062-1.278 1.062h-1.113s-1.278 0-1.278-1.06V369.64h3.669zM171.363 369.64v3.94s0 1.062-1.278 1.062h-1.113s-1.278 0-1.278-1.06V369.64h3.669zM177.467 369.64v3.94s0 1.062-1.278 1.062h-1.114s-1.278 0-1.278-1.06V369.64h3.668zM183.505 369.64v3.94s0 1.062-1.278 1.062h-1.113s-1.278 0-1.278-1.06V369.64h3.669zM163.925 353.695v6.99s0 1.882-1.883 1.882h-1.638s-1.883 0-1.883-1.882v-6.99H163.926zM171.53 353.695v6.99s0 1.882-1.883 1.882h-1.638s-1.884 0-1.884-1.882v-6.99H171.53zM179.135 353.695v6.99s0 1.882-1.883 1.882h-1.638s-1.883 0-1.883-1.882v-6.99H179.136zM187.074 353.695v6.99s0 1.882-1.883 1.882h-1.637s-1.883 0-1.883-1.882v-6.99H187.075z" fill="#504e4d"/></g><path d="M166.024 75.43h1.917v-6.255h-1.916v6.254z" fill="#504e4d"/><path d="M217.64 69.23h-51.616v1.916h51.617V69.23z" fill="#504e4d"/><path d="M215.35 63.92h-47.407v1.92h47.406v-1.92z"/><path d="M215.724 75.43h1.917v-6.255h-1.916v6.254z" fill="#504e4d"/><g clip-path="url(#bz)" transform="matrix(1.25 0 0 -1.25 -20.37 536.81)"><path d="M162.79 326.823v3.942s0 1.06-1.363 1.06h-1.187s-1.364 0-1.364-1.06v-3.942h3.915zM177.713 314.246v3.942s0 1.06-1.364 1.06h-1.188s-1.364 0-1.364-1.06v-3.942h3.914zM187.64 314.246v3.942s0 1.06-1.363 1.06h-1.187s-1.364 0-1.364-1.06v-3.942h3.915zM186.81 338.158v2.27s0 .612-.785.612h-.683s-.786 0-.786-.612v-2.27h2.255zM178.455 338.158v2.27s0 .612-.786.612h-.684s-.786 0-.786-.612v-2.27h2.254zM170.656 338.158v2.27s0 .612-.786.612h-.683s-.786 0-.786-.612v-2.27H170.657zM162.858 338.158v2.27s0 .612-.786.612h-.683s-.787 0-.787-.612v-2.27h2.254zM154.502 338.158v2.27s0 .612-.786.612h-.683s-.786 0-.786-.612v-2.27h2.255z" fill="#504e4d"/></g><path d="M169.192 75.43h.835v-4.77h-.834v4.77zM171.652 75.43h.834v-4.77h-.834v4.77zM174.114 75.43h.833v-4.77h-.833v4.77zM177.39 75.43h.835v-4.77h-.834v4.77zM179.84 75.43h.833v-4.77h-.834v4.77zM183.703 75.43h.833v-4.77h-.833v4.77zM186.475 75.43h.835v-4.77h-.835v4.77zM188.83 75.43h.835v-4.77h-.835v4.77zM191.686 75.43h.834v-4.77h-.834v4.77zM194.376 75.43h.834v-4.77h-.834v4.77zM196.877 75.43h.834v-4.77h-.833v4.77zM200.455 75.43h.834v-4.77h-.835v4.77zM203.55 75.43h.832v-4.77h-.833v4.77zM206.717 75.43h.834v-4.77h-.833v4.77zM209.01 75.43h.835v-4.77h-.834v4.77zM211.735 75.43h.834v-4.77h-.835v4.77zM214.18 75.43h.835v-4.77h-.834v4.77z" fill="#504e4d"/><g clip-path="url(#bA)" transform="matrix(1.25 0 0 -1.25 -20.37 536.81)"><path d="M41.31 269.863s-1 0-1-1v-3.438s0-1 1-1h372.86s1 0 1 1v3.438s0 1-1 1H41.31z" fill="#38505e"/><path d="M97.96 264.426s-1 0-1-1v-3.438s0-1 1-1h254.2s1 0 1 1v3.438s0 1-1 1H97.96z" fill="#38505e"/><path d="M84.438 258.988s-1 0-1-1v-3.438s0-1 1-1h254.2s1 0 1 1v3.438s0 1-1 1h-254.2zM132.228 253.55s-1 0-1-1v-3.438s0-1 1-1h55.348s1 0 1 1v3.438s0 1-1 1h-55.348z" fill="#4b7fb6"/><path d="M17.3 248.112s-1 0-1-1v-3.438s0-1 1-1h220.63s1 0 1 1v3.438s0 1-1 1H17.3zM39.68 242.674s-1 0-1-1v-3.438s0-1 1-1h220.63s1 0 1 1v3.438s0 1-1 1H39.68zM51.335 237.236s-1 0-1-1v-3.438s0-1 1-1h220.63s1 0 1 1v3.438s0 1-1 1H51.336z" fill="#8fb7c2"/><path d="M186.64 253.55s-1 0-1-1v-3.438s0-1 1-1h208.18s1 0 1 1v3.438s0 1-1 1H186.64zM213.587 248.112s-1 0-1-1v-3.438s0-1 1-1H402.98s1 0 1 1v3.438s0 1-1 1H213.587zM216.735 242.674s-1 0-1-1v-3.438s0-1 1-1h146.382s1 0 1 1v3.438s0 1-1 1H216.735zM237.366 237.236s-1 0-1-1v-3.438s0-1 1-1h172.608s1 0 1 1v3.438s0 1-1 1H237.366z" fill="#82c0bf"/><path d="M21.257 265.173s-3 0-3-3v-2.046s0-3 3-3h368.86s3 0 3 3v2.046s0 3-3 3H21.256z" fill="#38505e"/><path d="M17.3 267.892s-1 0-1-1v-3.438s0-1 1-1h372.858s1 0 1 1v3.438s0 1-1 1H17.298zM400.605 269.863s-1 0-1-1v-3.438s0-1 1-1h372.86s1 0 1 1v3.438s0 1-1 1h-372.86z" fill="#38505e"/><path d="M457.253 264.426s-1 0-1-1v-3.438s0-1 1-1h254.2s1 0 1 1v3.438s0 1-1 1h-254.2z" fill="#38505e"/><path d="M443.732 258.988s-1 0-1-1v-3.438s0-1 1-1h254.2s1 0 1 1v3.438s0 1-1 1h-254.2zM491.522 253.55s-1 0-1-1v-3.438s0-1 1-1h55.348s1 0 1 1v3.438s0 1-1 1h-55.348z" fill="#4b7fb6"/><path d="M376.593 248.112s-1 0-1-1v-3.438s0-1 1-1h220.63s1 0 1 1v3.438s0 1-1 1h-220.63zM398.973 242.674s-1 0-1-1v-3.438s0-1 1-1h220.63s1 0 1 1v3.438s0 1-1 1h-220.63zM410.63 237.236s-1 0-1-1v-3.438s0-1 1-1h220.63s1 0 1 1v3.438s0 1-1 1H410.63z" fill="#8fb7c2"/><path d="M545.933 253.55s-1 0-1-1v-3.438s0-1 1-1h208.182s1 0 1 1v3.438s0 1-1 1H545.933zM572.88 248.112s-1 0-1-1v-3.438s0-1 1-1h189.394s1 0 1 1v3.438s0 1-1 1H572.88zM576.03 242.674s-1 0-1-1v-3.438s0-1 1-1h146.38s1 0 1 1v3.438s0 1-1 1H576.03zM596.66 237.236s-1 0-1-1v-3.438s0-1 1-1h172.608s1 0 1 1v3.438s0 1-1 1H596.66z" fill="#82c0bf"/><path d="M380.55 265.173s-3 0-3-3v-2.046s0-3 3-3h368.86s3 0 3 3v2.046s0 3-3 3H380.55z" fill="#38505e"/><path d="M376.593 267.892s-1 0-1-1v-3.438s0-1 1-1h372.86s1 0 1 1v3.438s0 1-1 1h-372.86z" fill="#38505e"/><path d="M457.137 269.863s-1 0-1-1v-3.438s0-1 1-1h372.858s1 0 1 1v3.438s0 1-1 1H457.137z" fill="#38505e"/><path d="M513.785 264.426s-1 0-1-1v-3.438s0-1 1-1h254.2s1 0 1 1v3.438s0 1-1 1h-254.2z" fill="#38505e"/><path d="M500.264 258.988s-1 0-1-1v-3.438s0-1 1-1h254.2s1 0 1 1v3.438s0 1-1 1h-254.2zM548.054 253.55s-1 0-1-1v-3.438s0-1 1-1h55.348s1 0 1 1v3.438s0 1-1 1h-55.348z" fill="#4b7fb6"/><path d="M433.125 248.112s-1 0-1-1v-3.438s0-1 1-1h220.63s1 0 1 1v3.438s0 1-1 1h-220.63zM455.505 242.674s-1 0-1-1v-3.438s0-1 1-1h220.63s1 0 1 1v3.438s0 1-1 1h-220.63zM467.16 237.236s-1 0-1-1v-3.438s0-1 1-1h220.632s1 0 1 1v3.438s0 1-1 1h-220.63z" fill="#8fb7c2"/><path d="M602.464 253.55s-1 0-1-1v-3.438s0-1 1-1h208.182s1 0 1 1v3.438s0 1-1 1H602.464zM629.413 248.112s-1 0-1-1v-3.438s0-1 1-1h189.393s1 0 1 1v3.438s0 1-1 1H629.413zM632.56 242.674s-1 0-1-1v-3.438s0-1 1-1h146.382s1 0 1 1v3.438s0 1-1 1H632.56zM653.192 237.236s-1 0-1-1v-3.438s0-1 1-1H825.8s1 0 1 1v3.438s0 1-1 1H653.192z" fill="#82c0bf"/><path d="M437.083 265.173s-3 0-3-3v-2.046s0-3 3-3h368.86s3 0 3 3v2.046s0 3-3 3h-368.86z" fill="#38505e"/><path d="M433.125 267.892s-1 0-1-1v-3.438s0-1 1-1h372.86s1 0 1 1v3.438s0 1-1 1h-372.86z" fill="#38505e"/></g></svg>