<svg xmlns="http://www.w3.org/2000/svg" viewBox="90.18 977.405 610.109 200"><path d="M117.073 1177.405h22.645c5.352 0 12.006-3.76 14.77-8.376l19.072-31.727c2.255-4.65 2.173-11.427-.397-15.712l-11.26-18.633-44.83 74.448z" fill="#f6c25b"/><path d="M141.413 1085.78l-50.35 84.172c-1.943 4.148.08 7.453 5.07 7.453h20.94l44.83-74.448-20.49-33.916c2.762 4.597 2.762 12.132 0 16.74" fill="#0a985c"/><path d="M96.134 977.405c-5.38 0-7.502 3.78-4.747 8.366l81.776 135.822c2.57 4.285 2.646 11.06.397 15.705l19.876-33.078-76.35-126.814H96.135z" fill="#5586c5"/><path d="M117.087 977.405l76.35 126.813 11.072-18.432c2.767-4.613 2.767-12.148 0-16.744l-50.018-83.27c-2.77-4.587-9.423-8.367-14.774-8.367h-22.63z" fill="#d9423e"/><path fill="#168B58" d="M141.413 1085.78l-12.032 20.114 21.536 15.307 10.985-18.242-20.487-33.916c2.762 4.595 2.762 12.13 0 16.737z"/><path fill="#D7AB56" d="M161.902 1102.957l-10.985 18.243 22.646 16.096c2.252-4.65 2.17-11.422-.4-15.705l-11.26-18.633z"/><g><path d="M473.285 1037.446c0 8.922-2.443 15.8-7.314 20.62-4.873 4.818-11.728 7.24-20.556 7.24h-17.17v-53.448h18.367c8.514 0 15.09 2.197 19.72 6.585 4.635 4.376 6.955 10.72 6.955 19.003zm-14.884.515c0-4.896-.96-8.528-2.883-10.897-1.914-2.358-4.84-3.543-8.763-3.543h-4.173v29.935h3.2c4.35 0 7.553-1.275 9.586-3.814 2.017-2.55 3.035-6.44 3.035-11.68zM497.352 1066.038c-6.856 0-12.17-1.836-15.957-5.502-3.783-3.67-5.68-8.9-5.68-15.668 0-6.99 1.75-12.367 5.257-16.102 3.51-3.738 8.52-5.61 15.023-5.61 6.19 0 10.974 1.625 14.354 4.88 3.376 3.252 5.057 7.934 5.057 14.06v6.36h-25.355c.092 2.313.936 4.125 2.515 5.44 1.59 1.322 3.745 1.972 6.48 1.972 2.49 0 4.784-.24 6.878-.708 2.085-.475 4.362-1.285 6.798-2.43V1063a24.66 24.66 0 0 1-6.89 2.38c-2.374.44-5.204.658-8.48.658zm-.845-33.158c-1.667 0-3.06.533-4.186 1.592-1.133 1.056-1.783 2.72-1.98 4.986h12.196c-.05-1.996-.61-3.588-1.69-4.788-1.078-1.2-2.527-1.79-4.34-1.79zM529.744 1065.306l-15.673-41.424h14.806l6.965 24.495c.02.126.073.328.15.625.07.29.144.64.213 1.036.078.406.143.834.198 1.288.066.45.097.868.097 1.254h.246c0-1.258.222-2.638.656-4.125l7.292-24.573h14.765l-15.68 41.424h-14.033zM574.853 1065.306h-14.115v-53.45h31.353v11.592h-17.237v10.2h15.89v11.59h-15.89v20.068zM615.35 1066.038c-6.848 0-12.148-1.836-15.95-5.502-3.782-3.67-5.676-8.9-5.676-15.668 0-6.99 1.75-12.367 5.257-16.102 3.51-3.738 8.514-5.61 15.024-5.61 6.19 0 10.975 1.625 14.35 4.88 3.377 3.252 5.055 7.934 5.055 14.06v6.36h-25.36c.1 2.313.945 4.125 2.527 5.44 1.583 1.322 3.736 1.972 6.476 1.972 2.488 0 4.785-.24 6.883-.708 2.078-.475 4.35-1.285 6.794-2.43V1063a24.78 24.78 0 0 1-6.89 2.38c-2.375.44-5.2.658-8.49.658zm-.84-33.158c-1.66 0-3.06.533-4.186 1.592-1.128 1.056-1.784 2.72-1.97 4.986h12.186c-.054-1.996-.615-3.588-1.685-4.788-1.084-1.2-2.527-1.79-4.344-1.79zM668.727 1052.58c0 4.436-1.497 7.79-4.5 10.053-3 2.266-7.305 3.404-12.916 3.404-3.044 0-5.7-.16-7.945-.496-2.252-.327-4.542-.935-6.89-1.803v-11.444c2.205.977 4.615 1.783 7.243 2.412 2.618.63 4.962.943 7.016.943 3.08 0 4.61-.7 4.61-2.11 0-.733-.43-1.39-1.29-1.957-.852-.573-3.353-1.687-7.49-3.344-3.775-1.565-6.407-3.335-7.907-5.324-1.507-1.98-2.252-4.497-2.252-7.545 0-3.848 1.47-6.85 4.426-8.99 2.947-2.154 7.12-3.223 12.516-3.223 2.71 0 5.257.297 7.645.9 2.376.597 4.844 1.465 7.414 2.613l-3.848 9.213a43.284 43.284 0 0 0-5.99-2.177c-2.103-.598-3.812-.888-5.148-.888-2.32 0-3.475.567-3.475 1.708 0 .707.403 1.316 1.206 1.804.812.506 3.153 1.524 7.03 3.058 2.87 1.2 5.02 2.37 6.438 3.516 1.41 1.146 2.454 2.492 3.12 4.037.66 1.55.99 3.422.99 5.643zM692.287 1054.744c1.908 0 4.194-.48 6.852-1.432v10.426c-1.918.823-3.733 1.408-5.465 1.767-1.726.36-3.756.533-6.08.533-4.76 0-8.202-1.18-10.294-3.523-2.115-2.358-3.167-5.97-3.167-10.846v-17.067h-4.962v-5.82l6.306-4.496 3.667-8.697h9.293v8.293h10.092v10.72h-10.092v16.12c0 2.674 1.282 4.02 3.85 4.02z" fill="#4e4e4e"/><g><path d="M273.274 1035.265h23.072v28.81c-6.267 2.143-13.157 3.22-20.66 3.22-8.24 0-14.61-2.39-19.104-7.17-4.497-4.775-6.746-11.59-6.746-20.436 0-8.636 2.46-15.345 7.385-20.15 4.93-4.8 11.826-7.206 20.698-7.206 3.367 0 6.54.32 9.528.953 2.977.633 5.585 1.44 7.81 2.41l-4.573 11.33c-3.848-1.892-8.086-2.842-12.686-2.842-4.218 0-7.478 1.37-9.782 4.115-2.31 2.734-3.46 6.653-3.46 11.755 0 4.996 1.044 8.803 3.13 11.42 2.08 2.625 5.084 3.933 9.012 3.933 2.15 0 4.125-.2 5.93-.622v-8.372h-9.55v-11.15h-.003zM348.134 1038.7c0 8.926-2.46 15.798-7.372 20.626-4.912 4.825-11.812 7.24-20.714 7.24H302.75v-53.462h18.504c8.582 0 15.208 2.194 19.877 6.585 4.666 4.387 7.004 10.72 7.004 19.01zm-14.99.516c0-4.904-.975-8.536-2.912-10.89-1.938-2.376-4.877-3.55-8.828-3.55h-4.21v29.94h3.218c4.39 0 7.604-1.27 9.655-3.82 2.05-2.543 3.076-6.442 3.076-11.68zM374.688 1035.265h23.073v28.81c-6.267 2.143-13.147 3.22-20.66 3.22-8.243 0-14.61-2.39-19.107-7.17-4.49-4.775-6.747-11.59-6.747-20.436 0-8.636 2.465-15.345 7.393-20.15 4.923-4.8 11.82-7.206 20.7-7.206 3.35 0 6.533.32 9.52.953 2.983.633 5.587 1.44 7.81 2.41l-4.574 11.33c-3.85-1.892-8.083-2.842-12.692-2.842-4.214 0-7.47 1.37-9.774 4.115-2.304 2.734-3.456 6.653-3.456 11.755 0 4.996 1.04 8.803 3.123 11.42 2.082 2.625 5.09 3.933 9.016 3.933 2.143 0 4.118-.2 5.92-.622v-8.372h-9.547v-11.15z" fill="#4e4e4e"/></g><g fill="#4e4e4e"><path d="M288.27 1138.443h-32.046v-5.755l12.19-12.257c3.602-3.683 5.987-6.297 7.163-7.838 1.175-1.54 2.034-2.994 2.57-4.35.54-1.36.81-2.812.81-4.367 0-2.132-.642-3.814-1.924-5.044-1.286-1.225-3.056-1.84-5.322-1.84-1.81 0-3.56.334-5.252 1-1.694.67-3.65 1.876-5.87 3.622l-4.11-5.013c2.632-2.22 5.185-3.794 7.666-4.72 2.478-.926 5.12-1.39 7.922-1.39 4.398 0 7.926 1.147 10.578 3.444 2.653 2.293 3.978 5.382 3.978 9.264 0 2.132-.386 4.16-1.148 6.08-.765 1.916-1.942 3.895-3.527 5.93-1.582 2.038-4.22 4.792-7.905 8.264l-8.215 7.955v.32h22.443v6.696zM326.076 1114.806c0 8.212-1.32 14.315-3.96 18.303-2.643 3.987-6.68 5.98-12.113 5.98-5.26 0-9.248-2.058-11.965-6.176-2.717-4.118-4.074-10.153-4.074-18.108 0-8.345 1.32-14.492 3.96-18.45 2.643-3.953 6.67-5.93 12.08-5.93 5.283 0 9.28 2.07 11.998 6.208 2.717 4.138 4.074 10.197 4.074 18.172zm-24.415 0c0 6.445.664 11.048 1.99 13.805 1.326 2.762 3.445 4.143 6.353 4.143 2.91 0 5.04-1.4 6.387-4.207 1.347-2.802 2.02-7.38 2.02-13.74 0-6.34-.673-10.925-2.02-13.76-1.347-2.834-3.476-4.252-6.387-4.252-2.908 0-5.027 1.39-6.353 4.172-1.326 2.782-1.99 7.395-1.99 13.84zM354.148 1138.443h-7.6v-30.526c0-3.643.085-6.53.26-8.666-.496.52-1.107 1.09-1.828 1.716-.722.625-3.14 2.607-7.26 5.95l-3.816-4.82 13.906-10.927h6.34v47.273zM385.68 1108.922c4.764 0 8.536 1.26 11.32 3.783 2.78 2.522 4.172 5.96 4.172 10.313 0 5.044-1.58 8.984-4.74 11.82-3.157 2.837-7.645 4.25-13.468 4.25-5.28 0-9.432-.85-12.45-2.55v-6.89c1.746.99 3.752 1.756 6.014 2.296 2.266.54 4.368.81 6.306.81 3.428 0 6.038-.765 7.826-2.296 1.79-1.53 2.686-3.773 2.686-6.73 0-5.644-3.602-8.47-10.803-8.47-1.01 0-2.262.103-3.75.308a44.13 44.13 0 0 0-3.912.697l-3.396-2.006 1.81-23.087h24.58v6.756h-17.883l-1.068 11.707c.755-.13 1.678-.28 2.765-.454 1.087-.173 2.42-.258 3.992-.258z"/><g style="line-height:125%;-inkscape-font-specification:'Open Sans Bold'" font-weight="700" font-size="67.5" font-family="Open Sans" letter-spacing="0" word-spacing="0"><path d="M428.244 1138.43v-48.187h10.218v48.186h-10.218zM475.574 1127.487q0 5.67-3.956 8.635-3.922 2.967-11.766 2.967-4.02 0-6.855-.562-2.835-.527-5.307-1.582v-8.305q2.802 1.32 6.295 2.21 3.527.89 6.197.89 5.47 0 5.47-3.165 0-1.187-.724-1.912-.725-.758-2.505-1.68-1.78-.957-4.746-2.21-4.252-1.78-6.262-3.295-1.978-1.516-2.9-3.46-.89-1.978-.89-4.846 0-4.91 3.79-7.58 3.823-2.703 10.81-2.703 6.658 0 12.953 2.9l-3.032 7.25q-2.77-1.186-5.175-1.944t-4.91-.758q-4.45 0-4.45 2.406 0 1.35 1.418 2.34 1.45.99 6.295 2.933 4.318 1.747 6.328 3.263 2.012 1.516 2.968 3.494.956 1.977.956 4.713zM499.007 1131.08q2.637 0 6.33-1.154v7.482q-3.76 1.68-9.23 1.68-6.032 0-8.8-3.032-2.736-3.065-2.736-9.162v-17.765h-4.81v-4.253l5.536-3.362 2.9-7.778h6.428v7.844h10.316v7.55h-10.316v17.764q0 2.142 1.186 3.164 1.22 1.022 3.197 1.022zM536.284 1138.43l-1.945-5.01h-.264q-2.538 3.197-5.24 4.45-2.67 1.22-6.988 1.22-5.306 0-8.372-3.034-3.032-3.032-3.032-8.635 0-5.866 4.087-8.634 4.12-2.802 12.394-3.098l6.394-.198v-1.615q0-5.603-5.735-5.603-4.417 0-10.382 2.67l-3.328-6.79q6.36-3.33 14.106-3.33 7.416 0 11.37 3.23 3.956 3.23 3.956 9.823v24.554h-7.02zm-2.966-17.073l-3.89.132q-4.383.13-6.525 1.58-2.143 1.45-2.143 4.417 0 4.252 4.878 4.252 3.494 0 5.57-2.012 2.11-2.01 2.11-5.34v-3.03zM587.634 1138.43h-10.052v-21.523q0-3.988-1.418-5.965-1.417-2.01-4.515-2.01-4.22 0-6.098 2.834-1.88 2.8-1.88 9.327v17.336H553.62v-36.85h7.68l1.35 4.714h.56q1.682-2.67 4.616-4.02 2.966-1.385 6.723-1.385 6.426 0 9.755 3.493 3.33 3.46 3.33 10.02v24.026zM618.55 1100.89q6.526 0 10.217 5.108 3.69 5.076 3.69 13.942 0 9.13-3.822 14.14-3.79 5.01-10.35 5.01-6.492 0-10.183-4.714h-.693l-1.68 4.053h-7.68v-51.285H608.1v11.93q0 2.276-.396 7.285h.396q3.526-5.47 10.448-5.47zm-3.23 8.04q-3.725 0-5.44 2.308-1.712 2.274-1.778 7.548v1.088q0 5.932 1.746 8.503 1.78 2.57 5.603 2.57 3.1 0 4.912-2.834 1.846-2.867 1.846-8.305 0-5.44-1.846-8.14-1.845-2.737-5.042-2.737zM666.867 1138.43l-1.35-4.714h-.528q-1.616 2.57-4.582 3.988-2.967 1.385-6.757 1.385-6.492 0-9.788-3.462-3.296-3.494-3.296-10.02v-24.027h10.053v21.523q0 3.99 1.416 6 1.417 1.977 4.515 1.977 4.22 0 6.1-2.802 1.877-2.834 1.877-9.36v-17.337h10.053v36.85h-7.713zM695.113 1138.43H685.06v-51.285h10.053v51.284z"/></g></g></g></svg>