<svg xmlns="http://www.w3.org/2000/svg" id="dark" viewBox="95.2 1678.4 610.1 200"><style id="style3">.st0{fill:#f6c25b}.st1{fill:#0a985c}.st2{fill:#5586c5}.st3{fill:#d9423e}.st4{fill:#e6e6e5}.st5{fill:#168b58}.st6{fill:#d7ab56}</style><g id="g5"><g id="g7"><path class="st0" d="M122.1 1878.4h22.6c5.4 0 12-3.8 14.8-8.4l19.1-31.7c2.3-4.7 2.2-11.4-.4-15.7l-11.3-18.6-44.8 74.4z" id="path9"/><path class="st1" d="M146.4 1786.8L96.1 1871c-1.9 4.1.1 7.5 5.1 7.5h20.9l44.8-74.4-20.5-33.9c2.8 4.4 2.8 12 0 16.6" id="path11"/><path class="st2" d="M101.1 1678.4c-5.4 0-7.5 3.8-4.7 8.4l81.8 135.8c2.6 4.3 2.6 11.1.4 15.7l19.9-33.1-76.3-126.8h-21.1z" id="path13"/><path class="st3" d="M122.1 1678.4l76.3 126.8 11.1-18.4c2.8-4.6 2.8-12.1 0-16.7l-50-83.3c-2.8-4.6-9.4-8.4-14.8-8.4h-22.6z" id="path15"/></g><g id="g17"><path class="st4" d="M293.3 1839.084h-32v-5.8l12.2-12.3c3.6-3.7 6-6.3 7.2-7.8 1.2-1.5 2-3 2.6-4.3.5-1.4.8-2.8.8-4.4 0-2.1-.6-3.8-1.9-5-1.3-1.2-3.1-1.8-5.3-1.8-1.8 0-3.6.3-5.3 1-1.7.7-3.6 1.9-5.9 3.6l-4.1-5c2.6-2.2 5.2-3.8 7.7-4.7 2.5-.9 5.1-1.4 7.9-1.4 4.4 0 7.9 1.1 10.6 3.4 2.7 2.3 4 5.4 4 9.3 0 2.1-.4 4.2-1.1 6.1-.8 1.9-1.9 3.9-3.5 5.9-1.6 2-4.2 4.8-7.9 8.3l-8.2 8v.3h22.4l-.2 6.6z" id="path23" fill="#e6e6e5"/><path class="st4" d="M331.1 1814.784c0 8.2-1.3 14.3-4 18.3s-6.7 6-12.1 6c-5.3 0-9.2-2.1-12-6.2-2.7-4.1-4.1-10.2-4.1-18.1 0-8.3 1.3-14.5 4-18.4 2.6-4 6.7-5.9 12.1-5.9 5.3 0 9.3 2.1 12 6.2 2.7 4.1 4.1 10.1 4.1 18.1zm-24.4 0c0 6.4.7 11 2 13.8 1.3 2.8 3.4 4.1 6.4 4.1 2.9 0 5-1.4 6.4-4.2 1.3-2.8 2-7.4 2-13.7 0-6.3-.7-10.9-2-13.8-1.3-2.8-3.5-4.3-6.4-4.3-2.9 0-5 1.4-6.4 4.2-1.4 2.9-2 7.5-2 13.9z" id="path25" fill="#e6e6e5"/><path class="st4" d="M359.1 1839.084h-7.6v-30.5c0-3.6.1-6.5.3-8.7-.5.5-1.1 1.1-1.8 1.7-.7.6-3.1 2.6-7.3 5.9l-3.8-4.8 13.9-10.9h6.3v47.3z" id="path27" fill="#e6e6e5"/><path class="st4" d="M390.7 1808.884c4.8 0 8.5 1.3 11.3 3.8 2.8 2.5 4.2 6 4.2 10.3 0 5-1.6 9-4.7 11.8-3.2 2.8-7.6 4.3-13.5 4.3-5.3 0-9.4-.9-12.5-2.6v-6.9c1.7 1 3.8 1.8 6 2.3 2.3.5 4.4.8 6.3.8 3.4 0 6-.8 7.8-2.3 1.8-1.5 2.7-3.8 2.7-6.7 0-5.6-3.6-8.5-10.8-8.5-1 0-2.3.1-3.7.3-1.5.2-2.8.4-3.9.7l-3.4-2 1.8-23.1h24.6v6.8H385l-1.1 11.7c.8-.1 1.7-.3 2.8-.5 1.1-.1 2.4-.2 4-.2z" id="path29" fill="#e6e6e5"/><g id="g45"><g id="g47"><path id="path49" d="M479.4 1738.4c0 8.9-2.4 15.8-7.3 20.6-4.9 4.8-11.7 7.2-20.6 7.2h-17.2v-53.4h18.4c8.5 0 15.1 2.2 19.7 6.6 4.7 4.4 7 10.8 7 19zm-14.9.6c0-4.9-1-8.5-2.9-10.9-1.9-2.4-4.8-3.5-8.8-3.5h-4.2v29.9h3.2c4.4 0 7.6-1.3 9.6-3.8 2.1-2.6 3.1-6.5 3.1-11.7z" class="st4" fill="#e6e6e5"/></g><g id="g51"><path id="path53" d="M503.5 1767c-6.9 0-12.2-1.8-16-5.5-3.8-3.7-5.7-8.9-5.7-15.7 0-7 1.8-12.4 5.3-16.1 3.5-3.7 8.5-5.6 15-5.6 6.2 0 11 1.6 14.4 4.9 3.4 3.3 5.1 7.9 5.1 14.1v6.4h-25.4c.1 2.3.9 4.1 2.5 5.4 1.6 1.3 3.7 2 6.5 2 2.5 0 4.8-.2 6.9-.7 2.1-.5 4.4-1.3 6.8-2.4v10.3c-2.2 1.2-4.5 1.9-6.9 2.4-2.4.3-5.2.5-8.5.5zm-.8-33.1c-1.7 0-3.1.5-4.2 1.6s-1.8 2.7-2 5h12.2c-.1-2-.6-3.6-1.7-4.8-1.1-1.2-2.5-1.8-4.3-1.8z" class="st4" fill="#e6e6e5"/></g><g id="g55"><path id="path57" d="M535.9 1766.3l-15.7-41.4H535l7 24.5c0 .1.1.3.2.6s.1.6.2 1 .1.8.2 1.3.1.9.1 1.3h.2c0-1.3.2-2.6.7-4.1l7.3-24.6h14.8l-15.7 41.4h-14.1z" class="st4" fill="#e6e6e5"/></g><g id="g59"><path id="path61" d="M581 1766.3h-14.1v-53.4h31.4v11.6H581v10.2h15.9v11.6H581v20z" class="st4" fill="#e6e6e5"/></g><g id="g63"><path id="path65" d="M621.5 1767c-6.8 0-12.1-1.8-16-5.5-3.8-3.7-5.7-8.9-5.7-15.7 0-7 1.8-12.4 5.3-16.1 3.5-3.7 8.5-5.6 15-5.6 6.2 0 11 1.6 14.4 4.9 3.4 3.3 5.1 7.9 5.1 14.1v6.4h-25.4c.1 2.3.9 4.1 2.5 5.4 1.6 1.3 3.7 2 6.5 2 2.5 0 4.8-.2 6.9-.7 2.1-.5 4.3-1.3 6.8-2.4v10.3c-2.2 1.2-4.5 1.9-6.9 2.4-2.4.3-5.2.5-8.5.5zm-.8-33.1c-1.7 0-3.1.5-4.2 1.6s-1.8 2.7-2 5h12.2c-.1-2-.6-3.6-1.7-4.8-1.1-1.2-2.5-1.8-4.3-1.8z" class="st4" fill="#e6e6e5"/></g><g id="g67"><path id="path69" d="M674.9 1753.6c0 4.4-1.5 7.8-4.5 10.1s-7.3 3.4-12.9 3.4c-3 0-5.7-.2-7.9-.5-2.3-.3-4.5-.9-6.9-1.8v-11.4c2.2 1 4.6 1.8 7.2 2.4 2.6.6 5 .9 7 .9 3.1 0 4.6-.7 4.6-2.1 0-.7-.4-1.4-1.3-2-.9-.6-3.4-1.7-7.5-3.3-3.8-1.6-6.4-3.3-7.9-5.3s-2.3-4.5-2.3-7.5c0-3.8 1.5-6.8 4.4-9 2.9-2.2 7.1-3.2 12.5-3.2 2.7 0 5.3.3 7.6.9 2.4.6 4.8 1.5 7.4 2.6l-3.8 9.2c-1.9-.8-3.9-1.6-6-2.2-2.1-.6-3.8-.9-5.1-.9-2.3 0-3.5.6-3.5 1.7 0 .7.4 1.3 1.2 1.8.8.5 3.2 1.5 7 3.1 2.9 1.2 5 2.4 6.4 3.5 1.4 1.1 2.5 2.5 3.1 4 .8 1.5 1.2 3.4 1.2 5.6z" class="st4" fill="#e6e6e5"/></g><g id="g71"><path id="path73" d="M698.4 1755.7c1.9 0 4.2-.5 6.9-1.4v10.4c-1.9.8-3.7 1.4-5.5 1.8-1.7.4-3.8.5-6.1.5-4.8 0-8.2-1.2-10.3-3.5-2.1-2.4-3.2-6-3.2-10.8v-17.1h-5v-5.8l6.3-4.5 3.7-8.7h9.3v8.3h10.1v10.7h-10.1v16.1c.1 2.7 1.4 4 3.9 4z" class="st4" fill="#e6e6e5"/></g></g><g id="g75"><g id="g77"><path id="path79" d="M278.3 1736.3h23.1v28.8c-6.3 2.1-13.2 3.2-20.7 3.2-8.2 0-14.6-2.4-19.1-7.2-4.5-4.8-6.7-11.6-6.7-20.4 0-8.6 2.5-15.3 7.4-20.1 4.9-4.8 11.8-7.2 20.7-7.2 3.4 0 6.5.3 9.5 1 3 .6 5.6 1.4 7.8 2.4l-4.6 11.3c-3.8-1.9-8.1-2.8-12.7-2.8-4.2 0-7.5 1.4-9.8 4.1-2.3 2.7-3.5 6.7-3.5 11.8 0 5 1 8.8 3.1 11.4 2.1 2.6 5.1 3.9 9 3.9 2.1 0 4.1-.2 5.9-.6v-8.4h-9.5l.1-11.2z" class="st4" fill="#e6e6e5"/></g><g id="g81"><path id="path83" d="M353.1 1739.7c0 8.9-2.5 15.8-7.4 20.6-4.9 4.8-11.8 7.2-20.7 7.2h-17.3V1714h18.5c8.6 0 15.2 2.2 19.9 6.6 4.7 4.5 7 10.8 7 19.1zm-15 .5c0-4.9-1-8.5-2.9-10.9-1.9-2.4-4.9-3.6-8.8-3.6h-4.2v29.9h3.2c4.4 0 7.6-1.3 9.7-3.8 2-2.4 3-6.3 3-11.6z" class="st4" fill="#e6e6e5"/></g><g id="g85"><path id="path87" d="M379.7 1736.3h23.1v28.8c-6.3 2.1-13.1 3.2-20.7 3.2-8.2 0-14.6-2.4-19.1-7.2-4.5-4.8-6.7-11.6-6.7-20.4 0-8.6 2.5-15.3 7.4-20.1 4.9-4.8 11.8-7.2 20.7-7.2 3.4 0 6.5.3 9.5 1 3 .6 5.6 1.4 7.8 2.4l-4.6 11.3c-3.9-1.9-8.1-2.8-12.7-2.8-4.2 0-7.5 1.4-9.8 4.1-2.3 2.7-3.5 6.7-3.5 11.8 0 5 1 8.8 3.1 11.4 2.1 2.6 5.1 3.9 9 3.9 2.1 0 4.1-.2 5.9-.6v-8.4h-9.5l.1-11.2z" class="st4" fill="#e6e6e5"/></g></g><g style="line-height:125%" id="text3425" font-weight="400" font-size="70" font-family="Open Sans" letter-spacing="0" word-spacing="0" fill="#dfdfdf"><path d="M431.07 1838.4v-49.97h5.81v49.97h-5.81z" style="-inkscape-font-specification:'Open Sans'" id="path4171"/><path d="M473.93 1828.18q0 5.23-3.895 8.067-3.897 2.837-10.938 2.837-7.45 0-11.62-2.36v-5.263q2.7 1.37 5.776 2.155 3.11.786 5.98.786 4.445 0 6.837-1.4 2.393-1.436 2.393-4.34 0-2.19-1.914-3.727-1.88-1.572-7.384-3.69-5.23-1.95-7.45-3.385-2.19-1.47-3.283-3.315-1.06-1.846-1.06-4.41 0-4.58 3.726-7.212 3.725-2.665 10.22-2.665 6.05 0 11.825 2.46l-2.016 4.616q-5.64-2.323-10.22-2.323-4.034 0-6.085 1.264-2.05 1.266-2.05 3.487 0 1.504.75 2.564.787 1.06 2.496 2.018 1.71.957 6.564 2.768 6.665 2.427 8.99 4.888 2.357 2.46 2.357 6.186z" style="-inkscape-font-specification:'Open Sans'" id="path4173"/><path d="M495.225 1834.4q1.504 0 2.906-.204 1.402-.24 2.222-.48v4.342q-.922.445-2.734.718-1.777.308-3.213.308-10.87 0-10.87-11.45v-22.286h-5.365v-2.734l5.366-2.358 2.393-8h3.28v8.683h10.87v4.408h-10.87v22.046q0 3.384 1.606 5.196 1.607 1.81 4.41 1.81z" style="-inkscape-font-specification:'Open Sans'" id="path4175"/><path d="M530.91 1838.4l-1.13-5.332h-.272q-2.803 3.52-5.606 4.785-2.768 1.23-6.938 1.23-5.572 0-8.75-2.87-3.145-2.872-3.145-8.17 0-11.347 18.15-11.894l6.356-.206v-2.324q0-4.41-1.914-6.494-1.88-2.12-6.05-2.12-4.682 0-10.596 2.872l-1.743-4.34q2.77-1.505 6.05-2.36 3.315-.854 6.63-.854 6.7 0 9.913 2.974 3.247 2.973 3.247 9.536v25.566h-4.204zm-12.818-4q5.297 0 8.305-2.904 3.042-2.905 3.042-8.135v-3.383l-5.675.24q-6.767.24-9.775 2.12-2.974 1.844-2.974 5.775 0 3.076 1.846 4.683 1.88 1.606 5.23 1.606z" style="-inkscape-font-specification:'Open Sans'" id="path4177"/><path d="M572.47 1838.4v-24.233q0-4.58-2.083-6.836-2.085-2.255-6.53-2.255-5.878 0-8.612 3.178-2.734 3.18-2.734 10.494v19.653h-5.673v-37.46h4.614l.924 5.126h.273q1.743-2.77 4.888-4.272 3.145-1.54 7.007-1.54 6.767 0 10.185 3.283 3.418 3.247 3.418 10.424v24.44h-5.673z" style="-inkscape-font-specification:'Open Sans'" id="path4179"/><path d="M607.198 1800.324q7.383 0 11.45 5.058 4.102 5.025 4.102 14.253 0 9.23-4.136 14.356-4.1 5.094-11.416 5.094-3.657 0-6.7-1.333-3.007-1.367-5.058-4.17h-.41l-1.196 4.82h-4.068v-53.184h5.674v12.92q0 4.34-.273 7.793h.273q3.965-5.606 11.758-5.606zm-.82 4.75q-5.81 0-8.374 3.35-2.564 3.316-2.564 11.21 0 7.897 2.632 11.315 2.632 3.383 8.442 3.383 5.23 0 7.793-3.794 2.564-3.83 2.564-10.973 0-7.314-2.563-10.903-2.563-3.59-7.93-3.59z" style="-inkscape-font-specification:'Open Sans'" id="path4181"/><path d="M638.028 1800.94v24.3q0 4.58 2.085 6.837 2.085 2.256 6.528 2.256 5.88 0 8.58-3.213 2.735-3.213 2.735-10.493v-19.688h5.674v37.46h-4.684l-.82-5.024h-.308q-1.743 2.768-4.853 4.238-3.077 1.47-7.04 1.47-6.837 0-10.255-3.247-3.384-3.247-3.384-10.39v-24.508h5.742z" style="-inkscape-font-specification:'Open Sans'" id="path4183"/><path d="M681.3 1838.4h-5.674v-53.184h5.674v53.184z" style="-inkscape-font-specification:'Open Sans'" id="path4185"/></g></g></g><path class="st5" d="M146.4 1786.8l-12 20.1 21.5 15.3 11-18.2-20.5-33.9c2.8 4.5 2.8 12.1 0 16.7z" id="path89"/><path class="st6" d="M166.9 1804l-11 18.2 22.6 16.1c2.3-4.7 2.2-11.4-.4-15.7l-11.2-18.6z" id="path91"/></svg>