<svg xmlns="http://www.w3.org/2000/svg" id="Layer_1" viewBox="428.2 1882.7 611.9 200"><style id="style3">.st0{fill:#FFFFFF;}</style><g id="g4337" fill="#fff"><path id="path13" d="M628.1 2043.95h-32v-5.8l12.2-12.3c3.6-3.7 6-6.3 7.2-7.8 1.2-1.5 2-3 2.6-4.3.5-1.4.8-2.8.8-4.4 0-2.1-.6-3.8-1.9-5-1.3-1.2-3.1-1.8-5.3-1.8-1.8 0-3.6.3-5.3 1-1.7.7-3.6 1.9-5.9 3.6l-4.1-5c2.6-2.2 5.2-3.8 7.7-4.7 2.5-.9 5.1-1.4 7.9-1.4 4.4 0 7.9 1.1 10.6 3.4 2.7 2.3 4 5.4 4 9.3 0 2.1-.4 4.2-1.1 6.1-.8 1.9-1.9 3.9-3.5 5.9-1.6 2-4.2 4.8-7.9 8.3l-8.2 8v.3h22.4l-.2 6.6z" class="st0"/><path id="path15" d="M665.9 2020.35c0 8.2-1.3 14.3-4 18.3s-6.7 6-12.1 6c-5.3 0-9.2-2.1-12-6.2-2.7-4.1-4.1-10.2-4.1-18.1 0-8.3 1.3-14.5 4-18.4 2.6-4 6.7-5.9 12.1-5.9 5.3 0 9.3 2.1 12 6.2 2.7 4.1 4.1 10.1 4.1 18.1zm-24.4 0c0 6.4.7 11 2 13.8 1.3 2.8 3.4 4.1 6.4 4.1 2.9 0 5-1.4 6.4-4.2 1.3-2.8 2-7.4 2-13.7 0-6.3-.7-10.9-2-13.8-1.3-2.8-3.5-4.3-6.4-4.3-2.9 0-5 1.4-6.4 4.2-1.4 2.9-2 7.4-2 13.9z" class="st0"/><path id="path17" d="M693.9 2043.95h-7.6v-30.5c0-3.6.1-6.5.3-8.7-.5.5-1.1 1.1-1.8 1.7-.7.6-3.1 2.6-7.3 5.9l-3.8-4.8 13.9-10.9h6.3v47.3z" class="st0"/><path id="path19" d="M725.5 2014.35c4.8 0 8.5 1.3 11.3 3.8 2.8 2.5 4.2 6 4.2 10.3 0 5-1.6 9-4.7 11.8-3.2 2.8-7.6 4.3-13.5 4.3-5.3 0-9.4-.9-12.5-2.6v-6.9c1.7 1 3.8 1.8 6 2.3 2.3.5 4.4.8 6.3.8 3.4 0 6-.8 7.8-2.3 1.8-1.5 2.7-3.8 2.7-6.7 0-5.6-3.6-8.5-10.8-8.5-1 0-2.3.1-3.7.3-1.5.2-2.8.4-3.9.7l-3.4-2 1.8-23.1h24.6v6.8h-17.9l-1.1 11.7c.8-.1 1.7-.3 2.8-.5 1.1-.1 2.4-.2 4-.2z" class="st0"/></g><g id="g35"><g id="g37"><path id="path39" d="M814.2 1942.7c0 8.9-2.4 15.8-7.3 20.6-4.9 4.8-11.7 7.2-20.6 7.2h-17.2V1917h18.4c8.5 0 15.1 2.2 19.7 6.6 4.7 4.5 7 10.8 7 19.1zm-14.9.5c0-4.9-1-8.5-2.9-10.9-1.9-2.4-4.8-3.5-8.8-3.5h-4.2v29.9h3.2c4.4 0 7.6-1.3 9.6-3.8 2.1-2.6 3.1-6.5 3.1-11.7z" class="st0" fill="#fff"/></g><g id="g41"><path id="path43" d="M838.3 1971.2c-6.9 0-12.2-1.8-16-5.5-3.8-3.7-5.7-8.9-5.7-15.7 0-7 1.8-12.4 5.3-16.1 3.5-3.7 8.5-5.6 15-5.6 6.2 0 11 1.6 14.4 4.9 3.4 3.3 5.1 7.9 5.1 14.1v6.4H831c.1 2.3.9 4.1 2.5 5.4 1.6 1.3 3.7 2 6.5 2 2.5 0 4.8-.2 6.9-.7 2.1-.5 4.4-1.3 6.8-2.4v10.3c-2.2 1.2-4.5 1.9-6.9 2.4-2.4.4-5.2.5-8.5.5zm-.8-33c-1.7 0-3.1.5-4.2 1.6s-1.8 2.7-2 5h12.2c-.1-2-.6-3.6-1.7-4.8-1.1-1.2-2.5-1.8-4.3-1.8z" class="st0" fill="#fff"/></g><g id="g45"><path id="path47" d="M870.7 1970.6l-15.7-41.4h14.8l7 24.5c0 .1.1.3.2.6s.1.6.2 1 .1.8.2 1.3.1.9.1 1.3h.2c0-1.3.2-2.6.7-4.1l7.3-24.6h14.8l-15.7 41.4h-14.1z" class="st0" fill="#fff"/></g><g id="g49"><path id="path51" d="M915.8 1970.6h-14.1v-53.4h31.4v11.6h-17.3v10.2h15.9v11.6h-15.9v20z" class="st0" fill="#fff"/></g><g id="g53"><path id="path55" d="M956.3 1971.2c-6.8 0-12.1-1.8-16-5.5-3.8-3.7-5.7-8.9-5.7-15.7 0-7 1.8-12.4 5.3-16.1 3.5-3.7 8.5-5.6 15-5.6 6.2 0 11 1.6 14.4 4.9 3.4 3.3 5.1 7.9 5.1 14.1v6.4H949c.1 2.3.9 4.1 2.5 5.4 1.6 1.3 3.7 2 6.5 2 2.5 0 4.8-.2 6.9-.7 2.1-.5 4.3-1.3 6.8-2.4v10.3c-2.2 1.2-4.5 1.9-6.9 2.4-2.4.4-5.2.5-8.5.5zm-.8-33c-1.7 0-3.1.5-4.2 1.6s-1.8 2.7-2 5h12.2c-.1-2-.6-3.6-1.7-4.8-1.1-1.2-2.5-1.8-4.3-1.8z" class="st0" fill="#fff"/></g><g id="g57"><path id="path59" d="M1009.7 1957.8c0 4.4-1.5 7.8-4.5 10.1s-7.3 3.4-12.9 3.4c-3 0-5.7-.2-7.9-.5-2.3-.3-4.5-.9-6.9-1.8v-11.4c2.2 1 4.6 1.8 7.2 2.4 2.6.6 5 .9 7 .9 3.1 0 4.6-.7 4.6-2.1 0-.7-.4-1.4-1.3-2-.9-.6-3.4-1.7-7.5-3.3-3.8-1.6-6.4-3.3-7.9-5.3s-2.3-4.5-2.3-7.5c0-3.8 1.5-6.8 4.4-9 2.9-2.2 7.1-3.2 12.5-3.2 2.7 0 5.3.3 7.6.9 2.4.6 4.8 1.5 7.4 2.6l-3.8 9.2c-1.9-.8-3.9-1.6-6-2.2-2.1-.6-3.8-.9-5.1-.9-2.3 0-3.5.6-3.5 1.7 0 .7.4 1.3 1.2 1.8.8.5 3.2 1.5 7 3.1 2.9 1.2 5 2.4 6.4 3.5 1.4 1.1 2.5 2.5 3.1 4 .8 1.6 1.2 3.5 1.2 5.6z" class="st0" fill="#fff"/></g><g id="g61"><path id="path63" d="M1033.2 1959.9c1.9 0 4.2-.5 6.9-1.4v10.4c-1.9.8-3.7 1.4-5.5 1.8-1.7.4-3.8.5-6.1.5-4.8 0-8.2-1.2-10.3-3.5-2.1-2.4-3.2-6-3.2-10.8v-17.1h-5v-5.8l6.3-4.5 3.7-8.7h9.3v8.3h10.1v10.7h-10.1v16.1c.1 2.8 1.4 4 3.9 4z" class="st0" fill="#fff"/></g></g><g id="g65"><g id="g67"><path id="path69" d="M613.1 1940.6h23.1v28.8c-6.3 2.1-13.2 3.2-20.7 3.2-8.2 0-14.6-2.4-19.1-7.2-4.5-4.8-6.7-11.6-6.7-20.4 0-8.6 2.5-15.3 7.4-20.1 4.9-4.8 11.8-7.2 20.7-7.2 3.4 0 6.5.3 9.5 1 3 .6 5.6 1.4 7.8 2.4l-4.6 11.3c-3.8-1.9-8.1-2.8-12.7-2.8-4.2 0-7.5 1.4-9.8 4.1-2.3 2.7-3.5 6.7-3.5 11.8 0 5 1 8.8 3.1 11.4 2.1 2.6 5.1 3.9 9 3.9 2.1 0 4.1-.2 5.9-.6v-8.4H613l.1-11.2z" class="st0" fill="#fff"/></g><g id="g71"><path id="path73" d="M687.9 1943.9c0 8.9-2.5 15.8-7.4 20.6-4.9 4.8-11.8 7.2-20.7 7.2h-17.3v-53.5H661c8.6 0 15.2 2.2 19.9 6.6 4.7 4.5 7 10.9 7 19.1zm-15 .5c0-4.9-1-8.5-2.9-10.9-1.9-2.4-4.9-3.6-8.8-3.6H657v29.9h3.2c4.4 0 7.6-1.3 9.7-3.8 2-2.3 3-6.2 3-11.6z" class="st0" fill="#fff"/></g><g id="g75"><path id="path77" d="M714.5 1940.6h23.1v28.8c-6.3 2.1-13.1 3.2-20.7 3.2-8.2 0-14.6-2.4-19.1-7.2-4.5-4.8-6.7-11.6-6.7-20.4 0-8.6 2.5-15.3 7.4-20.1 4.9-4.8 11.8-7.2 20.7-7.2 3.4 0 6.5.3 9.5 1 3 .6 5.6 1.4 7.8 2.4l-4.6 11.3c-3.9-1.9-8.1-2.8-12.7-2.8-4.2 0-7.5 1.4-9.8 4.1-2.3 2.7-3.5 6.7-3.5 11.8 0 5 1 8.8 3.1 11.4 2.1 2.6 5.1 3.9 9 3.9 2.1 0 4.1-.2 5.9-.6v-8.4h-9.5l.1-11.2z" class="st0" fill="#fff"/></g></g><g id="g79"><path class="st0" d="M533.8 2009.1l-79-126.4H433c-4.4 0-6 3-3.8 6.7l53 86.5.3.4 35.9 57.5 15.4-24.7z" id="path81"/><path class="st0" d="M546 1989.4c2.3-3.7 2.3-9.7 0-13.4l-53.6-86.6c-2.3-3.7-7.7-6.7-12-6.7h-22l77.2 123.5 10.4-16.8z" id="path83"/><path class="st0" d="M501.1 2011.9l-44.2 70.8h23.5c4.3 0 9.8-3 12-6.7l21.4-34.6c.1-.1.2-.4.6-1l2.2-3.6-15.5-24.9z" id="path85"/><path class="st0" d="M482.3 1989.4l-53 86.5c-2.3 3.7-.6 6.7 3.8 6.7h20.3l46-73.6-15.4-24.8c-.3 1.9-.9 3.7-1.7 5.2z" id="path87"/></g><g style="line-height:125%" id="text4343" font-size="60" font-family="Open Sans" letter-spacing="0" word-spacing="0" fill="#fff"><path d="M769.1 2044.064v-42.832h4.98v42.832h-4.98z" style="-inkscape-font-specification:'Open Sans'" id="path4168"/><path d="M805.838 2035.304q0 4.482-3.34 6.914-3.34 2.432-9.375 2.432-6.386 0-9.96-2.022v-4.51q2.314 1.17 4.95 1.844 2.667.674 5.128.674 3.81 0 5.86-1.2 2.05-1.232 2.05-3.722 0-1.875-1.64-3.193-1.61-1.347-6.328-3.163-4.482-1.67-6.387-2.9-1.875-1.26-2.812-2.842-.908-1.582-.908-3.78 0-3.926 3.193-6.18 3.193-2.287 8.76-2.287 5.185 0 10.136 2.11l-1.728 3.955q-4.834-1.992-8.76-1.992-3.457 0-5.215 1.085-1.757 1.084-1.757 2.988 0 1.29.645 2.197.674.908 2.14 1.73 1.464.82 5.624 2.372 5.713 2.08 7.705 4.19 2.02 2.11 2.02 5.302z" style="-inkscape-font-specification:'Open Sans'" id="path4170"/><path d="M824.09 2040.636q1.29 0 2.49-.176 1.202-.205 1.905-.41v3.72q-.79.382-2.344.616-1.522.264-2.753.264-9.316 0-9.316-9.815v-19.1h-4.6v-2.345l4.6-2.022 2.05-6.855h2.814v7.44h9.316v3.78h-9.316v18.897q0 2.9 1.377 4.453 1.378 1.553 3.78 1.553z" style="-inkscape-font-specification:'Open Sans'" id="path4172"/><path d="M854.676 2044.064l-.967-4.57h-.235q-2.402 3.017-4.805 4.1-2.373 1.056-5.947 1.056-4.775 0-7.5-2.46-2.695-2.462-2.695-7.003 0-9.727 15.556-10.196l5.45-.174v-1.993q0-3.78-1.64-5.566-1.612-1.816-5.187-1.816-4.013 0-9.082 2.462l-1.494-3.72q2.374-1.29 5.187-2.023 2.842-.733 5.683-.733 5.743 0 8.496 2.55 2.784 2.548 2.784 8.173v21.914h-3.604zm-10.986-3.428q4.54 0 7.12-2.49 2.606-2.49 2.606-6.973v-2.9l-4.863.205q-5.8.205-8.38 1.816-2.548 1.582-2.548 4.95 0 2.638 1.582 4.015 1.612 1.376 4.483 1.376z" style="-inkscape-font-specification:'Open Sans'" id="path4174"/><path d="M890.3 2044.064v-20.772q0-3.926-1.786-5.86-1.787-1.933-5.596-1.933-5.04 0-7.382 2.724-2.344 2.724-2.344 8.994v16.846h-4.864v-32.11h3.956l.79 4.395h.235q1.493-2.374 4.188-3.663 2.696-1.32 6.006-1.32 5.8 0 8.73 2.814 2.93 2.784 2.93 8.936v20.948H890.3z" style="-inkscape-font-specification:'Open Sans'" id="path4176"/><path d="M920.067 2011.427q6.328 0 9.814 4.336 3.517 4.307 3.517 12.217t-3.545 12.304q-3.516 4.366-9.785 4.366-3.135 0-5.742-1.143-2.58-1.172-4.336-3.574h-.353l-1.025 4.13h-3.487v-45.585h4.864v11.074q0 3.72-.236 6.68h.235q3.397-4.805 10.077-4.805zm-.703 4.072q-4.98 0-7.178 2.87-2.197 2.842-2.197 9.61 0 6.767 2.255 9.697 2.255 2.9 7.236 2.9 4.483 0 6.68-3.252 2.198-3.28 2.198-9.404 0-6.268-2.197-9.345-2.197-3.076-6.796-3.076z" style="-inkscape-font-specification:'Open Sans'" id="path4178"/><path d="M946.493 2011.954v20.83q0 3.926 1.787 5.86 1.787 1.933 5.595 1.933 5.04 0 7.354-2.753 2.343-2.754 2.343-8.995v-16.876h4.863v32.11h-4.014l-.703-4.307h-.265q-1.494 2.373-4.16 3.633-2.636 1.26-6.035 1.26-5.86 0-8.79-2.783-2.9-2.784-2.9-8.907v-21.006h4.923z" style="-inkscape-font-specification:'Open Sans'" id="path4180"/><path d="M983.582 2044.064h-4.863v-45.586h4.862v45.586z" style="-inkscape-font-specification:'Open Sans'" id="path4182"/></g></svg>