<svg xmlns="http://www.w3.org/2000/svg" viewBox="90.18 977.405 610.109 200"><path d="M117.073 1177.405h22.645c5.352 0 12.006-3.76 14.77-8.376l19.072-31.727c2.255-4.65 2.173-11.427-.397-15.712l-11.26-18.633-44.83 74.448z" fill="#f6c25b"/><path d="M141.413 1085.78l-50.35 84.172c-1.943 4.148.08 7.453 5.07 7.453h20.94l44.83-74.448-20.49-33.916c2.762 4.597 2.762 12.132 0 16.74" fill="#0a985c"/><path d="M96.134 977.405c-5.38 0-7.502 3.78-4.747 8.366l81.776 135.822c2.57 4.285 2.646 11.06.397 15.705l19.876-33.078-76.35-126.814H96.135z" fill="#5586c5"/><path d="M117.087 977.405l76.35 126.813 11.072-18.432c2.767-4.613 2.767-12.148 0-16.744l-50.018-83.27c-2.77-4.587-9.423-8.367-14.774-8.367h-22.63z" fill="#d9423e"/><path fill="#168B58" d="M141.413 1085.78l-12.032 20.114 21.536 15.307 10.985-18.242-20.487-33.916c2.762 4.595 2.762 12.13 0 16.737z"/><path fill="#D7AB56" d="M161.902 1102.957l-10.985 18.243 22.646 16.096c2.252-4.65 2.17-11.422-.4-15.705l-11.26-18.633z"/><g><path d="M474.434 1037.446c0 8.922-2.443 15.8-7.314 20.62-4.874 4.818-11.73 7.24-20.557 7.24h-17.17v-53.448h18.367c8.513 0 15.088 2.197 19.72 6.585 4.634 4.376 6.954 10.72 6.954 19.003zm-14.884.515c0-4.896-.96-8.528-2.884-10.897-1.914-2.358-4.84-3.543-8.763-3.543h-4.173v29.935h3.2c4.35 0 7.552-1.275 9.585-3.814 2.017-2.55 3.035-6.44 3.035-11.68zM498.5 1066.038c-6.855 0-12.17-1.836-15.956-5.502-3.783-3.67-5.68-8.9-5.68-15.668 0-6.99 1.75-12.367 5.257-16.102 3.51-3.738 8.52-5.61 15.024-5.61 6.19 0 10.974 1.625 14.354 4.88 3.377 3.252 5.058 7.934 5.058 14.06v6.36H491.2c.093 2.313.937 4.125 2.516 5.44 1.59 1.322 3.745 1.972 6.48 1.972 2.49 0 4.784-.24 6.878-.708 2.085-.475 4.362-1.285 6.798-2.43V1063a24.66 24.66 0 0 1-6.89 2.38c-2.374.44-5.204.658-8.48.658zm-.844-33.158c-1.667 0-3.06.533-4.186 1.592-1.134 1.056-1.784 2.72-1.982 4.986h12.197c-.05-1.996-.61-3.588-1.69-4.788-1.078-1.2-2.527-1.79-4.34-1.79zM530.893 1065.306l-15.673-41.424h14.805l6.965 24.495c.02.126.072.328.15.625.07.29.143.64.212 1.036.078.406.143.834.198 1.288.065.45.096.868.096 1.254h.246c0-1.258.222-2.638.656-4.125l7.293-24.573h14.766l-15.68 41.424h-14.033zM576.002 1065.306h-14.115v-53.45h31.353v11.592h-17.238v10.2h15.89v11.59h-15.89v20.068zM616.5 1066.038c-6.85 0-12.15-1.836-15.95-5.502-3.783-3.67-5.677-8.9-5.677-15.668 0-6.99 1.75-12.367 5.257-16.102 3.51-3.738 8.513-5.61 15.023-5.61 6.19 0 10.975 1.625 14.35 4.88 3.377 3.252 5.055 7.934 5.055 14.06v6.36H609.2c.1 2.313.944 4.125 2.526 5.44 1.583 1.322 3.736 1.972 6.476 1.972 2.488 0 4.785-.24 6.883-.708 2.078-.475 4.35-1.285 6.794-2.43V1063a24.78 24.78 0 0 1-6.89 2.38c-2.376.44-5.202.658-8.49.658zm-.84-33.158c-1.66 0-3.062.533-4.187 1.592-1.128 1.056-1.784 2.72-1.97 4.986h12.186c-.055-1.996-.616-3.588-1.686-4.788-1.084-1.2-2.527-1.79-4.344-1.79zM669.876 1052.58c0 4.436-1.497 7.79-4.5 10.053-3 2.266-7.305 3.404-12.916 3.404-3.045 0-5.7-.16-7.946-.496-2.252-.327-4.542-.935-6.89-1.803v-11.444c2.205.977 4.615 1.783 7.243 2.412 2.618.63 4.962.943 7.016.943 3.08 0 4.61-.7 4.61-2.11 0-.733-.43-1.39-1.29-1.957-.852-.573-3.353-1.687-7.49-3.344-3.775-1.565-6.407-3.335-7.907-5.324-1.507-1.98-2.252-4.497-2.252-7.545 0-3.848 1.47-6.85 4.426-8.99 2.946-2.154 7.12-3.223 12.515-3.223 2.71 0 5.257.297 7.645.9 2.375.597 4.843 1.465 7.413 2.613l-3.848 9.213a43.284 43.284 0 0 0-5.99-2.177c-2.103-.598-3.812-.888-5.148-.888-2.32 0-3.475.567-3.475 1.708 0 .707.403 1.316 1.206 1.804.813.506 3.154 1.524 7.03 3.058 2.87 1.2 5.02 2.37 6.44 3.516 1.41 1.146 2.453 2.492 3.12 4.037.66 1.55.988 3.422.988 5.643zM693.436 1054.744c1.908 0 4.194-.48 6.852-1.432v10.426c-1.917.823-3.732 1.408-5.464 1.767-1.726.36-3.756.533-6.08.533-4.76 0-8.202-1.18-10.294-3.523-2.116-2.358-3.168-5.97-3.168-10.846v-17.067h-4.962v-5.82l6.305-4.496 3.667-8.697h9.293v8.293h10.092v10.72h-10.092v16.12c0 2.674 1.282 4.02 3.85 4.02z" fill="#4e4e4e"/><g><path d="M273.274 1035.265h23.072v28.81c-6.267 2.143-13.157 3.22-20.66 3.22-8.24 0-14.61-2.39-19.104-7.17-4.497-4.775-6.746-11.59-6.746-20.436 0-8.636 2.46-15.345 7.385-20.15 4.93-4.8 11.826-7.206 20.698-7.206 3.367 0 6.54.32 9.528.953 2.977.633 5.585 1.44 7.81 2.41l-4.573 11.33c-3.848-1.892-8.086-2.842-12.686-2.842-4.218 0-7.478 1.37-9.782 4.115-2.31 2.734-3.46 6.653-3.46 11.755 0 4.996 1.044 8.803 3.13 11.42 2.08 2.625 5.084 3.933 9.012 3.933 2.15 0 4.125-.2 5.93-.622v-8.372h-9.55v-11.15h-.003zM348.134 1038.7c0 8.926-2.46 15.798-7.372 20.626-4.912 4.825-11.812 7.24-20.714 7.24H302.75v-53.462h18.504c8.582 0 15.208 2.194 19.877 6.585 4.666 4.387 7.004 10.72 7.004 19.01zm-14.99.516c0-4.904-.975-8.536-2.912-10.89-1.938-2.376-4.877-3.55-8.828-3.55h-4.21v29.94h3.218c4.39 0 7.604-1.27 9.655-3.82 2.05-2.543 3.076-6.442 3.076-11.68zM374.688 1035.265h23.073v28.81c-6.267 2.143-13.147 3.22-20.66 3.22-8.243 0-14.61-2.39-19.107-7.17-4.49-4.775-6.747-11.59-6.747-20.436 0-8.636 2.465-15.345 7.393-20.15 4.923-4.8 11.82-7.206 20.7-7.206 3.35 0 6.533.32 9.52.953 2.983.633 5.587 1.44 7.81 2.41l-4.574 11.33c-3.85-1.892-8.083-2.842-12.692-2.842-4.214 0-7.47 1.37-9.774 4.115-2.304 2.734-3.456 6.653-3.456 11.755 0 4.996 1.04 8.803 3.123 11.42 2.082 2.625 5.09 3.933 9.016 3.933 2.143 0 4.118-.2 5.92-.622v-8.372h-9.547v-11.15z" fill="#4e4e4e"/></g><g fill="#4e4e4e"><path d="M288.27 1137.492h-32.046v-5.755l12.19-12.257c3.602-3.684 5.987-6.298 7.163-7.84 1.175-1.54 2.034-2.993 2.57-4.35.54-1.36.81-2.81.81-4.366 0-2.132-.642-3.814-1.924-5.044-1.286-1.226-3.056-1.842-5.322-1.842-1.81 0-3.56.335-5.252 1-1.694.67-3.65 1.877-5.87 3.623l-4.11-5.012c2.632-2.218 5.185-3.793 7.666-4.72 2.478-.925 5.12-1.39 7.922-1.39 4.398 0 7.926 1.148 10.578 3.445 2.653 2.293 3.978 5.382 3.978 9.264 0 2.132-.386 4.16-1.148 6.08-.765 1.916-1.942 3.895-3.527 5.93-1.582 2.038-4.22 4.792-7.905 8.264l-8.215 7.956v.32h22.443v6.696zM326.076 1113.855c0 8.212-1.32 14.315-3.96 18.303-2.643 3.988-6.68 5.98-12.113 5.98-5.26 0-9.248-2.057-11.965-6.175-2.717-4.118-4.074-10.153-4.074-18.108 0-8.345 1.32-14.492 3.96-18.45 2.643-3.953 6.67-5.93 12.08-5.93 5.283 0 9.28 2.07 11.998 6.208 2.717 4.138 4.074 10.197 4.074 18.172zm-24.415 0c0 6.445.664 11.048 1.99 13.805 1.326 2.76 3.445 4.142 6.353 4.142 2.91 0 5.04-1.4 6.387-4.207 1.347-2.802 2.02-7.38 2.02-13.74 0-6.34-.673-10.925-2.02-13.76-1.347-2.834-3.476-4.252-6.387-4.252-2.908 0-5.027 1.39-6.353 4.172-1.326 2.782-1.99 7.395-1.99 13.84zM354.148 1137.492h-7.6v-30.526c0-3.643.085-6.53.26-8.666-.496.52-1.107 1.09-1.828 1.715-.722.625-3.14 2.607-7.26 5.95l-3.816-4.82 13.906-10.927h6.34v47.274zM385.68 1107.97c4.764 0 8.536 1.262 11.32 3.784 2.78 2.522 4.172 5.96 4.172 10.313 0 5.044-1.58 8.984-4.74 11.82-3.157 2.837-7.645 4.25-13.468 4.25-5.28 0-9.432-.85-12.45-2.55v-6.89c1.746.99 3.752 1.756 6.014 2.296 2.266.54 4.368.81 6.306.81 3.428 0 6.038-.765 7.826-2.296 1.79-1.53 2.686-3.773 2.686-6.73 0-5.644-3.602-8.47-10.803-8.47-1.01 0-2.262.103-3.75.308a44.13 44.13 0 0 0-3.912.697l-3.396-2.006 1.81-23.087h24.58v6.755h-17.883l-1.068 11.707c.755-.13 1.678-.28 2.765-.454 1.087-.172 2.42-.257 3.992-.257z"/><g style="line-height:125%;-inkscape-font-specification:'Open Sans, Normal';text-align:start" font-weight="400" font-size="60" font-family="Open Sans" letter-spacing="0" word-spacing="0"><path d="M429.393 1137.552v-42.832h4.98v42.832h-4.98zM466.13 1128.792q0 4.482-3.34 6.914-3.338 2.432-9.374 2.432-6.386 0-9.96-2.022v-4.512q2.314 1.172 4.95 1.846 2.667.674 5.128.674 3.808 0 5.86-1.2 2.05-1.232 2.05-3.722 0-1.875-1.64-3.193-1.612-1.35-6.33-3.165-4.48-1.67-6.386-2.9-1.875-1.26-2.812-2.843-.908-1.582-.908-3.78 0-3.925 3.193-6.18 3.194-2.286 8.76-2.286 5.186 0 10.137 2.11l-1.728 3.955q-4.835-1.99-8.76-1.99-3.458 0-5.216 1.083-1.757 1.084-1.757 2.988 0 1.29.644 2.198.675.908 2.14 1.73 1.465.82 5.625 2.372 5.713 2.08 7.705 4.19 2.02 2.11 2.02 5.302zM484.383 1134.124q1.29 0 2.49-.176 1.202-.205 1.905-.41v3.72q-.79.382-2.344.616-1.523.264-2.754.264-9.316 0-9.316-9.815v-19.1h-4.6v-2.345l4.6-2.022 2.05-6.855h2.813v7.442h9.316v3.78h-9.316v18.896q0 2.9 1.377 4.453 1.377 1.554 3.78 1.554zM514.97 1137.552l-.968-4.57h-.234q-2.402 3.017-4.805 4.1-2.373 1.056-5.947 1.056-4.775 0-7.5-2.46-2.695-2.462-2.695-7.003 0-9.727 15.557-10.196l5.45-.176v-1.993q0-3.778-1.64-5.565-1.612-1.816-5.187-1.816-4.013 0-9.082 2.46l-1.494-3.72q2.373-1.29 5.186-2.023 2.842-.732 5.683-.732 5.743 0 8.496 2.55 2.783 2.548 2.783 8.173v21.914h-3.604zm-10.987-3.428q4.54 0 7.12-2.49 2.606-2.49 2.606-6.973v-2.9l-4.864.206q-5.8.205-8.38 1.816-2.548 1.582-2.548 4.95 0 2.638 1.582 4.015 1.612 1.377 4.483 1.377zM550.594 1137.552v-20.772q0-3.926-1.787-5.86-1.787-1.933-5.596-1.933-5.038 0-7.38 2.725-2.345 2.724-2.345 8.994v16.846h-4.863v-32.11h3.955l.79 4.395h.235q1.494-2.373 4.19-3.662 2.695-1.32 6.005-1.32 5.8 0 8.73 2.814 2.93 2.782 2.93 8.934v20.948h-4.863zM580.36 1104.915q6.328 0 9.814 4.336 3.516 4.308 3.516 12.218t-3.545 12.304q-3.516 4.366-9.785 4.366-3.135 0-5.742-1.143-2.58-1.172-4.336-3.574h-.352l-1.025 4.132h-3.487v-45.586h4.864v11.074q0 3.72-.235 6.68h.235q3.398-4.805 10.078-4.805zm-.703 4.072q-4.98 0-7.178 2.87-2.198 2.843-2.198 9.61 0 6.768 2.256 9.698 2.255 2.9 7.236 2.9 4.482 0 6.68-3.252 2.197-3.28 2.197-9.404 0-6.27-2.196-9.347-2.198-3.076-6.797-3.076zM606.786 1105.442v20.83q0 3.926 1.787 5.86 1.787 1.933 5.595 1.933 5.04 0 7.354-2.754 2.344-2.752 2.344-8.993v-16.875h4.863v32.11h-4.015l-.703-4.307h-.264q-1.494 2.373-4.16 3.633-2.636 1.26-6.035 1.26-5.86 0-8.79-2.784-2.9-2.783-2.9-8.906v-21.006h4.923zM643.875 1137.552h-4.863v-45.586h4.863v45.586z"/></g></g></g></svg>