<svg xmlns="http://www.w3.org/2000/svg" id="Layer_1" viewBox="428.2 1882.7 611.9 200"><style id="style3">.st0{fill:#FFF}</style><g id="g4337" fill="#757575"><path id="path13" d="M628.1 2043.95h-32v-5.8l12.2-12.3c3.6-3.7 6-6.3 7.2-7.8 1.2-1.5 2-3 2.6-4.3.5-1.4.8-2.8.8-4.4 0-2.1-.6-3.8-1.9-5-1.3-1.2-3.1-1.8-5.3-1.8-1.8 0-3.6.3-5.3 1-1.7.7-3.6 1.9-5.9 3.6l-4.1-5c2.6-2.2 5.2-3.8 7.7-4.7 2.5-.9 5.1-1.4 7.9-1.4 4.4 0 7.9 1.1 10.6 3.4 2.7 2.3 4 5.4 4 9.3 0 2.1-.4 4.2-1.1 6.1-.8 1.9-1.9 3.9-3.5 5.9-1.6 2-4.2 4.8-7.9 8.3l-8.2 8v.3h22.4l-.2 6.6z" class="st0"/><path id="path15" d="M665.9 2020.35c0 8.2-1.3 14.3-4 18.3s-6.7 6-12.1 6c-5.3 0-9.2-2.1-12-6.2-2.7-4.1-4.1-10.2-4.1-18.1 0-8.3 1.3-14.5 4-18.4 2.6-4 6.7-5.9 12.1-5.9 5.3 0 9.3 2.1 12 6.2 2.7 4.1 4.1 10.1 4.1 18.1zm-24.4 0c0 6.4.7 11 2 13.8 1.3 2.8 3.4 4.1 6.4 4.1 2.9 0 5-1.4 6.4-4.2 1.3-2.8 2-7.4 2-13.7 0-6.3-.7-10.9-2-13.8-1.3-2.8-3.5-4.3-6.4-4.3-2.9 0-5 1.4-6.4 4.2-1.4 2.9-2 7.4-2 13.9z" class="st0"/><path id="path17" d="M693.9 2043.95h-7.6v-30.5c0-3.6.1-6.5.3-8.7-.5.5-1.1 1.1-1.8 1.7-.7.6-3.1 2.6-7.3 5.9l-3.8-4.8 13.9-10.9h6.3v47.3z" class="st0"/><path id="path19" d="M725.5 2014.35c4.8 0 8.5 1.3 11.3 3.8 2.8 2.5 4.2 6 4.2 10.3 0 5-1.6 9-4.7 11.8-3.2 2.8-7.6 4.3-13.5 4.3-5.3 0-9.4-.9-12.5-2.6v-6.9c1.7 1 3.8 1.8 6 2.3 2.3.5 4.4.8 6.3.8 3.4 0 6-.8 7.8-2.3 1.8-1.5 2.7-3.8 2.7-6.7 0-5.6-3.6-8.5-10.8-8.5-1 0-2.3.1-3.7.3-1.5.2-2.8.4-3.9.7l-3.4-2 1.8-23.1h24.6v6.8h-17.9l-1.1 11.7c.8-.1 1.7-.3 2.8-.5 1.1-.1 2.4-.2 4-.2z" class="st0"/></g><g id="g35" fill="#757575"><g id="g37"><path id="path39" d="M814.2 1942.7c0 8.9-2.4 15.8-7.3 20.6-4.9 4.8-11.7 7.2-20.6 7.2h-17.2V1917h18.4c8.5 0 15.1 2.2 19.7 6.6 4.7 4.5 7 10.8 7 19.1zm-14.9.5c0-4.9-1-8.5-2.9-10.9-1.9-2.4-4.8-3.5-8.8-3.5h-4.2v29.9h3.2c4.4 0 7.6-1.3 9.6-3.8 2.1-2.6 3.1-6.5 3.1-11.7z" class="st0"/></g><g id="g41"><path id="path43" d="M838.3 1971.2c-6.9 0-12.2-1.8-16-5.5-3.8-3.7-5.7-8.9-5.7-15.7 0-7 1.8-12.4 5.3-16.1 3.5-3.7 8.5-5.6 15-5.6 6.2 0 11 1.6 14.4 4.9 3.4 3.3 5.1 7.9 5.1 14.1v6.4H831c.1 2.3.9 4.1 2.5 5.4 1.6 1.3 3.7 2 6.5 2 2.5 0 4.8-.2 6.9-.7 2.1-.5 4.4-1.3 6.8-2.4v10.3c-2.2 1.2-4.5 1.9-6.9 2.4-2.4.4-5.2.5-8.5.5zm-.8-33c-1.7 0-3.1.5-4.2 1.6s-1.8 2.7-2 5h12.2c-.1-2-.6-3.6-1.7-4.8-1.1-1.2-2.5-1.8-4.3-1.8z" class="st0"/></g><g id="g45"><path id="path47" d="M870.7 1970.6l-15.7-41.4h14.8l7 24.5c0 .1.1.3.2.6s.1.6.2 1 .1.8.2 1.3.1.9.1 1.3h.2c0-1.3.2-2.6.7-4.1l7.3-24.6h14.8l-15.7 41.4h-14.1z" class="st0"/></g><g id="g49"><path id="path51" d="M915.8 1970.6h-14.1v-53.4h31.4v11.6h-17.3v10.2h15.9v11.6h-15.9v20z" class="st0"/></g><g id="g53"><path id="path55" d="M956.3 1971.2c-6.8 0-12.1-1.8-16-5.5-3.8-3.7-5.7-8.9-5.7-15.7 0-7 1.8-12.4 5.3-16.1 3.5-3.7 8.5-5.6 15-5.6 6.2 0 11 1.6 14.4 4.9 3.4 3.3 5.1 7.9 5.1 14.1v6.4H949c.1 2.3.9 4.1 2.5 5.4 1.6 1.3 3.7 2 6.5 2 2.5 0 4.8-.2 6.9-.7 2.1-.5 4.3-1.3 6.8-2.4v10.3c-2.2 1.2-4.5 1.9-6.9 2.4-2.4.4-5.2.5-8.5.5zm-.8-33c-1.7 0-3.1.5-4.2 1.6s-1.8 2.7-2 5h12.2c-.1-2-.6-3.6-1.7-4.8-1.1-1.2-2.5-1.8-4.3-1.8z" class="st0"/></g><g id="g57"><path id="path59" d="M1009.7 1957.8c0 4.4-1.5 7.8-4.5 10.1s-7.3 3.4-12.9 3.4c-3 0-5.7-.2-7.9-.5-2.3-.3-4.5-.9-6.9-1.8v-11.4c2.2 1 4.6 1.8 7.2 2.4 2.6.6 5 .9 7 .9 3.1 0 4.6-.7 4.6-2.1 0-.7-.4-1.4-1.3-2-.9-.6-3.4-1.7-7.5-3.3-3.8-1.6-6.4-3.3-7.9-5.3s-2.3-4.5-2.3-7.5c0-3.8 1.5-6.8 4.4-9 2.9-2.2 7.1-3.2 12.5-3.2 2.7 0 5.3.3 7.6.9 2.4.6 4.8 1.5 7.4 2.6l-3.8 9.2c-1.9-.8-3.9-1.6-6-2.2-2.1-.6-3.8-.9-5.1-.9-2.3 0-3.5.6-3.5 1.7 0 .7.4 1.3 1.2 1.8.8.5 3.2 1.5 7 3.1 2.9 1.2 5 2.4 6.4 3.5 1.4 1.1 2.5 2.5 3.1 4 .8 1.6 1.2 3.5 1.2 5.6z" class="st0"/></g><g id="g61"><path id="path63" d="M1033.2 1959.9c1.9 0 4.2-.5 6.9-1.4v10.4c-1.9.8-3.7 1.4-5.5 1.8-1.7.4-3.8.5-6.1.5-4.8 0-8.2-1.2-10.3-3.5-2.1-2.4-3.2-6-3.2-10.8v-17.1h-5v-5.8l6.3-4.5 3.7-8.7h9.3v8.3h10.1v10.7h-10.1v16.1c.1 2.8 1.4 4 3.9 4z" class="st0"/></g></g><g id="g65" fill="#757575"><g id="g67"><path id="path69" d="M613.1 1940.6h23.1v28.8c-6.3 2.1-13.2 3.2-20.7 3.2-8.2 0-14.6-2.4-19.1-7.2-4.5-4.8-6.7-11.6-6.7-20.4 0-8.6 2.5-15.3 7.4-20.1 4.9-4.8 11.8-7.2 20.7-7.2 3.4 0 6.5.3 9.5 1 3 .6 5.6 1.4 7.8 2.4l-4.6 11.3c-3.8-1.9-8.1-2.8-12.7-2.8-4.2 0-7.5 1.4-9.8 4.1-2.3 2.7-3.5 6.7-3.5 11.8 0 5 1 8.8 3.1 11.4 2.1 2.6 5.1 3.9 9 3.9 2.1 0 4.1-.2 5.9-.6v-8.4H613l.1-11.2z" class="st0"/></g><g id="g71"><path id="path73" d="M687.9 1943.9c0 8.9-2.5 15.8-7.4 20.6-4.9 4.8-11.8 7.2-20.7 7.2h-17.3v-53.5H661c8.6 0 15.2 2.2 19.9 6.6 4.7 4.5 7 10.9 7 19.1zm-15 .5c0-4.9-1-8.5-2.9-10.9-1.9-2.4-4.9-3.6-8.8-3.6H657v29.9h3.2c4.4 0 7.6-1.3 9.7-3.8 2-2.3 3-6.2 3-11.6z" class="st0"/></g><g id="g75"><path id="path77" d="M714.5 1940.6h23.1v28.8c-6.3 2.1-13.1 3.2-20.7 3.2-8.2 0-14.6-2.4-19.1-7.2-4.5-4.8-6.7-11.6-6.7-20.4 0-8.6 2.5-15.3 7.4-20.1 4.9-4.8 11.8-7.2 20.7-7.2 3.4 0 6.5.3 9.5 1 3 .6 5.6 1.4 7.8 2.4l-4.6 11.3c-3.9-1.9-8.1-2.8-12.7-2.8-4.2 0-7.5 1.4-9.8 4.1-2.3 2.7-3.5 6.7-3.5 11.8 0 5 1 8.8 3.1 11.4 2.1 2.6 5.1 3.9 9 3.9 2.1 0 4.1-.2 5.9-.6v-8.4h-9.5l.1-11.2z" class="st0"/></g></g><g id="g79" fill="#757575"><path class="st0" d="M533.8 2009.1l-79-126.4H433c-4.4 0-6 3-3.8 6.7l53 86.5.3.4 35.9 57.5 15.4-24.7z" id="path81"/><path class="st0" d="M546 1989.4c2.3-3.7 2.3-9.7 0-13.4l-53.6-86.6c-2.3-3.7-7.7-6.7-12-6.7h-22l77.2 123.5 10.4-16.8z" id="path83"/><path class="st0" d="M501.1 2011.9l-44.2 70.8h23.5c4.3 0 9.8-3 12-6.7l21.4-34.6c.1-.1.2-.4.6-1l2.2-3.6-15.5-24.9z" id="path85"/><path class="st0" d="M482.3 1989.4l-53 86.5c-2.3 3.7-.6 6.7 3.8 6.7h20.3l46-73.6-15.4-24.8c-.3 1.9-.9 3.7-1.7 5.2z" id="path87"/></g><g style="line-height:125%;-inkscape-font-specification:'Open Sans Bold'" id="text4174" font-weight="700" font-size="67.5" font-family="Open Sans" letter-spacing="0" word-spacing="0" fill="#757575"><path d="M769.1 2043.99v-48.186h10.217v48.187H769.1z" id="path4179"/><path d="M816.43 2033.048q0 5.67-3.956 8.635-3.922 2.967-11.766 2.967-4.02 0-6.856-.56-2.834-.528-5.306-1.583v-8.305q2.8 1.318 6.295 2.208 3.528.89 6.197.89 5.47 0 5.47-3.164 0-1.187-.724-1.912-.725-.758-2.505-1.68-1.78-.957-4.746-2.21-4.25-1.78-6.262-3.295-1.977-1.517-2.9-3.462-.89-1.977-.89-4.845 0-4.91 3.79-7.58 3.823-2.703 10.81-2.703 6.658 0 12.954 2.9l-3.033 7.252q-2.767-1.187-5.173-1.945t-4.91-.758q-4.45 0-4.45 2.405 0 1.35 1.417 2.34 1.45.99 6.295 2.933 4.316 1.747 6.327 3.263 2.01 1.517 2.966 3.495.956 1.977.956 4.713z" id="path4181"/><path d="M839.863 2036.64q2.637 0 6.328-1.153v7.482q-3.756 1.68-9.227 1.68-6.032 0-8.8-3.033-2.736-3.065-2.736-9.162v-17.765h-4.812v-4.252l5.537-3.362 2.9-7.778h6.427v7.844h10.316v7.548H835.48v17.765q0 2.142 1.186 3.164 1.22 1.02 3.197 1.02z" id="path4183"/><path d="M877.14 2043.99l-1.945-5.01h-.264q-2.537 3.198-5.24 4.45-2.67 1.22-6.987 1.22-5.306 0-8.37-3.033-3.033-3.032-3.033-8.635 0-5.867 4.087-8.635 4.12-2.802 12.392-3.098l6.393-.2v-1.614q0-5.603-5.735-5.603-4.416 0-10.382 2.67l-3.33-6.79q6.363-3.33 14.108-3.33 7.416 0 11.37 3.23 3.956 3.23 3.956 9.823v24.555h-7.02zm-2.967-17.072l-3.89.132q-4.382.13-6.525 1.582-2.142 1.45-2.142 4.416 0 4.252 4.878 4.252 3.493 0 5.57-2.01 2.11-2.01 2.11-5.34v-3.032z" id="path4185"/><path d="M928.49 2043.99h-10.053v-21.522q0-3.988-1.417-5.965-1.417-2.01-4.515-2.01-4.22 0-6.098 2.834-1.88 2.8-1.88 9.327v17.336h-10.05v-36.848h7.678l1.352 4.713h.56q1.68-2.67 4.614-4.02 2.968-1.385 6.725-1.385 6.427 0 9.756 3.494 3.33 3.46 3.33 10.02v24.026z" id="path4187"/><path d="M959.405 2006.45q6.526 0 10.217 5.11 3.692 5.075 3.692 13.94 0 9.13-3.823 14.14-3.79 5.01-10.35 5.01-6.49 0-10.183-4.713h-.692l-1.68 4.054h-7.68v-51.284h10.052v11.932q0 2.274-.395 7.283h.395q3.527-5.47 10.448-5.47zm-3.23 8.042q-3.724 0-5.438 2.307-1.714 2.273-1.78 7.547v1.088q0 5.932 1.747 8.503 1.78 2.57 5.603 2.57 3.098 0 4.91-2.834 1.847-2.867 1.847-8.305 0-5.44-1.846-8.142-1.846-2.736-5.043-2.736z" id="path4189"/><path d="M1007.723 2043.99l-1.35-4.713h-.53q-1.614 2.57-4.58 3.988-2.966 1.385-6.757 1.385-6.492 0-9.788-3.46-3.296-3.495-3.296-10.02v-24.028h10.052v21.523q0 3.988 1.417 5.998 1.42 1.978 4.517 1.978 4.22 0 6.097-2.8 1.88-2.835 1.88-9.36v-17.338h10.05v36.848h-7.71z" id="path4191"/><path d="M1035.97 2043.99h-10.054v-51.284h10.053v51.285z" id="path4193"/></g></svg>