<?xml version="1.0" encoding="UTF-8" standalone="no"?>
<svg
   xmlns:dc="http://purl.org/dc/elements/1.1/"
   xmlns:cc="http://creativecommons.org/ns#"
   xmlns:rdf="http://www.w3.org/1999/02/22-rdf-syntax-ns#"
   xmlns:svg="http://www.w3.org/2000/svg"
   xmlns="http://www.w3.org/2000/svg"
   xmlns:sodipodi="http://sodipodi.sourceforge.net/DTD/sodipodi-0.dtd"
   xmlns:inkscape="http://www.inkscape.org/namespaces/inkscape"
   width="1900"
   height="500.20001"
   viewBox="40.3 -0.1 1416.2 500.2"
   id="svg2"
   version="1.1"
   inkscape:version="0.91 r13725"
   sodipodi:docname="gdg-logo.svg">
  <metadata
     id="metadata20">
    <rdf:RDF>
      <cc:Work
         rdf:about="">
        <dc:format>image/svg+xml</dc:format>
        <dc:type
           rdf:resource="http://purl.org/dc/dcmitype/StillImage" />
      </cc:Work>
    </rdf:RDF>
  </metadata>
  <defs
     id="defs18" />
  <sodipodi:namedview
     pagecolor="#ffffff"
     bordercolor="#666666"
     borderopacity="1"
     objecttolerance="10"
     gridtolerance="10"
     guidetolerance="10"
     inkscape:pageopacity="0"
     inkscape:pageshadow="2"
     inkscape:window-width="1366"
     inkscape:window-height="719"
     id="namedview16"
     showgrid="false"
     inkscape:zoom="0.27361568"
     inkscape:cx="680.92896"
     inkscape:cy="750.80472"
     inkscape:window-x="0"
     inkscape:window-y="1"
     inkscape:window-maximized="1"
     inkscape:current-layer="svg2" />
  <g
     id="g4"
     style="fill:#757575"
     transform="translate(-197.42854,0)">
    <path
       d="M 304.2,316.1 106.7,0 52.2,0 C 41.3,0 37.1,7.6 42.8,16.8 l 132.6,216.4 0.7,1.1 89.8,143.8 38.3,-62 z m 30.5,-49.3 c 5.7,-9.2 5.7,-24.3 0,-33.6 L 200.7,16.7 C 195,7.5 181.4,-0.1 170.6,-0.1 l -55,0 193,308.9 26.1,-42 z M 222.5,323 111.9,500 l 58.8,0 c 10.8,0 24.4,-7.5 30.1,-16.8 l 53.5,-86.5 c 0.2,-0.3 0.6,-1 1.5,-2.4 l 5.6,-9.1 L 222.5,323 Z M 175.4,266.8 42.8,483.3 c -5.7,9.3 -1.4,16.8 9.4,16.8 l 50.7,0 L 218,315.9 179.4,254 c -0.5,4.8 -1.8,9.3 -4,12.8 z"
       id="path6"
       inkscape:connector-curvature="0" />
  </g>
  <g
     id="g8"
     transform="translate(-197.42854,5.1531277)"
     style="fill:#757575">
    <path
       d="m 509,241.7 77.1,0 0,96.3 c -20.9,7.2 -44,10.8 -69.1,10.8 -27.5,0 -48.8,-8 -63.9,-24 -15,-16 -22.6,-38.7 -22.6,-68.3 0,-28.8 8.2,-51.3 24.7,-67.4 16.5,-16.1 39.5,-24.1 69.2,-24.1 11.2,0 21.9,1.1 31.8,3.2 10,2.1 18.7,4.8 26.1,8.1 L 567,214.2 c -12.9,-6.4 -27,-9.5 -42.4,-9.5 -14.1,0 -25,4.6 -32.7,13.8 -7.7,9.2 -11.6,22.3 -11.6,39.3 0,16.7 3.5,29.4 10.5,38.2 7,8.8 17,13.1 30.1,13.1 7.2,0 13.8,-0.7 19.8,-2.1 l 0,-28 -31.7,0 0,-37.3 z m 250.4,11.5 c 0,29.8 -8.2,52.8 -24.6,68.9 -16.4,16.1 -39.5,24.2 -69.2,24.2 l -57.8,0 0,-178.7 61.8,0 c 28.7,0 50.8,7.3 66.4,22 15.6,14.7 23.4,35.9 23.4,63.6 z m -50.1,1.7 c 0,-16.4 -3.2,-28.5 -9.7,-36.4 -6.5,-7.9 -16.3,-11.9 -29.5,-11.9 l -14.1,0 0,100.1 10.8,0 c 14.7,0 25.4,-4.3 32.3,-12.8 6.8,-8.5 10.2,-21.5 10.2,-39 z m 139.2,-13.2 77.1,0 0,96.3 c -20.9,7.2 -44,10.8 -69.1,10.8 -27.5,0 -48.8,-8 -63.9,-24 -15,-16 -22.6,-38.7 -22.6,-68.3 0,-28.8 8.2,-51.3 24.7,-67.4 16.5,-16.1 39.5,-24.1 69.2,-24.1 11.2,0 21.9,1.1 31.8,3.2 10,2.1 18.7,4.8 26.1,8.1 l -15.3,37.9 c -12.9,-6.4 -27,-9.5 -42.4,-9.5 -14.1,0 -25,4.6 -32.7,13.8 -7.7,9.2 -11.6,22.3 -11.6,39.3 0,16.7 3.5,29.4 10.5,38.2 7,8.8 17,13.1 30.1,13.1 7.2,0 13.8,-0.7 19.8,-2.1 l 0,-28 -31.9,0 0,-37.3 0.2,0 z"
       id="path10"
       inkscape:connector-curvature="0" />
  </g>
  <text
     xml:space="preserve"
     style="font-style:normal;font-variant:normal;font-weight:normal;font-stretch:normal;font-size:154.74034119px;line-height:125%;font-family:'Open Sans';-inkscape-font-specification:'Open Sans';letter-spacing:0px;word-spacing:0px;fill:#757575;fill-opacity:1;stroke:none;stroke-width:1px;stroke-linecap:butt;stroke-linejoin:miter;stroke-opacity:1"
     x="933.13165"
     y="313.5473"
     id="text3348"
     sodipodi:linespacing="125%"
     transform="scale(0.8922481,1.1207645)"><tspan
       sodipodi:role="line"
       x="933.13165"
       y="313.5473"
       style="font-style:normal;font-variant:normal;font-weight:normal;font-stretch:normal;font-size:232.11050415px;font-family:'Open Sans';-inkscape-font-specification:'Open Sans'"
       id="tspan4152">Istanbul</tspan></text>
</svg>
