<?xml version="1.0" encoding="UTF-8" standalone="no"?>
<!-- Generator: Adobe Illustrator 19.0.0, SVG Export Plug-In . SVG Version: 6.00 Build 0)  -->

<svg
   xmlns:dc="http://purl.org/dc/elements/1.1/"
   xmlns:cc="http://creativecommons.org/ns#"
   xmlns:rdf="http://www.w3.org/1999/02/22-rdf-syntax-ns#"
   xmlns:svg="http://www.w3.org/2000/svg"
   xmlns="http://www.w3.org/2000/svg"
   xmlns:sodipodi="http://sodipodi.sourceforge.net/DTD/sodipodi-0.dtd"
   xmlns:inkscape="http://www.inkscape.org/namespaces/inkscape"
   version="1.1"
   id="Layer_1"
   x="0px"
   y="0px"
   viewBox="428.2 1882.7 611.9 200"
   style="enable-background:new 428.2 1882.7 611.9 200;"
   xml:space="preserve"
   inkscape:version="0.91 r13725"
   sodipodi:docname="logo-white.svg"><metadata
     id="metadata93"><rdf:RDF><cc:Work
         rdf:about=""><dc:format>image/svg+xml</dc:format><dc:type
           rdf:resource="http://purl.org/dc/dcmitype/StillImage" /></cc:Work></rdf:RDF></metadata><defs
     id="defs91" /><sodipodi:namedview
     pagecolor="#ffffff"
     bordercolor="#666666"
     borderopacity="1"
     objecttolerance="10"
     gridtolerance="10"
     guidetolerance="10"
     inkscape:pageopacity="0"
     inkscape:pageshadow="2"
     inkscape:window-width="1366"
     inkscape:window-height="719"
     id="namedview89"
     showgrid="false"
     inkscape:zoom="1.2665288"
     inkscape:cx="305.95001"
     inkscape:cy="100"
     inkscape:window-x="0"
     inkscape:window-y="1"
     inkscape:window-maximized="1"
     inkscape:current-layer="Layer_1" /><style
     type="text/css"
     id="style3">
	.st0{fill:#FFFFFF;}
</style><g
     id="g4337"
     transform="translate(0,1.5496582)"><path
       style="fill:#ffffff"
       inkscape:connector-curvature="0"
       id="path13"
       d="m 628.1,2042.4 -32,0 0,-5.8 12.2,-12.3 c 3.6,-3.7 6,-6.3 7.2,-7.8 1.2,-1.5 2,-3 2.6,-4.3 0.5,-1.4 0.8,-2.8 0.8,-4.4 0,-2.1 -0.6,-3.8 -1.9,-5 -1.3,-1.2 -3.1,-1.8 -5.3,-1.8 -1.8,0 -3.6,0.3 -5.3,1 -1.7,0.7 -3.6,1.9 -5.9,3.6 l -4.1,-5 c 2.6,-2.2 5.2,-3.8 7.7,-4.7 2.5,-0.9 5.1,-1.4 7.9,-1.4 4.4,0 7.9,1.1 10.6,3.4 2.7,2.3 4,5.4 4,9.3 0,2.1 -0.4,4.2 -1.1,6.1 -0.8,1.9 -1.9,3.9 -3.5,5.9 -1.6,2 -4.2,4.8 -7.9,8.3 l -8.2,8 0,0.3 22.4,0 -0.2,6.6 0,0 z"
       class="st0" /><path
       style="fill:#ffffff"
       inkscape:connector-curvature="0"
       id="path15"
       d="m 665.9,2018.8 c 0,8.2 -1.3,14.3 -4,18.3 -2.7,4 -6.7,6 -12.1,6 -5.3,0 -9.2,-2.1 -12,-6.2 -2.7,-4.1 -4.1,-10.2 -4.1,-18.1 0,-8.3 1.3,-14.5 4,-18.4 2.6,-4 6.7,-5.9 12.1,-5.9 5.3,0 9.3,2.1 12,6.2 2.7,4.1 4.1,10.1 4.1,18.1 z m -24.4,0 c 0,6.4 0.7,11 2,13.8 1.3,2.8 3.4,4.1 6.4,4.1 2.9,0 5,-1.4 6.4,-4.2 1.3,-2.8 2,-7.4 2,-13.7 0,-6.3 -0.7,-10.9 -2,-13.8 -1.3,-2.8 -3.5,-4.3 -6.4,-4.3 -2.9,0 -5,1.4 -6.4,4.2 -1.4,2.9 -2,7.4 -2,13.9 z"
       class="st0" /><path
       style="fill:#ffffff"
       inkscape:connector-curvature="0"
       id="path17"
       d="m 693.9,2042.4 -7.6,0 0,-30.5 c 0,-3.6 0.1,-6.5 0.3,-8.7 -0.5,0.5 -1.1,1.1 -1.8,1.7 -0.7,0.6 -3.1,2.6 -7.3,5.9 l -3.8,-4.8 13.9,-10.9 6.3,0 0,47.3 0,0 z"
       class="st0" /><path
       style="fill:#ffffff"
       inkscape:connector-curvature="0"
       id="path19"
       d="m 725.5,2012.8 c 4.8,0 8.5,1.3 11.3,3.8 2.8,2.5 4.2,6 4.2,10.3 0,5 -1.6,9 -4.7,11.8 -3.2,2.8 -7.6,4.3 -13.5,4.3 -5.3,0 -9.4,-0.9 -12.5,-2.6 l 0,-6.9 c 1.7,1 3.8,1.8 6,2.3 2.3,0.5 4.4,0.8 6.3,0.8 3.4,0 6,-0.8 7.8,-2.3 1.8,-1.5 2.7,-3.8 2.7,-6.7 0,-5.6 -3.6,-8.5 -10.8,-8.5 -1,0 -2.3,0.1 -3.7,0.3 -1.5,0.2 -2.8,0.4 -3.9,0.7 l -3.4,-2 1.8,-23.1 24.6,0 0,6.8 -17.9,0 -1.1,11.7 c 0.8,-0.1 1.7,-0.3 2.8,-0.5 1.1,-0.1 2.4,-0.2 4,-0.2 z"
       class="st0" /></g><g
     id="g35"><g
       id="g37"><path
         style="fill:#ffffff"
         inkscape:connector-curvature="0"
         id="path39"
         d="m 814.2,1942.7 c 0,8.9 -2.4,15.8 -7.3,20.6 -4.9,4.8 -11.7,7.2 -20.6,7.2 l -17.2,0 0,-53.5 18.4,0 c 8.5,0 15.1,2.2 19.7,6.6 4.7,4.5 7,10.8 7,19.1 z m -14.9,0.5 c 0,-4.9 -1,-8.5 -2.9,-10.9 -1.9,-2.4 -4.8,-3.5 -8.8,-3.5 l -4.2,0 0,29.9 3.2,0 c 4.4,0 7.6,-1.3 9.6,-3.8 2.1,-2.6 3.1,-6.5 3.1,-11.7 z"
         class="st0" /></g><g
       id="g41"><path
         style="fill:#ffffff"
         inkscape:connector-curvature="0"
         id="path43"
         d="m 838.3,1971.2 c -6.9,0 -12.2,-1.8 -16,-5.5 -3.8,-3.7 -5.7,-8.9 -5.7,-15.7 0,-7 1.8,-12.4 5.3,-16.1 3.5,-3.7 8.5,-5.6 15,-5.6 6.2,0 11,1.6 14.4,4.9 3.4,3.3 5.1,7.9 5.1,14.1 l 0,6.4 -25.4,0 c 0.1,2.3 0.9,4.1 2.5,5.4 1.6,1.3 3.7,2 6.5,2 2.5,0 4.8,-0.2 6.9,-0.7 2.1,-0.5 4.4,-1.3 6.8,-2.4 l 0,10.3 c -2.2,1.2 -4.5,1.9 -6.9,2.4 -2.4,0.4 -5.2,0.5 -8.5,0.5 z m -0.8,-33 c -1.7,0 -3.1,0.5 -4.2,1.6 -1.1,1.1 -1.8,2.7 -2,5 l 12.2,0 c -0.1,-2 -0.6,-3.6 -1.7,-4.8 -1.1,-1.2 -2.5,-1.8 -4.3,-1.8 z"
         class="st0" /></g><g
       id="g45"><path
         style="fill:#ffffff"
         inkscape:connector-curvature="0"
         id="path47"
         d="m 870.7,1970.6 -15.7,-41.4 14.8,0 7,24.5 c 0,0.1 0.1,0.3 0.2,0.6 0.1,0.3 0.1,0.6 0.2,1 0.1,0.4 0.1,0.8 0.2,1.3 0.1,0.5 0.1,0.9 0.1,1.3 l 0.2,0 c 0,-1.3 0.2,-2.6 0.7,-4.1 l 7.3,-24.6 14.8,0 -15.7,41.4 -14.1,0 0,0 z"
         class="st0" /></g><g
       id="g49"><path
         style="fill:#ffffff"
         inkscape:connector-curvature="0"
         id="path51"
         d="m 915.8,1970.6 -14.1,0 0,-53.4 31.4,0 0,11.6 -17.3,0 0,10.2 15.9,0 0,11.6 -15.9,0 0,20 0,0 z"
         class="st0" /></g><g
       id="g53"><path
         style="fill:#ffffff"
         inkscape:connector-curvature="0"
         id="path55"
         d="m 956.3,1971.2 c -6.8,0 -12.1,-1.8 -16,-5.5 -3.8,-3.7 -5.7,-8.9 -5.7,-15.7 0,-7 1.8,-12.4 5.3,-16.1 3.5,-3.7 8.5,-5.6 15,-5.6 6.2,0 11,1.6 14.4,4.9 3.4,3.3 5.1,7.9 5.1,14.1 l 0,6.4 -25.4,0 c 0.1,2.3 0.9,4.1 2.5,5.4 1.6,1.3 3.7,2 6.5,2 2.5,0 4.8,-0.2 6.9,-0.7 2.1,-0.5 4.3,-1.3 6.8,-2.4 l 0,10.3 c -2.2,1.2 -4.5,1.9 -6.9,2.4 -2.4,0.4 -5.2,0.5 -8.5,0.5 z m -0.8,-33 c -1.7,0 -3.1,0.5 -4.2,1.6 -1.1,1.1 -1.8,2.7 -2,5 l 12.2,0 c -0.1,-2 -0.6,-3.6 -1.7,-4.8 -1.1,-1.2 -2.5,-1.8 -4.3,-1.8 z"
         class="st0" /></g><g
       id="g57"><path
         style="fill:#ffffff"
         inkscape:connector-curvature="0"
         id="path59"
         d="m 1009.7,1957.8 c 0,4.4 -1.5,7.8 -4.5,10.1 -3,2.3 -7.3,3.4 -12.9,3.4 -3,0 -5.7,-0.2 -7.9,-0.5 -2.3,-0.3 -4.5,-0.9 -6.9,-1.8 l 0,-11.4 c 2.2,1 4.6,1.8 7.2,2.4 2.6,0.6 5,0.9 7,0.9 3.1,0 4.6,-0.7 4.6,-2.1 0,-0.7 -0.4,-1.4 -1.3,-2 -0.9,-0.6 -3.4,-1.7 -7.5,-3.3 -3.8,-1.6 -6.4,-3.3 -7.9,-5.3 -1.5,-2 -2.3,-4.5 -2.3,-7.5 0,-3.8 1.5,-6.8 4.4,-9 2.9,-2.2 7.1,-3.2 12.5,-3.2 2.7,0 5.3,0.3 7.6,0.9 2.4,0.6 4.8,1.5 7.4,2.6 l -3.8,9.2 c -1.9,-0.8 -3.9,-1.6 -6,-2.2 -2.1,-0.6 -3.8,-0.9 -5.1,-0.9 -2.3,0 -3.5,0.6 -3.5,1.7 0,0.7 0.4,1.3 1.2,1.8 0.8,0.5 3.2,1.5 7,3.1 2.9,1.2 5,2.4 6.4,3.5 1.4,1.1 2.5,2.5 3.1,4 0.8,1.6 1.2,3.5 1.2,5.6 z"
         class="st0" /></g><g
       id="g61"><path
         style="fill:#ffffff"
         inkscape:connector-curvature="0"
         id="path63"
         d="m 1033.2,1959.9 c 1.9,0 4.2,-0.5 6.9,-1.4 l 0,10.4 c -1.9,0.8 -3.7,1.4 -5.5,1.8 -1.7,0.4 -3.8,0.5 -6.1,0.5 -4.8,0 -8.2,-1.2 -10.3,-3.5 -2.1,-2.4 -3.2,-6 -3.2,-10.8 l 0,-17.1 -5,0 0,-5.8 6.3,-4.5 3.7,-8.7 9.3,0 0,8.3 10.1,0 0,10.7 -10.1,0 0,16.1 c 0.1,2.8 1.4,4 3.9,4 z"
         class="st0" /></g></g><g
     id="g65"><g
       id="g67"><path
         style="fill:#ffffff"
         inkscape:connector-curvature="0"
         id="path69"
         d="m 613.1,1940.6 23.1,0 0,28.8 c -6.3,2.1 -13.2,3.2 -20.7,3.2 -8.2,0 -14.6,-2.4 -19.1,-7.2 -4.5,-4.8 -6.7,-11.6 -6.7,-20.4 0,-8.6 2.5,-15.3 7.4,-20.1 4.9,-4.8 11.8,-7.2 20.7,-7.2 3.4,0 6.5,0.3 9.5,1 3,0.6 5.6,1.4 7.8,2.4 l -4.6,11.3 c -3.8,-1.9 -8.1,-2.8 -12.7,-2.8 -4.2,0 -7.5,1.4 -9.8,4.1 -2.3,2.7 -3.5,6.7 -3.5,11.8 0,5 1,8.8 3.1,11.4 2.1,2.6 5.1,3.9 9,3.9 2.1,0 4.1,-0.2 5.9,-0.6 l 0,-8.4 -9.5,0 0.1,-11.2 0,0 0,0 z"
         class="st0" /></g><g
       id="g71"><path
         style="fill:#ffffff"
         inkscape:connector-curvature="0"
         id="path73"
         d="m 687.9,1943.9 c 0,8.9 -2.5,15.8 -7.4,20.6 -4.9,4.8 -11.8,7.2 -20.7,7.2 l -17.3,0 0,-53.5 18.5,0 c 8.6,0 15.2,2.2 19.9,6.6 4.7,4.5 7,10.9 7,19.1 z m -15,0.5 c 0,-4.9 -1,-8.5 -2.9,-10.9 -1.9,-2.4 -4.9,-3.6 -8.8,-3.6 l -4.2,0 0,29.9 3.2,0 c 4.4,0 7.6,-1.3 9.7,-3.8 2,-2.3 3,-6.2 3,-11.6 z"
         class="st0" /></g><g
       id="g75"><path
         style="fill:#ffffff"
         inkscape:connector-curvature="0"
         id="path77"
         d="m 714.5,1940.6 23.1,0 0,28.8 c -6.3,2.1 -13.1,3.2 -20.7,3.2 -8.2,0 -14.6,-2.4 -19.1,-7.2 -4.5,-4.8 -6.7,-11.6 -6.7,-20.4 0,-8.6 2.5,-15.3 7.4,-20.1 4.9,-4.8 11.8,-7.2 20.7,-7.2 3.4,0 6.5,0.3 9.5,1 3,0.6 5.6,1.4 7.8,2.4 l -4.6,11.3 c -3.9,-1.9 -8.1,-2.8 -12.7,-2.8 -4.2,0 -7.5,1.4 -9.8,4.1 -2.3,2.7 -3.5,6.7 -3.5,11.8 0,5 1,8.8 3.1,11.4 2.1,2.6 5.1,3.9 9,3.9 2.1,0 4.1,-0.2 5.9,-0.6 l 0,-8.4 -9.5,0 0.1,-11.2 0,0 z"
         class="st0" /></g></g><g
     id="g79"><path
       class="st0"
       d="M533.8,2009.1l-79-126.4H433c-4.4,0-6,3-3.8,6.7l53,86.5l0.3,0.4l35.9,57.5L533.8,2009.1z"
       id="path81" /><path
       class="st0"
       d="M546,1989.4c2.3-3.7,2.3-9.7,0-13.4l-53.6-86.6c-2.3-3.7-7.7-6.7-12-6.7h-22l77.2,123.5L546,1989.4z"
       id="path83" /><path
       class="st0"
       d="M501.1,2011.9l-44.2,70.8h23.5c4.3,0,9.8-3,12-6.7l21.4-34.6c0.1-0.1,0.2-0.4,0.6-1l2.2-3.6L501.1,2011.9z"
       id="path85" /><path
       class="st0"
       d="M482.3,1989.4l-53,86.5c-2.3,3.7-0.6,6.7,3.8,6.7h20.3l46-73.6l-15.4-24.8   C483.7,1986.1,483.1,1987.9,482.3,1989.4z"
       id="path87" /></g><text
     xml:space="preserve"
     style="font-style:normal;font-weight:normal;font-size:40px;line-height:125%;font-family:Sans;letter-spacing:0px;word-spacing:0px;fill:#ffffff;fill-opacity:1;stroke:none;stroke-width:1px;stroke-linecap:butt;stroke-linejoin:miter;stroke-opacity:1;"
     x="763.2113"
     y="2044.0637"
     id="text4343"
     sodipodi:linespacing="125%"><tspan
       sodipodi:role="line"
       id="tspan4345"
       x="763.2113"
       y="2044.0637"
       style="font-style:normal;font-variant:normal;font-weight:normal;font-stretch:normal;font-size:60px;font-family:'Open Sans';-inkscape-font-specification:'Open Sans';fill:#ffffff;fill-opacity:1;">Istanbul</tspan></text>
</svg>