<?xml version="1.0" encoding="UTF-8" standalone="no"?>
<!-- Generator: Adobe Illustrator 19.0.0, SVG Export Plug-In . SVG Version: 6.00 Build 0)  -->

<svg
   xmlns:dc="http://purl.org/dc/elements/1.1/"
   xmlns:cc="http://creativecommons.org/ns#"
   xmlns:rdf="http://www.w3.org/1999/02/22-rdf-syntax-ns#"
   xmlns:svg="http://www.w3.org/2000/svg"
   xmlns="http://www.w3.org/2000/svg"
   xmlns:sodipodi="http://sodipodi.sourceforge.net/DTD/sodipodi-0.dtd"
   xmlns:inkscape="http://www.inkscape.org/namespaces/inkscape"
   version="1.1"
   id="dark"
   sodipodi:docname="logo-light.svg"
   inkscape:version="0.91 r13725"
   x="0px"
   y="0px"
   viewBox="95.2 1678.4 610.1 200"
   style="enable-background:new 95.2 1678.4 610.1 200;"
   xml:space="preserve"><metadata
     id="metadata97"><rdf:RDF><cc:Work
         rdf:about=""><dc:format>image/svg+xml</dc:format><dc:type
           rdf:resource="http://purl.org/dc/dcmitype/StillImage" /></cc:Work></rdf:RDF></metadata><defs
     id="defs95" /><sodipodi:namedview
     pagecolor="#ffffff"
     bordercolor="#666666"
     borderopacity="1"
     objecttolerance="10"
     gridtolerance="10"
     guidetolerance="10"
     inkscape:pageopacity="0"
     inkscape:pageshadow="2"
     inkscape:window-width="1366"
     inkscape:window-height="719"
     id="namedview93"
     showgrid="false"
     inkscape:zoom="1"
     inkscape:cx="173.04999"
     inkscape:cy="149.06569"
     inkscape:window-x="0"
     inkscape:window-y="1"
     inkscape:window-maximized="1"
     inkscape:current-layer="g17" /><style
     type="text/css"
     id="style3">
	.st0{fill:#F6C25B;}
	.st1{fill:#0A985C;}
	.st2{fill:#5586C5;}
	.st3{fill:#D9423E;}
	.st4{fill:#E6E6E5;}
	.st5{fill:#168B58;}
	.st6{fill:#D7AB56;}
</style><g
     id="g5"><g
       id="g7"><path
         class="st0"
         d="M122.1,1878.4h22.6c5.4,0,12-3.8,14.8-8.4l19.1-31.7c2.3-4.7,2.2-11.4-0.4-15.7l-11.3-18.6L122.1,1878.4z"
         id="path9" /><path
         class="st1"
         d="M146.4,1786.8L96.1,1871c-1.9,4.1,0.1,7.5,5.1,7.5h20.9l44.8-74.4l-20.5-33.9    C149.2,1774.6,149.2,1782.2,146.4,1786.8"
         id="path11" /><path
         class="st2"
         d="M101.1,1678.4c-5.4,0-7.5,3.8-4.7,8.4l81.8,135.8c2.6,4.3,2.6,11.1,0.4,15.7l19.9-33.1l-76.3-126.8    L101.1,1678.4L101.1,1678.4z"
         id="path13" /><path
         class="st3"
         d="M122.1,1678.4l76.3,126.8l11.1-18.4c2.8-4.6,2.8-12.1,0-16.7l-50-83.3c-2.8-4.6-9.4-8.4-14.8-8.4H122.1    L122.1,1678.4z"
         id="path15" /></g><g
       id="g17"><path
         class="st4"
         d="m 293.3,1839.0836 -32,0 0,-5.8 12.2,-12.3 c 3.6,-3.7 6,-6.3 7.2,-7.8 1.2,-1.5 2,-3 2.6,-4.3 0.5,-1.4 0.8,-2.8 0.8,-4.4 0,-2.1 -0.6,-3.8 -1.9,-5 -1.3,-1.2 -3.1,-1.8 -5.3,-1.8 -1.8,0 -3.6,0.3 -5.3,1 -1.7,0.7 -3.6,1.9 -5.9,3.6 l -4.1,-5 c 2.6,-2.2 5.2,-3.8 7.7,-4.7 2.5,-0.9 5.1,-1.4 7.9,-1.4 4.4,0 7.9,1.1 10.6,3.4 2.7,2.3 4,5.4 4,9.3 0,2.1 -0.4,4.2 -1.1,6.1 -0.8,1.9 -1.9,3.9 -3.5,5.9 -1.6,2 -4.2,4.8 -7.9,8.3 l -8.2,8 0,0.3 22.4,0 -0.2,6.6 0,0 z"
         id="path23"
         inkscape:connector-curvature="0"
         style="fill:#e6e6e5" /><path
         class="st4"
         d="m 331.1,1814.7836 c 0,8.2 -1.3,14.3 -4,18.3 -2.7,4 -6.7,6 -12.1,6 -5.3,0 -9.2,-2.1 -12,-6.2 -2.7,-4.1 -4.1,-10.2 -4.1,-18.1 0,-8.3 1.3,-14.5 4,-18.4 2.6,-4 6.7,-5.9 12.1,-5.9 5.3,0 9.3,2.1 12,6.2 2.7,4.1 4.1,10.1 4.1,18.1 z m -24.4,0 c 0,6.4 0.7,11 2,13.8 1.3,2.8 3.4,4.1 6.4,4.1 2.9,0 5,-1.4 6.4,-4.2 1.3,-2.8 2,-7.4 2,-13.7 0,-6.3 -0.7,-10.9 -2,-13.8 -1.3,-2.8 -3.5,-4.3 -6.4,-4.3 -2.9,0 -5,1.4 -6.4,4.2 -1.4,2.9 -2,7.5 -2,13.9 z"
         id="path25"
         inkscape:connector-curvature="0"
         style="fill:#e6e6e5" /><path
         class="st4"
         d="m 359.1,1839.0836 -7.6,0 0,-30.5 c 0,-3.6 0.1,-6.5 0.3,-8.7 -0.5,0.5 -1.1,1.1 -1.8,1.7 -0.7,0.6 -3.1,2.6 -7.3,5.9 l -3.8,-4.8 13.9,-10.9 6.3,0 0,47.3 0,0 z"
         id="path27"
         inkscape:connector-curvature="0"
         style="fill:#e6e6e5" /><path
         class="st4"
         d="m 390.7,1808.8836 c 4.8,0 8.5,1.3 11.3,3.8 2.8,2.5 4.2,6 4.2,10.3 0,5 -1.6,9 -4.7,11.8 -3.2,2.8 -7.6,4.3 -13.5,4.3 -5.3,0 -9.4,-0.9 -12.5,-2.6 l 0,-6.9 c 1.7,1 3.8,1.8 6,2.3 2.3,0.5 4.4,0.8 6.3,0.8 3.4,0 6,-0.8 7.8,-2.3 1.8,-1.5 2.7,-3.8 2.7,-6.7 0,-5.6 -3.6,-8.5 -10.8,-8.5 -1,0 -2.3,0.1 -3.7,0.3 -1.5,0.2 -2.8,0.4 -3.9,0.7 l -3.4,-2 1.8,-23.1 24.6,0 0,6.8 -17.9,0 -1.1,11.7 c 0.8,-0.1 1.7,-0.3 2.8,-0.5 1.1,-0.1 2.4,-0.2 4,-0.2 z"
         id="path29"
         inkscape:connector-curvature="0"
         style="fill:#e6e6e5" /><g
         id="g45"><g
           id="g47"><path
             style="fill:#e6e6e5"
             inkscape:connector-curvature="0"
             id="path49"
             d="m 479.4,1738.4 c 0,8.9 -2.4,15.8 -7.3,20.6 -4.9,4.8 -11.7,7.2 -20.6,7.2 l -17.2,0 0,-53.4 18.4,0 c 8.5,0 15.1,2.2 19.7,6.6 4.7,4.4 7,10.8 7,19 z m -14.9,0.6 c 0,-4.9 -1,-8.5 -2.9,-10.9 -1.9,-2.4 -4.8,-3.5 -8.8,-3.5 l -4.2,0 0,29.9 3.2,0 c 4.4,0 7.6,-1.3 9.6,-3.8 2.1,-2.6 3.1,-6.5 3.1,-11.7 z"
             class="st4" /></g><g
           id="g51"><path
             style="fill:#e6e6e5"
             inkscape:connector-curvature="0"
             id="path53"
             d="m 503.5,1767 c -6.9,0 -12.2,-1.8 -16,-5.5 -3.8,-3.7 -5.7,-8.9 -5.7,-15.7 0,-7 1.8,-12.4 5.3,-16.1 3.5,-3.7 8.5,-5.6 15,-5.6 6.2,0 11,1.6 14.4,4.9 3.4,3.3 5.1,7.9 5.1,14.1 l 0,6.4 -25.4,0 c 0.1,2.3 0.9,4.1 2.5,5.4 1.6,1.3 3.7,2 6.5,2 2.5,0 4.8,-0.2 6.9,-0.7 2.1,-0.5 4.4,-1.3 6.8,-2.4 l 0,10.3 c -2.2,1.2 -4.5,1.9 -6.9,2.4 -2.4,0.3 -5.2,0.5 -8.5,0.5 z m -0.8,-33.1 c -1.7,0 -3.1,0.5 -4.2,1.6 -1.1,1.1 -1.8,2.7 -2,5 l 12.2,0 c -0.1,-2 -0.6,-3.6 -1.7,-4.8 -1.1,-1.2 -2.5,-1.8 -4.3,-1.8 z"
             class="st4" /></g><g
           id="g55"><path
             style="fill:#e6e6e5"
             inkscape:connector-curvature="0"
             id="path57"
             d="m 535.9,1766.3 -15.7,-41.4 14.8,0 7,24.5 c 0,0.1 0.1,0.3 0.2,0.6 0.1,0.3 0.1,0.6 0.2,1 0.1,0.4 0.1,0.8 0.2,1.3 0.1,0.5 0.1,0.9 0.1,1.3 l 0.2,0 c 0,-1.3 0.2,-2.6 0.7,-4.1 l 7.3,-24.6 14.8,0 -15.7,41.4 -14.1,0 z"
             class="st4" /></g><g
           id="g59"><path
             style="fill:#e6e6e5"
             inkscape:connector-curvature="0"
             id="path61"
             d="m 581,1766.3 -14.1,0 0,-53.4 31.4,0 0,11.6 -17.3,0 0,10.2 15.9,0 0,11.6 -15.9,0 0,20 0,0 z"
             class="st4" /></g><g
           id="g63"><path
             style="fill:#e6e6e5"
             inkscape:connector-curvature="0"
             id="path65"
             d="m 621.5,1767 c -6.8,0 -12.1,-1.8 -16,-5.5 -3.8,-3.7 -5.7,-8.9 -5.7,-15.7 0,-7 1.8,-12.4 5.3,-16.1 3.5,-3.7 8.5,-5.6 15,-5.6 6.2,0 11,1.6 14.4,4.9 3.4,3.3 5.1,7.9 5.1,14.1 l 0,6.4 -25.4,0 c 0.1,2.3 0.9,4.1 2.5,5.4 1.6,1.3 3.7,2 6.5,2 2.5,0 4.8,-0.2 6.9,-0.7 2.1,-0.5 4.3,-1.3 6.8,-2.4 l 0,10.3 c -2.2,1.2 -4.5,1.9 -6.9,2.4 -2.4,0.3 -5.2,0.5 -8.5,0.5 z m -0.8,-33.1 c -1.7,0 -3.1,0.5 -4.2,1.6 -1.1,1.1 -1.8,2.7 -2,5 l 12.2,0 c -0.1,-2 -0.6,-3.6 -1.7,-4.8 -1.1,-1.2 -2.5,-1.8 -4.3,-1.8 z"
             class="st4" /></g><g
           id="g67"><path
             style="fill:#e6e6e5"
             inkscape:connector-curvature="0"
             id="path69"
             d="m 674.9,1753.6 c 0,4.4 -1.5,7.8 -4.5,10.1 -3,2.3 -7.3,3.4 -12.9,3.4 -3,0 -5.7,-0.2 -7.9,-0.5 -2.3,-0.3 -4.5,-0.9 -6.9,-1.8 l 0,-11.4 c 2.2,1 4.6,1.8 7.2,2.4 2.6,0.6 5,0.9 7,0.9 3.1,0 4.6,-0.7 4.6,-2.1 0,-0.7 -0.4,-1.4 -1.3,-2 -0.9,-0.6 -3.4,-1.7 -7.5,-3.3 -3.8,-1.6 -6.4,-3.3 -7.9,-5.3 -1.5,-2 -2.3,-4.5 -2.3,-7.5 0,-3.8 1.5,-6.8 4.4,-9 2.9,-2.2 7.1,-3.2 12.5,-3.2 2.7,0 5.3,0.3 7.6,0.9 2.4,0.6 4.8,1.5 7.4,2.6 l -3.8,9.2 c -1.9,-0.8 -3.9,-1.6 -6,-2.2 -2.1,-0.6 -3.8,-0.9 -5.1,-0.9 -2.3,0 -3.5,0.6 -3.5,1.7 0,0.7 0.4,1.3 1.2,1.8 0.8,0.5 3.2,1.5 7,3.1 2.9,1.2 5,2.4 6.4,3.5 1.4,1.1 2.5,2.5 3.1,4 0.8,1.5 1.2,3.4 1.2,5.6 z"
             class="st4" /></g><g
           id="g71"><path
             style="fill:#e6e6e5"
             inkscape:connector-curvature="0"
             id="path73"
             d="m 698.4,1755.7 c 1.9,0 4.2,-0.5 6.9,-1.4 l 0,10.4 c -1.9,0.8 -3.7,1.4 -5.5,1.8 -1.7,0.4 -3.8,0.5 -6.1,0.5 -4.8,0 -8.2,-1.2 -10.3,-3.5 -2.1,-2.4 -3.2,-6 -3.2,-10.8 l 0,-17.1 -5,0 0,-5.8 6.3,-4.5 3.7,-8.7 9.3,0 0,8.3 10.1,0 0,10.7 -10.1,0 0,16.1 c 0.1,2.7 1.4,4 3.9,4 z"
             class="st4" /></g></g><g
         id="g75"><g
           id="g77"><path
             style="fill:#e6e6e5"
             inkscape:connector-curvature="0"
             id="path79"
             d="m 278.3,1736.3 23.1,0 0,28.8 c -6.3,2.1 -13.2,3.2 -20.7,3.2 -8.2,0 -14.6,-2.4 -19.1,-7.2 -4.5,-4.8 -6.7,-11.6 -6.7,-20.4 0,-8.6 2.5,-15.3 7.4,-20.1 4.9,-4.8 11.8,-7.2 20.7,-7.2 3.4,0 6.5,0.3 9.5,1 3,0.6 5.6,1.4 7.8,2.4 l -4.6,11.3 c -3.8,-1.9 -8.1,-2.8 -12.7,-2.8 -4.2,0 -7.5,1.4 -9.8,4.1 -2.3,2.7 -3.5,6.7 -3.5,11.8 0,5 1,8.8 3.1,11.4 2.1,2.6 5.1,3.9 9,3.9 2.1,0 4.1,-0.2 5.9,-0.6 l 0,-8.4 -9.5,0 0.1,-11.2 0,0 0,0 z"
             class="st4" /></g><g
           id="g81"><path
             style="fill:#e6e6e5"
             inkscape:connector-curvature="0"
             id="path83"
             d="m 353.1,1739.7 c 0,8.9 -2.5,15.8 -7.4,20.6 -4.9,4.8 -11.8,7.2 -20.7,7.2 l -17.3,0 0,-53.5 18.5,0 c 8.6,0 15.2,2.2 19.9,6.6 4.7,4.5 7,10.8 7,19.1 z m -15,0.5 c 0,-4.9 -1,-8.5 -2.9,-10.9 -1.9,-2.4 -4.9,-3.6 -8.8,-3.6 l -4.2,0 0,29.9 3.2,0 c 4.4,0 7.6,-1.3 9.7,-3.8 2,-2.4 3,-6.3 3,-11.6 z"
             class="st4" /></g><g
           id="g85"><path
             style="fill:#e6e6e5"
             inkscape:connector-curvature="0"
             id="path87"
             d="m 379.7,1736.3 23.1,0 0,28.8 c -6.3,2.1 -13.1,3.2 -20.7,3.2 -8.2,0 -14.6,-2.4 -19.1,-7.2 -4.5,-4.8 -6.7,-11.6 -6.7,-20.4 0,-8.6 2.5,-15.3 7.4,-20.1 4.9,-4.8 11.8,-7.2 20.7,-7.2 3.4,0 6.5,0.3 9.5,1 3,0.6 5.6,1.4 7.8,2.4 l -4.6,11.3 c -3.9,-1.9 -8.1,-2.8 -12.7,-2.8 -4.2,0 -7.5,1.4 -9.8,4.1 -2.3,2.7 -3.5,6.7 -3.5,11.8 0,5 1,8.8 3.1,11.4 2.1,2.6 5.1,3.9 9,3.9 2.1,0 4.1,-0.2 5.9,-0.6 l 0,-8.4 -9.5,0 0.1,-11.2 0,0 z"
             class="st4" /></g></g><g
         style="font-style:normal;font-weight:normal;font-size:70px;line-height:125%;font-family:Sans;letter-spacing:0px;word-spacing:0px;fill:#dfdfdf;fill-opacity:1;stroke:none;stroke-width:1px;stroke-linecap:butt;stroke-linejoin:miter;stroke-opacity:1"
         id="text3425"><path
           d="m 431.07013,1838.4 0,-49.9707 5.81055,0 0,49.9707 -5.81055,0 z"
           style="font-style:normal;font-variant:normal;font-weight:normal;font-stretch:normal;font-family:'Open Sans';-inkscape-font-specification:'Open Sans';fill:#dfdfdf;fill-opacity:1"
           id="path4171" /><path
           d="m 473.93146,1828.1803 q 0,5.2295 -3.89649,8.0664 -3.89648,2.8369 -10.9375,2.8369 -7.45117,0 -11.62109,-2.3584 l 0,-5.2637 q 2.70019,1.3672 5.77637,2.1534 3.11035,0.7861 5.98144,0.7861 4.44336,0 6.83594,-1.4014 2.39258,-1.4355 2.39258,-4.3408 0,-2.1875 -1.91406,-3.7256 -1.87989,-1.5722 -7.38282,-3.6914 -5.22949,-1.9482 -7.45117,-3.3838 -2.1875,-1.4697 -3.28125,-3.3154 -1.05957,-1.8457 -1.05957,-4.4092 0,-4.5801 3.72559,-7.2119 3.72558,-2.666 10.21972,-2.666 6.04981,0 11.82617,2.4609 l -2.0166,4.6143 q -5.63965,-2.3242 -10.21972,-2.3242 -4.03321,0 -6.08399,1.2646 -2.05078,1.2647 -2.05078,3.4863 0,1.504 0.75195,2.5635 0.78614,1.0596 2.49512,2.0166 1.70899,0.9571 6.5625,2.7686 6.66504,2.4267 8.98926,4.8877 2.3584,2.4609 2.3584,6.1865 z"
           style="font-style:normal;font-variant:normal;font-weight:normal;font-stretch:normal;font-family:'Open Sans';-inkscape-font-specification:'Open Sans';fill:#dfdfdf;fill-opacity:1"
           id="path4173" /><path
           d="m 495.2254,1834.401 q 1.50391,0 2.90528,-0.2051 1.40136,-0.2392 2.22168,-0.4785 l 0,4.3408 q -0.92286,0.4444 -2.73438,0.7178 -1.77734,0.3076 -3.21289,0.3076 -10.86914,0 -10.86914,-11.4502 l 0,-22.2851 -5.36621,0 0,-2.7344 5.36621,-2.3584 2.39258,-7.9981 3.28125,0 0,8.6817 10.86914,0 0,4.4092 -10.86914,0 0,22.0459 q 0,3.3838 1.60644,5.1953 1.60645,1.8115 4.40918,1.8115 z"
           style="font-style:normal;font-variant:normal;font-weight:normal;font-stretch:normal;font-family:'Open Sans';-inkscape-font-specification:'Open Sans';fill:#dfdfdf;fill-opacity:1"
           id="path4175" /><path
           d="m 530.909,1838.4 -1.12793,-5.332 -0.27344,0 q -2.80273,3.5205 -5.60547,4.7851 -2.76855,1.2305 -6.93848,1.2305 -5.57128,0 -8.75,-2.8711 -3.14453,-2.8711 -3.14453,-8.1689 0,-11.3477 18.14942,-11.8946 l 6.35742,-0.205 0,-2.3242 q 0,-4.4092 -1.91406,-6.4942 -1.87989,-2.1191 -6.04981,-2.1191 -4.68262,0 -10.5957,2.8711 l -1.74317,-4.3409 q 2.76856,-1.5039 6.04981,-2.3584 3.31543,-0.8544 6.63086,-0.8544 6.69922,0 9.91211,2.9736 3.24707,2.9736 3.24707,9.5361 l 0,25.5664 -4.2041,0 z m -12.81739,-3.999 q 5.29786,0 8.30567,-2.9053 3.04199,-2.9052 3.04199,-8.1347 l 0,-3.3838 -5.67383,0.2392 q -6.76758,0.2393 -9.77539,2.1192 -2.97363,1.8457 -2.97363,5.7763 0,3.0762 1.8457,4.6827 1.87988,1.6064 5.22949,1.6064 z"
           style="font-style:normal;font-variant:normal;font-weight:normal;font-stretch:normal;font-family:'Open Sans';-inkscape-font-specification:'Open Sans';fill:#dfdfdf;fill-opacity:1"
           id="path4177" /><path
           d="m 572.4715,1838.4 0,-24.2334 q 0,-4.5801 -2.08496,-6.8359 -2.08497,-2.2559 -6.52832,-2.2559 -5.87891,0 -8.61329,3.1787 -2.73437,3.1788 -2.73437,10.4932 l 0,19.6533 -5.67383,0 0,-37.4609 4.61426,0 0.92285,5.1269 0.27344,0 q 1.74316,-2.7685 4.88769,-4.2724 3.14453,-1.5381 7.00684,-1.5381 6.76758,0 10.18555,3.2812 3.41796,3.2471 3.41796,10.4248 l 0,24.4385 -5.67382,0 z"
           style="font-style:normal;font-variant:normal;font-weight:normal;font-stretch:normal;font-family:'Open Sans';-inkscape-font-specification:'Open Sans';fill:#dfdfdf;fill-opacity:1"
           id="path4179" /><path
           d="m 607.19806,1800.3239 q 7.38281,0 11.45019,5.0585 4.10157,5.0245 4.10157,14.253 0,9.2285 -4.13575,14.3554 -4.10156,5.0928 -11.41601,5.0928 -3.65723,0 -6.69922,-1.333 -3.00781,-1.3672 -5.05859,-4.1699 l -0.41016,0 -1.19629,4.8193 -4.06738,0 0,-53.1836 5.67383,0 0,12.92 q 0,4.3408 -0.27344,7.7929 l 0.27344,0 q 3.96484,-5.6054 11.75781,-5.6054 z m -0.82031,4.7509 q -5.81055,0 -8.37403,3.3496 -2.56347,3.3155 -2.56347,11.211 0,7.8955 2.63183,11.3135 2.63184,3.3837 8.44239,3.3837 5.22949,0 7.79296,-3.7939 2.56348,-3.8281 2.56348,-10.9717 0,-7.3144 -2.56348,-10.9033 -2.56347,-3.5889 -7.92968,-3.5889 z"
           style="font-style:normal;font-variant:normal;font-weight:normal;font-stretch:normal;font-family:'Open Sans';-inkscape-font-specification:'Open Sans';fill:#dfdfdf;fill-opacity:1"
           id="path4181" /><path
           d="m 638.02814,1800.9391 0,24.3017 q 0,4.5801 2.08496,6.836 2.08496,2.2558 6.52832,2.2558 5.8789,0 8.5791,-3.2128 2.73438,-3.2129 2.73438,-10.4932 l 0,-19.6875 5.67382,0 0,37.4609 -4.68261,0 -0.82032,-5.0244 -0.30761,0 q -1.74317,2.7686 -4.85352,4.2383 -3.07617,1.4697 -7.04101,1.4697 -6.83594,0 -10.25391,-3.2471 -3.38379,-3.247 -3.38379,-10.3906 l 0,-24.5068 5.74219,0 z"
           style="font-style:normal;font-variant:normal;font-weight:normal;font-stretch:normal;font-family:'Open Sans';-inkscape-font-specification:'Open Sans';fill:#dfdfdf;fill-opacity:1"
           id="path4183" /><path
           d="m 681.29962,1838.4 -5.67383,0 0,-53.1836 5.67383,0 0,53.1836 z"
           style="font-style:normal;font-variant:normal;font-weight:normal;font-stretch:normal;font-family:'Open Sans';-inkscape-font-specification:'Open Sans';fill:#dfdfdf;fill-opacity:1"
           id="path4185" /></g></g></g><path
     class="st5"
     d="M146.4,1786.8l-12,20.1l21.5,15.3l11-18.2l-20.5-33.9C149.2,1774.6,149.2,1782.2,146.4,1786.8z"
     id="path89" /><path
     class="st6"
     d="M166.9,1804l-11,18.2l22.6,16.1c2.3-4.7,2.2-11.4-0.4-15.7L166.9,1804z"
     id="path91" /></svg>