<?xml version="1.0" encoding="UTF-8" standalone="no"?>
<!-- Generator: Adobe Illustrator 19.0.0, SVG Export Plug-In . SVG Version: 6.00 Build 0)  -->

<svg
   xmlns:dc="http://purl.org/dc/elements/1.1/"
   xmlns:cc="http://creativecommons.org/ns#"
   xmlns:rdf="http://www.w3.org/1999/02/22-rdf-syntax-ns#"
   xmlns:svg="http://www.w3.org/2000/svg"
   xmlns="http://www.w3.org/2000/svg"
   xmlns:sodipodi="http://sodipodi.sourceforge.net/DTD/sodipodi-0.dtd"
   xmlns:inkscape="http://www.inkscape.org/namespaces/inkscape"
   version="1.1"
   id="dark"
   inkscape:version="0.91 r13725"
   sodipodi:docname="logo.svg"
   x="0px"
   y="0px"
   viewBox="90.18 977.405 610.109 200"
   enable-background="new 90.18 977.405 610.109 200"
   xml:space="preserve"><metadata
     id="metadata95"><rdf:RDF><cc:Work
         rdf:about=""><dc:format>image/svg+xml</dc:format><dc:type
           rdf:resource="http://purl.org/dc/dcmitype/StillImage" /></cc:Work></rdf:RDF></metadata><defs
     id="defs93" /><sodipodi:namedview
     pagecolor="#ffffff"
     bordercolor="#666666"
     borderopacity="1"
     objecttolerance="10"
     gridtolerance="10"
     guidetolerance="10"
     inkscape:pageopacity="0"
     inkscape:pageshadow="2"
     inkscape:window-width="1366"
     inkscape:window-height="719"
     id="namedview91"
     showgrid="false"
     inkscape:zoom="1"
     inkscape:cx="159.0545"
     inkscape:cy="100"
     inkscape:window-x="0"
     inkscape:window-y="1"
     inkscape:window-maximized="1"
     inkscape:current-layer="g4337" /><g
     id="g5"><path
       style="fill:#f6c25b"
       inkscape:connector-curvature="0"
       id="path7"
       d="m 117.073,1177.405 22.645,0 c 5.352,0 12.006,-3.759 14.771,-8.376 l 19.071,-31.726 c 2.255,-4.651 2.173,-11.427 -0.397,-15.712 l -11.26,-18.634 -44.83,74.448 z" /><path
       style="fill:#0a985c"
       inkscape:connector-curvature="0"
       id="path9"
       d="m 141.413,1085.779 -50.349,84.173 c -1.944,4.148 0.079,7.453 5.069,7.453 l 20.94,0 44.829,-74.448 -20.488,-33.916 c 2.761,4.596 2.761,12.131 -10e-4,16.738" /><path
       style="fill:#5586c5"
       inkscape:connector-curvature="0"
       id="path11"
       d="m 96.134,977.405 c -5.38,0 -7.502,3.779 -4.747,8.366 l 81.776,135.821 c 2.57,4.285 2.646,11.061 0.397,15.705 l 19.876,-33.078 -76.349,-126.813 -20.953,0 z" /><path
       style="fill:#d9423e"
       inkscape:connector-curvature="0"
       id="path13"
       d="m 117.087,977.405 76.349,126.813 11.073,-18.432 c 2.768,-4.613 2.768,-12.148 0,-16.744 l -50.017,-83.271 c -2.769,-4.586 -9.423,-8.366 -14.774,-8.366 l -22.631,0 z" /></g><path
     fill="#168B58"
     d="M141.413,1085.779l-12.032,20.115l21.535,15.307l10.985-18.243l-20.488-33.916  C144.175,1073.637,144.175,1081.172,141.413,1085.779z"
     id="path87" /><path
     fill="#D7AB56"
     d="M161.902,1102.957l-10.985,18.243l22.646,16.096c2.252-4.651,2.169-11.422-0.4-15.705L161.902,1102.957z"
     id="path89" /><g
     id="g4337"><g
       id="g43"><g
         id="g45"><path
           d="m 474.434,1037.446 c 0,8.922 -2.443,15.801 -7.314,20.62 -4.874,4.818 -11.729,7.241 -20.557,7.241 l -17.17,0 0,-53.449 18.367,0 c 8.513,0 15.088,2.197 19.719,6.585 4.635,4.376 6.955,10.719 6.955,19.003 z m -14.884,0.515 c 0,-4.897 -0.96,-8.529 -2.884,-10.898 -1.914,-2.358 -4.839,-3.543 -8.763,-3.543 l -4.173,0 0,29.935 3.199,0 c 4.35,0 7.553,-1.275 9.586,-3.814 2.017,-2.552 3.035,-6.441 3.035,-11.68 z"
           id="path47"
           inkscape:connector-curvature="0"
           style="fill:#4e4e4e" /></g><g
         id="g49"><path
           d="m 498.501,1066.038 c -6.856,0 -12.17,-1.836 -15.957,-5.502 -3.783,-3.67 -5.68,-8.899 -5.68,-15.668 0,-6.991 1.75,-12.367 5.257,-16.102 3.51,-3.738 8.52,-5.611 15.023,-5.611 6.19,0 10.974,1.626 14.354,4.88 3.377,3.253 5.058,7.935 5.058,14.062 l 0,6.359 -25.355,0 c 0.092,2.313 0.936,4.125 2.515,5.44 1.589,1.322 3.745,1.972 6.479,1.972 2.492,0 4.785,-0.239 6.879,-0.708 2.085,-0.475 4.362,-1.285 6.798,-2.43 l 0,10.269 c -2.218,1.152 -4.518,1.941 -6.89,2.382 -2.374,0.438 -5.204,0.657 -8.481,0.657 z m -0.845,-33.158 c -1.667,0 -3.059,0.533 -4.186,1.592 -1.134,1.056 -1.784,2.72 -1.982,4.986 l 12.197,0 c -0.051,-1.996 -0.611,-3.588 -1.689,-4.788 -1.079,-1.199 -2.528,-1.79 -4.34,-1.79 z"
           id="path51"
           inkscape:connector-curvature="0"
           style="fill:#4e4e4e" /></g><g
         id="g53"><path
           d="m 530.893,1065.306 -15.673,-41.424 14.805,0 6.965,24.495 c 0.02,0.126 0.072,0.328 0.15,0.625 0.069,0.291 0.143,0.639 0.212,1.036 0.078,0.406 0.143,0.834 0.198,1.288 0.065,0.451 0.096,0.868 0.096,1.254 l 0.246,0 c 0,-1.258 0.222,-2.638 0.656,-4.125 l 7.293,-24.573 14.765,0 -15.68,41.424 -14.033,0 z"
           id="path55"
           inkscape:connector-curvature="0"
           style="fill:#4e4e4e" /></g><g
         id="g57"><path
           d="m 576.002,1065.306 -14.115,0 0,-53.449 31.353,0 0,11.591 -17.238,0 0,10.201 15.891,0 0,11.588 -15.891,0 0,20.069 z"
           id="path59"
           inkscape:connector-curvature="0"
           style="fill:#4e4e4e" /></g><g
         id="g61"><path
           d="m 616.5,1066.038 c -6.849,0 -12.149,-1.836 -15.95,-5.502 -3.783,-3.67 -5.677,-8.899 -5.677,-15.668 0,-6.991 1.751,-12.367 5.257,-16.102 3.51,-3.738 8.513,-5.611 15.023,-5.611 6.19,0 10.975,1.626 14.351,4.88 3.376,3.253 5.054,7.935 5.054,14.062 l 0,6.359 -25.358,0 c 0.1,2.313 0.944,4.125 2.526,5.44 1.583,1.322 3.736,1.972 6.476,1.972 2.488,0 4.785,-0.239 6.883,-0.708 2.078,-0.475 4.35,-1.285 6.794,-2.43 l 0,10.269 c -2.215,1.152 -4.532,1.941 -6.89,2.382 -2.375,0.438 -5.201,0.657 -8.489,0.657 z m -0.84,-33.158 c -1.661,0 -3.062,0.533 -4.187,1.592 -1.128,1.056 -1.784,2.72 -1.971,4.986 l 12.187,0 c -0.054,-1.996 -0.615,-3.588 -1.685,-4.788 -1.084,-1.199 -2.527,-1.79 -4.344,-1.79 z"
           id="path63"
           inkscape:connector-curvature="0"
           style="fill:#4e4e4e" /></g><g
         id="g65"><path
           d="m 669.876,1052.58 c 0,4.436 -1.497,7.791 -4.501,10.053 -3,2.266 -7.304,3.404 -12.915,3.404 -3.045,0 -5.701,-0.161 -7.946,-0.496 -2.252,-0.328 -4.542,-0.936 -6.889,-1.804 l 0,-11.444 c 2.204,0.977 4.614,1.783 7.242,2.412 2.618,0.629 4.962,0.943 7.016,0.943 3.079,0 4.611,-0.7 4.611,-2.109 0,-0.734 -0.431,-1.391 -1.292,-1.958 -0.851,-0.574 -3.352,-1.688 -7.488,-3.345 -3.776,-1.565 -6.408,-3.335 -7.908,-5.324 -1.507,-1.979 -2.252,-4.497 -2.252,-7.545 0,-3.848 1.469,-6.849 4.426,-8.991 2.946,-2.153 7.119,-3.222 12.515,-3.222 2.71,0 5.257,0.297 7.645,0.899 2.375,0.598 4.843,1.466 7.413,2.614 l -3.848,9.213 c -1.887,-0.848 -3.883,-1.582 -5.991,-2.177 -2.102,-0.598 -3.811,-0.888 -5.147,-0.888 -2.32,0 -3.475,0.567 -3.475,1.708 0,0.707 0.403,1.316 1.206,1.804 0.813,0.506 3.154,1.524 7.03,3.058 2.871,1.199 5.02,2.371 6.439,3.516 1.411,1.145 2.454,2.491 3.121,4.036 0.66,1.55 0.988,3.422 0.988,5.643 z"
           id="path67"
           inkscape:connector-curvature="0"
           style="fill:#4e4e4e" /></g><g
         id="g69"><path
           d="m 693.436,1054.744 c 1.908,0 4.194,-0.479 6.852,-1.432 l 0,10.426 c -1.917,0.823 -3.732,1.408 -5.464,1.767 -1.726,0.359 -3.756,0.533 -6.08,0.533 -4.761,0 -8.202,-1.179 -10.294,-3.523 -2.116,-2.358 -3.168,-5.97 -3.168,-10.846 l 0,-17.066 -4.962,0 0,-5.819 6.305,-4.497 3.667,-8.697 9.293,0 0,8.293 10.092,0 0,10.72 -10.092,0 0,16.119 c 0,2.675 1.282,4.022 3.851,4.022 z"
           id="path71"
           inkscape:connector-curvature="0"
           style="fill:#4e4e4e" /></g></g><g
       id="g73"><g
         id="g75"><path
           d="m 273.274,1035.265 23.072,0 0,28.81 c -6.267,2.143 -13.157,3.219 -20.659,3.219 -8.24,0 -14.611,-2.389 -19.105,-7.17 -4.497,-4.774 -6.746,-11.588 -6.746,-20.435 0,-8.635 2.461,-15.344 7.385,-20.148 4.928,-4.801 11.825,-7.207 20.697,-7.207 3.367,0 6.539,0.321 9.528,0.953 2.977,0.633 5.585,1.439 7.81,2.409 l -4.573,11.332 c -3.848,-1.893 -8.086,-2.843 -12.686,-2.843 -4.218,0 -7.478,1.37 -9.782,4.115 -2.31,2.734 -3.461,6.653 -3.461,11.755 0,4.996 1.045,8.803 3.13,11.42 2.082,2.625 5.085,3.933 9.013,3.933 2.15,0 4.125,-0.201 5.929,-0.622 l 0,-8.372 -9.548,0 0,-11.151 -0.004,0 z"
           id="path77"
           inkscape:connector-curvature="0"
           style="fill:#4e4e4e" /></g><g
         id="g79"><path
           d="m 348.134,1038.7 c 0,8.926 -2.461,15.798 -7.372,20.626 -4.912,4.825 -11.812,7.241 -20.714,7.241 l -17.297,0 0,-53.463 18.503,0 c 8.582,0 15.208,2.194 19.877,6.585 4.665,4.388 7.003,10.72 7.003,19.011 z m -14.991,0.516 c 0,-4.904 -0.974,-8.536 -2.911,-10.891 -1.938,-2.375 -4.877,-3.55 -8.828,-3.55 l -4.211,0 0,29.942 3.219,0 c 4.389,0 7.604,-1.271 9.655,-3.82 2.051,-2.544 3.076,-6.443 3.076,-11.681 z"
           id="path81"
           inkscape:connector-curvature="0"
           style="fill:#4e4e4e" /></g><g
         id="g83"><path
           d="m 374.688,1035.265 23.073,0 0,28.81 c -6.268,2.143 -13.148,3.219 -20.66,3.219 -8.244,0 -14.611,-2.389 -19.108,-7.17 -4.49,-4.774 -6.747,-11.588 -6.747,-20.435 0,-8.635 2.465,-15.344 7.393,-20.148 4.924,-4.801 11.821,-7.207 20.7,-7.207 3.352,0 6.534,0.321 9.521,0.953 2.983,0.633 5.587,1.439 7.809,2.409 l -4.573,11.332 c -3.851,-1.893 -8.083,-2.843 -12.692,-2.843 -4.214,0 -7.471,1.37 -9.774,4.115 -2.304,2.734 -3.456,6.653 -3.456,11.755 0,4.996 1.039,8.803 3.123,11.42 2.082,2.625 5.089,3.933 9.016,3.933 2.143,0 4.118,-0.201 5.919,-0.622 l 0,-8.372 -9.546,0 0,-11.149 z"
           id="path85"
           inkscape:connector-curvature="0"
           style="fill:#4e4e4e" /></g></g><g
       id="g4186"><g
         id="g19"
         transform="translate(0,0.33857324)"><path
           style="fill:#4e4e4e"
           inkscape:connector-curvature="0"
           id="path21"
           d="m 288.271,1137.153 -32.047,0 0,-5.755 12.19,-12.257 c 3.602,-3.684 5.987,-6.298 7.163,-7.839 1.175,-1.541 2.034,-2.994 2.57,-4.35 0.54,-1.36 0.81,-2.812 0.81,-4.367 0,-2.132 -0.642,-3.814 -1.924,-5.044 -1.286,-1.226 -3.056,-1.842 -5.322,-1.842 -1.811,0 -3.561,0.335 -5.253,1.001 -1.694,0.669 -3.649,1.876 -5.871,3.622 l -4.108,-5.013 c 2.631,-2.218 5.184,-3.793 7.665,-4.719 2.478,-0.926 5.119,-1.391 7.922,-1.391 4.398,0 7.926,1.148 10.578,3.445 2.653,2.293 3.978,5.382 3.978,9.264 0,2.132 -0.386,4.159 -1.148,6.079 -0.765,1.917 -1.942,3.896 -3.527,5.932 -1.582,2.037 -4.22,4.791 -7.905,8.263 l -8.215,7.955 0,0.321 22.443,0 0,6.695 z" /><path
           style="fill:#4e4e4e"
           inkscape:connector-curvature="0"
           id="path23"
           d="m 326.076,1113.516 c 0,8.212 -1.319,14.315 -3.961,18.303 -2.642,3.988 -6.678,5.98 -12.112,5.98 -5.26,0 -9.248,-2.057 -11.965,-6.175 -2.717,-4.118 -4.074,-10.153 -4.074,-18.108 0,-8.345 1.319,-14.492 3.961,-18.449 2.642,-3.954 6.668,-5.932 12.078,-5.932 5.284,0 9.282,2.071 11.999,6.209 2.717,4.138 4.074,10.197 4.074,18.172 z m -24.415,0 c 0,6.445 0.663,11.048 1.989,13.805 1.326,2.761 3.445,4.142 6.353,4.142 2.911,0 5.041,-1.401 6.387,-4.207 1.347,-2.802 2.02,-7.381 2.02,-13.74 0,-6.339 -0.673,-10.925 -2.02,-13.761 -1.347,-2.833 -3.476,-4.251 -6.387,-4.251 -2.908,0 -5.027,1.391 -6.353,4.172 -1.326,2.782 -1.989,7.395 -1.989,13.84 z" /><path
           style="fill:#4e4e4e"
           inkscape:connector-curvature="0"
           id="path25"
           d="m 354.148,1137.153 -7.6,0 0,-30.526 c 0,-3.643 0.085,-6.53 0.26,-8.666 -0.496,0.519 -1.107,1.09 -1.828,1.715 -0.722,0.625 -3.141,2.607 -7.259,5.949 l -3.817,-4.818 13.906,-10.928 6.339,0 0,47.274 z" /><path
           style="fill:#4e4e4e"
           inkscape:connector-curvature="0"
           id="path27"
           d="m 385.679,1107.632 c 4.765,0 8.537,1.261 11.32,3.783 2.781,2.522 4.173,5.96 4.173,10.313 0,5.044 -1.579,8.984 -4.74,11.82 -3.157,2.837 -7.645,4.251 -13.468,4.251 -5.28,0 -9.432,-0.851 -12.45,-2.552 l 0,-6.889 c 1.746,0.99 3.752,1.756 6.014,2.296 2.266,0.54 4.368,0.81 6.306,0.81 3.428,0 6.038,-0.765 7.826,-2.296 1.791,-1.531 2.686,-3.773 2.686,-6.729 0,-5.645 -3.602,-8.471 -10.803,-8.471 -1.011,0 -2.262,0.103 -3.749,0.308 -1.49,0.205 -2.792,0.437 -3.913,0.697 l -3.397,-2.006 1.811,-23.087 24.58,0 0,6.756 -17.884,0 -1.069,11.707 c 0.755,-0.13 1.678,-0.28 2.765,-0.454 1.087,-0.172 2.42,-0.257 3.992,-0.257 z" /></g><g
         id="text4223"
         style="font-style:normal;font-variant:normal;font-weight:normal;font-stretch:normal;font-size:60px;line-height:125%;font-family:'Open Sans';-inkscape-font-specification:'Open Sans, Normal';text-align:start;letter-spacing:0px;word-spacing:0px;writing-mode:lr-tb;text-anchor:start;fill:#4e4e4e;fill-opacity:1;stroke:none;stroke-width:1px;stroke-linecap:butt;stroke-linejoin:miter;stroke-opacity:1"><path
           id="path4170"
           style="fill:#4e4e4e;fill-opacity:1"
           d="m 429.39301,1137.5516 0,-42.832 4.98046,0 0,42.832 -4.98046,0 z" /><path
           id="path4172"
           style="fill:#4e4e4e;fill-opacity:1"
           d="m 466.13129,1128.7919 q 0,4.4824 -3.33985,6.914 -3.33984,2.4317 -9.375,2.4317 -6.38672,0 -9.96093,-2.0215 l 0,-4.5117 q 2.31445,1.1718 4.95117,1.8457 2.66601,0.6738 5.12695,0.6738 3.80859,0 5.85938,-1.2012 2.05078,-1.2304 2.05078,-3.7207 0,-1.875 -1.64063,-3.1933 -1.61133,-1.3477 -6.32812,-3.1641 -4.48243,-1.6699 -6.38672,-2.9004 -1.875,-1.2598 -2.8125,-2.8418 -0.90821,-1.582 -0.90821,-3.7793 0,-3.9258 3.19336,-6.1816 3.19336,-2.2852 8.75977,-2.2852 5.18555,0 10.13672,2.1094 l -1.72852,3.9551 q -4.83398,-1.9922 -8.75976,-1.9922 -3.45703,0 -5.21485,1.084 -1.75781,1.084 -1.75781,2.9883 0,1.289 0.64453,2.1972 0.67383,0.9082 2.13867,1.7285 1.46485,0.8203 5.625,2.3731 5.71289,2.0801 7.70508,4.1894 2.02149,2.1094 2.02149,5.3028 z" /><path
           id="path4174"
           style="fill:#4e4e4e;fill-opacity:1"
           d="m 484.38324,1134.1239 q 1.28906,0 2.49023,-0.1758 1.20118,-0.2051 1.9043,-0.4101 l 0,3.7207 q -0.79101,0.3808 -2.34375,0.6152 -1.52344,0.2637 -2.75391,0.2637 -9.3164,0 -9.3164,-9.8145 l 0,-19.1015 -4.59961,0 0,-2.3438 4.59961,-2.0215 2.05078,-6.8554 2.8125,0 0,7.4414 9.31641,0 0,3.7793 -9.31641,0 0,18.8964 q 0,2.9004 1.37695,4.4532 1.37696,1.5527 3.7793,1.5527 z" /><path
           id="path4176"
           style="fill:#4e4e4e;fill-opacity:1"
           d="m 514.96918,1137.5516 -0.9668,-4.5703 -0.23437,0 q -2.40235,3.0176 -4.80469,4.1016 -2.37305,1.0547 -5.94727,1.0547 -4.77539,0 -7.5,-2.461 -2.69531,-2.4609 -2.69531,-7.0019 0,-9.7266 15.55664,-10.1953 l 5.44922,-0.1758 0,-1.9922 q 0,-3.7793 -1.64063,-5.5664 -1.61132,-1.8164 -5.18554,-1.8164 -4.01367,0 -9.08203,2.4609 l -1.49414,-3.7207 q 2.37304,-1.289 5.18554,-2.0215 2.8418,-0.7324 5.6836,-0.7324 5.74218,0 8.49609,2.5488 2.7832,2.5489 2.7832,8.1739 l 0,21.914 -3.60351,0 z m -10.98633,-3.4277 q 4.54101,0 7.11914,-2.4902 2.60742,-2.4903 2.60742,-6.9727 l 0,-2.9004 -4.86328,0.2051 q -5.80078,0.2051 -8.37891,1.8164 -2.54882,1.582 -2.54882,4.9512 0,2.6367 1.58203,4.0136 1.61133,1.377 4.48242,1.377 z" /><path
           id="path4178"
           style="fill:#4e4e4e;fill-opacity:1"
           d="m 550.59418,1137.5516 0,-20.7714 q 0,-3.9258 -1.78711,-5.8594 -1.78711,-1.9336 -5.59571,-1.9336 -5.03906,0 -7.38281,2.7246 -2.34375,2.7246 -2.34375,8.9941 l 0,16.8457 -4.86328,0 0,-32.1093 3.95508,0 0.79101,4.3945 0.23438,0 q 1.49414,-2.3731 4.18945,-3.6621 2.69532,-1.3184 6.00586,-1.3184 5.80078,0 8.73047,2.8125 2.92969,2.7832 2.92969,8.9356 l 0,20.9472 -4.86328,0 z" /><path
           id="path4180"
           style="fill:#4e4e4e;fill-opacity:1"
           d="m 580.3598,1104.9149 q 6.32813,0 9.81446,4.336 3.51562,4.3066 3.51562,12.2168 0,7.9101 -3.54492,12.3046 -3.51563,4.3653 -9.78516,4.3653 -3.13476,0 -5.74219,-1.1426 -2.57812,-1.1719 -4.33593,-3.5742 l -0.35157,0 -1.02539,4.1308 -3.48632,0 0,-45.5859 4.86328,0 0,11.0742 q 0,3.7207 -0.23438,6.6797 l 0.23438,0 q 3.39843,-4.8047 10.07812,-4.8047 z m -0.70312,4.0723 q -4.98047,0 -7.17774,2.8711 -2.19726,2.8418 -2.19726,9.6094 0,6.7675 2.25586,9.6972 2.25586,2.9004 7.23632,2.9004 4.48243,0 6.67969,-3.2519 2.19727,-3.2813 2.19727,-9.4043 0,-6.2696 -2.19727,-9.3457 -2.19726,-3.0762 -6.79687,-3.0762 z" /><path
           id="path4182"
           style="fill:#4e4e4e;fill-opacity:1"
           d="m 606.78558,1105.4423 0,20.83 q 0,3.9258 1.78711,5.8594 1.78711,1.9336 5.59571,1.9336 5.03906,0 7.35351,-2.7539 2.34375,-2.7539 2.34375,-8.9941 l 0,-16.875 4.86328,0 0,32.1093 -4.01367,0 -0.70312,-4.3066 -0.26368,0 q -1.49414,2.373 -4.16015,3.6328 -2.63672,1.2598 -6.03516,1.2598 -5.85937,0 -8.78906,-2.7832 -2.90039,-2.7832 -2.90039,-8.9063 l 0,-21.0058 4.92187,0 z" /><path
           id="path4184"
           style="fill:#4e4e4e;fill-opacity:1"
           d="m 643.87543,1137.5516 -4.86328,0 0,-45.5859 4.86328,0 0,45.5859 z" /></g></g></g></svg>