<?xml version="1.0" encoding="UTF-8" standalone="no"?>
<!-- Generator: Adobe Illustrator 19.0.0, SVG Export Plug-In . SVG Version: 6.00 Build 0)  -->

<svg
   xmlns:dc="http://purl.org/dc/elements/1.1/"
   xmlns:cc="http://creativecommons.org/ns#"
   xmlns:rdf="http://www.w3.org/1999/02/22-rdf-syntax-ns#"
   xmlns:svg="http://www.w3.org/2000/svg"
   xmlns="http://www.w3.org/2000/svg"
   xmlns:sodipodi="http://sodipodi.sourceforge.net/DTD/sodipodi-0.dtd"
   xmlns:inkscape="http://www.inkscape.org/namespaces/inkscape"
   version="1.1"
   id="Layer_1"
   x="0px"
   y="0px"
   viewBox="428.2 1882.7 611.9 200"
   style="enable-background:new 428.2 1882.7 611.9 200;"
   xml:space="preserve"
   inkscape:version="0.91 r13725"
   sodipodi:docname="logo-white.svg"><metadata
     id="metadata93"><rdf:RDF><cc:Work
         rdf:about=""><dc:format>image/svg+xml</dc:format><dc:type
           rdf:resource="http://purl.org/dc/dcmitype/StillImage" /></cc:Work></rdf:RDF></metadata><defs
     id="defs91" /><sodipodi:namedview
     pagecolor="#ffffff"
     bordercolor="#666666"
     borderopacity="1"
     objecttolerance="10"
     gridtolerance="10"
     guidetolerance="10"
     inkscape:pageopacity="0"
     inkscape:pageshadow="2"
     inkscape:window-width="1366"
     inkscape:window-height="719"
     id="namedview89"
     showgrid="false"
     inkscape:zoom="1.2665288"
     inkscape:cx="317.00384"
     inkscape:cy="100"
     inkscape:window-x="0"
     inkscape:window-y="1"
     inkscape:window-maximized="1"
     inkscape:current-layer="Layer_1" /><style
     type="text/css"
     id="style3">
	.st0{fill:#FFFFFF;}
</style><g
     id="g4337"
     transform="translate(0,1.5496582)"><path
       style="fill:#ffffff"
       inkscape:connector-curvature="0"
       id="path13"
       d="m 628.1,2042.4 -32,0 0,-5.8 12.2,-12.3 c 3.6,-3.7 6,-6.3 7.2,-7.8 1.2,-1.5 2,-3 2.6,-4.3 0.5,-1.4 0.8,-2.8 0.8,-4.4 0,-2.1 -0.6,-3.8 -1.9,-5 -1.3,-1.2 -3.1,-1.8 -5.3,-1.8 -1.8,0 -3.6,0.3 -5.3,1 -1.7,0.7 -3.6,1.9 -5.9,3.6 l -4.1,-5 c 2.6,-2.2 5.2,-3.8 7.7,-4.7 2.5,-0.9 5.1,-1.4 7.9,-1.4 4.4,0 7.9,1.1 10.6,3.4 2.7,2.3 4,5.4 4,9.3 0,2.1 -0.4,4.2 -1.1,6.1 -0.8,1.9 -1.9,3.9 -3.5,5.9 -1.6,2 -4.2,4.8 -7.9,8.3 l -8.2,8 0,0.3 22.4,0 -0.2,6.6 0,0 z"
       class="st0" /><path
       style="fill:#ffffff"
       inkscape:connector-curvature="0"
       id="path15"
       d="m 665.9,2018.8 c 0,8.2 -1.3,14.3 -4,18.3 -2.7,4 -6.7,6 -12.1,6 -5.3,0 -9.2,-2.1 -12,-6.2 -2.7,-4.1 -4.1,-10.2 -4.1,-18.1 0,-8.3 1.3,-14.5 4,-18.4 2.6,-4 6.7,-5.9 12.1,-5.9 5.3,0 9.3,2.1 12,6.2 2.7,4.1 4.1,10.1 4.1,18.1 z m -24.4,0 c 0,6.4 0.7,11 2,13.8 1.3,2.8 3.4,4.1 6.4,4.1 2.9,0 5,-1.4 6.4,-4.2 1.3,-2.8 2,-7.4 2,-13.7 0,-6.3 -0.7,-10.9 -2,-13.8 -1.3,-2.8 -3.5,-4.3 -6.4,-4.3 -2.9,0 -5,1.4 -6.4,4.2 -1.4,2.9 -2,7.4 -2,13.9 z"
       class="st0" /><path
       style="fill:#ffffff"
       inkscape:connector-curvature="0"
       id="path17"
       d="m 693.9,2042.4 -7.6,0 0,-30.5 c 0,-3.6 0.1,-6.5 0.3,-8.7 -0.5,0.5 -1.1,1.1 -1.8,1.7 -0.7,0.6 -3.1,2.6 -7.3,5.9 l -3.8,-4.8 13.9,-10.9 6.3,0 0,47.3 0,0 z"
       class="st0" /><path
       style="fill:#ffffff"
       inkscape:connector-curvature="0"
       id="path19"
       d="m 725.5,2012.8 c 4.8,0 8.5,1.3 11.3,3.8 2.8,2.5 4.2,6 4.2,10.3 0,5 -1.6,9 -4.7,11.8 -3.2,2.8 -7.6,4.3 -13.5,4.3 -5.3,0 -9.4,-0.9 -12.5,-2.6 l 0,-6.9 c 1.7,1 3.8,1.8 6,2.3 2.3,0.5 4.4,0.8 6.3,0.8 3.4,0 6,-0.8 7.8,-2.3 1.8,-1.5 2.7,-3.8 2.7,-6.7 0,-5.6 -3.6,-8.5 -10.8,-8.5 -1,0 -2.3,0.1 -3.7,0.3 -1.5,0.2 -2.8,0.4 -3.9,0.7 l -3.4,-2 1.8,-23.1 24.6,0 0,6.8 -17.9,0 -1.1,11.7 c 0.8,-0.1 1.7,-0.3 2.8,-0.5 1.1,-0.1 2.4,-0.2 4,-0.2 z"
       class="st0" /></g><g
     id="g35"><g
       id="g37"><path
         style="fill:#ffffff"
         inkscape:connector-curvature="0"
         id="path39"
         d="m 814.2,1942.7 c 0,8.9 -2.4,15.8 -7.3,20.6 -4.9,4.8 -11.7,7.2 -20.6,7.2 l -17.2,0 0,-53.5 18.4,0 c 8.5,0 15.1,2.2 19.7,6.6 4.7,4.5 7,10.8 7,19.1 z m -14.9,0.5 c 0,-4.9 -1,-8.5 -2.9,-10.9 -1.9,-2.4 -4.8,-3.5 -8.8,-3.5 l -4.2,0 0,29.9 3.2,0 c 4.4,0 7.6,-1.3 9.6,-3.8 2.1,-2.6 3.1,-6.5 3.1,-11.7 z"
         class="st0" /></g><g
       id="g41"><path
         style="fill:#ffffff"
         inkscape:connector-curvature="0"
         id="path43"
         d="m 838.3,1971.2 c -6.9,0 -12.2,-1.8 -16,-5.5 -3.8,-3.7 -5.7,-8.9 -5.7,-15.7 0,-7 1.8,-12.4 5.3,-16.1 3.5,-3.7 8.5,-5.6 15,-5.6 6.2,0 11,1.6 14.4,4.9 3.4,3.3 5.1,7.9 5.1,14.1 l 0,6.4 -25.4,0 c 0.1,2.3 0.9,4.1 2.5,5.4 1.6,1.3 3.7,2 6.5,2 2.5,0 4.8,-0.2 6.9,-0.7 2.1,-0.5 4.4,-1.3 6.8,-2.4 l 0,10.3 c -2.2,1.2 -4.5,1.9 -6.9,2.4 -2.4,0.4 -5.2,0.5 -8.5,0.5 z m -0.8,-33 c -1.7,0 -3.1,0.5 -4.2,1.6 -1.1,1.1 -1.8,2.7 -2,5 l 12.2,0 c -0.1,-2 -0.6,-3.6 -1.7,-4.8 -1.1,-1.2 -2.5,-1.8 -4.3,-1.8 z"
         class="st0" /></g><g
       id="g45"><path
         style="fill:#ffffff"
         inkscape:connector-curvature="0"
         id="path47"
         d="m 870.7,1970.6 -15.7,-41.4 14.8,0 7,24.5 c 0,0.1 0.1,0.3 0.2,0.6 0.1,0.3 0.1,0.6 0.2,1 0.1,0.4 0.1,0.8 0.2,1.3 0.1,0.5 0.1,0.9 0.1,1.3 l 0.2,0 c 0,-1.3 0.2,-2.6 0.7,-4.1 l 7.3,-24.6 14.8,0 -15.7,41.4 -14.1,0 0,0 z"
         class="st0" /></g><g
       id="g49"><path
         style="fill:#ffffff"
         inkscape:connector-curvature="0"
         id="path51"
         d="m 915.8,1970.6 -14.1,0 0,-53.4 31.4,0 0,11.6 -17.3,0 0,10.2 15.9,0 0,11.6 -15.9,0 0,20 0,0 z"
         class="st0" /></g><g
       id="g53"><path
         style="fill:#ffffff"
         inkscape:connector-curvature="0"
         id="path55"
         d="m 956.3,1971.2 c -6.8,0 -12.1,-1.8 -16,-5.5 -3.8,-3.7 -5.7,-8.9 -5.7,-15.7 0,-7 1.8,-12.4 5.3,-16.1 3.5,-3.7 8.5,-5.6 15,-5.6 6.2,0 11,1.6 14.4,4.9 3.4,3.3 5.1,7.9 5.1,14.1 l 0,6.4 -25.4,0 c 0.1,2.3 0.9,4.1 2.5,5.4 1.6,1.3 3.7,2 6.5,2 2.5,0 4.8,-0.2 6.9,-0.7 2.1,-0.5 4.3,-1.3 6.8,-2.4 l 0,10.3 c -2.2,1.2 -4.5,1.9 -6.9,2.4 -2.4,0.4 -5.2,0.5 -8.5,0.5 z m -0.8,-33 c -1.7,0 -3.1,0.5 -4.2,1.6 -1.1,1.1 -1.8,2.7 -2,5 l 12.2,0 c -0.1,-2 -0.6,-3.6 -1.7,-4.8 -1.1,-1.2 -2.5,-1.8 -4.3,-1.8 z"
         class="st0" /></g><g
       id="g57"><path
         style="fill:#ffffff"
         inkscape:connector-curvature="0"
         id="path59"
         d="m 1009.7,1957.8 c 0,4.4 -1.5,7.8 -4.5,10.1 -3,2.3 -7.3,3.4 -12.9,3.4 -3,0 -5.7,-0.2 -7.9,-0.5 -2.3,-0.3 -4.5,-0.9 -6.9,-1.8 l 0,-11.4 c 2.2,1 4.6,1.8 7.2,2.4 2.6,0.6 5,0.9 7,0.9 3.1,0 4.6,-0.7 4.6,-2.1 0,-0.7 -0.4,-1.4 -1.3,-2 -0.9,-0.6 -3.4,-1.7 -7.5,-3.3 -3.8,-1.6 -6.4,-3.3 -7.9,-5.3 -1.5,-2 -2.3,-4.5 -2.3,-7.5 0,-3.8 1.5,-6.8 4.4,-9 2.9,-2.2 7.1,-3.2 12.5,-3.2 2.7,0 5.3,0.3 7.6,0.9 2.4,0.6 4.8,1.5 7.4,2.6 l -3.8,9.2 c -1.9,-0.8 -3.9,-1.6 -6,-2.2 -2.1,-0.6 -3.8,-0.9 -5.1,-0.9 -2.3,0 -3.5,0.6 -3.5,1.7 0,0.7 0.4,1.3 1.2,1.8 0.8,0.5 3.2,1.5 7,3.1 2.9,1.2 5,2.4 6.4,3.5 1.4,1.1 2.5,2.5 3.1,4 0.8,1.6 1.2,3.5 1.2,5.6 z"
         class="st0" /></g><g
       id="g61"><path
         style="fill:#ffffff"
         inkscape:connector-curvature="0"
         id="path63"
         d="m 1033.2,1959.9 c 1.9,0 4.2,-0.5 6.9,-1.4 l 0,10.4 c -1.9,0.8 -3.7,1.4 -5.5,1.8 -1.7,0.4 -3.8,0.5 -6.1,0.5 -4.8,0 -8.2,-1.2 -10.3,-3.5 -2.1,-2.4 -3.2,-6 -3.2,-10.8 l 0,-17.1 -5,0 0,-5.8 6.3,-4.5 3.7,-8.7 9.3,0 0,8.3 10.1,0 0,10.7 -10.1,0 0,16.1 c 0.1,2.8 1.4,4 3.9,4 z"
         class="st0" /></g></g><g
     id="g65"><g
       id="g67"><path
         style="fill:#ffffff"
         inkscape:connector-curvature="0"
         id="path69"
         d="m 613.1,1940.6 23.1,0 0,28.8 c -6.3,2.1 -13.2,3.2 -20.7,3.2 -8.2,0 -14.6,-2.4 -19.1,-7.2 -4.5,-4.8 -6.7,-11.6 -6.7,-20.4 0,-8.6 2.5,-15.3 7.4,-20.1 4.9,-4.8 11.8,-7.2 20.7,-7.2 3.4,0 6.5,0.3 9.5,1 3,0.6 5.6,1.4 7.8,2.4 l -4.6,11.3 c -3.8,-1.9 -8.1,-2.8 -12.7,-2.8 -4.2,0 -7.5,1.4 -9.8,4.1 -2.3,2.7 -3.5,6.7 -3.5,11.8 0,5 1,8.8 3.1,11.4 2.1,2.6 5.1,3.9 9,3.9 2.1,0 4.1,-0.2 5.9,-0.6 l 0,-8.4 -9.5,0 0.1,-11.2 0,0 0,0 z"
         class="st0" /></g><g
       id="g71"><path
         style="fill:#ffffff"
         inkscape:connector-curvature="0"
         id="path73"
         d="m 687.9,1943.9 c 0,8.9 -2.5,15.8 -7.4,20.6 -4.9,4.8 -11.8,7.2 -20.7,7.2 l -17.3,0 0,-53.5 18.5,0 c 8.6,0 15.2,2.2 19.9,6.6 4.7,4.5 7,10.9 7,19.1 z m -15,0.5 c 0,-4.9 -1,-8.5 -2.9,-10.9 -1.9,-2.4 -4.9,-3.6 -8.8,-3.6 l -4.2,0 0,29.9 3.2,0 c 4.4,0 7.6,-1.3 9.7,-3.8 2,-2.3 3,-6.2 3,-11.6 z"
         class="st0" /></g><g
       id="g75"><path
         style="fill:#ffffff"
         inkscape:connector-curvature="0"
         id="path77"
         d="m 714.5,1940.6 23.1,0 0,28.8 c -6.3,2.1 -13.1,3.2 -20.7,3.2 -8.2,0 -14.6,-2.4 -19.1,-7.2 -4.5,-4.8 -6.7,-11.6 -6.7,-20.4 0,-8.6 2.5,-15.3 7.4,-20.1 4.9,-4.8 11.8,-7.2 20.7,-7.2 3.4,0 6.5,0.3 9.5,1 3,0.6 5.6,1.4 7.8,2.4 l -4.6,11.3 c -3.9,-1.9 -8.1,-2.8 -12.7,-2.8 -4.2,0 -7.5,1.4 -9.8,4.1 -2.3,2.7 -3.5,6.7 -3.5,11.8 0,5 1,8.8 3.1,11.4 2.1,2.6 5.1,3.9 9,3.9 2.1,0 4.1,-0.2 5.9,-0.6 l 0,-8.4 -9.5,0 0.1,-11.2 0,0 z"
         class="st0" /></g></g><g
     id="g79"><path
       class="st0"
       d="M533.8,2009.1l-79-126.4H433c-4.4,0-6,3-3.8,6.7l53,86.5l0.3,0.4l35.9,57.5L533.8,2009.1z"
       id="path81" /><path
       class="st0"
       d="M546,1989.4c2.3-3.7,2.3-9.7,0-13.4l-53.6-86.6c-2.3-3.7-7.7-6.7-12-6.7h-22l77.2,123.5L546,1989.4z"
       id="path83" /><path
       class="st0"
       d="M501.1,2011.9l-44.2,70.8h23.5c4.3,0,9.8-3,12-6.7l21.4-34.6c0.1-0.1,0.2-0.4,0.6-1l2.2-3.6L501.1,2011.9z"
       id="path85" /><path
       class="st0"
       d="M482.3,1989.4l-53,86.5c-2.3,3.7-0.6,6.7,3.8,6.7h20.3l46-73.6l-15.4-24.8   C483.7,1986.1,483.1,1987.9,482.3,1989.4z"
       id="path87" /></g><g
     style="font-style:normal;font-weight:normal;font-size:40px;line-height:125%;font-family:Sans;letter-spacing:0px;word-spacing:0px;fill:#ffffff;fill-opacity:1;stroke:none;stroke-width:1px;stroke-linecap:butt;stroke-linejoin:miter;stroke-opacity:1"
     id="text4343"><path
       d="m 769.09998,2044.0637 0,-42.832 4.98046,0 0,42.832 -4.98046,0 z"
       style="font-style:normal;font-variant:normal;font-weight:normal;font-stretch:normal;font-size:60px;font-family:'Open Sans';-inkscape-font-specification:'Open Sans';fill:#ffffff;fill-opacity:1"
       id="path4168" /><path
       d="m 805.83826,2035.304 q 0,4.4824 -3.33985,6.914 -3.33984,2.4317 -9.375,2.4317 -6.38672,0 -9.96093,-2.0215 l 0,-4.5117 q 2.31445,1.1718 4.95117,1.8457 2.66601,0.6738 5.12695,0.6738 3.80859,0 5.85938,-1.2012 2.05078,-1.2305 2.05078,-3.7207 0,-1.875 -1.64063,-3.1933 -1.61133,-1.3477 -6.32812,-3.1641 -4.48243,-1.6699 -6.38672,-2.9004 -1.875,-1.2598 -2.8125,-2.8418 -0.90821,-1.582 -0.90821,-3.7793 0,-3.9258 3.19336,-6.1816 3.19336,-2.2852 8.75977,-2.2852 5.18555,0 10.13672,2.1094 l -1.72852,3.9551 q -4.83398,-1.9922 -8.75976,-1.9922 -3.45703,0 -5.21485,1.084 -1.75781,1.0839 -1.75781,2.9882 0,1.2891 0.64453,2.1973 0.67383,0.9082 2.13867,1.7285 1.46485,0.8203 5.625,2.3731 5.71289,2.08 7.70508,4.1894 2.02149,2.1094 2.02149,5.3028 z"
       style="font-style:normal;font-variant:normal;font-weight:normal;font-stretch:normal;font-size:60px;font-family:'Open Sans';-inkscape-font-specification:'Open Sans';fill:#ffffff;fill-opacity:1"
       id="path4170" /><path
       d="m 824.09021,2040.636 q 1.28906,0 2.49023,-0.1758 1.20118,-0.2051 1.9043,-0.4102 l 0,3.7208 q -0.79101,0.3808 -2.34375,0.6152 -1.52344,0.2637 -2.75391,0.2637 -9.3164,0 -9.3164,-9.8145 l 0,-19.1016 -4.59961,0 0,-2.3437 4.59961,-2.0215 2.05078,-6.8555 2.8125,0 0,7.4414 9.31641,0 0,3.7793 -9.31641,0 0,18.8965 q 0,2.9004 1.37695,4.4532 1.37696,1.5527 3.7793,1.5527 z"
       style="font-style:normal;font-variant:normal;font-weight:normal;font-stretch:normal;font-size:60px;font-family:'Open Sans';-inkscape-font-specification:'Open Sans';fill:#ffffff;fill-opacity:1"
       id="path4172" /><path
       d="m 854.67615,2044.0637 -0.9668,-4.5703 -0.23437,0 q -2.40235,3.0176 -4.80469,4.1016 -2.37305,1.0547 -5.94727,1.0547 -4.77539,0 -7.5,-2.461 -2.69531,-2.4609 -2.69531,-7.0019 0,-9.7266 15.55664,-10.1953 l 5.44922,-0.1758 0,-1.9922 q 0,-3.7793 -1.64063,-5.5664 -1.61132,-1.8164 -5.18554,-1.8164 -4.01367,0 -9.08203,2.4609 l -1.49414,-3.7207 q 2.37304,-1.2891 5.18554,-2.0215 2.8418,-0.7324 5.6836,-0.7324 5.74218,0 8.49609,2.5488 2.7832,2.5489 2.7832,8.1739 l 0,21.914 -3.60351,0 z m -10.98633,-3.4277 q 4.54101,0 7.11914,-2.4902 2.60742,-2.4903 2.60742,-6.9727 l 0,-2.9004 -4.86328,0.2051 q -5.80078,0.2051 -8.37891,1.8164 -2.54882,1.582 -2.54882,4.9512 0,2.6367 1.58203,4.0136 1.61133,1.377 4.48242,1.377 z"
       style="font-style:normal;font-variant:normal;font-weight:normal;font-stretch:normal;font-size:60px;font-family:'Open Sans';-inkscape-font-specification:'Open Sans';fill:#ffffff;fill-opacity:1"
       id="path4174" /><path
       d="m 890.30115,2044.0637 0,-20.7715 q 0,-3.9257 -1.78711,-5.8593 -1.78711,-1.9336 -5.59571,-1.9336 -5.03906,0 -7.38281,2.7246 -2.34375,2.7246 -2.34375,8.9941 l 0,16.8457 -4.86328,0 0,-32.1094 3.95508,0 0.79101,4.3946 0.23438,0 q 1.49414,-2.3731 4.18945,-3.6621 2.69532,-1.3184 6.00586,-1.3184 5.80078,0 8.73047,2.8125 2.92969,2.7832 2.92969,8.9356 l 0,20.9472 -4.86328,0 z"
       style="font-style:normal;font-variant:normal;font-weight:normal;font-stretch:normal;font-size:60px;font-family:'Open Sans';-inkscape-font-specification:'Open Sans';fill:#ffffff;fill-opacity:1"
       id="path4176" /><path
       d="m 920.06677,2011.427 q 6.32813,0 9.81446,4.3359 3.51562,4.3067 3.51562,12.2168 0,7.9102 -3.54492,12.3047 -3.51563,4.3653 -9.78516,4.3653 -3.13476,0 -5.74219,-1.1426 -2.57812,-1.1719 -4.33593,-3.5742 l -0.35157,0 -1.02539,4.1308 -3.48632,0 0,-45.5859 4.86328,0 0,11.0742 q 0,3.7207 -0.23438,6.6797 l 0.23438,0 q 3.39843,-4.8047 10.07812,-4.8047 z m -0.70312,4.0723 q -4.98047,0 -7.17774,2.8711 -2.19726,2.8418 -2.19726,9.6093 0,6.7676 2.25586,9.6973 2.25586,2.9004 7.23632,2.9004 4.48243,0 6.67969,-3.252 2.19727,-3.2812 2.19727,-9.4043 0,-6.2695 -2.19727,-9.3457 -2.19726,-3.0761 -6.79687,-3.0761 z"
       style="font-style:normal;font-variant:normal;font-weight:normal;font-stretch:normal;font-size:60px;font-family:'Open Sans';-inkscape-font-specification:'Open Sans';fill:#ffffff;fill-opacity:1"
       id="path4178" /><path
       d="m 946.49255,2011.9543 0,20.8301 q 0,3.9258 1.78711,5.8594 1.78711,1.9336 5.59571,1.9336 5.03906,0 7.35351,-2.7539 2.34375,-2.7539 2.34375,-8.9942 l 0,-16.875 4.86328,0 0,32.1094 -4.01367,0 -0.70312,-4.3066 -0.26368,0 q -1.49414,2.373 -4.16015,3.6328 -2.63672,1.2598 -6.03516,1.2598 -5.85937,0 -8.78906,-2.7832 -2.90039,-2.7832 -2.90039,-8.9063 l 0,-21.0059 4.92187,0 z"
       style="font-style:normal;font-variant:normal;font-weight:normal;font-stretch:normal;font-size:60px;font-family:'Open Sans';-inkscape-font-specification:'Open Sans';fill:#ffffff;fill-opacity:1"
       id="path4180" /><path
       d="m 983.5824,2044.0637 -4.86328,0 0,-45.5859 4.86328,0 0,45.5859 z"
       style="font-style:normal;font-variant:normal;font-weight:normal;font-stretch:normal;font-size:60px;font-family:'Open Sans';-inkscape-font-specification:'Open Sans';fill:#ffffff;fill-opacity:1"
       id="path4182" /></g></svg>