<?xml version="1.0" encoding="UTF-8" standalone="no"?>
<!-- Creator: CorelDRAW X6 -->

<svg
   xmlns:dc="http://purl.org/dc/elements/1.1/"
   xmlns:cc="http://creativecommons.org/ns#"
   xmlns:rdf="http://www.w3.org/1999/02/22-rdf-syntax-ns#"
   xmlns:svg="http://www.w3.org/2000/svg"
   xmlns="http://www.w3.org/2000/svg"
   xmlns:sodipodi="http://sodipodi.sourceforge.net/DTD/sodipodi-0.dtd"
   xmlns:inkscape="http://www.inkscape.org/namespaces/inkscape"
   xml:space="preserve"
   width="25.397215in"
   height="22.213999in"
   version="1.1"
   style="clip-rule:evenodd;fill-rule:evenodd;image-rendering:optimizeQuality;shape-rendering:geometricPrecision;text-rendering:geometricPrecision"
   viewBox="0 0 25397.152 22213.943"
   id="svg2"
   inkscape:version="0.91 r13725"
   sodipodi:docname="Buyabi.svg"><metadata
     id="metadata61"><rdf:RDF><cc:Work
         rdf:about=""><dc:format>image/svg+xml</dc:format><dc:type
           rdf:resource="http://purl.org/dc/dcmitype/StillImage" /><dc:title></dc:title></cc:Work></rdf:RDF></metadata><sodipodi:namedview
     pagecolor="#ffffff"
     bordercolor="#666666"
     borderopacity="1"
     objecttolerance="10"
     gridtolerance="10"
     guidetolerance="10"
     inkscape:pageopacity="0"
     inkscape:pageshadow="2"
     inkscape:window-width="1366"
     inkscape:window-height="719"
     id="namedview59"
     showgrid="false"
     fit-margin-top="0"
     fit-margin-left="0"
     fit-margin-right="0"
     fit-margin-bottom="0"
     inkscape:zoom="0.066604412"
     inkscape:cx="-1460.851"
     inkscape:cy="970.4725"
     inkscape:window-x="0"
     inkscape:window-y="1"
     inkscape:window-maximized="1"
     inkscape:current-layer="svg2" /><defs
     id="defs4"><style
       type="text/css"
       id="style6"><![CDATA[
    .fil0 {fill:#35878E}
    .fil1 {fill:#35878E;fill-rule:nonzero}
   ]]></style></defs><g
     id="__x0023_Layer_x0020_1"
     transform="translate(-6889.6033,-8254.0569)"><metadata
       id="CorelCorpID_0Corel-Layer" /><g
       id="_241367472"><path
         class="fil0"
         d="m 12242,23284 c -732,23 -1445,-73 -2140,-314 -1893,-658 -3056,-2161 -3199,-4155 -181,-2531 1489,-4679 3984,-5115 216,-38 436,-57 654,-84 304,10 609,7 911,35 294,28 585,87 864,131 525,-2759 1956,-4727 4790,-5403 2223,-530 5194,689 6260,2469 347,-52 690,-124 1036,-151 1776,-140 3009,671 3388,2469 45,215 76,433 114,654 300,154 605,296 897,461 1200,680 2054,1641 2347,3018 320,1501 111,2915 -884,4127 -1012,1231 -2334,1854 -3941,1853 -4943,-2 -9886,0 -14829,0 -84,0 -168,4 -253,6 z m 6595,-9899 0,0 c 0,2058 0,4126 0,6248 468,-468 901,-903 1350,-1352 367,805 732,1603 1101,2410 412,-176 802,-343 1208,-516 -396,-800 -784,-1584 -1186,-2394 669,0 1301,0 1923,0 -1468,-1468 -2933,-2933 -4395,-4396 z"
         id="path11"
         inkscape:connector-curvature="0"
         style="fill:#35878e" /><g
         id="g13"><path
           class="fil1"
           d="m 7932,25842 c 87,-147 171,-295 250,-442 79,-147 152,-296 219,-445 l 537,0 c -119,233 -241,459 -368,677 -127,218 -261,438 -403,659 l 0,827 -487,0 0,-821 c -142,-221 -276,-441 -404,-662 -128,-221 -251,-447 -370,-680 l 565,0 c 66,149 138,298 215,445 77,147 159,295 246,442 z"
           id="path15"
           inkscape:connector-curvature="0"
           style="fill:#35878e;fill-rule:nonzero" /><path
           class="fil1"
           d="m 9533,25433 c 137,0 252,16 343,47 92,31 165,76 220,134 55,58 94,129 117,212 23,83 34,176 34,278 l 0,968 c -67,15 -159,32 -278,52 -119,20 -262,30 -431,30 -106,0 -202,-9 -289,-28 -86,-19 -161,-49 -223,-92 -62,-43 -110,-98 -144,-167 -33,-69 -50,-153 -50,-253 0,-96 19,-177 58,-243 38,-67 90,-120 155,-159 64,-40 138,-68 222,-86 83,-18 170,-27 259,-27 60,0 114,3 161,8 47,5 85,12 114,20 l 0,-44 c 0,-79 -24,-143 -72,-190 -48,-48 -131,-72 -250,-72 -79,0 -157,6 -234,17 -77,11 -144,28 -200,48 l -59,-375 c 27,-8 61,-17 101,-27 41,-9 85,-18 133,-25 48,-7 98,-14 151,-19 53,-5 107,-8 161,-8 z m 37,1361 0,0 c 46,0 89,-1 131,-3 42,-2 75,-5 100,-9 l 0,-353 c -19,-4 -47,-8 -84,-12 -37,-4 -72,-6 -103,-6 -44,0 -85,3 -123,8 -39,5 -72,15 -101,30 -29,15 -52,34 -69,59 -17,25 -25,56 -25,94 0,73 24,123 73,151 49,28 116,42 201,42 z"
           id="path17"
           inkscape:connector-curvature="0"
           style="fill:#35878e;fill-rule:nonzero" /><path
           class="fil1"
           d="m 11902,25789 c -38,42 -88,98 -152,169 -64,71 -132,149 -205,234 -73,85 -147,175 -221,268 -74,94 -141,184 -202,272 l 794,0 0,387 -1358,0 0,-275 c 44,-75 96,-156 158,-242 61,-86 126,-173 194,-261 68,-87 135,-172 201,-254 67,-82 128,-157 184,-223 l -699,0 0,-387 1305,0 0,312 z"
           id="path19"
           inkscape:connector-curvature="0"
           style="fill:#35878e;fill-rule:nonzero" /><polygon
           class="fil1"
           points="12695,25477 12695,27118 12230,27118 12230,25477 "
           id="polygon21"
           style="fill:#35878e;fill-rule:nonzero" /><path
           class="fil1"
           d="m 13788,27149 c -135,-2 -245,-17 -329,-44 -84,-27 -151,-65 -200,-114 -49,-49 -82,-108 -100,-178 -18,-70 -27,-148 -27,-236 l 0,-1807 465,-75 0,1788 c 0,42 3,79 9,112 6,33 18,61 36,84 18,23 43,42 76,56 33,15 78,24 134,28 l -66,384 z"
           id="path23"
           inkscape:connector-curvature="0"
           style="fill:#35878e;fill-rule:nonzero" /><polygon
           class="fil1"
           points="14584,25477 14584,27118 14118,27118 14118,25477 "
           id="polygon25"
           style="fill:#35878e;fill-rule:nonzero" /><path
           class="fil1"
           d="m 15922,26247 c 0,-150 -19,-256 -58,-318 -39,-62 -105,-94 -198,-94 -29,0 -59,2 -91,5 -31,3 -61,7 -91,11 l 0,1267 -465,0 0,-1586 c 40,-10 86,-21 139,-33 53,-11 109,-22 169,-31 59,-9 120,-17 183,-22 62,-5 124,-8 184,-8 119,0 215,15 289,45 74,30 135,66 183,108 67,-48 143,-85 229,-112 86,-27 166,-41 239,-41 131,0 239,18 323,55 84,36 151,88 201,155 50,67 84,146 103,237 19,92 28,194 28,306 l 0,927 -465,0 0,-871 c 0,-150 -19,-256 -58,-318 -39,-62 -105,-94 -198,-94 -25,0 -60,6 -105,19 -45,12 -82,28 -111,47 15,48 24,98 28,151 4,53 6,110 6,170 l 0,896 -465,0 0,-871 z"
           id="path27"
           inkscape:connector-curvature="0"
           style="fill:#35878e;fill-rule:nonzero" /><path
           class="fil1"
           d="m 18909,27118 c -107,-208 -215,-452 -324,-730 -110,-279 -214,-583 -312,-911 l 493,0 c 21,81 45,169 74,264 28,95 57,190 88,287 30,97 61,191 91,282 30,92 60,175 89,250 27,-75 56,-158 88,-250 31,-92 62,-186 92,-282 30,-97 60,-192 88,-287 28,-95 53,-183 74,-264 l 481,0 c -98,329 -202,633 -311,911 -110,279 -218,522 -324,730 l -386,0 z"
           id="path29"
           inkscape:connector-curvature="0"
           style="fill:#35878e;fill-rule:nonzero" /><path
           class="fil1"
           d="m 20055,26310 c 0,-146 22,-273 67,-382 45,-109 103,-200 176,-273 73,-73 157,-128 251,-165 95,-37 192,-56 292,-56 233,0 417,71 552,214 135,143 203,352 203,629 0,27 -1,57 -3,89 -2,32 -4,61 -6,86 l -1055,0 c 10,96 55,172 134,228 79,56 185,84 318,84 85,0 169,-8 251,-23 82,-16 149,-35 201,-58 l 62,378 c -25,12 -58,25 -100,37 -42,12 -88,23 -139,33 -51,9 -106,17 -164,23 -58,6 -117,9 -175,9 -148,0 -276,-22 -385,-66 -109,-44 -200,-103 -272,-179 -72,-76 -125,-166 -159,-270 -34,-104 -52,-216 -52,-337 z m 1092,-178 0,0 c -2,-40 -9,-78 -20,-115 -11,-37 -29,-71 -53,-100 -24,-29 -54,-53 -91,-72 -36,-19 -82,-28 -136,-28 -52,0 -97,9 -134,27 -37,18 -69,41 -94,70 -25,29 -44,63 -58,101 -14,39 -23,78 -30,117 l 615,0 z"
           id="path31"
           inkscape:connector-curvature="0"
           style="fill:#35878e;fill-rule:nonzero" /><path
           class="fil1"
           d="m 23457,27146 c -119,0 -237,-4 -354,-11 -118,-7 -240,-24 -367,-52 l 0,-2097 c 100,-19 209,-33 328,-42 119,-9 229,-14 331,-14 137,0 264,10 379,30 115,20 215,54 298,101 83,48 148,111 195,189 47,78 70,174 70,289 0,173 -83,309 -250,409 137,52 231,123 281,212 50,89 75,190 75,303 0,227 -83,397 -248,512 -165,114 -412,172 -738,172 z m -247,-1342 0,0 237,0 c 150,0 257,-19 321,-58 64,-38 97,-100 97,-186 0,-87 -33,-149 -100,-184 -67,-35 -164,-53 -293,-53 -42,0 -86,1 -134,2 -48,1 -91,4 -128,8 l 0,471 z m 0,371 0,0 0,559 c 35,4 74,7 115,9 42,2 87,3 137,3 146,0 263,-21 353,-62 89,-42 134,-119 134,-231 0,-100 -37,-171 -112,-214 -75,-43 -182,-64 -321,-64 l -306,0 z"
           id="path33"
           inkscape:connector-curvature="0"
           style="fill:#35878e;fill-rule:nonzero" /><path
           class="fil1"
           d="m 25311,25002 c 0,85 -28,152 -83,201 -55,49 -120,73 -195,73 -75,0 -140,-24 -195,-73 -55,-49 -83,-116 -83,-201 0,-85 28,-152 83,-201 55,-49 120,-73 195,-73 75,0 140,24 195,73 55,49 83,116 83,201 z m -44,2116 0,0 -465,0 0,-1642 465,0 0,1642 z"
           id="path35"
           inkscape:connector-curvature="0"
           style="fill:#35878e;fill-rule:nonzero" /><path
           class="fil1"
           d="m 26360,27149 c -135,-2 -245,-17 -329,-44 -84,-27 -151,-65 -200,-114 -49,-49 -82,-108 -100,-178 -18,-70 -27,-148 -27,-236 l 0,-1807 465,-75 0,1788 c 0,42 3,79 9,112 6,33 18,61 36,84 18,23 43,42 76,56 33,15 78,24 134,28 l -66,384 z"
           id="path37"
           inkscape:connector-curvature="0"
           style="fill:#35878e;fill-rule:nonzero" /><path
           class="fil1"
           d="m 27199,25002 c 0,85 -28,152 -83,201 -55,49 -120,73 -195,73 -75,0 -140,-24 -195,-73 -55,-49 -83,-116 -83,-201 0,-85 28,-152 83,-201 55,-49 120,-73 195,-73 75,0 140,24 195,73 55,49 83,116 83,201 z m -44,2116 0,0 -465,0 0,-1642 465,0 0,1642 z"
           id="path39"
           inkscape:connector-curvature="0"
           style="fill:#35878e;fill-rule:nonzero" /><path
           class="fil1"
           d="m 28064,26784 c 85,0 146,-8 181,-25 35,-17 53,-49 53,-97 0,-37 -23,-70 -69,-98 -46,-28 -115,-60 -209,-95 -73,-27 -139,-55 -198,-84 -59,-29 -110,-64 -151,-105 -42,-41 -74,-89 -97,-145 -23,-56 -34,-124 -34,-203 0,-154 57,-276 172,-365 114,-89 272,-134 471,-134 100,0 196,9 287,27 92,18 164,37 218,58 l -81,362 c -54,-19 -113,-35 -176,-50 -63,-15 -135,-22 -214,-22 -146,0 -218,41 -218,122 0,19 3,35 9,50 6,15 19,29 37,42 19,14 44,28 76,44 32,16 73,33 123,52 102,38 186,75 253,112 67,37 119,76 158,119 38,43 66,90 81,142 16,52 23,112 23,181 0,135 -43,242 -128,322 -85,80 -207,131 -365,154 -10,17 -19,34 -27,52 -7,18 -13,33 -17,45 67,33 112,73 137,119 25,46 37,93 37,140 0,100 -40,176 -119,228 -79,52 -183,78 -312,78 -46,0 -92,-4 -137,-11 -46,-7 -92,-17 -137,-30 l 56,-272 c 15,4 41,11 80,20 38,9 76,14 114,14 29,0 55,-6 76,-17 22,-11 34,-32 36,-61 2,-25 -8,-48 -30,-69 -22,-21 -57,-36 -105,-47 l -37,-9 c 8,-23 19,-49 31,-80 12,-30 25,-60 37,-89 -117,-8 -213,-23 -290,-44 -77,-21 -132,-38 -165,-53 l 78,-378 c 79,31 160,56 243,73 83,18 165,27 247,27 z"
           id="path41"
           inkscape:connector-curvature="0"
           style="fill:#35878e;fill-rule:nonzero" /><path
           class="fil1"
           d="m 29615,25002 c 0,85 -28,152 -83,201 -55,49 -120,73 -195,73 -75,0 -140,-24 -195,-73 -55,-49 -83,-116 -83,-201 0,-85 28,-152 83,-201 55,-49 120,-73 195,-73 75,0 140,24 195,73 55,49 83,116 83,201 z m -44,2116 0,0 -465,0 0,-1642 465,0 0,1642 z"
           id="path43"
           inkscape:connector-curvature="0"
           style="fill:#35878e;fill-rule:nonzero" /><path
           class="fil1"
           d="m 30910,26247 c 0,-150 -19,-256 -58,-318 -39,-62 -105,-94 -198,-94 -29,0 -59,2 -91,5 -31,3 -61,7 -91,11 l 0,1267 -465,0 0,-1586 c 40,-10 86,-21 139,-33 53,-11 109,-22 169,-31 59,-9 120,-17 183,-22 62,-5 124,-8 184,-8 119,0 215,15 289,45 74,30 135,66 183,108 67,-48 143,-85 229,-112 86,-27 166,-41 239,-41 131,0 239,18 323,55 84,36 151,88 201,155 50,67 84,146 103,237 19,92 28,194 28,306 l 0,927 -465,0 0,-871 c 0,-150 -19,-256 -58,-318 -39,-62 -105,-94 -198,-94 -25,0 -60,6 -105,19 -45,12 -82,28 -111,47 15,48 24,98 28,151 4,53 6,110 6,170 l 0,896 -465,0 0,-871 z"
           id="path45"
           inkscape:connector-curvature="0"
           style="fill:#35878e;fill-rule:nonzero" /><path
           class="fil1"
           d="m 16002,30427 c -44,-70 -95,-146 -155,-228 -60,-82 -124,-164 -192,-247 -69,-83 -141,-163 -216,-239 -75,-76 -150,-143 -225,-202 l 0,916 -487,0 0,-2163 487,0 0,813 c 125,-131 252,-269 382,-413 129,-144 248,-277 358,-400 l 578,0 c -147,175 -295,344 -444,506 -149,162 -306,325 -470,488 173,144 340,316 501,514 161,198 315,417 464,655 l -579,0 z"
           id="path47"
           inkscape:connector-curvature="0"
           style="fill:#35878e;fill-rule:nonzero" /><path
           class="fil1"
           d="m 18126,30371 c -79,23 -181,44 -306,64 -125,20 -256,30 -393,30 -139,0 -255,-19 -348,-56 -93,-37 -166,-90 -220,-158 -54,-68 -93,-148 -115,-242 -23,-94 -34,-197 -34,-309 l 0,-915 465,0 0,858 c 0,150 20,258 59,325 40,67 113,100 222,100 33,0 69,-2 106,-5 37,-3 71,-7 100,-11 l 0,-1267 465,0 0,1586 z"
           id="path49"
           inkscape:connector-curvature="0"
           style="fill:#35878e;fill-rule:nonzero" /><path
           class="fil1"
           d="m 19218,30458 c -135,-2 -245,-17 -329,-44 -84,-27 -151,-65 -200,-114 -49,-49 -82,-108 -100,-178 -18,-70 -27,-148 -27,-236 l 0,-1807 465,-75 0,1788 c 0,42 3,79 9,112 6,33 18,61 36,84 18,23 43,42 76,56 33,15 78,24 134,28 l -66,384 z"
           id="path51"
           inkscape:connector-curvature="0"
           style="fill:#35878e;fill-rule:nonzero" /><path
           class="fil1"
           d="m 20951,30371 c -79,23 -181,44 -306,64 -125,20 -256,30 -393,30 -139,0 -255,-19 -348,-56 -93,-37 -166,-90 -220,-158 -54,-68 -93,-148 -115,-242 -23,-94 -34,-197 -34,-309 l 0,-915 465,0 0,858 c 0,150 20,258 59,325 40,67 113,100 222,100 33,0 69,-2 106,-5 37,-3 71,-7 100,-11 l 0,-1267 465,0 0,1586 z m -1058,-1823 0,0 c -65,0 -121,-21 -169,-64 -48,-43 -72,-100 -72,-173 0,-73 24,-131 72,-173 48,-43 104,-64 169,-64 64,0 121,21 169,64 48,43 72,100 72,173 0,73 -24,131 -72,173 -48,43 -104,64 -169,64 z m 696,0 0,0 c -65,0 -121,-21 -169,-64 -48,-43 -72,-100 -72,-173 0,-73 24,-131 72,-173 48,-43 104,-64 169,-64 64,0 121,21 169,64 48,43 72,100 72,173 0,73 -24,131 -72,173 -48,43 -104,64 -169,64 z"
           id="path53"
           inkscape:connector-curvature="0"
           style="fill:#35878e;fill-rule:nonzero" /><path
           class="fil1"
           d="m 22914,29606 c 0,131 -19,250 -58,356 -39,106 -94,197 -167,272 -73,75 -162,133 -268,173 -106,41 -227,61 -362,61 -56,0 -115,-3 -176,-8 -61,-5 -122,-12 -181,-20 -59,-8 -116,-18 -170,-30 -54,-11 -102,-23 -144,-36 l 0,-2294 465,-75 0,818 c 52,-23 106,-41 162,-53 56,-12 117,-19 181,-19 117,0 220,20 309,61 89,41 164,98 225,173 60,75 106,165 137,270 31,105 47,222 47,351 z m -474,-12 0,0 c 0,-300 -110,-449 -331,-449 -48,0 -95,6 -142,19 -47,12 -85,28 -114,47 l 0,846 c 23,4 52,8 87,11 35,3 74,5 115,5 127,0 223,-44 287,-131 64,-87 97,-203 97,-346 z"
           id="path55"
           inkscape:connector-curvature="0"
           style="fill:#35878e;fill-rule:nonzero" /><path
           class="fil1"
           d="m 24674,30371 c -79,23 -181,44 -306,64 -125,20 -256,30 -393,30 -139,0 -255,-19 -348,-56 -93,-37 -166,-90 -220,-158 -54,-68 -93,-148 -115,-242 -23,-94 -34,-197 -34,-309 l 0,-915 465,0 0,858 c 0,150 20,258 59,325 40,67 113,100 222,100 33,0 69,-2 106,-5 37,-3 71,-7 100,-11 l 0,-1267 465,0 0,1586 z m -1058,-1823 0,0 c -65,0 -121,-21 -169,-64 -48,-43 -72,-100 -72,-173 0,-73 24,-131 72,-173 48,-43 104,-64 169,-64 64,0 121,21 169,64 48,43 72,100 72,173 0,73 -24,131 -72,173 -48,43 -104,64 -169,64 z m 696,0 0,0 c -65,0 -121,-21 -169,-64 -48,-43 -72,-100 -72,-173 0,-73 24,-131 72,-173 48,-43 104,-64 169,-64 64,0 121,21 169,64 48,43 72,100 72,173 0,73 -24,131 -72,173 -48,43 -104,64 -169,64 z"
           id="path57"
           inkscape:connector-curvature="0"
           style="fill:#35878e;fill-rule:nonzero" /></g></g></g></svg>