<?xml version="1.0" encoding="UTF-8" standalone="no"?>
<svg
   xmlns:dc="http://purl.org/dc/elements/1.1/"
   xmlns:cc="http://creativecommons.org/ns#"
   xmlns:rdf="http://www.w3.org/1999/02/22-rdf-syntax-ns#"
   xmlns:svg="http://www.w3.org/2000/svg"
   xmlns="http://www.w3.org/2000/svg"
   viewBox="0 0 336.74677 105.89375"
   height="105.89375"
   width="336.74677"
   xml:space="preserve"
   version="1.1"
   id="svg2"><metadata
     id="metadata8"><rdf:RDF><cc:Work
         rdf:about=""><dc:format>image/svg+xml</dc:format><dc:type
           rdf:resource="http://purl.org/dc/dcmitype/StillImage" /><dc:title></dc:title></cc:Work></rdf:RDF></metadata><defs
     id="defs6"><clipPath
       id="clipPath18"
       clipPathUnits="userSpaceOnUse"><path
         id="path20"
         d="m 188.827,665.61 c -2.788,-1.73 -4.115,-5.513 -4.522,-6.913 l 0,0 c 9.204,-5.691 15.013,-13.2 18.274,-18.509 l 0,0 c 2.157,-3.515 3.501,-6.537 4.238,-8.381 l 0,0 c 0.626,2.733 0.551,5.161 0.549,5.191 l 0,0 c -0.29,16.125 -5.557,27.341 -13.747,29.293 l 0,0 c -0.577,0.138 -1.136,0.207 -1.677,0.207 l 0,0 c -1.122,0 -2.165,-0.297 -3.115,-0.888 m 27.456,-7.945 c -4.546,-4 -5.138,-15.602 -5.364,-19.972 l 0,0 -0.042,-0.801 c -0.155,-2.664 0.074,-5.887 0.226,-7.559 l 0,0 c 10.085,8.283 13.514,20.478 13.928,22.076 l 0,0 c -0.581,6.913 -4.794,7.539 -4.962,7.56 l 0,0 c -0.136,0.01 -0.27,0.014 -0.403,0.014 l 0,0 c -1.268,0 -2.381,-0.43 -3.383,-1.318 m -42.918,-12.226 c -0.039,-2.868 1.041,-5.81 3.123,-8.508 l 0,0 c 2.179,-2.829 5.302,-5.162 9.031,-6.752 l 0,0 c 11.652,-4.951 18.228,-1.902 19.844,-0.949 l 0,0 c -7.265,17.799 -21.192,25.932 -23.274,27.072 l 0,0 c -5.555,-2.274 -8.65,-6.123 -8.724,-10.863 m 50.498,-3.107 c -1.958,-4.029 -5.52,-9.798 -11.384,-14.686 l 0,0 c 2.776,-0.549 8.678,-0.514 13.89,7.476 l 0,0 c 2.435,3.733 3.339,7.124 2.688,10.079 l 0,0 c -0.455,2.083 -1.609,3.495 -2.431,4.279 l 0,0 c -0.407,-1.464 -1.24,-4.028 -2.763,-7.148 m -10.167,-18.684 c 2.973,-2.629 9.09,-9.325 12.562,-22.18 l 0,0 c 0.832,1.084 2.035,2.92 2.664,5.175 l 0,0 c 1.145,4.12 -0.023,7.96 -3.473,11.427 l 0,0 c -4.657,4.684 -8.887,5.582 -11.449,5.582 l 0,0 c -0.104,0 -0.205,-0.001 -0.304,-0.004 m -30.643,-6.82 c -6.208,-4.037 -9.335,-8.605 -9.048,-13.215 l 0,0 c 0.264,-4.156 3.447,-8.16 8.529,-10.734 l 0,0 c 1.999,1.262 14.776,9.912 23.166,29.65 l 0,0 c -0.759,0.23 -2.297,0.587 -4.521,0.587 l 0,0 c -4.003,0 -10.225,-1.156 -18.126,-6.288 m 28.399,-0.359 -0.001,-1.146 c -0.022,-4.318 -0.082,-15.8 4.104,-19.958 l 0,0 c 1.034,-1.031 2.239,-1.527 3.681,-1.515 l 0,0 c 0.039,0 0.056,0 0.08,-0.008 l 0,0 0.035,0 c 0.166,-0.027 4.079,-0.532 5.096,5.458 l 0,0 c -0.506,1.946 -4.551,16.617 -12.58,23.059 l 0,0 c -0.19,-1.221 -0.438,-3.305 -0.415,-5.89 m -18.17,-18.541 c -3.959,-4.322 -7.243,-6.835 -8.365,-7.65 l 0,0 c 0.539,-1.789 2.908,-8.495 8.203,-8.495 l 0,0 c 6.203,0 9.987,8.597 10.025,8.681 l 0,0 c 0,0 0.01,0.027 0.016,0.034 l 0,0 0.002,0.003 c -0.006,-0.01 -0.01,-0.017 -0.01,-0.022 l 0,0 0.021,0.041 -0.011,-0.019 c 0.299,0.654 7.319,16.121 4.023,29.601 l 0,0 c -4.082,-10.222 -9.79,-17.681 -13.904,-22.174" /></clipPath><radialGradient
       id="radialGradient26"
       spreadMethod="pad"
       gradientTransform="matrix(35.573727,0,0,-36.045376,201.35645,624.14062)"
       gradientUnits="userSpaceOnUse"
       r="1"
       cy="0"
       cx="0"
       fy="0"
       fx="0"><stop
         id="stop28"
         offset="0"
         style="stop-opacity:1;stop-color:#74bb42" /><stop
         id="stop30"
         offset="1"
         style="stop-opacity:1;stop-color:#007843" /></radialGradient><clipPath
       id="clipPath38"
       clipPathUnits="userSpaceOnUse"><path
         id="path40"
         d="m 0,841.89 595.275,0 L 595.275,0 0,0 0,841.89 Z" /></clipPath></defs><g
     transform="matrix(1.25,0,0,-1.25,-216.70497,833.1225)"
     id="g10"><g
       id="g14"><g
         clip-path="url(#clipPath18)"
         id="g16"><g
           id="g22"><g
             id="g24"><path
               id="path32"
               style="fill:url(#radialGradient26);stroke:none"
               d="m 188.827,665.61 c -2.788,-1.73 -4.115,-5.513 -4.522,-6.913 l 0,0 c 9.204,-5.691 15.013,-13.2 18.274,-18.509 l 0,0 c 2.157,-3.515 3.501,-6.537 4.238,-8.381 l 0,0 c 0.626,2.733 0.551,5.161 0.549,5.191 l 0,0 c -0.29,16.125 -5.557,27.341 -13.747,29.293 l 0,0 c -0.577,0.138 -1.136,0.207 -1.677,0.207 l 0,0 c -1.122,0 -2.165,-0.297 -3.115,-0.888 m 27.456,-7.945 c -4.546,-4 -5.138,-15.602 -5.364,-19.972 l 0,0 -0.042,-0.801 c -0.155,-2.664 0.074,-5.887 0.226,-7.559 l 0,0 c 10.085,8.283 13.514,20.478 13.928,22.076 l 0,0 c -0.581,6.913 -4.794,7.539 -4.962,7.56 l 0,0 c -0.136,0.01 -0.27,0.014 -0.403,0.014 l 0,0 c -1.268,0 -2.381,-0.43 -3.383,-1.318 m -42.918,-12.226 c -0.039,-2.868 1.041,-5.81 3.123,-8.508 l 0,0 c 2.179,-2.829 5.302,-5.162 9.031,-6.752 l 0,0 c 11.652,-4.951 18.228,-1.902 19.844,-0.949 l 0,0 c -7.265,17.799 -21.192,25.932 -23.274,27.072 l 0,0 c -5.555,-2.274 -8.65,-6.123 -8.724,-10.863 m 50.498,-3.107 c -1.958,-4.029 -5.52,-9.798 -11.384,-14.686 l 0,0 c 2.776,-0.549 8.678,-0.514 13.89,7.476 l 0,0 c 2.435,3.733 3.339,7.124 2.688,10.079 l 0,0 c -0.455,2.083 -1.609,3.495 -2.431,4.279 l 0,0 c -0.407,-1.464 -1.24,-4.028 -2.763,-7.148 m -10.167,-18.684 c 2.973,-2.629 9.09,-9.325 12.562,-22.18 l 0,0 c 0.832,1.084 2.035,2.92 2.664,5.175 l 0,0 c 1.145,4.12 -0.023,7.96 -3.473,11.427 l 0,0 c -4.657,4.684 -8.887,5.582 -11.449,5.582 l 0,0 c -0.104,0 -0.205,-0.001 -0.304,-0.004 m -30.643,-6.82 c -6.208,-4.037 -9.335,-8.605 -9.048,-13.215 l 0,0 c 0.264,-4.156 3.447,-8.16 8.529,-10.734 l 0,0 c 1.999,1.262 14.776,9.912 23.166,29.65 l 0,0 c -0.759,0.23 -2.297,0.587 -4.521,0.587 l 0,0 c -4.003,0 -10.225,-1.156 -18.126,-6.288 m 28.399,-0.359 -0.001,-1.146 c -0.022,-4.318 -0.082,-15.8 4.104,-19.958 l 0,0 c 1.034,-1.031 2.239,-1.527 3.681,-1.515 l 0,0 c 0.039,0 0.056,0 0.08,-0.008 l 0,0 0.035,0 c 0.166,-0.027 4.079,-0.532 5.096,5.458 l 0,0 c -0.506,1.946 -4.551,16.617 -12.58,23.059 l 0,0 c -0.19,-1.221 -0.438,-3.305 -0.415,-5.89 m -18.17,-18.541 c -3.959,-4.322 -7.243,-6.835 -8.365,-7.65 l 0,0 c 0.539,-1.789 2.908,-8.495 8.203,-8.495 l 0,0 c 6.203,0 9.987,8.597 10.025,8.681 l 0,0 c 0,0 0.01,0.027 0.016,0.034 l 0,0 0.002,0.003 c -0.006,-0.01 -0.01,-0.017 -0.01,-0.022 l 0,0 0.021,0.041 -0.011,-0.019 c 0.299,0.654 7.319,16.121 4.023,29.601 l 0,0 c -4.082,-10.222 -9.79,-17.681 -13.904,-22.174" /></g></g></g></g><g
       id="g34"><g
         id="g42"
         transform="translate(359.0244,607.7754)"><path
           d="m 0,0 c -1.931,-1.547 -4.256,-2.576 -6.771,-2.576 -3.486,0 -5.676,1.479 -5.676,5.154 0,5.423 5.095,9.03 12.447,7.095 L 0,0 Z m 7.742,15.479 c 0,9.613 -4.285,12.71 -13.573,12.71 -3.676,0 -6.684,-0.736 -10.036,-2.221 l -0.904,-4.875 c 1.19,0.63 2.462,1.123 3.777,1.496 2.185,0.617 4.486,0.89 6.739,0.89 C 0.322,23.479 0,18.318 0,13.35 -9.033,16.125 -20.514,12.642 -20.251,1.61 c 0.129,-6.254 4.708,-9.543 10.45,-9.672 3.932,-0.065 7.261,1.486 9.971,4.259 0,0 0.17,-2.19 0.538,-3.424 l 7.675,0 C 7.815,-5.96 7.742,-1.998 7.742,0.713 l 0,14.766 z M -52.896,0 c -1.933,-1.547 -4.254,-2.576 -6.774,-2.576 -3.483,0 -5.678,1.479 -5.678,5.154 0,5.423 5.098,9.03 12.452,7.095 l 0,-9.673 z m 7.74,15.479 c 0,9.613 -4.321,12.71 -13.608,12.71 -3.679,0 -6.651,-0.774 -9.998,-2.26 l -0.905,-4.836 c 3.159,1.673 6.898,2.386 10.515,2.386 6.577,0 6.256,-5.161 6.256,-10.129 -9.032,2.775 -20.519,-0.708 -20.257,-11.74 0.132,-6.254 4.712,-9.543 10.452,-9.672 3.937,-0.065 7.224,1.486 9.937,4.259 l 0.577,-3.424 7.675,0 c -0.516,1.934 -0.644,5.229 -0.644,7.94 l 0,14.766 z m -32.835,2.813 -15.843,0.543 c 0.339,-1.316 0.619,-3.582 0.714,-5.741 l 6.511,0 c 0.024,-0.713 0.038,-1.488 0.038,-2.323 l 0,-12.19 c -1.998,-0.772 -4.38,-1.157 -7.284,-1.157 -5.548,0 -9.628,1.865 -12.723,5.481 -3.163,3.611 -4.709,8.573 -4.709,14.766 0,5.681 1.743,10.388 5.224,14.066 3.483,3.611 7.625,5.48 12.913,5.48 4.128,0 8.196,-0.774 12.063,-2.324 l 1.234,6.198 c -3.749,1.292 -6.276,2.189 -13.297,2.189 -8.192,0 -14.773,-2.45 -19.734,-7.354 -5.031,-4.964 -7.85,-11.366 -7.85,-19.172 0,-7.741 2.622,-13.785 7.138,-18.301 4.579,-4.516 10.902,-6.775 19.093,-6.775 5.548,0 11.028,1.164 16.512,3.422 -0.386,1.479 -0.647,4.45 -0.647,8.834 l 0,6.257 c 0,3.933 0.064,6.228 0.647,8.101 m 56.214,9.962 c -3.424,0 -6.39,-1.809 -8.777,-5.42 0,2.643 -0.503,5.029 -3.082,5.029 -1.49,0 -3.798,-0.986 -6.214,-2.254 1.366,-0.794 2.01,-2.966 2.01,-6.901 l 0,-17.933 c 0,-2.293 0,-4.405 -0.124,-6.048 -0.059,-0.761 -0.141,-1.422 -0.265,-1.954 l 8.453,0 c -0.255,0.59 -0.453,2.969 -0.453,8.064 l 0,17.351 c 2.387,2.711 4.836,4.001 7.288,4.001 0.775,0 1.355,0 1.932,-0.067 l 1.101,5.937 c -0.584,0.13 -1.229,0.195 -1.869,0.195 m 65.04,-12.387 c 0,2.353 -0.162,4.27 -0.495,5.777 -0.227,1.009 -0.539,1.831 -0.923,2.479 -1.741,2.775 -4.579,4.131 -8.452,4.131 -3.935,0 -8.124,-2.325 -11.09,-5.357 -0.067,2.767 -0.636,4.966 -3.133,4.966 -1.37,0 -3.218,-0.747 -6.218,-2.254 1.302,-0.838 1.996,-2.58 1.996,-6.901 l 0,-17.613 c 0,-4.063 -0.067,-6.898 -0.386,-8.322 l 8.446,0 c -0.159,0.711 -0.269,1.874 -0.347,3.338 -0.067,1.492 -0.102,3.293 -0.102,5.244 l 0,17.027 c 2.451,2.194 5.546,4.066 8.187,4.066 3.424,0 4.84,-2.13 4.84,-6.776 l 0,-13.544 c 0,-2.019 0,-3.737 -0.025,-5.167 -0.025,-1.854 -0.033,-3.489 -0.311,-4.188 l 8.523,0 c -0.263,0.634 -0.51,3.017 -0.51,8.711 l 0,14.383 z m 21.68,-18.253 c -2.964,0 -4.517,1.804 -4.517,5.484 l 0,19.417 8.777,0 0,4.772 -8.777,0 0,8.9 -7.094,-0.518 -0.58,-8.321 -5.35,-0.642 0,-4.191 5.35,0 0,-19.162 c 0,-3.872 0.58,-6.578 1.677,-8.059 1.609,-2.129 4.128,-3.227 7.675,-3.227 2.907,0 6.006,0.837 9.229,2.516 l -0.649,4.515 c -1.997,-1.034 -3.862,-1.484 -5.741,-1.484 m 9.823,-4.841 8.971,0 C 83.175,-6.144 83.09,-2.71 83.09,1.61 l 0,18.836 c 0,3.935 0.383,7.486 -3.356,7.486 -1.208,0 -3.551,-0.866 -6.317,-2.323 1.442,-0.964 1.998,-2.882 1.998,-7.028 l 0,-17.031 c 0,-4.913 -0.027,-7.628 -0.649,-8.777 m 4.064,38.345 c 1.255,0 2.334,0.377 3.223,1.33 0.882,0.881 1.323,1.958 1.323,3.221 0,1.329 -0.441,2.404 -1.323,3.224 -0.889,0.948 -1.968,1.327 -3.223,1.327 -1.328,0 -2.409,-0.444 -3.227,-1.327 -0.584,-0.547 -0.983,-1.206 -1.183,-1.976 -0.098,-0.39 -0.15,-0.803 -0.15,-1.248 0,-1.263 0.449,-2.34 1.333,-3.221 0.818,-0.888 1.899,-1.33 3.227,-1.33"
           style="fill:#231f20;fill-opacity:1;fill-rule:nonzero;stroke:none"
           id="path44" /></g></g></g></svg>