<?xml version="1.0" encoding="UTF-8" standalone="no"?>
<!-- Creator: CorelDRAW X6 -->

<svg
   xmlns:dc="http://purl.org/dc/elements/1.1/"
   xmlns:cc="http://creativecommons.org/ns#"
   xmlns:rdf="http://www.w3.org/1999/02/22-rdf-syntax-ns#"
   xmlns:svg="http://www.w3.org/2000/svg"
   xmlns="http://www.w3.org/2000/svg"
   xmlns:sodipodi="http://sodipodi.sourceforge.net/DTD/sodipodi-0.dtd"
   xmlns:inkscape="http://www.inkscape.org/namespaces/inkscape"
   xml:space="preserve"
   width="228.95633mm"
   height="59.099998mm"
   version="1.1"
   style="clip-rule:evenodd;fill-rule:evenodd;image-rendering:optimizeQuality;shape-rendering:geometricPrecision;text-rendering:geometricPrecision"
   viewBox="0 0 22895.633 5909.9998"
   id="svg2"
   inkscape:version="0.91 r13725"
   sodipodi:docname="Robotistan.svg"><metadata
     id="metadata21"><rdf:RDF><cc:Work
         rdf:about=""><dc:format>image/svg+xml</dc:format><dc:type
           rdf:resource="http://purl.org/dc/dcmitype/StillImage" /><dc:title></dc:title></cc:Work></rdf:RDF></metadata><sodipodi:namedview
     pagecolor="#ffffff"
     bordercolor="#666666"
     borderopacity="1"
     objecttolerance="10"
     gridtolerance="10"
     guidetolerance="10"
     inkscape:pageopacity="0"
     inkscape:pageshadow="2"
     inkscape:window-width="1366"
     inkscape:window-height="719"
     id="namedview19"
     showgrid="false"
     fit-margin-top="0"
     fit-margin-left="0"
     fit-margin-right="0"
     fit-margin-bottom="0"
     inkscape:zoom="0.45014485"
     inkscape:cx="204.79384"
     inkscape:cy="104.7047"
     inkscape:window-x="0"
     inkscape:window-y="1"
     inkscape:window-maximized="1"
     inkscape:current-layer="svg2" /><defs
     id="defs4"><style
       type="text/css"
       id="style6"><![CDATA[
    .fil0 {fill:#230F61}
    .fil1 {fill:#FF4400}
    .fil2 {fill:#FEFEFE;fill-rule:nonzero}
    .fil3 {fill:#FF4400;fill-rule:nonzero}
   ]]></style></defs><g
     id="Layer_x0020_1"
     transform="translate(-3402,-7545)"><metadata
       id="CorelCorpID_0Corel-Layer" /><g
       id="_770549584"><path
         class="fil0"
         d="m 3825,7545 19464,0 c 233,0 423,190 423,423 l 0,3808 c 0,233 -190,423 -423,423 l -19464,0 c -233,0 -423,-190 -423,-423 l 0,-3808 c 0,-233 190,-423 423,-423 z"
         id="path11"
         inkscape:connector-curvature="0"
         style="fill:#230f61" /><path
         class="fil1"
         d="m 24175,9036 c -130,-35 -233,-120 -294,-230 l 0,553 1673,448 c 192,51 390,-63 442,-255 l 219,-819 c 51,-192 -63,-390 -255,-442 l -1853,-497 c -78,-21 -157,-14 -226,14 l 0,533 c 104,-187 325,-287 541,-230 255,68 406,330 338,585 -68,255 -330,406 -585,338 z m -294,2239 139,0 c 67,0 122,55 122,122 l 0,442 c 0,67 -55,122 -122,122 l -139,0 0,-104 75,0 c 41,0 41,-62 0,-62 l -75,0 0,-76 75,0 c 41,0 41,-62 0,-62 l -75,0 0,-76 75,0 c 41,0 41,-62 0,-62 l -75,0 0,-76 75,0 c 41,0 41,-62 0,-62 l -75,0 0,-104 z m 487,0 183,0 -670,-180 0,-1636 276,74 c 8,2 17,4 25,6 l 841,225 c 9,2 17,5 25,7 l 1110,297 c 98,19 155,150 136,217 -18,67 -28,64 -53,86 26,20 38,54 30,87 l -79,294 c -7,25 -24,44 -45,54 13,37 12,88 4,117 -8,30 -13,37 -23,53 l 28,8 c 28,8 45,37 38,65 l -85,319 c -8,28 -37,45 -65,38 l -80,-21 c 0,4 1,8 1,12 l 0,442 c 0,67 -55,122 -122,122 l -1475,0 c -67,0 -122,-55 -122,-122 l 0,-442 c 0,-67 55,-122 122,-122 z m 1132,0 88,0 c -11,-13 -16,-31 -12,-49 l 85,-319 c 8,-28 37,-45 65,-38 l 28,7 c 0,-19 -1,-27 7,-57 8,-30 33,-74 62,-100 -14,-19 -19,-45 -13,-69 l 79,-294 c 9,-33 37,-56 69,-61 l -643,-172 194,992 c 12,61 7,113 -10,158 z m 327,0 16,0 c 9,0 18,1 26,3 l 55,-207 c -7,-1 -13,-3 -20,-4 -7,-2 -13,-4 -20,-6 l -58,215 z m -1396,104 509,0 231,62 -740,0 c -41,0 -41,-62 0,-62 z m 995,0 352,0 c 41,0 41,62 0,62 l -470,0 c 42,-11 83,-32 117,-62 z m -995,138 1347,0 c 41,0 41,62 0,62 l -1347,0 c -41,0 -41,-62 0,-62 z m 0,138 1347,0 c 41,0 41,62 0,62 l -1347,0 c -41,0 -41,-62 0,-62 z m 0,138 1347,0 c 41,0 41,62 0,62 l -1347,0 c -41,0 -41,-62 0,-62 z m -311,-2874 c -38,-10 -73,-28 -102,-50 1,-1 2,-1 3,-2 53,-31 71,-99 41,-152 -31,-53 -99,-71 -152,-41 -2,1 -4,3 -7,4 -7,-40 -5,-82 6,-124 42,-159 206,-253 364,-210 159,43 253,206 210,364 -42,159 -206,253 -364,210 z m 1107,297 c -38,-10 -73,-28 -102,-50 1,-1 2,-1 3,-2 53,-31 71,-99 41,-152 -31,-53 -99,-71 -152,-41 -2,1 -4,3 -7,4 -6,-40 -5,-82 6,-124 43,-159 206,-253 364,-210 159,43 253,206 210,364 -43,159 -206,253 -364,210 z m 925,922 c 57,15 91,74 75,130 -15,57 -74,91 -130,75 -57,-15 -91,-74 -75,-130 15,-57 74,-91 130,-75 z m -624,-1729 c -255,-68 -517,83 -585,338 -68,255 83,517 338,585 255,68 517,-83 585,-338 68,-255 -83,-517 -338,-585 z"
         id="path13"
         inkscape:connector-curvature="0"
         style="fill:#ff4400" /><path
         class="fil2"
         d="m 4671,10768 379,0 0,-494 c 0,-319 155,-472 407,-472 l 20,0 0,-397 c -225,-10 -349,110 -427,294 l 0,-269 -379,0 0,1337 z m 1580,30 c 417,0 726,-312 726,-696 l 0,-5 c 0,-384 -307,-691 -721,-691 -417,0 -726,312 -726,696 l 0,5 c 0,384 307,691 721,691 z m 5,-327 c -210,0 -352,-172 -352,-369 l 0,-5 c 0,-197 130,-364 347,-364 210,0 352,172 352,369 l 0,5 c 0,197 -130,364 -347,364 z m 1710,322 c 317,0 609,-245 609,-691 l 0,-5 c 0,-447 -297,-691 -609,-691 -197,0 -324,92 -417,217 l 0,-676 -379,0 0,1822 379,0 0,-175 c 90,107 215,200 417,200 z m -97,-322 c -177,0 -324,-147 -324,-369 l 0,-5 c 0,-222 147,-369 324,-369 177,0 327,147 327,369 l 0,5 c 0,225 -150,369 -327,369 z m 1560,327 c 417,0 726,-312 726,-696 l 0,-5 c 0,-384 -307,-691 -721,-691 -417,0 -726,312 -726,696 l 0,5 c 0,384 307,691 721,691 z m 5,-327 c -210,0 -352,-172 -352,-369 l 0,-5 c 0,-197 130,-364 347,-364 210,0 352,172 352,369 l 0,5 c 0,197 -130,364 -347,364 z m 1365,319 c 127,0 220,-30 299,-77 l 0,-304 c -55,30 -117,47 -187,47 -85,0 -122,-42 -122,-130 l 0,-571 314,0 0,-324 -314,0 0,-342 -379,0 0,342 -160,0 0,324 160,0 0,634 c 0,309 157,402 389,402 z m 509,-1507 399,0 0,-337 -399,0 0,337 z m 10,1485 379,0 0,-1337 -379,0 0,1337 z m 1123,25 c 289,0 512,-135 512,-432 l 0,-5 c 0,-245 -217,-334 -404,-397 -145,-50 -272,-85 -272,-160 l 0,-5 c 0,-52 47,-92 140,-92 97,0 230,47 362,125 l 145,-262 c -145,-97 -329,-155 -499,-155 -269,0 -489,152 -489,424 l 0,5 c 0,260 212,347 399,402 147,45 277,72 277,155 l 0,5 c 0,60 -50,100 -160,100 -125,0 -277,-55 -422,-160 l -162,250 c 177,140 387,202 574,202 z m 1128,-3 c 127,0 220,-30 299,-77 l 0,-304 c -55,30 -117,47 -187,47 -85,0 -122,-42 -122,-130 l 0,-571 314,0 0,-324 -314,0 0,-342 -379,0 0,342 -160,0 0,324 160,0 0,634 c 0,309 157,402 389,402 z m 881,3 c 185,0 312,-67 404,-170 l 0,145 367,0 0,-776 c 0,-180 -45,-327 -145,-427 -95,-95 -245,-150 -452,-150 -227,0 -372,42 -519,107 l 95,289 c 122,-45 225,-72 369,-72 190,0 287,87 287,245 l 0,22 c -95,-32 -192,-55 -327,-55 -317,0 -539,135 -539,427 l 0,5 c 0,264 207,409 459,409 z m 115,-262 c -122,0 -207,-60 -207,-162 l 0,-5 c 0,-120 100,-185 262,-185 92,0 177,20 242,50 l 0,67 c 0,137 -120,235 -297,235 z m 901,237 379,0 0,-746 c 0,-180 92,-272 237,-272 145,0 230,92 230,272 l 0,746 379,0 0,-866 c 0,-307 -167,-497 -454,-497 -192,0 -304,102 -392,215 l 0,-190 -379,0 0,1337 z m 1458,0 404,0 0,-399 -404,0 0,399 z m 1228,30 c 267,0 417,-102 546,-245 l -222,-225 c -92,87 -180,142 -307,142 -207,0 -339,-165 -339,-369 l 0,-5 c 0,-197 135,-364 324,-364 135,0 220,57 304,147 l 232,-250 c -125,-140 -282,-225 -534,-225 -409,0 -701,314 -701,696 l 0,5 c 0,382 294,691 696,691 z m 1330,0 c 417,0 726,-312 726,-696 l 0,-5 c 0,-384 -307,-691 -721,-691 -417,0 -726,312 -726,696 l 0,5 c 0,384 307,691 721,691 z m 5,-327 c -210,0 -352,-172 -352,-369 l 0,-5 c 0,-197 130,-364 347,-364 210,0 352,172 352,369 l 0,5 c 0,197 -130,364 -347,364 z m 914,297 379,0 0,-746 c 0,-180 87,-272 230,-272 142,0 222,92 222,272 l 0,746 379,0 0,-746 c 0,-180 87,-272 230,-272 142,0 222,92 222,272 l 0,746 379,0 0,-871 c 0,-322 -170,-492 -452,-492 -182,0 -322,75 -439,212 -70,-135 -202,-212 -377,-212 -192,0 -307,102 -394,215 l 0,-190 -379,0 0,1337 z"
         id="path15"
         inkscape:connector-curvature="0"
         style="fill:#fefefe;fill-rule:nonzero" /><path
         class="fil3"
         d="m 5485,12574 c 0,-6 -2,-9 -8,-9 l -94,0 c -9,0 -14,6 -17,17 l -68,201 c -1,3 -2,6 -2,7 0,6 5,10 11,10 l 109,0 c 9,0 16,-5 18,-17 l 50,-201 c 1,-3 1,-6 1,-8 z m -202,0 c 0,-6 -2,-9 -8,-9 l -93,0 c -9,0 -13,6 -17,17 l -69,201 c -1,3 -2,6 -2,7 0,6 5,10 11,10 l 109,0 c 9,0 16,-5 18,-17 l 50,-201 c 1,-3 1,-6 1,-8 z m 893,125 0,-95 c 0,-10 -9,-17 -19,-17 l -456,0 c -10,0 -18,7 -18,17 l 0,95 c 0,10 8,17 18,17 l 150,0 0,535 c 0,10 8,18 18,18 l 120,0 c 10,0 18,-8 18,-18 l 0,-535 149,0 c 10,0 19,-7 19,-17 z m 664,552 0,-489 c 0,-10 -9,-19 -19,-19 l -111,0 c -10,0 -18,9 -18,19 l 0,362 c -31,17 -60,29 -86,29 -56,0 -68,-21 -68,-85 l 0,-306 c 0,-10 -8,-19 -18,-19 l -111,0 c -10,0 -19,9 -19,19 l 0,306 c 0,116 29,209 163,209 59,0 99,-12 150,-48 l 0,22 c 0,10 8,18 18,18 l 103,0 c 10,0 18,-8 18,-18 l 0,0 z m -63,-586 0,-85 c 0,-10 -10,-18 -20,-18 l -86,0 c -10,0 -19,8 -19,18 l 0,85 c 0,10 9,18 19,18 l 86,0 c 10,0 20,-8 20,-18 z m -199,0 0,-85 c 0,-10 -9,-18 -19,-18 l -86,0 c -10,0 -20,8 -20,18 l 0,85 c 0,10 10,18 20,18 l 86,0 c 10,0 19,-8 19,-18 z m 814,176 0,-87 c 0,-10 -8,-18 -18,-18 -44,0 -90,16 -124,44 l 0,-18 c 0,-10 -8,-18 -18,-18 l -109,0 c -10,0 -18,8 -18,18 l 0,489 c 0,10 9,19 19,19 l 111,0 c 10,0 18,-9 18,-19 l 0,-359 c 34,-18 73,-32 118,-32 l 7,0 c 8,0 14,-9 14,-17 z m 685,-88 c 0,-6 -6,-10 -14,-10 l -131,0 c -7,0 -17,3 -24,14 l -140,210 0,-384 c 0,-10 -8,-18 -18,-18 l -111,0 c -10,0 -19,8 -19,18 l 0,667 c 0,10 9,19 19,19 l 111,0 c 10,0 18,-9 18,-19 l 0,-209 132,216 c 7,11 13,13 23,13 l 139,0 c 7,0 12,-6 12,-12 0,-3 0,-6 -2,-7 l -170,-255 171,-232 c 3,-4 4,-6 4,-9 z m 391,-88 0,-85 c 0,-10 -8,-18 -18,-18 l -119,0 c -10,0 -18,8 -18,18 l 0,85 c 0,10 8,18 18,18 l 119,0 c 10,0 18,-8 18,-18 z m -4,586 0,-490 c 0,-10 -8,-18 -18,-18 l -112,0 c -10,0 -18,8 -18,18 l 0,490 c 0,10 8,18 18,18 l 112,0 c 10,0 18,-8 18,-18 z m 735,-491 c 0,-9 -8,-17 -17,-17 l -122,0 c -10,0 -17,8 -19,17 l -85,363 c 0,0 -1,0 -4,0 -1,0 -2,0 -4,0 l -1,0 c -6,0 -8,-5 -11,-17 l -83,-345 c -2,-9 -8,-17 -17,-17 l -122,0 c -13,0 -18,6 -18,15 0,2 0,4 1,6 l 121,413 c 23,80 51,85 85,85 l 14,0 -8,28 c -11,37 -28,48 -61,48 -30,0 -85,-6 -115,-7 -1,0 -1,0 -2,0 -10,0 -18,7 -18,17 l 0,74 c 0,10 9,13 19,17 23,7 77,15 111,15 135,0 173,-51 201,-150 l 154,-541 c 0,-2 1,-3 1,-5 z m 655,271 0,-53 c 0,-139 -76,-242 -227,-242 -146,0 -232,94 -232,242 l 0,64 c 0,177 119,236 231,236 80,0 130,-7 188,-22 16,-4 19,-10 19,-25 l 0,-70 c 0,-10 -7,-15 -17,-15 -1,0 -2,0 -3,0 -37,4 -118,8 -176,8 -73,0 -95,-48 -95,-100 l 0,-2 293,0 c 12,0 19,-8 19,-22 z m -145,-70 -167,0 0,-4 c 0,-67 34,-102 85,-102 51,0 83,34 83,102 l 0,4 z m 550,-386 c 0,-6 -5,-10 -11,-10 l -109,0 c -9,0 -16,5 -18,17 l -50,201 c -1,3 -1,6 -1,8 0,6 2,9 8,9 l 93,0 c 9,0 13,-6 17,-17 l 69,-201 c 1,-3 2,-6 2,-7 z m 681,675 0,-306 c 0,-116 -29,-209 -163,-209 -59,0 -99,12 -150,48 l 0,-22 c 0,-10 -8,-18 -18,-18 l -103,0 c -10,0 -18,8 -18,18 l 0,489 c 0,10 9,19 19,19 l 111,0 c 10,0 18,-9 18,-19 l 0,-362 c 31,-17 60,-29 86,-29 56,0 68,21 68,85 l 0,306 c 0,10 8,19 18,19 l 111,0 c 10,0 19,-9 19,-19 z m 419,-585 0,-85 c 0,-10 -8,-18 -18,-18 l -119,0 c -10,0 -18,8 -18,18 l 0,85 c 0,10 8,18 18,18 l 119,0 c 10,0 18,-8 18,-18 z m -4,586 0,-490 c 0,-10 -8,-18 -18,-18 l -112,0 c -10,0 -18,8 -18,18 l 0,490 c 0,10 8,18 18,18 l 112,0 c 10,0 18,-8 18,-18 z m 718,-1 0,-306 c 0,-116 -29,-209 -163,-209 -59,0 -99,12 -150,48 l 0,-22 c 0,-10 -8,-18 -18,-18 l -103,0 c -10,0 -18,8 -18,18 l 0,489 c 0,10 9,19 19,19 l 111,0 c 10,0 18,-9 18,-19 l 0,-362 c 31,-17 60,-29 86,-29 56,0 68,21 68,85 l 0,306 c 0,10 8,19 18,19 l 111,0 c 10,0 19,-9 19,-19 z m 1672,6 0,-637 c 0,-19 -14,-32 -33,-32 l -86,0 c -19,0 -32,9 -40,25 l -141,262 c -4,7 -6,12 -10,12 -4,0 -6,-5 -10,-12 l -141,-262 c -8,-16 -21,-25 -40,-25 l -86,0 c -19,0 -33,12 -33,31 l 0,638 c 0,10 8,13 16,13 l 121,0 c 8,0 15,-8 15,-18 l 0,-383 c 0,-6 3,-7 5,-7 3,0 5,2 7,6 l 83,152 c 6,11 16,16 28,16 l 73,0 c 12,0 21,-5 28,-16 l 83,-152 c 3,-5 5,-6 7,-6 2,0 5,1 5,7 l 0,383 c 0,10 6,18 15,18 l 121,0 c 7,0 16,-3 16,-13 z m 678,-6 0,-328 c 0,-134 -83,-187 -215,-187 -61,0 -125,11 -159,19 -11,3 -17,10 -17,20 l 0,74 c 0,12 7,17 17,17 l 5,0 c 28,-3 94,-6 152,-6 43,0 69,11 69,63 l 0,33 -50,0 c -157,0 -226,48 -226,155 l 0,8 c 0,119 77,158 157,158 55,0 92,-16 128,-41 l 0,15 c 0,10 8,18 18,18 l 103,0 c 10,0 18,-8 18,-18 l 0,0 z m -146,-106 c -22,11 -48,20 -75,20 -39,0 -58,-7 -58,-46 l 0,-8 c 0,-45 17,-67 81,-67 l 52,0 0,101 z m 866,-392 c 0,-6 -6,-10 -14,-10 l -131,0 c -7,0 -17,3 -24,14 l -140,210 0,-384 c 0,-10 -8,-18 -18,-18 l -111,0 c -10,0 -19,8 -19,18 l 0,667 c 0,10 9,19 19,19 l 111,0 c 10,0 18,-9 18,-19 l 0,-209 132,216 c 7,11 13,13 23,13 l 139,0 c 7,0 12,-6 12,-12 0,-3 0,-6 -2,-7 l -170,-255 171,-232 c 3,-4 4,-6 4,-9 z m 644,277 0,-53 c 0,-139 -76,-242 -227,-242 -146,0 -232,94 -232,242 l 0,64 c 0,177 119,236 231,236 80,0 130,-7 188,-22 16,-4 19,-10 19,-25 l 0,-70 c 0,-10 -7,-15 -17,-15 -1,0 -2,0 -3,0 -37,4 -118,8 -176,8 -73,0 -95,-48 -95,-100 l 0,-2 293,0 c 12,0 19,-8 19,-22 z m -145,-70 -167,0 0,-4 c 0,-67 34,-102 85,-102 51,0 83,34 83,102 l 0,4 z m 683,-119 0,-87 c 0,-10 -8,-18 -18,-18 -44,0 -90,16 -124,44 l 0,-18 c 0,-10 -8,-18 -18,-18 l -109,0 c -10,0 -18,8 -18,18 l 0,489 c 0,10 9,19 19,19 l 111,0 c 10,0 18,-9 18,-19 l 0,-359 c 34,-18 73,-32 118,-32 l 7,0 c 8,0 14,-9 14,-17 z m 1637,415 0,-637 c 0,-19 -14,-32 -33,-32 l -86,0 c -19,0 -32,9 -40,25 l -141,262 c -4,7 -6,12 -10,12 -4,0 -6,-5 -10,-12 l -141,-262 c -8,-16 -21,-25 -40,-25 l -86,0 c -19,0 -33,12 -33,31 l 0,638 c 0,10 8,13 16,13 l 121,0 c 8,0 15,-8 15,-18 l 0,-383 c 0,-6 3,-7 5,-7 3,0 5,2 7,6 l 83,152 c 6,11 16,16 28,16 l 73,0 c 12,0 21,-5 28,-16 l 83,-152 c 3,-5 5,-6 7,-6 2,0 5,1 5,7 l 0,383 c 0,10 6,18 15,18 l 121,0 c 7,0 16,-3 16,-13 z m 678,-6 0,-328 c 0,-134 -83,-187 -215,-187 -61,0 -125,11 -159,19 -11,3 -17,10 -17,20 l 0,74 c 0,12 7,17 17,17 l 5,0 c 28,-3 94,-6 152,-6 43,0 69,11 69,63 l 0,33 -50,0 c -157,0 -226,48 -226,155 l 0,8 c 0,119 77,158 157,158 55,0 92,-16 128,-41 l 0,15 c 0,10 8,18 18,18 l 103,0 c 10,0 18,-8 18,-18 l 0,0 z m -146,-106 c -22,11 -48,20 -75,20 -39,0 -58,-7 -58,-46 l 0,-8 c 0,-45 17,-67 81,-67 l 52,0 0,101 z m 697,-304 0,-87 c 0,-10 -8,-18 -18,-18 -44,0 -90,16 -124,44 l 0,-18 c 0,-10 -8,-18 -18,-18 l -109,0 c -10,0 -18,8 -18,18 l 0,489 c 0,10 9,19 19,19 l 111,0 c 10,0 18,-9 18,-19 l 0,-359 c 34,-18 73,-32 118,-32 l 7,0 c 8,0 14,-9 14,-17 z m 685,-88 c 0,-6 -6,-10 -14,-10 l -131,0 c -7,0 -17,3 -24,14 l -140,210 0,-384 c 0,-10 -8,-18 -18,-18 l -111,0 c -10,0 -19,8 -19,18 l 0,667 c 0,10 9,19 19,19 l 111,0 c 10,0 18,-9 18,-19 l 0,-209 132,216 c 7,11 13,13 23,13 l 139,0 c 7,0 12,-6 12,-12 0,-3 0,-6 -2,-7 l -170,-255 171,-232 c 3,-4 4,-6 4,-9 z m 644,277 0,-53 c 0,-139 -76,-242 -227,-242 -146,0 -232,94 -232,242 l 0,64 c 0,177 119,236 231,236 80,0 130,-7 188,-22 16,-4 19,-10 19,-25 l 0,-70 c 0,-10 -7,-15 -17,-15 -1,0 -2,0 -3,0 -37,4 -118,8 -176,8 -73,0 -95,-48 -95,-100 l 0,-2 293,0 c 12,0 19,-8 19,-22 z m -145,-70 -167,0 0,-4 c 0,-67 34,-102 84,-102 51,0 83,34 83,102 l 0,4 z m 685,291 0,-72 c 0,-10 -7,-16 -19,-16 l -45,0 c -28,0 -30,-6 -30,-43 l 0,-267 75,0 c 10,0 18,-8 18,-18 l 0,-74 c 0,-10 -8,-18 -18,-18 l -75,0 0,-97 c 0,-9 -7,-16 -17,-16 -1,0 -2,0 -3,0 l -112,19 c -10,2 -18,8 -18,18 l 0,75 -73,0 c -10,0 -19,9 -19,19 l 0,61 c 0,10 9,17 19,19 l 73,12 0,266 c 0,130 53,157 154,157 27,0 45,-3 73,-7 11,-2 17,-9 17,-18 z m 392,-587 0,-85 c 0,-10 -8,-18 -18,-18 l -119,0 c -10,0 -18,8 -18,18 l 0,85 c 0,10 8,18 18,18 l 119,0 c 10,0 18,-8 18,-18 z m -4,586 0,-490 c 0,-10 -8,-18 -18,-18 l -112,0 c -10,0 -18,8 -18,18 l 0,490 c 0,10 8,18 18,18 l 112,0 c 10,0 18,-8 18,-18 z m 625,-676 c 0,-6 -5,-10 -11,-10 l -109,0 c -9,0 -16,5 -18,17 l -50,201 c -1,3 -1,6 -1,8 0,6 2,9 8,9 l 93,0 c 9,0 13,-6 17,-17 l 69,-201 c 1,-3 2,-6 2,-7 z m -202,0 c 0,-6 -5,-10 -11,-10 l -108,0 c -9,0 -16,5 -18,17 l -51,201 c -1,3 -1,6 -1,8 0,6 2,9 8,9 l 94,0 c 9,0 14,-6 17,-17 l 68,-201 c 1,-3 2,-6 2,-7 z"
         id="path17"
         inkscape:connector-curvature="0"
         style="fill:#ff4400;fill-rule:nonzero" /></g></g></svg>